<svg width="96" height="8" viewBox="0 0 96 8" fill="none" xmlns="http://www.w3.org/2000/svg">
<g clip-path="url(#clip0_2007_967)">
<path d="M19.929 3.22388H16.7107V1.43284H20.525C20.8826 1.43284 21.9554 1.43284 22.313 1.67164C22.5513 1.91045 22.5513 2.86567 22.1938 3.10448C22.0746 3.22388 21.717 3.22388 21.4786 3.22388C21.5978 3.22388 19.929 3.22388 19.929 3.22388ZM15.1611 0.597015V4.41791C15.1611 4.77612 15.2803 4.89552 15.3995 5.13433C15.5187 5.37314 15.6379 5.61194 15.7571 5.85075C15.9955 5.97015 16.1147 6.20896 16.2339 6.44776C16.4723 6.80597 16.7107 6.56716 16.7107 6.32836V4.65672H20.1674C20.4058 4.65672 20.6442 4.65672 20.8826 4.65672C21.2402 4.65672 22.0746 4.65672 22.313 4.77612C22.5513 4.89552 22.6705 4.89552 22.6705 5.13433C22.6705 5.37314 22.6705 5.61194 22.6705 5.85075C22.6705 6.20896 22.6705 6.20896 22.4321 6.44776C22.313 6.56716 21.9554 6.56716 21.8362 6.56716C21.5978 6.56716 21.3594 6.56716 21.121 6.56716H20.4058C19.929 6.56716 19.333 6.56716 18.8562 6.56716C18.0219 6.56716 18.2603 6.56716 17.7835 6.92537L17.1875 7.52239C16.8299 7.76119 17.0683 8 17.3067 8H21.121C21.9554 8 23.1473 8 23.7433 7.52239C24.1009 7.16418 24.3393 6.56716 24.3393 6.08955V5.13433C24.2201 4.53731 24.1009 4.0597 23.6241 3.8209C23.7433 3.58209 23.8625 3.58209 23.9817 3.22388C24.1009 2.98507 24.1009 2.62687 24.1009 2.38806C24.1009 2.02985 24.1009 2.02985 23.9817 1.43284C23.7433 0.597015 22.9089 0 22.1938 0C21.9554 0 21.9554 0 21.717 0C21.5978 0 21.3594 0 21.2402 0C21.121 0 21.121 0 20.7634 0H15.6379C15.3995 0 15.1611 0.238806 15.1611 0.597015Z" fill="#06262D"/>
<path d="M27.2002 3.58207C27.2002 4.5373 27.2002 5.25371 27.3194 6.20894C27.4386 6.68655 27.5578 7.16416 27.9154 7.52237C28.3922 7.88058 28.7498 7.88058 29.4649 7.88058C30.7761 7.99998 31.4913 7.99998 32.8025 7.99998C33.8752 7.99998 35.3056 7.99998 35.9016 7.52237C36.3784 7.28356 36.6168 6.68655 36.6168 6.08953C36.6168 5.97013 36.6168 5.85073 36.6168 5.73133C36.6168 5.49252 36.6168 5.25371 36.6168 4.8955C36.6168 4.29849 36.736 3.94028 36.3784 3.94028H31.7297C31.3721 3.94028 31.4913 4.17909 31.4913 4.6567C31.4913 4.7761 31.6105 4.8955 31.8489 4.8955H35.544C35.7824 4.8955 35.6632 5.01491 35.6632 5.25371C35.6632 5.61192 35.6632 6.32834 35.4248 6.56715C35.0672 7.04476 33.756 7.04476 33.2792 7.04476C33.0408 7.04476 32.9217 7.04476 32.8025 7.04476C32.6833 7.04476 32.4449 7.04476 32.3257 7.04476C32.0873 7.04476 31.9681 7.04476 31.8489 7.04476C31.1337 7.04476 30.4185 7.04476 29.8225 7.04476C29.5841 7.04476 29.2265 6.92536 28.9882 6.80595C28.5114 6.56715 28.5114 5.85073 28.3922 5.25371C28.273 4.41789 28.273 2.62685 28.5114 1.91043C28.5114 1.79103 28.6306 1.55222 28.7498 1.43282C29.1073 1.19401 30.0609 1.07461 30.5377 1.07461C30.6569 1.07461 30.7761 1.07461 30.8953 1.07461C31.9681 1.07461 33.8752 1.07461 34.948 1.19401C35.4248 1.31341 35.544 1.43282 35.6632 1.79103C35.6632 1.91043 35.7824 2.14924 35.7824 2.26864C35.7824 2.74625 36.0208 2.62685 36.6168 2.62685C36.8552 2.62685 36.8552 2.50744 36.8552 2.26864C36.8552 1.91043 36.736 1.43282 36.6168 1.19401C36.3784 0.7164 35.9016 0.358191 35.3056 0.238788C34.8288 0.119385 34.2328 0.119385 33.6368 0.119385C33.5176 0.119385 33.3984 0.119385 33.16 0.119385H31.6105C30.5377 0.119385 28.7498 0.119385 28.1538 0.596997C27.677 0.955206 27.5578 1.31341 27.4386 1.91043C27.3194 2.26864 27.2002 2.98506 27.2002 3.58207Z" fill="#06262D"/>
<path d="M43.1725 3.9403H39.1198C39.0006 3.9403 38.8814 3.8209 38.8814 3.70149V1.19403C38.8814 1.07463 39.0006 0.955224 39.0006 0.955224H43.6492C44.2452 0.955224 45.0796 0.955224 45.318 1.19403C45.4372 1.31343 45.6756 1.55224 45.6756 1.79104C45.7948 2.14925 45.7948 3.22388 45.5564 3.46269C45.1988 3.9403 43.8876 3.9403 43.1725 3.9403ZM37.8086 0.238806V7.76119C37.8086 8 38.2854 8 38.643 8C39.0006 8 38.8814 7.76119 38.8814 7.40299V5.25373C38.8814 5.13433 38.8814 5.13433 38.8814 5.13433L39.0006 5.01493H43.6492C44.0068 5.01493 44.6028 5.01493 44.8412 5.13433C45.6756 5.37314 45.5564 6.32836 45.5564 7.04478C45.5564 7.16418 45.5564 7.8806 45.5564 8C45.6756 8.23881 46.0332 8.1194 46.3908 8.1194C46.51 8.1194 46.6292 8 46.6292 8V6.08955C46.6292 5.37313 46.51 5.01493 46.0332 4.77612C45.914 4.65672 45.7948 4.65672 45.6756 4.65672C45.5564 4.65672 45.6756 4.65672 45.5564 4.65672C45.7948 4.65672 46.1524 4.41791 46.3908 4.29851C46.8676 3.8209 46.7484 3.10448 46.8676 2.50746C46.8676 2.26866 46.7484 1.67164 46.7484 1.55224C46.6292 1.19403 46.51 1.07463 46.3908 0.835821C46.0332 0.477612 45.6756 0.358209 45.1988 0.358209L43.53 0H38.047C37.9278 0 37.8086 0.119403 37.8086 0.238806Z" fill="#06262D"/>
<path d="M85.6064 0.358209V7.64179C85.6064 8 85.964 7.8806 86.4408 7.8806C86.7984 7.8806 86.6792 7.64179 86.6792 7.28358V2.86567C86.6792 2.50746 86.6792 1.43284 86.6792 1.07463C86.9176 1.07463 87.0368 1.31343 87.156 1.43284L90.2551 4.53731C90.3743 4.65672 90.4935 4.77612 90.7319 5.01493C90.8511 5.13433 90.8511 5.13433 90.9703 5.25373L93.4734 7.64179C93.5926 7.76119 93.7118 8 94.0694 8H95.2614C95.3806 8 95.4998 7.8806 95.4998 7.8806V0.238806C95.4998 0 95.023 0 94.7846 0C94.427 0 94.5462 0.238806 94.5462 0.597015V6.80597L94.427 6.92537C94.1886 6.92537 93.5926 6.32836 93.4734 6.08955L87.752 0.358209C87.5136 0.238806 87.3944 0 87.156 0H85.8448C85.7256 0 85.6064 0.119403 85.6064 0.358209Z" fill="#06262D"/>
<path d="M77.1436 0.238686V7.76107C77.1436 7.88048 77.2627 7.88048 77.3819 7.88048H84.5338C84.8914 7.88048 84.7722 7.64167 84.7722 7.16406C84.7722 6.92525 84.4146 6.92525 84.1762 6.92525C83.5802 6.92525 78.3355 6.92525 78.2163 6.92525L78.0971 6.80585V4.41779C78.0971 4.17898 78.4547 4.29839 78.8123 4.29839H83.9378C84.5338 4.29839 84.5338 4.29839 84.5338 3.58197C84.5338 3.22376 84.2954 3.34316 83.9378 3.34316H78.8123C78.5739 3.34316 78.0971 3.46257 78.0971 3.22376V1.19391C78.0971 0.955103 78.4547 1.07451 78.8123 1.07451H84.1762C84.8914 1.07451 84.7722 1.07451 84.7722 0.358089C84.7722 0.238686 84.653 0.119283 84.5338 0.119283H77.2627C77.2627 -0.000120439 77.1436 0.119283 77.1436 0.238686Z" fill="#06262D"/>
<path d="M62.7209 4.0597H59.5026C59.3834 4.0597 59.2642 3.9403 59.2642 3.8209V1.19403C59.2642 1.07463 59.3834 0.955224 59.5026 0.955224H63.7937L65.1048 1.07463C65.3432 1.07463 65.5816 1.19403 65.7008 1.43284C65.7008 1.55224 65.82 1.67164 65.82 1.79104C65.82 2.26866 65.9392 3.22388 65.7008 3.58209C65.5816 3.8209 65.3432 3.9403 64.9856 3.9403C64.1513 4.0597 63.4361 4.0597 62.7209 4.0597ZM58.1914 0.238806V7.64179C58.1914 8 58.549 7.8806 59.0258 7.8806C59.3834 7.8806 59.2642 7.64179 59.2642 7.28358V5.37313C59.2642 4.89552 59.2642 5.01493 60.9329 5.01493C61.5289 5.01493 62.0057 5.01493 62.6017 5.01493C63.5553 5.01493 65.1048 5.13433 65.7008 4.89552C65.9392 4.77612 66.0584 4.65672 66.2968 4.53731C67.012 3.9403 67.012 3.22388 67.012 2.26866C67.012 0.358209 66.0584 0 64.1513 0H58.549C58.3106 0 58.1914 0.119403 58.1914 0.238806Z" fill="#06262D"/>
<path d="M72.1369 4.0597H69.0378C68.9186 4.0597 68.7994 4.0597 68.7994 3.8209V1.19403L68.9186 1.07463H72.8521C73.2097 1.07463 74.4017 1.07463 74.7592 1.19403C74.8784 1.19403 74.9976 1.31343 75.1168 1.43284V1.55224C75.3552 1.91045 75.3552 3.34328 75.1168 3.70149C74.7592 4.29851 73.9249 4.1791 73.2097 4.1791H72.6137C72.4945 4.0597 72.2561 4.0597 72.1369 4.0597ZM67.6074 0.238806V7.76119C67.6074 8 68.0842 8 68.4418 8C68.7994 8 68.6802 7.76119 68.6802 7.40299V5.25373C68.6802 5.13433 68.6802 5.01493 68.7994 4.89552C68.9186 4.89552 71.6601 4.89552 72.1369 4.89552C73.0905 4.89552 74.64 5.01493 75.236 4.77612C76.3088 4.41791 76.3088 3.34328 76.3088 2.38806C76.3088 1.55224 76.1896 0.835821 75.5936 0.477612C75.3552 0.119403 74.4017 0 73.5673 0H67.8458C67.7266 0 67.6074 0.119403 67.6074 0.238806Z" fill="#06262D"/>
<path d="M47.8213 0.238806V4.89552C47.8213 5.25373 47.8213 5.73134 47.9405 6.20896C47.9405 6.80597 48.2981 7.28358 48.7749 7.64179C49.1325 7.8806 49.8476 7.8806 50.2052 8C50.682 8 51.9932 8.1194 52.47 8C52.5892 8 52.5892 8 52.7084 8L54.3771 7.8806C54.4963 7.8806 54.4963 7.8806 54.6155 7.8806C54.9731 7.8806 55.5691 7.8806 55.9267 7.64179C56.8803 7.28358 56.9995 6.56716 56.9995 5.61194C56.9995 5.25373 56.9995 5.01493 56.9995 4.53731V0.238806C57.1187 0 56.6419 0 56.2843 0C55.9267 0 56.0459 0.477612 56.0459 0.955224C56.0459 1.31343 56.0459 1.79104 56.0459 2.14925C56.0459 2.38806 56.0459 2.50746 56.0459 2.74627C56.0459 3.10448 56.0459 5.01493 56.0459 5.25373C56.0459 5.49254 56.0459 5.73134 56.0459 5.97015C56.0459 6.32836 56.0459 6.68657 55.5691 6.92537C54.8539 7.16418 52.3508 7.16418 51.3972 7.16418C51.0396 7.16418 50.086 7.04478 49.7284 7.04478C49.2517 6.92537 49.0133 6.44776 49.0133 5.97015C49.0133 5.49254 49.0133 4.1791 49.0133 3.58209C49.0133 3.10448 49.0133 2.74627 49.0133 2.38806V0.477612C49.0133 0 49.0133 0.119403 48.1789 0.119403C47.9405 0 47.8213 0.119403 47.8213 0.238806Z" fill="#06262D"/>
<path d="M25.0547 6.80602C25.0547 7.28363 24.9355 7.88064 25.7699 7.88064C26.0083 7.88064 26.3659 7.88064 26.6043 7.76124C26.7235 7.52244 26.7235 7.16423 26.7235 6.68661C26.7235 6.32841 26.4851 6.0896 26.1275 6.0896C25.6507 6.0896 25.0547 6.0896 25.0547 6.80602Z" fill="#06262D"/>
<path d="M14.9228 6.56716C14.446 5.61194 13.7309 4.53731 13.2541 3.70149C13.1349 3.58209 13.1349 3.34328 13.0157 3.22388C12.6581 2.50746 12.1813 1.67164 11.8237 1.07463C11.3469 0.238806 11.3469 0 10.8701 0H9.67817C9.32058 0 9.20138 0.238806 9.08218 0.477612C8.6054 1.43284 7.89021 2.50746 7.41343 3.46269L6.81744 4.41791C6.69824 4.65672 6.57905 5.01493 6.34065 5.01493H2.04956V0.477612C2.04956 0.238806 1.81117 0 1.69197 0H0.857591C0.738394 0 0.5 0.238806 0.5 0.358209V5.97015C0.5 6.20896 0.619197 6.32836 0.738394 6.32836C0.857591 6.44776 2.52635 6.32836 2.76474 6.32836C3.71832 6.32836 4.6719 6.32836 5.62547 6.32836L5.14868 7.28358C5.14868 7.40299 5.02949 7.52239 5.02949 7.64179C5.02949 7.8806 5.26788 8 5.38708 8H6.22146C6.57905 8 6.81744 7.52239 6.93664 7.28358C7.05584 7.16418 7.05583 7.04478 7.17503 6.92537C7.17503 6.80597 7.29423 6.80597 7.29423 6.68657C7.29423 6.68657 7.41343 6.56716 7.41343 6.44776H13.1349C13.1349 6.56716 13.3733 7.04478 13.4925 7.16418C13.6117 7.40299 13.8501 7.8806 14.0885 8C14.3269 8.1194 14.8036 8.1194 15.1612 8.1194C15.3996 8.1194 15.5188 8 15.5188 7.76119C15.5188 7.40299 15.042 6.80597 14.9228 6.56716ZM8.24781 5.01493L10.155 1.67164C10.155 1.55224 10.2742 1.55224 10.2742 1.43284C10.3934 1.43284 10.3934 1.67164 10.5125 1.79104C10.6317 1.91045 10.6317 2.14925 10.7509 2.26866C10.8701 2.62687 11.1085 2.86567 11.2277 3.22388L11.9429 4.53731C11.9429 4.65672 12.1813 4.89552 12.1813 5.01493H8.24781Z" fill="#06262D"/>
</g>
<defs>
<clipPath id="clip0_2007_967">
<rect width="95" height="8" fill="white" transform="translate(0.5)"/>
</clipPath>
</defs>
</svg>
