<svg width="42" height="19" viewBox="0 0 42 19" fill="none" xmlns="http://www.w3.org/2000/svg">
<g clip-path="url(#clip0_2007_765)">
<path d="M0 19H22.6415L23.3208 16.7381H0.679245C0.679245 16.8512 0 19 0 19ZM1.35849 14.9286H12.3396L13.0189 12.6667H2.03774L1.35849 14.9286ZM6.45283 8.82143C6.22642 8.82143 6.11321 8.59524 6.11321 8.36905L6.56604 6.89881C6.67925 6.78571 6.90566 6.55952 7.13208 6.55952H15.8491C16.0755 6.55952 16.1887 6.78571 16.1887 7.0119L15.7358 8.48214C15.6226 8.70833 15.3962 8.93452 15.1698 8.93452H6.45283V8.82143ZM7.92453 4.41071C7.69811 4.41071 7.58491 4.18452 7.58491 3.95833L8.03774 2.4881C8.15094 2.2619 8.37736 2.03571 8.60377 2.03571H17.3208C17.5472 2.03571 17.6604 2.2619 17.6604 2.4881L17.2075 3.95833C17.0943 4.18452 16.8679 4.41071 16.6415 4.41071H7.92453ZM16.4151 10.5179C16.4151 10.744 16.6415 10.8571 16.9811 10.9702H26.2642C26.4906 10.9702 26.4906 11.0833 26.4906 11.1964L26.0377 12.5536C26.0377 12.6667 25.9245 12.7798 25.6981 12.8929H14.2642L13.5849 15.0417H26.4906C26.717 15.0417 26.8302 14.9286 27.0566 14.8155C27.1698 14.9286 27.283 15.0417 27.5094 15.0417H37.1321C37.3585 15.0417 37.3585 15.1548 37.3585 15.2679L36.9057 16.7381C36.9057 16.8512 36.7925 16.9643 36.566 17.0774H24.4528L23.6604 19.2262H38.1509C38.4906 19.2262 38.8302 19 38.9434 18.6607L40.4151 14.3631C40.7547 13.4583 39.9623 13.119 39.283 13.006H29.3208C29.0943 13.006 29.0943 12.8929 29.0943 12.7798L29.5472 11.3095C29.5472 11.1964 29.6604 11.0833 29.7736 11.0833H41.434L42.2264 8.82143H29.7736C29.0943 8.82143 28.7547 9.04762 28.6415 9.3869C28.5283 8.93452 28.1887 8.82143 27.7359 8.82143H18.3396C18.1132 8.82143 18.1132 8.70833 18.1132 8.59524L18.566 7.125C18.566 7.0119 18.6792 6.89881 18.7925 6.89881H30.4528L31.2453 4.52381H19.3585L20.1509 2.14881C20.4906 1.01786 19.9245 0 18.6792 0H6.22642L2.71698 10.8571H15.0566C15.5094 10.8571 16.0755 10.744 16.4151 10.5179Z" fill="#00AF41"/>
</g>
<defs>
<clipPath id="clip0_2007_765">
<rect width="42" height="19" fill="white"/>
</clipPath>
</defs>
</svg>
