<svg width="78" height="24" viewBox="0 0 78 24" fill="none" xmlns="http://www.w3.org/2000/svg">
<g clip-path="url(#clip0_2007_777)">
<path d="M35.0886 10.1537H31.2922C30.947 10.1537 30.717 10.2691 30.717 10.6153L30.2568 14.7691C30.2568 15.1153 30.3718 15.2307 30.717 15.2307H34.6285V15.8076H29.5665C28.0709 15.8076 27.6108 15.1153 27.7258 14.0768L28.0709 11.1922C28.186 10.1537 28.8762 9.46143 30.3718 9.46143H35.3187L35.0886 10.1537Z" fill="black"/>
<path d="M36.0088 15.8076L36.6991 9.46143H42.2212L42.1061 10.1537H39.9203C39.4601 10.1537 39.3451 10.2691 39.3451 10.6153L38.7699 15.8076H36.0088Z" fill="black"/>
<path d="M49.1236 10.1537H46.3625C46.0174 10.1537 45.7873 10.2691 45.7873 10.6153L45.3271 14.7691C45.3271 15.1153 45.4421 15.2307 45.7873 15.2307H48.5483C48.8935 15.2307 49.1236 15.1153 49.1236 14.7691L49.5837 10.6153C49.5837 10.2691 49.4687 10.1537 49.1236 10.1537ZM51.8846 14.0768C51.7696 15.1153 51.0793 15.8076 49.6988 15.8076H44.6368C43.1413 15.8076 42.6811 15.1153 42.7961 14.0768L43.1413 11.1922C43.2563 10.1537 43.9466 9.46143 45.4421 9.46143H50.5041C51.9997 9.46143 52.4598 10.1537 52.3448 11.1922L51.8846 14.0768Z" fill="black"/>
<path d="M76.0441 9.46143C77.3096 9.46143 77.9998 10.0383 77.8848 11.1922L77.4246 15.8076H74.7786L75.3538 10.6153C75.3538 10.2691 75.2388 10.1537 74.8936 10.1537H72.3627C71.9025 10.1537 71.7875 10.2691 71.7875 10.6153L71.2122 15.8076H68.4512L69.0264 9.46143H76.0441Z" fill="black"/>
<path d="M66.9556 14.0769C66.8406 15.2308 66.0353 15.8077 64.6547 15.8077H55.1061C53.8406 15.8077 53.1503 15.2308 53.2653 14.0769L53.8406 9.5769H56.4866L55.9114 14.7692C55.9114 15.1154 56.0264 15.2308 56.3715 15.2308H58.0972C58.5574 15.2308 58.6724 15.1154 58.6724 14.7692L59.2476 9.5769H62.0087L61.4335 14.7692C61.4335 15.1154 61.5485 15.2308 61.8937 15.2308H63.5043C63.8494 15.2308 63.9645 15.1154 63.9645 14.7692L64.5397 9.5769H67.3007L66.9556 14.0769Z" fill="black"/>
<path d="M17.3718 14.6538L17.2567 15.8077H6.67266L6.55762 14.6538H17.3718Z" fill="white"/>
<path d="M18.292 8.42296L17.6017 13.6153H6.44241L5.86719 8.42296L9.20347 10.1537L12.0796 7.96143L14.9557 10.1537L18.292 8.42296ZM16.6813 12.6922L16.9114 10.7307L14.7256 11.5383L11.9645 9.46143L9.31852 11.5383L7.13267 10.7307L7.36276 12.6922H16.6813Z" fill="white"/>
<path d="M11.9651 2.65381C17.1421 2.65381 21.2837 6.80765 21.2837 12C21.2837 17.1923 17.1421 21.3461 11.9651 21.3461C6.78808 21.3461 2.64648 17.1923 2.64648 12C2.64648 6.80765 6.90312 2.65381 11.9651 2.65381ZM19.4429 12C19.4429 7.9615 16.1067 4.61535 11.9651 4.61535C7.82347 4.61535 4.60224 7.9615 4.60224 12C4.60224 16.1538 7.93852 19.3846 11.9651 19.3846C16.1067 19.5 19.4429 16.1538 19.4429 12Z" fill="white"/>
<path d="M11.9646 0C18.6372 0 23.9292 5.42308 23.9292 12C23.9292 18.5769 18.5221 24 11.9646 24C5.40708 24 0 18.6923 0 12C0 5.42308 5.40708 0 11.9646 0ZM21.2832 12C21.2832 6.80769 17.1416 2.65385 11.9646 2.65385C6.90265 2.65385 2.64602 6.92308 2.64602 12C2.64602 17.0769 6.78761 21.3462 11.9646 21.3462C17.1416 21.3462 21.2832 17.1923 21.2832 12Z" fill="#005CB9"/>
<path d="M11.9644 4.61548C16.106 4.61548 19.3272 7.96163 19.3272 12.0001C19.3272 16.0386 15.9909 19.3847 11.9644 19.3847C7.93785 19.3847 4.60156 16.1539 4.60156 12.0001C4.60156 7.84625 7.93785 4.61548 11.9644 4.61548ZM17.6016 13.7309L18.2918 8.53856L14.9555 10.2693L12.0794 8.07702L9.20333 10.1539L5.86705 8.42317L6.44227 13.6155H17.6016V13.7309ZM17.2564 15.8078L17.3715 14.7693H6.55731L6.67236 15.8078H17.2564Z" fill="#005CB9"/>
<path d="M16.9116 10.7307L16.6815 12.6922H7.3629L7.13281 10.7307L9.31865 11.5383L12.0797 9.46143L14.7257 11.5383L16.9116 10.7307Z" fill="#005CB9"/>
</g>
<defs>
<clipPath id="clip0_2007_777">
<rect width="78" height="24" fill="white"/>
</clipPath>
</defs>
</svg>
