<svg width="174" height="23" viewBox="0 0 174 23" fill="none" xmlns="http://www.w3.org/2000/svg">
<g clip-path="url(#clip0_2007_941)">
<path d="M4.11493 22.6515H0.5C0.5 17.25 0.5 13.0682 0.5 7.49241C0.5 1.04544 9.10696 -2.78789 14.6154 2.78787C20.4682 -2.96213 29.0751 1.74241 29.0751 7.14393V22.6515H25.1159C25.1159 17.7727 25.1159 12.8939 25.1159 8.01514C25.1159 2.26514 16.6811 2.26514 16.6811 8.01514V22.6515H12.7219C12.7219 17.7727 12.7219 12.8939 12.7219 7.8409C12.7219 2.43938 4.28706 2.43938 4.28706 7.8409L4.11493 22.6515Z" fill="#D24E45"/>
<path d="M74.8645 0.348511H70.9053V17.4243H74.8645V0.348511Z" fill="#D24E45"/>
<path d="M72.7981 22.8259C73.9389 22.8259 74.8638 21.8897 74.8638 20.735C74.8638 19.5802 73.9389 18.644 72.7981 18.644C71.6573 18.644 70.7324 19.5802 70.7324 20.735C70.7324 21.8897 71.6573 22.8259 72.7981 22.8259Z" fill="#D24E45"/>
<path d="M36.3054 0.174242H32.6904V14.6364C32.6904 25.0909 49.7322 25.6136 49.7322 14.6364V0H45.773V14.4621C45.773 20.7348 36.4775 20.7348 36.4775 14.4621V0.174242H36.3054Z" fill="#D24E45"/>
<path d="M96.3813 20.7349L94.1435 17.5985C94.1435 17.5985 93.9713 17.7728 93.7992 17.7728C92.5942 18.644 91.2171 18.9925 89.6678 18.9925C87.6022 18.9925 85.7086 18.1213 84.3315 16.7273C82.9544 15.3334 82.0937 13.4167 82.0937 11.3258C82.0937 9.2349 82.9544 7.31823 84.3315 5.92429C85.7086 4.53035 87.6022 3.65914 89.6678 3.65914C91.3892 3.65914 93.1106 4.35611 94.3156 5.22732L96.5534 2.09096C94.6599 0.697018 92.2499 -0.174194 89.6678 -0.174194C86.5693 -0.174194 83.643 1.0455 81.5773 3.13641C79.5116 5.22732 78.3066 8.0152 78.3066 11.3258C78.3066 14.6364 79.5116 17.4243 81.5773 19.5152C83.643 21.6061 86.3972 22.8258 89.6678 22.8258C92.0778 23.0001 94.4877 22.1288 96.3813 20.7349Z" fill="#D24E45"/>
<path d="M62.9866 5.22736C64.0194 4.70464 64.8801 4.18191 66.0851 3.83342C63.503 -2.09082 53.8632 -0.522636 54.0353 6.09858C54.0353 12.7198 64.5358 11.6743 64.0194 16.5531C63.503 21.0834 56.9617 20.038 55.7567 16.2046L52.6582 17.9471C55.4124 25.091 67.4622 24.2198 67.6343 16.2046C67.6343 8.88646 57.4781 10.4546 57.4781 5.75009C57.306 3.13646 61.4373 1.91676 62.9866 5.22736Z" fill="#D24E45"/>
<path d="M106.366 22.6515H110.325V4.18184H114.801V0.348511H102.062V4.18184H106.366V22.6515Z" fill="#84868B"/>
<path d="M125.645 9.06063H121.514V4.18184H125.645C128.744 4.18184 128.572 9.06063 125.645 9.06063ZM128.227 16.2046V22.6515H132.187V16.0303C132.187 13.9394 131.498 12.197 129.777 11.1515C133.908 7.66669 131.67 0.348511 126.334 0.348511H117.555V22.6515H121.514V13.0682H125.301C127.194 13.0682 128.227 14.1137 128.227 16.2046Z" fill="#84868B"/>
<path d="M139.416 0.348511H135.457V22.6515H139.416V0.348511Z" fill="#84868B"/>
<path d="M173.5 18.644V22.6516H170.746C167.647 22.6516 164.721 21.7804 162.655 19.6895C160.59 17.4243 159.385 14.6364 159.385 11.5001C159.385 8.36371 160.59 5.40159 162.655 3.31068C164.721 1.21977 167.475 0.174316 170.746 0.174316H173.5V4.00765H170.746C167.131 4.00765 164.377 5.92432 163.516 9.06068H173.328V13.0683H163.344C164.033 16.5531 167.131 18.4698 170.574 18.4698L173.5 18.644Z" fill="#84868B"/>
<path d="M150.95 9.06063H146.819V4.18184H150.95C154.048 4.18184 153.876 9.06063 150.95 9.06063ZM150.778 18.644H146.819V13.0682H150.778C154.909 13.0682 155.081 18.644 150.778 18.644ZM150.778 22.6515C155.253 22.6515 157.835 20.3864 158.008 16.2046C158.008 14.1137 156.975 11.8485 155.081 11.1515C159.213 7.66669 156.975 0.348511 151.638 0.348511H142.859V22.6515H150.778Z" fill="#84868B"/>
</g>
<defs>
<clipPath id="clip0_2007_941">
<rect width="173" height="23" fill="white" transform="translate(0.5)"/>
</clipPath>
</defs>
</svg>
