<svg width="52" height="30" viewBox="0 0 52 30" fill="none" xmlns="http://www.w3.org/2000/svg">
<g clip-path="url(#clip0_2007_2249)">
<path d="M34.4902 0C34.4902 0.1 28.5137 0.1 28.5137 0.1V13.5C28.5137 13.5 35.5859 13.6 35.5859 13.5C40.7656 13.9 44.75 1.6 34.4902 0ZM33.793 11.1H32.5977L32.498 2.4C32.498 2.4 33.793 2.5 33.8926 2.4C38.7734 4.1 36.2832 11 33.793 11.1Z" fill="#080D0D"/>
<path d="M42.3594 0.199951H51.0254L50.9258 2.49995H46.6426L46.543 5.69995L50.627 5.59995V7.99995H46.543V11.1H50.9258L51.0254 13.5H42.459L42.3594 0.199951Z" fill="#080D0D"/>
<path d="M8.99023 8.19998C11.3809 8.09998 14.7676 1.49998 7.39648 0.0999756H0.523438V13.5H4.50781L4.60742 7.99998L7.49609 13.5L12.0781 13.6L8.99023 8.19998ZM5.70312 6.49998C5.30469 6.49998 4.70703 6.49998 4.70703 6.49998V2.59998L5.90234 2.69998C9.08984 4.39998 6.30078 6.49998 5.70312 6.49998Z" fill="#080D0D"/>
<path d="M27.0195 1.09998L26.4219 0.499976L24.8281 1.99998C23.6328 0.799976 22.0391 0.0999756 20.2461 0.0999756C16.5605 0.0999756 13.6719 3.09998 13.6719 6.79998C13.6719 8.39998 14.2695 9.89998 15.2656 11.1L13.4727 12.7L14.0703 13.3L15.7637 11.7C16.959 12.8 18.4531 13.5 20.2461 13.5C23.9316 13.5 26.8203 10.5 26.8203 6.79998C26.8203 5.19998 26.3223 3.79998 25.4258 2.59998L27.0195 1.09998ZM22.3379 4.19998L17.5566 8.59998C16.6602 5.79998 19.3496 -1.70002 22.3379 4.19998ZM17.9551 9.69998L22.7363 5.39998C23.6328 8.09998 20.9434 15.4 17.9551 9.69998Z" fill="#080D0D"/>
<path d="M4.30859 16.7C4.30859 16.2 4.30859 15.7 4.30859 15.1C4.20898 15.6 4.00977 16.2 3.91016 16.6L3.41211 18.1H2.71484L2.31641 16.6C2.2168 16.1 2.01758 15.6 1.91797 15.1C1.91797 15.6 1.91797 16.2 1.81836 16.7L1.71875 18.2H0.921875L1.12109 14.3H2.31641L2.71484 15.6C2.91406 16 3.01367 16.5 3.11328 17C3.21289 16.5 3.3125 16 3.51172 15.6L3.91016 14.3H5.10547L5.30469 18.2H4.4082L4.30859 16.7Z" fill="#080D0D"/>
<path d="M7.99414 14.2H7.09766V18.1H7.99414V14.2Z" fill="#080D0D"/>
<path d="M12.7754 18.1C12.5762 18.2 12.2773 18.3 11.7793 18.3C10.3848 18.3 9.6875 17.4 9.6875 16.3C9.6875 15 10.6836 14.2 11.8789 14.2C12.377 14.2 12.6758 14.3 12.875 14.4L12.6758 15C12.4766 14.9 12.2773 14.8 11.9785 14.8C11.2813 14.8 10.6836 15.2 10.6836 16.1C10.6836 16.9 11.1816 17.4 11.9785 17.4C12.2773 17.4 12.5762 17.3 12.6758 17.3C12.6758 17.4 12.7754 18.1 12.7754 18.1Z" fill="#080D0D"/>
<path d="M14.5684 14.3C14.8672 14.3 15.2656 14.2 15.7637 14.2C16.3613 14.2 16.7598 14.3 17.0586 14.5C17.2578 14.7 17.457 15 17.457 15.3C17.457 15.8 17.0586 16.1 16.7598 16.3C17.0586 16.4 17.1582 16.7 17.2578 17C17.3574 17.4 17.457 18 17.5566 18.1H16.6602C16.5605 18 16.4609 17.7 16.3613 17.2C16.2617 16.7 16.0625 16.6 15.6641 16.6H15.3652V18.2H14.4688L14.5684 14.3ZM15.4648 16H15.8633C16.2617 16 16.5605 15.8 16.5605 15.4C16.5605 15 16.3613 14.9 15.8633 14.9C15.6641 14.9 15.5645 14.9 15.4648 14.9V16Z" fill="#080D0D"/>
<path d="M22.7363 16.2C22.7363 17.5 21.9395 18.3 20.8437 18.3C19.6484 18.3 18.9512 17.4 18.9512 16.3C18.9512 15.1 19.748 14.2 20.8437 14.2C22.0391 14.2 22.7363 15.1 22.7363 16.2ZM19.8477 16.2C19.8477 17 20.2461 17.5 20.8437 17.5C21.4414 17.5 21.7402 16.9 21.7402 16.2C21.7402 15.5 21.4414 14.9 20.8437 14.9C20.2461 14.9 19.8477 15.4 19.8477 16.2Z" fill="#080D0D"/>
<path d="M24.4297 14.3C24.7285 14.3 25.127 14.2 25.625 14.2C26.123 14.2 26.5215 14.3 26.8203 14.5C27.1191 14.7 27.2187 15 27.2187 15.4C27.2187 15.8 27.1191 16.1 26.8203 16.3C26.5215 16.6 26.123 16.7 25.5254 16.7C25.4258 16.7 25.3262 16.7 25.2266 16.7V18.1H24.4297V14.3ZM25.3262 16.1C25.4258 16.1 25.5254 16.1 25.625 16.1C26.123 16.1 26.4219 15.9 26.4219 15.5C26.4219 15.1 26.2227 14.9 25.7246 14.9C25.5254 14.9 25.4258 14.9 25.3262 14.9V16.1Z" fill="#080D0D"/>
<path d="M29.9082 14.2V15.7H31.4023V14.2H32.1992V18.2H31.4023V16.5H29.9082V18.2H29.0117V14.2H29.9082Z" fill="#080D0D"/>
<path d="M37.7773 16.2C37.7773 17.5 36.9805 18.3 35.8848 18.3C34.6895 18.3 33.9922 17.4 33.9922 16.3C33.9922 15.1 34.7891 14.2 35.8848 14.2C37.0801 14.2 37.7773 15.1 37.7773 16.2ZM34.8887 16.2C34.8887 17 35.2871 17.5 35.8848 17.5C36.4824 17.5 36.7813 16.9 36.7813 16.2C36.7813 15.5 36.4824 14.9 35.8848 14.9C35.2871 14.9 34.8887 15.4 34.8887 16.2Z" fill="#080D0D"/>
<path d="M39.4707 18.2V14.3H40.4668L41.2637 15.7C41.4629 16.1 41.7617 16.6 41.8613 17C41.7617 16.5 41.7617 16 41.7617 15.4V14.3H42.5586V18.2H41.6621L40.8652 16.7C40.666 16.3 40.3672 15.8 40.168 15.3C40.168 15.8 40.168 16.4 40.168 17V18.2H39.4707Z" fill="#080D0D"/>
<path d="M47.041 16.5H45.5469V17.4H47.2402V18.2H44.75V14.2H47.1406V15H45.5469V15.8H47.041V16.5Z" fill="#080D0D"/>
<path d="M49.0332 17.2C49.2324 17.3 49.6309 17.4 50.0293 17.4C50.4277 17.4 50.627 17.2 50.627 17C50.627 16.8 50.4277 16.6 49.9297 16.5C49.2324 16.3 48.834 15.9 48.834 15.3C48.834 14.6 49.4316 14.1 50.3281 14.1C50.7266 14.1 51.125 14.2 51.3242 14.3L51.125 15C50.9258 14.9 50.7266 14.8 50.3281 14.8C49.9297 14.8 49.7305 15 49.7305 15.2C49.7305 15.4 49.9297 15.6 50.4277 15.8C51.125 16.1 51.4238 16.4 51.4238 17C51.4238 17.7 50.9258 18.2 49.8301 18.2C49.4316 18.2 48.9336 18.1 48.7344 18L49.0332 17.2Z" fill="#080D0D"/>
<path d="M28.3145 25.1C28.3145 27.8 26.123 30 23.4336 30C20.7441 30 18.5527 27.8 18.5527 25.1C18.5527 22.4 20.7441 20.2 23.4336 20.2C26.123 20.2 28.3145 22.4 28.3145 25.1Z" fill="#BF9D6E"/>
</g>
<defs>
<clipPath id="clip0_2007_2249">
<rect width="51" height="30" fill="white" transform="translate(0.523438)"/>
</clipPath>
</defs>
</svg>
