<svg width="119" height="17" viewBox="0 0 119 17" fill="none" xmlns="http://www.w3.org/2000/svg">
<g clip-path="url(#clip0_2007_2340)">
<path d="M5.80743 6.57754C5.69575 5.68409 5.24902 5.23737 4.24389 5.23737C3.46212 5.23737 2.79203 5.46073 2.79203 6.35418C2.79203 8.0294 8.71114 6.68922 8.71114 10.1513C8.71114 12.2733 7.1476 13.2784 4.35557 13.2784C2.34531 13.2784 0.111681 12.8317 0 10.263H2.56867C2.56867 11.6032 3.5738 11.7149 4.46725 11.7149C5.58407 11.7149 6.14247 11.3798 6.14247 10.7098C6.14247 8.69949 0.223363 10.5981 0.223363 6.57754C0.223363 5.23737 1.11681 3.67383 4.57893 3.67383C6.47752 3.67383 8.26442 4.4556 8.48778 6.57754H5.80743Z" fill="black"/>
<path d="M116.93 6.35418C116.819 5.12568 115.813 4.56728 114.585 4.56728C112.91 4.56728 112.016 5.12569 112.016 6.2425C112.016 8.81117 118.047 6.57754 118.047 10.4864C118.047 11.9382 116.819 13.2784 114.362 13.2784C112.463 13.2784 110.899 12.2733 110.899 10.263H111.905C112.016 11.8266 113.021 12.385 114.585 12.385C116.148 12.385 117.042 11.4915 117.042 10.4864C117.042 7.58267 111.011 9.92798 111.011 6.2425C111.011 4.34392 112.686 3.67383 114.473 3.67383C116.707 3.67383 117.824 4.56728 117.935 6.35418H116.93Z" fill="black"/>
<path d="M82.5322 4.00903H83.649L86.8878 11.8267L90.1266 4.00903H91.1317L87.3345 12.9435H86.3294L82.5322 4.00903Z" fill="black"/>
<path d="M14.8532 13.2784C11.9494 13.2784 9.71582 11.7149 9.71582 8.47612C9.71582 5.23737 11.9494 3.67383 14.8532 3.67383C17.7569 3.67383 19.9905 5.23737 19.9905 8.47612C19.8788 11.6032 17.7569 13.2784 14.8532 13.2784ZM14.8532 11.4915C16.305 11.4915 17.1985 10.4864 17.1985 8.47612C17.1985 6.46586 16.305 5.46073 14.8532 5.46073C13.4013 5.46073 12.5079 6.46586 12.5079 8.47612C12.5079 10.4864 13.4013 11.4915 14.8532 11.4915Z" fill="black"/>
<path d="M23.7878 3.78564V9.14635C23.7878 10.8216 24.2345 11.2683 25.463 11.38C26.8032 11.38 27.1382 10.8216 27.1382 9.14635V3.78564H29.8186V9.81644C29.8186 11.715 28.8134 12.9435 25.463 13.0552C22.2242 13.0552 21.1074 11.715 21.1074 9.81644V3.78564H23.7878Z" fill="black"/>
<path d="M36.9665 12.9435L34.0628 7.24779V12.9435H31.4941V4.00903H35.0679L38.0833 9.92814V4.00903H40.5403V12.9435H36.9665Z" fill="black"/>
<path d="M42.2158 4.00903H46.1247C49.5868 4.00903 51.4854 5.34921 51.4854 8.47629C51.4854 11.6034 49.5868 12.9435 46.1247 12.9435H42.2158V4.00903ZM44.7845 11.1566H46.2364C47.9116 11.1566 48.6933 10.1515 48.6933 8.47629C48.6933 6.35434 47.5765 5.79593 46.2364 5.79593H44.7845V11.1566Z" fill="black"/>
<path d="M67.1201 4.00903H70.2472C73.0392 4.00903 74.9378 5.79593 74.9378 8.47629C74.9378 11.1566 73.0392 12.9435 70.2472 12.9435H67.1201V4.00903ZM68.1253 12.0501H70.1355C72.3691 12.0501 73.821 10.4865 73.821 8.3646C73.821 6.24266 72.3691 4.67912 70.1355 4.67912H68.1253V12.0501Z" fill="black"/>
<path d="M92.0254 4.00903H93.0305V12.9435H92.0254V4.00903Z" fill="black"/>
<path d="M101.742 6.46597C101.295 5.23748 100.178 4.56739 98.838 4.56739C96.9394 4.56739 95.5992 6.35429 95.5992 8.47623C95.5992 10.4865 96.6044 12.3851 98.838 12.3851C100.29 12.3851 101.63 11.3799 101.853 10.0398H102.859C102.412 12.05 100.737 13.1668 98.838 13.1668C96.2693 13.1668 94.4824 11.0449 94.4824 8.36455C94.4824 5.6842 96.6044 3.56226 98.838 3.56226C100.848 3.56226 102.3 4.56739 102.747 6.35429L101.742 6.46597Z" fill="black"/>
<path d="M104.198 4.00903H109.894V4.90248H105.203V7.69452H109.336V8.58797H105.203V12.0501H109.894V12.9435H104.198V4.00903Z" fill="black"/>
<path d="M76.3896 3.89722H82.0854V4.90235H77.3948V7.69438H81.527V8.58783H77.3948V12.05H82.0854V12.9434H76.3896V3.89722Z" fill="black"/>
<path d="M63.2115 11.7149C63.2115 9.59294 61.5363 7.91772 59.526 7.91772C59.0793 7.91772 58.7442 8.02941 58.4092 8.14109C58.5209 8.14109 58.5209 8.14109 58.6325 8.14109C60.5311 8.14109 62.0947 9.70463 62.0947 11.7149C62.0947 13.7252 60.5311 15.2887 58.6325 15.2887C58.5209 15.2887 58.5209 15.2887 58.4092 15.2887C58.7442 15.4004 59.1909 15.5121 59.526 15.5121C61.5363 15.5121 63.2115 13.8368 63.2115 11.7149Z" fill="#F47B20"/>
<path d="M58.5209 14.0604C58.4092 14.0604 58.4092 14.0604 58.5209 14.0604C58.6325 14.172 58.8559 14.172 59.1909 14.172C60.4194 14.172 61.5363 13.0552 61.5363 11.715C61.5363 10.3749 60.5311 9.25806 59.1909 9.25806C58.9676 9.25806 58.7442 9.25806 58.4092 9.36974C58.5209 9.36974 58.5209 9.36974 58.5209 9.36974C59.7494 9.36974 60.7545 10.3749 60.7545 11.715C60.7545 13.0552 59.7494 14.0604 58.5209 14.0604Z" fill="#F47B20"/>
<path d="M65.4455 11.8265C65.4455 8.58779 63.2118 6.68921 60.0848 6.68921C59.5263 6.68921 58.8563 6.80089 58.2979 7.02425C58.4095 7.02425 58.5212 7.02425 58.7446 7.02425C61.6483 7.02425 63.8819 8.69947 63.8819 11.8265C63.8819 14.8419 61.6483 16.5172 58.7446 16.5172C58.6329 16.5172 58.5212 16.5172 58.2979 16.5172C58.8563 16.7405 59.4147 16.8522 60.0848 16.8522C63.2118 16.7405 65.4455 15.0653 65.4455 11.8265Z" fill="#F47B20"/>
<path d="M59.6382 1.66355C59.3032 1.55187 58.8565 1.44019 58.5214 1.44019C56.5112 1.44019 54.8359 3.1154 54.8359 5.23735C54.8359 7.35929 56.5112 9.03451 58.5214 9.03451C58.9681 9.03451 59.3032 8.92283 59.6382 8.81115C59.5266 8.81115 59.5266 8.81115 59.4149 8.81115C57.5163 8.81115 55.9528 7.24761 55.9528 5.23735C55.9528 3.22709 57.5163 1.66355 59.4149 1.66355C59.4149 1.66355 59.5266 1.66355 59.6382 1.66355Z" fill="#F47B20"/>
<path d="M59.4145 2.8922C59.5261 2.8922 59.5261 2.8922 59.6378 2.8922C59.4145 2.78052 59.1911 2.78052 58.8561 2.78052C57.6276 2.78052 56.5107 3.89733 56.5107 5.23751C56.5107 6.57768 57.5159 7.6945 58.8561 7.6945C59.0794 7.6945 59.3028 7.69449 59.6378 7.58281C59.5261 7.58281 59.5261 7.58281 59.4145 7.58281C58.186 7.58281 57.1808 6.57768 57.1808 5.23751C57.2925 3.89733 58.186 2.8922 59.4145 2.8922Z" fill="#F47B20"/>
<path d="M59.6378 9.92805C59.5262 9.92805 59.4145 9.92805 59.1911 9.92805C56.2874 9.92805 54.0538 8.25283 54.0538 5.12576C54.0538 2.11036 56.2874 0.435142 59.1911 0.435142C59.3028 0.435142 59.4145 0.435142 59.6378 0.435142C59.0794 0.211779 58.521 0.100098 57.8509 0.100098C54.7239 0.100098 52.4902 1.99868 52.4902 5.23744C52.4902 8.4762 54.7239 10.1514 57.8509 10.1514C58.521 10.2631 59.0794 10.1514 59.6378 9.92805Z" fill="#F47B20"/>
</g>
<defs>
<clipPath id="clip0_2007_2340">
<rect width="118.047" height="16.7522" fill="white" transform="translate(0 0.100098)"/>
</clipPath>
</defs>
</svg>
