<svg width="34" height="23" viewBox="0 0 34 23" fill="none" xmlns="http://www.w3.org/2000/svg">
<g clip-path="url(#clip0_2007_964)">
<path d="M0.5 0H3.01908V22.8722H0.5V0ZM14.8588 0H17.126V15.9722L19.8969 11.8833H22.6679L19.5191 16.1L22.7939 22.8722H20.0229L18.0076 18.2722L17.126 19.4222V22.8722H14.8588V0ZM7.30153 15.3333H5.16031C5.16031 14.0556 5.53817 13.0333 6.29389 12.3944C6.92366 11.8833 7.67939 11.5 8.81298 11.5C9.82061 11.3722 10.5763 11.5 11.2061 11.8833C11.7099 12.1389 12.0878 12.65 12.3397 13.0333C12.5916 13.5444 12.7176 14.4389 12.7176 15.7167V19.1667C12.7176 20.1889 12.7176 20.8278 12.8435 21.3389C12.9695 21.85 13.0954 22.3611 13.2214 22.8722H10.4504C10.1985 22.3611 10.1985 21.7222 10.1985 21.3389C9.82061 21.85 9.5687 22.2333 8.93893 22.6167C8.56107 22.8722 8.05725 23 7.55343 23C6.67176 23 5.79008 22.8722 5.28626 22.2333C4.78244 21.5944 4.53053 20.8278 4.53053 19.8056C4.53053 19.1667 4.65649 18.6556 4.9084 18.1444C5.16031 17.6333 5.53817 17.1222 6.04199 16.8667C6.41985 16.6111 6.79771 16.4833 7.9313 16.1C8.81298 15.8444 9.44275 15.8444 9.82061 15.4611C9.94656 15.2056 10.1985 15.0778 10.0725 14.5667C10.0725 14.3111 9.94656 14.1833 9.82061 14.0556C9.5687 13.8 9.31679 13.5444 8.68702 13.5444C8.18321 13.5444 7.9313 13.8 7.67939 14.0556C7.42748 14.4389 7.30153 14.8222 7.30153 15.3333ZM10.1985 17.5056C9.94656 17.6333 9.44275 17.7611 8.81298 18.0167C8.18321 18.1444 7.67939 18.4 7.55343 18.5278C7.17557 18.7833 7.04962 19.1667 7.04962 19.55C7.04962 19.9333 7.17557 20.3167 7.42748 20.5722C7.67939 20.8278 7.9313 20.9556 8.43511 20.9556C8.81298 20.9556 9.19084 20.8278 9.5687 20.4444C9.82061 20.1889 10.0725 19.9333 10.1985 19.55C10.1985 19.2944 10.3244 18.7833 10.3244 18.1444L10.1985 17.5056ZM29.3435 19.4222H31.7366C31.4847 20.4444 30.855 21.5944 30.2252 22.1056C29.5954 22.6167 28.8397 23 27.8321 23C26.3206 23 25.0611 22.3611 24.4313 21.2111C23.8015 20.1889 23.5496 18.9111 23.5496 17.3778C23.5496 15.5889 23.9275 14.0556 24.6832 13.0333C25.4389 12.0111 26.3206 11.5 27.5802 11.5C28.9656 11.5 29.9733 12.0111 30.729 13.1611C31.4847 14.3111 31.8626 15.9722 31.8626 18.1444H25.9427C25.9427 19.2944 26.4466 20.7 27.8321 20.7C28.5878 20.7 29.0916 20.1889 29.3435 19.4222ZM29.4695 16.1C29.4695 14.95 28.9656 13.6722 27.7061 13.6722C26.5725 13.6722 25.9427 14.95 25.9427 16.1H29.4695ZM32.4924 11.5C32.6183 11.5 32.8702 11.5 32.9962 11.6278C33.1221 11.7556 33.2481 11.8833 33.374 12.0111C33.5 12.1389 33.5 12.3944 33.5 12.5222C33.5 12.65 33.5 12.9056 33.374 13.0333C33.2481 13.1611 33.1221 13.2889 32.9962 13.4167C32.8702 13.5444 32.6183 13.5444 32.4924 13.5444C32.3664 13.5444 32.1145 13.5444 31.9886 13.4167C31.8626 13.2889 31.7366 13.1611 31.6107 13.0333C31.4847 12.9056 31.4847 12.65 31.4847 12.5222C31.4847 12.3944 31.4847 12.1389 31.6107 12.0111C31.7366 11.8833 31.8626 11.7556 31.9886 11.6278C32.1145 11.5 32.2405 11.5 32.4924 11.5ZM32.4924 11.6278C32.3664 11.6278 32.2405 11.6278 32.1145 11.7556C31.9886 11.8833 31.8626 11.8833 31.7366 12.0111C31.6107 12.1389 31.6107 12.2667 31.6107 12.3944C31.6107 12.5222 31.6107 12.65 31.7366 12.7778C31.8626 12.9056 31.8626 13.0333 32.1145 13.1611C32.2405 13.2889 32.3664 13.2889 32.4924 13.2889C32.6183 13.2889 32.7443 13.2889 32.8702 13.1611C32.9962 13.0333 33.1221 13.0333 33.2481 12.7778C33.2481 12.7778 33.2481 12.65 33.2481 12.5222C33.2481 12.3944 33.2481 12.2667 33.1221 12.1389C32.9962 12.0111 32.9962 11.8833 32.7443 11.8833C32.7443 11.6278 32.6183 11.6278 32.4924 11.6278ZM31.9886 13.0333V12.0111H32.2405C32.4924 12.0111 32.6183 12.0111 32.6183 12.0111C32.7443 12.0111 32.7443 12.0111 32.7443 12.0111C32.7443 12.0111 32.8702 12.0111 32.8702 12.1389V12.2667C32.8702 12.3944 32.8702 12.3944 32.7443 12.5222C32.7443 12.5222 32.6183 12.65 32.4924 12.65C32.4924 12.65 32.4924 12.65 32.6183 12.65C32.6183 12.65 32.6183 12.65 32.7443 12.7778C32.7443 12.7778 32.7443 12.7778 32.8702 12.9056L32.9962 13.1611H32.7443L32.6183 13.0333C32.4924 12.9056 32.4924 12.7778 32.4924 12.7778H32.3664V13.2889L31.9886 13.0333ZM32.2405 12.3944C32.4924 12.3944 32.4924 12.3944 32.6183 12.3944C32.6183 12.3944 32.6183 12.3944 32.7443 12.3944C32.7443 12.3944 32.7443 12.3944 32.7443 12.2667C32.7443 12.1389 32.7443 12.2667 32.7443 12.1389C32.7443 12.1389 32.7443 12.1389 32.6183 12.1389C32.6183 12.1389 32.4924 12.1389 32.3664 12.1389H32.2405V12.3944Z" fill="#088EFF"/>
</g>
<defs>
<clipPath id="clip0_2007_964">
<rect width="33" height="23" fill="white" transform="translate(0.5)"/>
</clipPath>
</defs>
</svg>
