<svg width="52" height="41" viewBox="0 0 52 41" fill="none" xmlns="http://www.w3.org/2000/svg">
<g clip-path="url(#clip0_2007_1003)">
<path d="M45.0787 24.1826L44.9552 23.9371L44.8318 23.5688L44.5848 23.2006L28.408 1.10474L28.2845 0.859233L28.0376 0.613724L27.9141 0.49097L27.5436 0.245461L27.0497 -4.82425e-05L26.8027 -0.122803L26.3087 -4.82425e-05H25.8148L25.3209 0.122706L24.8269 0.245461L24.333 0.49097L23.9625 0.736479L23.839 0.859233L23.592 1.10474L23.4686 1.2275L7.41528 23.0778L7.2918 23.3233L7.04483 23.8143L6.92134 24.0598L6.79785 24.5508V24.7964V25.2874L6.92134 25.7784L7.04483 26.0239C7.41529 27.2514 8.65015 28.1107 10.0085 28.1107H42.115H42.609C43.7204 27.8652 44.7083 27.1287 45.0787 26.0239L45.2022 25.7784L45.3257 25.2874V24.7964L45.0787 24.1826Z" fill="#1B1917"/>
<path d="M22.1097 32.8982C20.5044 32.8982 19.2695 34.1257 19.2695 35.7215V37.9311C19.2695 38.1766 19.5165 38.4221 19.7635 38.4221H20.3809V35.5988C20.3809 34.6168 21.1218 33.8802 22.1097 33.8802C22.8506 33.8802 23.4681 34.3712 23.7151 34.985H24.8264C24.5795 33.7575 23.4681 32.8982 22.1097 32.8982Z" fill="#1B1917"/>
<path d="M32.8532 35.5987C32.8532 34.0029 31.6184 32.7754 30.013 32.7754C28.4077 32.7754 27.1729 34.0029 27.1729 35.5987V37.8083C27.1729 38.0538 27.4198 38.2993 27.6668 38.2993H28.1607V35.5987C28.1607 34.6167 28.9017 33.8802 29.8896 33.8802C30.8775 33.8802 31.6184 34.6167 31.6184 35.5987V37.8083C31.6184 38.0538 31.8653 38.2993 32.1123 38.2993H32.6063L32.8532 35.5987Z" fill="#1B1917"/>
<path d="M12.2317 36.0898H12.3552C12.3552 35.9671 12.3552 35.8443 12.3552 35.7215C12.3552 34.1257 11.1203 32.8982 9.515 32.8982C7.90967 32.8982 6.6748 34.1257 6.6748 35.5988C6.6748 37.0718 7.90967 38.4221 9.515 38.4221C10.7499 38.4221 11.8612 37.5629 12.2317 36.4581H11.1203C10.8734 36.9491 10.2559 37.4401 9.515 37.4401C8.65059 37.4401 8.03316 36.8263 7.78619 36.0898H12.2317ZM9.515 33.8802C10.2559 33.8802 10.8734 34.3712 11.1203 34.985H7.90967C8.15664 34.3712 8.77408 33.8802 9.515 33.8802Z" fill="#1B1917"/>
<path d="M45.0784 36.0898H45.2019C45.2019 35.9671 45.2019 35.8443 45.2019 35.7215C45.2019 34.1257 43.967 32.8982 42.3617 32.8982C40.7564 32.8982 39.5215 34.1257 39.5215 35.7215C39.5215 37.3174 40.7564 38.5449 42.3617 38.5449C43.5965 38.5449 44.7079 37.6856 45.0784 36.5808H43.967C43.72 37.0718 43.1026 37.5629 42.3617 37.5629C41.4973 37.5629 40.8798 36.9491 40.6329 36.2126L45.0784 36.0898ZM42.4852 33.8802C43.2261 33.8802 43.8435 34.3712 44.0905 34.985H40.8798C41.1268 34.3712 41.7442 33.8802 42.4852 33.8802Z" fill="#1B1917"/>
<path d="M39.028 35.5987C39.028 34.0029 37.7932 32.7754 36.1878 32.7754C34.5825 32.7754 33.3477 34.0029 33.3477 35.5987C33.3477 37.1946 34.5825 38.4221 36.1878 38.4221C36.8053 38.4221 37.4227 38.1766 37.9167 37.8083V38.1766C37.9167 39.1586 37.1757 39.8951 36.1878 39.8951C35.4469 39.8951 34.8295 39.4041 34.5825 38.7904H33.4711C33.7181 40.0179 34.8295 40.9999 36.1878 40.9999C37.7932 40.9999 39.028 39.7724 39.028 38.1766V35.5987ZM36.1878 37.4401C35.2 37.4401 34.459 36.7035 34.459 35.7215C34.459 34.7395 35.2 34.0029 36.1878 34.0029C37.1757 34.0029 37.9167 34.7395 37.9167 35.7215C37.9167 36.7035 37.1757 37.4401 36.1878 37.4401Z" fill="#1B1917"/>
<path d="M26.4322 31.6707C26.4322 31.9162 26.1853 32.1617 25.9383 32.1617C25.6913 32.1617 25.4443 31.9162 25.4443 31.6707C25.4443 31.4252 25.6913 31.1797 25.9383 31.1797C26.1853 31.1797 26.4322 31.3024 26.4322 31.6707Z" fill="#1B1917"/>
<path d="M48.6595 32.8981C47.0542 32.8981 45.8193 34.1256 45.8193 35.7214V37.931C45.8193 38.1765 46.0663 38.422 46.3133 38.422H46.8072V35.5987C46.8072 34.6166 47.5482 33.8801 48.536 33.8801C49.277 33.8801 49.8944 34.3711 50.1414 34.9849H51.2527C51.1293 33.7574 50.0179 32.7753 48.6595 32.8981Z" fill="#1B1917"/>
<path d="M3.34019 32.7753C2.72276 32.7753 1.98184 33.0208 1.61138 33.3891V31.1795C1.61138 30.934 1.36441 30.6885 1.11743 30.6885H0.5V35.5987C0.5 37.1945 1.73487 38.422 3.34019 38.422C4.94552 38.422 6.18039 37.1945 6.18039 35.5987C6.18039 34.1256 4.94552 32.7753 3.34019 32.7753ZM3.34019 37.44C2.3523 37.44 1.61138 36.7034 1.61138 35.7214C1.61138 34.7394 2.3523 34.0028 3.34019 34.0028C4.32809 34.0028 5.06901 34.7394 5.06901 35.7214C5.06901 36.5807 4.32809 37.44 3.34019 37.44Z" fill="#1B1917"/>
<path d="M25.3213 32.8982V37.9311C25.3213 38.1766 25.5683 38.4221 25.8152 38.4221H26.4327V32.8982H25.3213Z" fill="#1B1917"/>
<path d="M15.8124 32.8982C15.195 32.8982 14.5775 33.1437 14.0836 33.5119V31.4251C14.0836 31.1796 13.8366 30.9341 13.5897 30.9341H13.0957V38.0538C13.0957 38.2994 13.3427 38.5449 13.5897 38.5449H14.0836V35.5988C14.0836 34.6167 14.948 34.0029 15.8124 34.0029C16.8003 34.0029 17.5412 34.7395 17.5412 35.7215V37.9311C17.5412 38.1766 17.7882 38.4221 18.0352 38.4221H18.6526V35.7215C18.6526 34.1257 17.2943 32.8982 15.8124 32.8982Z" fill="#1B1917"/>
<path d="M23.8389 1.71847L8.03263 23.0778L7.90914 23.3233V23.446C7.29171 24.5508 7.66217 25.9011 8.52657 26.7604L8.65006 26.8831L8.89703 27.0059L9.14401 27.1287C9.51447 27.3742 9.88493 27.3742 10.3789 27.3742H41.7445H41.9915C42.3619 27.3742 43.1028 27.1287 43.3498 26.8831L43.4733 26.7604L43.5968 26.6376L43.7203 26.5149L43.8438 26.3921L43.9673 26.1466L44.0907 26.0239C44.2142 25.6556 44.3377 25.1646 44.3377 24.7963V24.5508V24.3053V24.0598L44.2142 23.8143L44.0907 23.5688L43.9673 23.3233L43.8438 23.2005L28.0375 1.59572L27.914 1.47296L27.7905 1.22745C26.9261 0.490927 25.4443 0.368173 24.4564 1.1047L24.2094 1.22745L24.0859 1.35021L23.9624 1.59572L23.8389 1.71847Z" fill="#E4B154"/>
<path d="M25.5682 9.8203C24.2098 10.3113 22.8515 11.1706 22.6045 11.2934C22.6045 11.2934 22.481 11.4161 22.6045 11.4161C22.6045 11.4161 22.728 11.4161 22.8515 11.4161C22.8515 11.4161 23.9628 10.6796 25.3212 10.3113C26.1856 10.0658 27.297 9.94305 28.0379 10.4341C30.1372 11.6616 29.1493 15.3443 27.4205 17.7993C26.4326 19.1496 24.9507 20.7454 23.4689 21.7275C22.234 22.464 20.9992 23.0778 19.6408 23.0778C16.8006 23.0778 17.0476 19.8862 17.0476 19.8862C17.0476 19.7634 17.0476 19.7634 16.9241 19.7634L16.8006 19.8862C16.8006 20.3772 16.4302 22.0957 18.0355 23.3233C18.5294 23.8143 19.2703 23.9371 19.8878 23.9371C20.7522 23.9371 21.6166 23.8143 22.1105 23.6916C22.728 23.5688 23.7159 23.2005 25.0742 22.2185C26.3091 21.482 27.544 20.2544 28.5319 19.1496C29.8902 17.5538 31.2486 15.2215 31.372 13.3802C31.4955 8.59275 27.297 9.20653 25.5682 9.8203Z" fill="#1B1917"/>
<path d="M18.0347 18.6587C18.2817 18.6587 18.6521 18.536 19.1461 18.2905C19.7635 18.0449 20.9984 17.4312 22.1098 16.3264C22.9742 15.4671 23.5916 14.4851 23.5916 13.6258C23.5916 12.521 22.3567 12.521 21.8628 12.521C21.7393 12.521 21.6158 12.6438 21.6158 12.6438C20.9984 13.503 17.9112 18.0449 17.7877 18.1677C17.6642 18.536 17.6642 18.6587 18.0347 18.6587Z" fill="#1B1917"/>
</g>
<defs>
<clipPath id="clip0_2007_1003">
<rect width="51" height="41" fill="white" transform="translate(0.5)"/>
</clipPath>
</defs>
</svg>
