<svg width="118" height="37" viewBox="0 0 118 37" fill="none" xmlns="http://www.w3.org/2000/svg">
<path d="M51.3034 19.4474C51.3034 19.6469 51.3034 19.7466 51.202 19.8464C51.1006 20.2453 50.7965 20.4447 50.2895 20.5445C50.0868 20.5445 49.6812 20.6442 49.1743 20.6442C49.0729 20.8437 48.9715 21.0431 48.8701 21.2426V21.5418L48.059 32.3127L47.5521 22.6388L47.4507 21.1429C47.4507 20.9434 47.3493 20.7439 47.1466 20.5445C46.6396 20.5445 46.2341 20.5445 46.0313 20.4447C45.5244 20.345 45.2202 20.1456 45.1188 19.7466C45.1188 19.6469 45.1188 19.5472 45.0175 19.3477H42.5842C42.5842 20.1456 42.6856 20.7439 42.7869 21.1429C42.8883 21.5418 43.0911 21.841 43.3953 22.0404L34.7774 31.5148L45.3216 22.4394C45.8285 22.4394 46.4369 22.4394 47.1466 22.5391L47.9577 37L49.0729 22.5391C49.884 22.5391 50.4923 22.5391 50.9993 22.4394L61.5434 31.5148L52.9256 22.0404H52.8242C53.1284 21.841 53.3311 21.5418 53.4325 21.1429C53.5339 20.7439 53.6353 20.1456 53.6353 19.3477L51.3034 19.4474ZM12.2696 22.5391L11.3571 20.8437H4.76702L3.95593 22.5391H0.508789L2.53652 18.7493L13.7904 18.9488L15.7168 22.5391H12.2696ZM2.6379 18.5499L5.78089 12.6658H10.4447L13.4863 18.3504L10.1405 18.4501L8.41693 15.0593H7.80862L5.98366 18.5499H2.6379ZM16.1223 14.6604H18.5556V18.2507H16.1223C16.1223 18.2507 16.1223 18.2507 16.1223 18.1509V14.6604ZM18.5556 19.0485C18.5556 19.4474 18.5556 19.7466 18.657 19.9461C18.7584 20.2453 18.9611 20.4447 19.2653 20.5445C19.5694 20.6442 20.2792 20.6442 21.293 20.6442C22.1041 20.6442 22.7124 20.6442 23.0166 20.5445C23.3207 20.5445 23.5235 20.4447 23.7263 20.2453C23.8277 20.1456 23.8277 20.0458 23.9291 19.8464C23.9291 19.7466 24.0305 19.4474 24.0305 19.1482C24.0305 19.1482 24.0305 19.1482 24.0305 19.0485H26.4637C26.4637 19.8464 26.3623 20.345 26.3623 20.6442C26.261 21.3423 25.9568 21.7412 25.4499 22.0404C25.1457 22.2399 24.7402 22.3396 24.1318 22.4394C23.5235 22.5391 22.611 22.5391 21.3944 22.5391C20.4819 22.5391 19.6708 22.5391 19.1639 22.4394C18.657 22.4394 18.15 22.3396 17.8459 22.2399C17.0348 22.0404 16.5279 21.5418 16.3251 20.7439C16.2237 20.4447 16.2237 20.1456 16.2237 19.9461C16.2237 19.7466 16.2237 19.4474 16.2237 18.8491L18.5556 19.0485ZM24.0305 18.2507V14.7601H26.4637V18.2507H24.0305ZM27.6804 22.5391V19.1482H30.1136V20.5445H33.4594C34.0677 20.5445 34.5746 20.5445 34.8788 20.4447C35.183 20.4447 35.3857 20.345 35.4871 20.2453C35.5885 20.1456 35.6899 19.9461 35.7913 19.7466C35.7913 19.6469 35.7913 19.4474 35.8927 19.248H38.3259C38.3259 19.5472 38.3259 19.8464 38.3259 20.0458C38.3259 20.4447 38.2246 20.7439 38.1232 21.0431C37.9204 21.7412 37.4135 22.1402 36.7038 22.3396C36.3996 22.4394 35.9941 22.4394 35.5885 22.5391C35.183 22.5391 34.5746 22.5391 33.6622 22.5391H27.6804ZM27.6804 18.1509V14.6604H33.4594C34.4733 14.6604 35.183 14.6604 35.4871 14.6604C35.7913 14.6604 36.0954 14.7601 36.501 14.7601C37.3121 14.9596 37.819 15.3585 38.0218 16.0566C38.1232 16.3558 38.1232 16.655 38.2246 16.9542C38.2246 17.1536 38.2246 17.4528 38.2246 17.8518H35.7913C35.7913 17.6523 35.7913 17.5526 35.6899 17.3531C35.6899 17.1536 35.5885 16.9542 35.4871 16.7547C35.3857 16.655 35.183 16.5553 34.8788 16.4555C34.676 16.4555 34.1691 16.3558 33.358 16.3558H30.0123V17.8518L27.6804 18.1509ZM39.3398 14.6604H41.8745V17.8518H39.3398C39.3398 17.9515 39.3398 14.6604 39.3398 14.6604ZM41.8745 19.3477V22.5391H39.3398V19.3477H41.8745ZM62.5573 19.5472H64.9906C64.9906 19.9461 64.9906 20.1456 64.9906 20.2453C64.9906 20.8437 64.8892 21.3423 64.6864 21.6415C64.4837 22.0404 64.0781 22.2399 63.4698 22.4394C62.8615 22.5391 61.8476 22.6388 60.4282 22.6388C58.9074 22.6388 57.7921 22.6388 57.1838 22.5391C56.5755 22.4394 56.0686 22.3396 55.7644 22.2399C55.4603 22.1402 55.2575 21.841 55.1561 21.6415C55.0547 21.3423 54.9533 21.0431 54.8519 20.6442C54.8519 20.345 54.8519 19.9461 54.8519 19.3477H57.2852C57.2852 19.6469 57.2852 19.8464 57.3866 20.0458C57.3866 20.2453 57.488 20.4447 57.6908 20.5445C57.7921 20.6442 57.9949 20.7439 58.2991 20.7439C58.6032 20.7439 59.1102 20.8437 59.9213 20.8437C60.8337 20.8437 61.4421 20.8437 61.7462 20.8437C62.0504 20.8437 62.2532 20.7439 62.3545 20.6442C62.4559 20.345 62.5573 20.0458 62.5573 19.5472ZM54.8519 17.752C54.8519 17.2534 54.8519 16.9542 54.8519 16.655C54.8519 16.2561 54.9533 15.9569 55.0547 15.7574C55.2575 15.2588 55.7644 14.9596 56.3727 14.7601C57.0824 14.6604 58.4005 14.5606 60.4282 14.5606C61.4421 14.5606 62.1518 14.5606 62.6587 14.6604C63.1656 14.6604 63.4698 14.7601 63.774 14.9596C64.1795 15.159 64.3823 15.3585 64.585 15.7574C64.6864 16.0566 64.7878 16.5553 64.7878 17.2534C64.7878 17.2534 64.7878 17.4528 64.7878 17.6523H62.3545C62.3545 17.3531 62.3545 17.2534 62.3545 17.1536C62.3545 17.0539 62.2532 16.9542 62.2532 16.9542C62.1518 16.8544 61.949 16.8544 61.5434 16.7547C61.1379 16.7547 60.631 16.655 59.8199 16.655C59.1102 16.655 58.5019 16.655 58.1977 16.655C57.8935 16.655 57.6908 16.7547 57.5894 16.8544C57.488 16.9542 57.3866 17.1536 57.2852 17.4528C57.2852 17.5526 57.2852 17.752 57.1838 17.8518L54.8519 17.752ZM66.0044 14.6604H74.8251V16.5553H68.4377V17.6523H74.5209V18.0512L66.0044 17.9515V14.6604ZM74.4195 19.0485V19.3477H68.3363V20.6442H74.8251V22.5391H66.0044V19.1482L74.4195 19.0485ZM75.7375 14.6604H79.9958L82.4291 18.0512H79.3875L78.3736 16.655H78.0694V18.0512H75.6362L75.7375 14.6604ZM83.0374 19.0485L84.1526 20.5445H84.3554V19.0485H86.7887V22.5391H82.5304L79.9958 19.0485H83.0374ZM84.3554 18.1509V14.6604H86.7887V18.1509H84.3554ZM78.1708 19.0485V22.5391H75.7375V19.0485H78.1708ZM87.4984 14.6604H97.1301V16.655H93.5816V18.2507H91.0469V16.655H87.4984V14.6604ZM93.5816 18.9488V22.5391H91.0469V18.9488H93.5816ZM97.8398 14.6604H106.66V16.5553H100.273V17.6523H106.356V18.4501L97.8398 18.3504V14.6604ZM106.356 18.8491V19.4474H100.273V20.7439H106.762V22.5391H97.9412V18.8491H106.356ZM107.573 22.5391V18.8491L117.306 18.7493C117.205 18.9488 117.103 19.0485 117.002 19.1482C116.799 19.3477 116.495 19.4474 115.988 19.5472C116.495 19.5472 116.9 19.7466 117.103 19.9461C117.205 20.0458 117.306 20.2453 117.306 20.4447C117.306 20.6442 117.407 21.1429 117.407 21.7412V22.5391H114.974V22.1402C114.974 21.7412 114.974 21.442 114.974 21.2426C114.974 21.0431 114.873 20.9434 114.771 20.8437C114.67 20.7439 114.569 20.7439 114.366 20.6442C114.163 20.6442 113.859 20.6442 113.352 20.6442H109.905V22.6388H107.573V22.5391ZM107.573 18.4501V14.6604H113.453C114.873 14.6604 115.684 14.6604 115.887 14.6604C116.191 14.6604 116.394 14.7601 116.698 14.9596C117.002 15.159 117.205 15.3585 117.306 15.6577C117.407 15.9569 117.509 16.4555 117.509 17.1536C117.509 17.752 117.509 18.1509 117.407 18.4501V18.5499H113.859C114.163 18.5499 114.467 18.5499 114.467 18.5499C114.569 18.5499 114.67 18.5499 114.771 18.4501C114.873 18.3504 114.974 18.2507 114.974 18.1509C114.974 18.0512 115.076 17.8518 115.076 17.5526C115.076 17.2534 115.076 17.1536 114.974 16.9542C114.974 16.8544 114.873 16.7547 114.771 16.655C114.67 16.655 114.569 16.5553 114.467 16.5553C114.366 16.5553 113.96 16.5553 113.453 16.5553H110.006V18.5499L107.573 18.4501ZM48.3632 0L49.4785 14.5606C50.1882 14.5606 50.7965 14.5606 51.3034 14.6604L61.7462 5.68464L53.1284 15.159C53.4325 15.3585 53.5339 15.6577 53.6353 15.9569C53.7367 16.3558 53.8381 16.9542 53.8381 17.8518H51.4048C51.4048 17.5526 51.3034 17.3531 51.3034 17.2534C51.202 16.9542 50.9993 16.8544 50.6951 16.7547C50.4923 16.7547 50.0868 16.655 49.4785 16.655C49.2757 16.3558 49.1743 16.1563 49.1743 15.8571L48.9715 14.5606L48.2618 5.18598L47.6535 14.5606L47.5521 15.7574C47.4507 16.0566 47.3493 16.3558 47.248 16.5553C46.6396 16.5553 46.1327 16.5553 46.0313 16.655C45.7272 16.7547 45.5244 16.8544 45.423 17.1536C45.423 17.2534 45.3216 17.4528 45.3216 17.752H42.8883C42.8883 16.9542 42.9897 16.2561 43.0911 15.8571C43.1925 15.4582 43.3953 15.159 43.6994 14.9596L35.0816 5.58491L45.5244 14.5606C46.0313 14.5606 46.5382 14.5606 47.248 14.4609L48.3632 0ZM51.8103 22.5391C52.1145 22.5391 52.4187 22.4394 52.6214 22.3396L52.8242 22.2399L57.9949 27.9245L51.6076 22.5391H51.8103ZM57.8935 9.37466L51.709 14.6604C51.8103 14.6604 51.8103 14.6604 51.9117 14.6604C52.2159 14.6604 52.5201 14.7601 52.8242 14.9596L57.8935 9.37466ZM38.8329 27.9245L45.1188 22.5391C45.0175 22.5391 44.9161 22.5391 44.8147 22.5391C44.5105 22.5391 44.3077 22.4394 44.0036 22.3396L38.8329 27.9245ZM38.8329 9.37466L45.0175 14.6604C44.9161 14.6604 44.8147 14.6604 44.7133 14.6604C44.4091 14.6604 44.105 14.7601 43.9022 14.8598L38.8329 9.37466Z" fill="#B02727"/>
</svg>
