<svg width="38" height="38" viewBox="0 0 38 38" fill="none" xmlns="http://www.w3.org/2000/svg">
<g clip-path="url(#clip0_2007_1052)">
<path d="M34.7446 12.0989H22.855L21.9225 15.8105H33.812L32.763 20.102H29.4992L27.401 28.2212H22.6219L24.72 20.102H20.8734L18.7752 28.2212H13.9961L16.0943 20.102L16.4439 18.5942L19.2415 7.80737H35.7936L34.7446 12.0989Z" fill="#3367AF"/>
<path d="M36.493 5.25565H17.493L11.6648 28.2212H0.474609L1.64025 23.9296H8.0513L13.8795 0.964111H37.5421L36.493 5.25565Z" fill="#3367AF"/>
<path d="M4.32124 34.3686H1.52369V35.2965H4.20467C4.67093 35.2965 4.90406 35.4124 5.02062 35.5284C5.13719 35.6444 5.25375 35.9924 5.25375 36.3403V36.9203C5.25375 37.2682 5.13719 37.6162 5.02062 37.7322C4.90406 37.8482 4.67093 37.9642 4.20467 37.9642H1.52369C1.05743 37.9642 0.824303 37.8482 0.707738 37.7322C0.591174 37.6162 0.474609 37.2682 0.474609 36.9203V36.8043L1.40712 36.5723V37.0363H4.4378V36.1084H1.75682C1.29056 36.1084 1.05743 35.9924 0.940867 35.8764C0.824303 35.7604 0.707738 35.4124 0.707738 35.0645V34.6005C0.707738 34.2526 0.824303 33.9046 0.940867 33.7886C1.05743 33.6726 1.40712 33.5566 1.75682 33.5566H4.20467C4.55436 33.5566 4.90406 33.6726 5.02062 33.7886C5.13719 33.9046 5.25375 34.1366 5.25375 34.4845V34.6005L4.32124 34.8325V34.3686Z" fill="#3367AF"/>
<path d="M6.18652 36.1083V35.2964H8.16812V36.1083H6.18652Z" fill="#3367AF"/>
<path d="M11.6651 34.3685V37.9641H10.7326V34.3685H8.75098V33.6726H13.7632V34.3685H11.6651Z" fill="#3367AF"/>
<path d="M17.8426 36.3403H18.4254C18.7751 36.3403 19.0082 36.2243 19.1248 36.1083C19.2413 35.9924 19.3579 35.7604 19.3579 35.5284V34.4845C19.3579 34.1366 19.2413 34.0206 19.1248 33.9046C19.0082 33.7886 18.7751 33.6726 18.4254 33.6726H14.6953V37.9641H15.6278V36.3403H16.5603L18.3088 37.9641H19.7076L17.8426 36.3403ZM15.7444 35.5284V34.3685H17.9591C18.0757 34.3685 18.3088 34.3685 18.3088 34.4845C18.4254 34.4845 18.4254 34.6005 18.4254 34.7165V35.1804C18.4254 35.2964 18.4254 35.4124 18.3088 35.4124C18.1922 35.4124 18.0757 35.5284 17.9591 35.5284H15.7444Z" fill="#3367AF"/>
<path d="M23.5546 33.6726H22.622L20.0576 37.9641H21.1067L21.573 37.0362H24.2539L24.7202 37.9641H25.8858L23.5546 33.6726ZM22.0392 36.2243L22.9717 34.4845L23.9042 36.2243H22.0392Z" fill="#3367AF"/>
<path d="M30.3147 34.3685H27.6337V37.0362H30.3147V36.1083L31.3637 36.3403V36.8043C31.3637 37.1522 31.2472 37.5002 31.1306 37.6162C31.0141 37.7322 30.6644 37.9641 30.3147 37.9641H27.7503C27.284 37.9641 27.0509 37.8482 26.9343 37.7322C26.8177 37.6162 26.7012 37.2682 26.7012 36.9203V34.7165C26.7012 34.3685 26.8177 34.0206 26.9343 33.9046C27.0509 33.7886 27.4006 33.6726 27.7503 33.6726H30.3147C30.7809 33.6726 31.0141 33.7886 31.1306 33.9046C31.2472 34.0206 31.3637 34.3685 31.3637 34.7165V35.0645L30.3147 35.1804V34.3685Z" fill="#3367AF"/>
<path d="M32.4131 37.9641V33.6726H33.4622V35.4124L35.7935 33.6726H37.1922L34.3947 35.6444L37.5419 37.9641H36.0266L33.4622 35.9924V37.9641H32.4131Z" fill="#3367AF"/>
<path d="M38.0088 31.005C38.0088 30.773 37.7757 30.541 37.5425 30.541H0.475047C0.241918 30.541 0.00878906 30.773 0.00878906 31.005C0.00878906 31.2369 0.241918 31.4689 0.475047 31.4689H37.6591C37.8922 31.3529 38.0088 31.2369 38.0088 31.005Z" fill="#3367AF"/>
</g>
<defs>
<clipPath id="clip0_2007_1052">
<rect width="38" height="37" fill="white" transform="translate(0.00878906 0.964111)"/>
</clipPath>
</defs>
</svg>
