<svg width="103" height="17" viewBox="0 0 103 17" fill="none" xmlns="http://www.w3.org/2000/svg">
<g clip-path="url(#clip0_2007_2275)">
<path d="M8.20469 16.8964H11.3922C11.0734 14.0976 10.4359 8.60369 10.0109 4.35369C9.37344 8.60369 8.62969 13.9939 8.20469 16.8964ZM21.4859 7.98174C21.3797 7.87808 20.3172 6.53052 19.3609 6.8415C19.0422 6.94516 18.6172 8.18906 18.5109 9.12199L17.9797 16.4817C19.0422 16.3781 19.9984 16.0671 20.5297 15.5488C21.8047 14.4086 22.2297 12.2317 22.2297 10.4695V8.60369L21.4859 7.98174ZM8.84219 3.57274e-05C8.41719 3.57274e-05 7.03594 -0.103623 5.54844 0.103694C5.86719 2.79882 6.71719 9.01833 7.46094 13.2683C7.99219 9.01833 8.73594 2.90247 9.16094 3.57274e-05H8.84219ZM18.8297 5.5976C20.1047 5.0793 21.4859 5.80491 22.2297 6.63418C22.2297 4.35369 21.8047 2.38418 20.8484 1.45126C19.7859 0.311011 17.4484 0.103694 15.9609 0.103694C16.1734 2.28052 16.7047 6.73784 17.1297 10.7805C17.1297 10.3659 17.2359 9.22564 17.2359 9.22564C17.1297 8.70735 17.4484 6.32321 18.8297 5.5976ZM10.8609 3.57274e-05C11.1797 2.69516 11.8172 8.60369 12.3484 12.9574C12.9859 8.70735 13.8359 2.5915 14.2609 3.57274e-05C14.1547 3.57274e-05 10.8609 3.57274e-05 10.8609 3.57274e-05ZM13.1984 16.8964C13.9422 16.8964 15.1109 16.8964 16.2797 16.8964C15.9609 14.0976 15.4297 8.81101 14.8984 4.56101C14.3672 8.70735 13.6234 13.9939 13.1984 16.8964ZM2.46719 5.80491L3.52969 0.311011C2.78594 0.518328 2.36094 0.725645 1.93594 1.03662C0.448437 2.17686 0.0234375 4.56101 0.0234375 7.04882V10.1586C0.235938 10.0549 0.448438 9.95125 0.554688 9.8476C1.61719 8.91467 2.36094 6.63418 2.46719 5.80491ZM3.84844 6.01223C3.84844 6.11589 3.10469 9.3293 1.72344 10.7805C1.40469 11.0915 0.767187 11.2988 0.235938 11.6098C0.342187 13.2683 0.767187 14.4086 1.40469 15.2378C2.36094 16.6891 5.01719 16.8964 6.39844 16.8964C5.97344 13.7866 5.01719 7.04882 4.59219 3.21345C4.16719 4.56101 3.84844 6.01223 3.84844 6.01223Z" fill="#455D99"/>
<path d="M102.023 4.76821C101.067 4.56089 100.004 4.35357 99.1543 4.35357C97.0293 4.35357 94.6918 5.2865 94.6918 7.87796C94.6918 10.5731 98.1981 10.8841 98.1981 12.5426C98.1981 13.4755 97.2418 13.7865 96.2856 13.7865C95.2231 13.7865 94.5855 13.3719 93.7355 12.9572L93.2043 15.2377C94.1605 15.6524 95.3293 15.9633 96.3918 15.9633C98.7293 15.9633 101.067 15.1341 101.067 12.2316C101.067 9.5365 97.5605 9.01821 97.5605 7.67065C97.5605 6.73772 98.6231 6.5304 99.2606 6.5304C100.111 6.5304 100.748 6.73772 101.492 7.0487L102.023 4.76821ZM94.5855 4.66455H91.9293L90.8668 10.2621C90.548 11.817 89.8043 13.7865 87.9981 13.7865C87.1481 13.7865 86.6168 13.2682 86.6168 12.3353C86.6168 11.506 86.723 10.7804 86.9356 10.0548L87.9981 4.87187H85.2355L84.0668 10.0548C83.9605 10.7804 83.7481 11.6097 83.7481 12.4389C83.7481 14.6158 85.023 15.9633 87.148 15.9633C88.3168 15.9633 89.3793 15.445 90.0168 14.6158L89.9105 15.6524H92.4605C92.4605 15.3414 92.5668 14.7194 92.673 14.0975C92.673 13.9938 94.5855 4.66455 94.5855 4.66455ZM72.698 15.5487H75.3543L76.4168 9.95114C76.7355 8.39626 77.4793 6.42675 79.2855 6.42675C80.1355 6.42675 80.6668 6.94504 80.6668 7.87796C80.6668 8.70723 80.5605 9.43284 80.348 10.1585L79.4981 15.5487H82.1543L83.2168 10.1585C83.3231 9.43284 83.5355 8.60357 83.5355 7.77431C83.5355 5.59748 82.2605 4.24992 80.1355 4.24992C78.9668 4.24992 77.9043 4.76821 77.2668 5.59748L77.3731 4.56089H74.823C74.823 4.87187 74.7168 5.49382 74.6105 6.11577C74.6105 6.32309 72.698 15.5487 72.698 15.5487ZM68.448 4.35357C64.9418 4.35357 62.3918 7.15236 62.3918 10.7804C62.3918 13.8902 64.0918 15.756 67.0668 15.756C70.6793 15.756 73.1231 12.9572 73.1231 9.01821C73.0168 6.11577 71.1043 4.35357 68.448 4.35357ZM67.173 13.6828C65.6855 13.6828 65.048 12.5426 65.048 11.0914C65.048 9.12187 66.1105 6.63406 68.2355 6.63406C69.8293 6.63406 70.2543 7.77431 70.2543 9.22553C70.2543 11.0914 69.1918 13.6828 67.173 13.6828ZM62.8168 1.14016C61.648 0.725526 60.373 0.414551 59.2043 0.414551C56.548 0.414551 54.1043 1.76211 54.1043 4.97553C54.1043 8.91455 58.8855 8.49992 58.8855 11.195C58.8855 12.7499 57.6105 13.4755 56.2293 13.4755C55.0605 13.4755 53.8918 13.0609 52.8293 12.4389L52.0855 15.0304C53.3605 15.445 54.7418 15.8597 56.0168 15.8597C59.098 15.8597 61.7543 14.5121 61.7543 10.8841C61.7543 6.84138 56.973 6.94504 56.973 4.56089C56.973 3.31699 58.248 2.90236 59.3105 2.90236C60.373 2.90236 61.4355 3.21333 62.1793 3.73162C62.2855 3.52431 62.8168 1.14016 62.8168 1.14016ZM45.7105 9.01821C46.1355 7.56699 46.9855 6.42675 48.5793 6.42675C49.748 6.42675 50.2793 7.15236 50.2793 8.2926C50.2793 8.49992 50.2793 8.70723 50.173 9.12187C50.2793 9.01821 45.7105 9.01821 45.7105 9.01821ZM52.6168 11.0914C52.723 10.2621 52.8293 9.5365 52.8293 8.60357C52.8293 5.80479 51.2355 4.35357 48.6855 4.35357C45.2855 4.35357 42.8418 7.67065 42.8418 11.0914C42.8418 14.4085 44.8605 15.8597 47.7293 15.8597C48.7918 15.8597 49.9605 15.6524 51.023 15.3414L51.3418 13.0609C50.2793 13.4755 49.2168 13.8902 48.1543 13.8902C46.2418 13.8902 45.3918 13.0609 45.3918 11.195L52.6168 11.0914ZM35.4043 15.5487H38.0605L39.0168 10.6767C39.3355 8.81089 40.2918 7.15236 42.2043 7.15236C42.523 7.15236 42.948 7.25601 43.2668 7.35967L43.798 4.56089C43.4793 4.45723 43.0543 4.45723 42.7355 4.45723C41.4605 4.45723 40.1855 5.59748 39.6543 6.73772L39.973 4.66455H37.3168L37.2105 6.11577L35.4043 15.5487ZM30.5168 3.10967H31.473C32.6418 3.10967 33.8105 3.42065 33.8105 4.97553C33.8105 6.84138 32.2168 7.67065 30.623 7.67065H29.773L30.5168 3.10967ZM29.2418 10.0548H30.8355C34.023 10.0548 36.6793 8.18894 36.6793 4.66455C36.6793 0.932843 33.173 0.829185 30.623 0.829185H28.2855L25.3105 15.5487H28.073L29.2418 10.0548Z" fill="#201600"/>
</g>
<defs>
<clipPath id="clip0_2007_2275">
<rect width="102" height="17" fill="white" transform="translate(0.0234375)"/>
</clipPath>
</defs>
</svg>
