<svg width="116" height="37" viewBox="0 0 116 37" fill="none" xmlns="http://www.w3.org/2000/svg">
<g clip-path="url(#clip0_2007_1551)">
<path d="M35.2306 17.7466C35.2306 12.876 33.227 8.42892 30.0633 5.25244C26.8997 2.07597 22.4706 0.064209 17.6197 0.064209C12.7688 0.064209 8.3397 2.07597 5.17606 5.25244C2.01243 8.42892 0.00878906 12.876 0.00878906 17.7466C0.00878906 22.0877 1.59061 26.1113 4.12152 29.1819L2.5397 32.8877C3.59424 34.0524 4.8597 35.1113 6.33606 36.0642H6.96879L8.44515 32.7819C11.0815 34.476 14.2452 35.4289 17.6197 35.4289C20.9942 35.4289 24.1579 34.476 26.8997 32.7819L28.3761 36.0642H29.0088C30.3797 35.2172 31.6452 34.1583 32.8052 32.8877L31.1179 29.076C33.6488 26.1113 35.2306 22.0877 35.2306 17.7466ZM17.6197 33.0995C14.5615 33.0995 11.7142 32.2524 9.39424 30.6642L10.5542 28.2289C10.9761 28.5466 11.5033 28.8642 11.9252 29.076C13.6124 29.923 15.6161 30.4524 17.6197 30.4524C19.6233 30.4524 21.5215 30.0289 23.2088 29.1819C23.7361 28.8642 24.3688 28.5466 24.7906 28.2289L25.9506 30.6642C23.5252 32.1466 20.6779 33.0995 17.6197 33.0995ZM12.7688 23.2524L17.7252 12.3466L22.5761 23.1466C22.0488 23.5701 21.5215 23.9936 20.8888 24.3113C19.9397 24.7348 18.8852 25.0524 17.6197 25.0524C16.3542 25.0524 15.2997 24.7348 14.2452 24.3113C13.7179 23.9936 13.1906 23.5701 12.7688 23.2524ZM20.3615 5.35833C18.5688 4.72303 16.7761 4.72303 14.9833 5.35833L5.28152 26.7466C3.48879 24.2054 2.32879 21.1348 2.32879 17.7466C2.32879 13.5113 4.01606 9.6995 6.75788 6.94656C9.4997 4.19362 13.2961 2.4995 17.5142 2.4995C21.7324 2.4995 25.5288 4.19362 28.2706 6.94656C31.0124 9.6995 32.6997 13.5113 32.6997 17.7466C32.6997 21.1348 31.6452 24.2054 29.747 26.7466L20.3615 5.35833Z" fill="#5B52C3"/>
<path d="M91.9656 18.5938L92.0711 19.7585C92.282 19.5467 92.3874 19.4408 92.5983 19.3349C92.8092 19.1232 93.0202 19.0173 93.2311 18.9114C93.442 18.8055 93.6529 18.6996 93.8638 18.6996C94.0747 18.5938 94.2856 18.5938 94.4965 18.5938C94.7074 18.5938 95.0238 18.5938 95.2347 18.6996C95.4456 18.6996 95.6565 18.8055 95.8674 18.9114C96.0783 19.0173 96.1838 19.1232 96.3947 19.229C96.5002 19.3349 96.7111 19.4408 96.8165 19.6526C96.922 19.7585 97.0274 19.9702 97.1329 20.0761C97.2383 20.2879 97.2383 20.3937 97.3438 20.6055C97.3438 20.8173 97.4492 21.029 97.4492 21.2408C97.4492 21.4526 97.4492 21.7702 97.4492 21.982V26.8526H95.2347V22.2996C95.2347 22.0879 95.2347 21.982 95.2347 21.7702C95.2347 21.6643 95.2347 21.5585 95.2347 21.4526C95.2347 21.3467 95.2347 21.2408 95.1292 21.1349C95.1292 21.029 95.0238 21.029 95.0238 20.9232C95.0238 20.8173 94.9183 20.8173 94.9183 20.7114C94.8129 20.7114 94.8129 20.6055 94.7074 20.6055C94.602 20.6055 94.602 20.4996 94.4965 20.4996C94.3911 20.4996 94.2856 20.4996 94.1802 20.4996C94.0747 20.4996 93.9692 20.4996 93.8638 20.6055C93.7583 20.6055 93.6529 20.7114 93.442 20.8173C93.3365 20.9232 93.2311 21.029 93.0202 21.1349C92.9147 21.2408 92.7038 21.4526 92.5983 21.5585V26.7467H90.3838V18.5938H91.9656Z" fill="black"/>
<path d="M54.845 26.7467L54.7395 25.6879C54.5286 25.8996 54.4231 26.0055 54.2122 26.1114C54.0013 26.3232 53.7904 26.429 53.5795 26.5349C53.3686 26.6408 53.1577 26.7467 52.9468 26.7467C52.7359 26.8526 52.525 26.8526 52.3141 26.8526C52.1031 26.8526 51.7868 26.8526 51.5759 26.7467C51.365 26.7467 51.1541 26.6408 50.9431 26.5349C50.7322 26.429 50.6268 26.3232 50.4159 26.2173C50.3104 26.1114 50.0995 26.0055 49.9941 25.7937C49.8886 25.6879 49.7831 25.4761 49.6777 25.3702C49.5722 25.1585 49.5722 25.0526 49.4668 24.8408C49.4668 24.629 49.3613 24.4173 49.3613 24.2055C49.3613 23.9937 49.3613 23.6761 49.3613 23.4643V18.5938H51.6813V23.1467C51.6813 23.3585 51.6813 23.4643 51.6813 23.6761C51.6813 23.9937 51.7868 24.3114 51.8922 24.5232C51.9977 24.7349 52.4195 24.9467 52.7359 24.9467C52.9468 24.9467 53.2631 24.8408 53.4741 24.629C53.5795 24.5232 53.685 24.4173 53.8959 24.3114C54.0013 24.2055 54.2122 23.9937 54.3177 23.8879V18.6996H56.5322V26.8526L54.845 26.7467Z" fill="black"/>
<path d="M62.227 20.6054C61.9107 20.6054 61.6998 20.7113 61.4888 20.9231C61.3834 20.9231 61.3834 21.029 61.2779 21.1349C61.1725 21.029 61.1725 21.1349 61.067 21.2407C60.9616 21.3466 60.9616 21.4525 60.8561 21.5584C60.7507 21.6643 60.7507 21.7701 60.6452 21.876V26.7466H58.4307V18.5937H60.2234L60.3288 19.6525C60.3288 19.5466 60.4343 19.5466 60.4343 19.4407C60.5398 19.3349 60.6452 19.229 60.7507 19.1231C60.8561 19.0172 60.9616 18.9113 60.9616 18.9113C61.067 18.8054 61.1725 18.8054 61.1725 18.6996C61.2779 18.5937 61.3834 18.5937 61.3834 18.5937C61.4888 18.5937 61.5943 18.4878 61.5943 18.4878C61.6998 18.4878 61.8052 18.4878 61.8052 18.4878C61.9107 18.4878 62.0161 18.4878 62.0161 18.4878C62.1216 18.4878 62.227 18.4878 62.3325 18.4878C62.4379 18.4878 62.5434 18.5937 62.6488 18.5937C62.7543 18.5937 62.8598 18.6996 62.9652 18.6996C63.0707 18.8054 63.1761 18.8054 63.2816 18.9113L63.0707 20.7113C63.0707 20.7113 62.6488 20.4996 62.227 20.6054Z" fill="black"/>
<path d="M69.2923 26.7466L69.1868 25.8996C69.0814 26.0054 68.9759 26.1113 68.8705 26.2172C68.6596 26.3231 68.4487 26.429 68.3432 26.5349C68.1323 26.6407 67.9214 26.7466 67.7105 26.7466C67.4996 26.7466 67.2887 26.8525 66.9723 26.8525C66.445 26.8525 65.8123 26.7466 65.3905 26.429C64.9687 26.2172 64.6523 25.8996 64.4414 25.3701C64.3359 25.2643 64.3359 25.0525 64.3359 24.8407C64.3359 24.629 64.3359 24.5231 64.3359 24.3113C64.3359 24.0996 64.3359 23.8878 64.4414 23.676C64.4414 23.4643 64.5468 23.3584 64.6523 23.1466C64.7578 22.9349 64.8632 22.829 64.9687 22.7231C65.0741 22.6172 65.285 22.5113 65.3905 22.4054C65.6014 22.2996 65.7068 22.1937 65.9178 22.0878C66.1287 21.9819 66.3396 21.9819 66.6559 21.876C66.8668 21.876 67.1832 21.7701 67.4996 21.7701C67.8159 21.7701 68.1323 21.7701 68.4487 21.7701H69.0814V21.4525C69.0814 21.3466 69.0814 21.2407 69.0814 21.1349C69.0814 21.029 69.0814 20.9231 69.0814 20.8172C69.0814 20.7113 69.0814 20.7113 68.9759 20.6054C68.9759 20.4996 68.8705 20.4996 68.8705 20.3937C68.8705 20.3937 68.765 20.2878 68.6596 20.2878C68.5541 20.2878 68.5541 20.1819 68.4487 20.1819C68.3432 20.1819 68.2378 20.1819 68.1323 20.076C68.0268 20.076 67.9214 20.076 67.8159 20.076C67.4996 20.076 67.0778 20.1819 66.6559 20.2878C66.2341 20.3937 65.8123 20.6054 65.4959 20.8172L65.285 19.229C65.4959 19.1231 65.8123 18.9113 66.1287 18.8054C66.3396 18.6996 66.6559 18.5937 66.8668 18.5937C67.0778 18.4878 67.2887 18.4878 67.4996 18.4878C67.7105 18.4878 67.9214 18.4878 68.1323 18.4878C68.3432 18.4878 68.6596 18.4878 68.8705 18.4878C69.0814 18.4878 69.2923 18.5937 69.5032 18.5937C70.2414 18.8054 70.6632 19.1231 70.9796 19.6525C71.1905 20.1819 71.2959 20.7113 71.2959 21.3466V26.6407L69.2923 26.7466ZM68.8705 23.3584H68.1323C67.9214 23.3584 67.8159 23.3584 67.7105 23.3584C67.605 23.3584 67.3941 23.3584 67.2887 23.4643C67.1832 23.4643 67.0778 23.5701 66.9723 23.5701C66.8668 23.5701 66.7614 23.676 66.7614 23.676C66.6559 23.676 66.6559 23.7819 66.5505 23.7819C66.5505 23.7819 66.445 23.8878 66.445 23.9937C66.445 24.0996 66.3396 24.0996 66.3396 24.2054C66.3396 24.3113 66.3396 24.3113 66.3396 24.4172C66.3396 24.5231 66.3396 24.7349 66.445 24.8407C66.445 24.9466 66.5505 25.0525 66.6559 25.1584C66.7614 25.2643 66.8668 25.2643 66.9723 25.3701C67.0778 25.3701 67.2887 25.476 67.3941 25.476C67.4996 25.476 67.7105 25.476 67.8159 25.476C67.9214 25.476 68.0268 25.3701 68.1323 25.3701C68.2378 25.2643 68.3432 25.1584 68.4487 25.1584C68.5541 25.0525 68.6596 24.9466 68.765 24.8407L68.8705 23.3584Z" fill="black"/>
<path d="M80.3652 23.3584C80.3652 23.7819 80.2597 24.0996 80.1542 24.4172C80.0488 24.7349 79.8379 25.1584 79.627 25.3702C79.2052 25.8996 78.6779 26.2172 78.1506 26.429C77.5179 26.7466 76.6742 26.8525 75.9361 26.8525C75.3033 26.8525 74.6706 26.7466 74.1433 26.5349C73.5106 26.3231 73.0888 26.0055 72.5615 25.6878L72.7724 23.5702C73.2997 23.8878 73.827 24.2055 74.4597 24.3113C74.987 24.5231 75.5142 24.629 76.0415 24.629C76.4633 24.629 76.8852 24.629 77.2015 24.4172C77.5179 24.2055 77.6233 23.9937 77.6233 23.5702C77.6233 22.7231 76.4633 22.2996 75.8306 22.0878C75.1979 21.876 74.4597 21.5584 73.9324 21.1349C73.827 21.029 73.7215 20.9231 73.6161 20.8172C73.5106 20.7113 73.4052 20.6055 73.2997 20.3937C73.1942 20.2878 73.0888 20.076 73.0888 19.9702C72.9833 19.7584 72.9833 19.6525 72.8779 19.4407C72.8779 19.229 72.7724 19.0172 72.7724 18.8055C72.7724 18.4878 72.7724 18.276 72.8779 18.0643C72.8779 17.8525 72.9833 17.6407 73.0888 17.429C73.1943 17.2172 73.2997 17.0055 73.4052 16.8996C73.5106 16.6878 73.7215 16.5819 73.9324 16.476C74.1433 16.3702 74.2488 16.2643 74.4597 16.1584C75.0924 15.8407 75.8306 15.7349 76.5688 15.7349C77.2015 15.7349 77.6233 15.8407 78.2561 16.0525C78.467 16.1584 78.7833 16.2643 78.9942 16.3702C79.2052 16.476 79.5215 16.6878 79.7324 16.8996L79.5215 18.6996C78.9942 18.3819 78.5724 18.1702 77.9397 17.9584C77.5179 17.8525 77.0961 17.7466 76.7797 17.7466C76.3579 17.7466 76.0415 17.8525 75.7252 17.9584C75.4088 18.1702 75.3033 18.3819 75.3033 18.6996C75.4088 19.4407 76.2524 19.7584 76.8852 20.076C77.5179 20.3937 78.2561 20.6055 78.7833 21.029C78.9942 21.1349 79.2052 21.3466 79.4161 21.4525C79.627 21.6643 79.7324 21.7702 79.9433 21.9819C80.0488 22.1937 80.2597 22.5113 80.3652 22.829C80.2597 22.7231 80.3652 23.0407 80.3652 23.3584Z" fill="black"/>
<path d="M88.9072 22.7231C88.9072 23.9937 88.5908 25.1584 87.9581 25.8996C87.3253 26.6407 86.3763 26.9584 85.1108 26.9584C84.2672 26.9584 83.4235 26.7466 82.7908 26.3231C82.2635 25.8996 81.7363 25.3701 81.5254 24.5231C81.4199 24.3113 81.4199 23.9937 81.3144 23.676C81.3144 23.3584 81.209 23.0407 81.209 22.6172C81.209 22.2996 81.209 21.9819 81.3144 21.7701C81.3144 21.4525 81.4199 21.2407 81.5254 21.029C81.8417 20.1819 82.2635 19.5466 82.7908 19.1231C83.4235 18.6996 84.1617 18.4878 85.1108 18.4878C86.3763 18.4878 87.3253 18.9113 87.9581 19.5466C88.5908 20.2878 88.9072 21.3466 88.9072 22.7231ZM86.6926 22.7231C86.6926 21.6643 86.4817 20.1819 85.1108 20.1819C83.7399 20.1819 83.529 21.6643 83.529 22.7231C83.529 23.7819 83.7399 25.2643 85.1108 25.2643C86.4817 25.2643 86.6926 23.7819 86.6926 22.7231Z" fill="black"/>
<path d="M106.413 26.8525C104.725 26.8525 103.46 26.1113 102.933 24.5231C102.722 23.9937 102.722 23.3584 102.722 22.7231C102.722 22.0878 102.827 21.4525 103.038 20.9231C103.249 20.3937 103.46 19.9701 103.776 19.5466C104.514 18.8054 105.463 18.4878 106.413 18.4878C107.362 18.4878 108.311 18.9113 108.944 19.6525L108.627 21.029C108.311 20.8172 107.994 20.6054 107.678 20.4996C107.362 20.3937 107.045 20.2878 106.623 20.2878C105.991 20.2878 105.569 20.6054 105.358 21.029C105.147 21.4525 105.042 22.0878 105.042 22.6172C105.042 23.2525 105.147 23.8878 105.463 24.4172C105.674 24.7349 106.096 25.0525 106.623 25.0525C106.94 25.0525 107.362 24.9466 107.678 24.8407C108.1 24.629 108.416 24.4172 108.838 24.2054L108.944 25.6878C108.311 26.429 107.467 26.8525 106.413 26.8525Z" fill="black"/>
<path d="M116.009 24.2055C116.009 24.629 115.904 24.9467 115.798 25.3702C115.693 25.6879 115.376 26.0055 115.06 26.2173C114.954 26.3232 114.744 26.429 114.533 26.5349C114.322 26.6408 114.216 26.6408 114.005 26.7467C113.584 26.8526 113.162 26.9585 112.74 26.9585C111.791 26.9585 110.842 26.6408 110.104 26.1114C110.209 25.582 110.209 25.0526 110.209 24.4173C110.631 24.629 111.053 24.8408 111.474 25.0526C111.896 25.1585 112.318 25.2643 112.634 25.2643C112.74 25.2643 112.845 25.2643 112.845 25.2643C112.951 25.2643 112.951 25.2643 113.056 25.2643C113.162 25.2643 113.162 25.2643 113.267 25.1585C113.373 25.1585 113.373 25.0526 113.478 25.0526L113.584 24.9467L113.689 24.8408V24.7349C113.689 24.629 113.689 24.629 113.689 24.5232C113.689 24.4173 113.689 24.4173 113.689 24.3114C113.689 24.2055 113.584 24.2055 113.584 24.0996C113.584 23.9938 113.478 23.9938 113.373 23.9938C113.267 23.9938 113.267 23.8879 113.162 23.8879C113.056 23.8879 112.951 23.782 112.951 23.782C112.845 23.782 112.74 23.6761 112.634 23.6761C112.529 23.6761 112.424 23.5702 112.318 23.5702C112.213 23.5702 112.107 23.4643 112.002 23.4643C111.896 23.4643 111.791 23.3585 111.685 23.3585C111.58 23.2526 111.474 23.2526 111.369 23.1467C111.264 23.0408 111.158 23.0408 111.053 22.9349C110.947 22.829 110.842 22.7232 110.736 22.7232C110.631 22.6173 110.525 22.5114 110.525 22.4055C110.42 22.2996 110.42 22.1937 110.314 22.0879C110.314 21.982 110.209 21.8761 110.209 21.6643C110.209 21.5585 110.209 21.3467 110.209 21.1349C110.209 20.9232 110.209 20.8173 110.209 20.6055C110.209 20.3937 110.314 20.2879 110.42 20.0761C110.525 19.9702 110.525 19.7585 110.631 19.6526C110.736 19.5467 110.842 19.4408 110.947 19.3349C111.264 19.1232 111.58 18.9114 111.896 18.8055C112.318 18.6996 112.74 18.5938 113.056 18.5938C113.9 18.5938 114.744 18.9114 115.271 19.4408L115.165 20.9232C114.954 20.8173 114.744 20.7114 114.427 20.6055C114.216 20.4996 114.005 20.4996 113.794 20.3938C113.584 20.2879 113.267 20.2879 113.056 20.2879C112.845 20.2879 112.634 20.2879 112.424 20.3938C112.213 20.4996 112.002 20.7114 112.002 20.9232C112.002 21.2408 112.213 21.4526 112.529 21.5585C112.74 21.6643 112.951 21.7702 113.162 21.7702C113.267 21.7702 113.373 21.8761 113.478 21.8761C113.584 21.8761 113.689 21.982 113.794 21.982C113.9 21.982 114.005 22.0879 114.111 22.0879C114.216 22.1937 114.322 22.1937 114.427 22.2996C114.533 22.4055 114.638 22.4055 114.744 22.5114C114.849 22.6173 114.954 22.6173 115.06 22.7232C115.271 22.9349 115.376 23.1467 115.482 23.4643C116.009 23.6761 116.009 23.9937 116.009 24.2055Z" fill="black"/>
<path d="M99.0312 19.5467L99.1367 18.5938H99.3476C99.8749 18.8055 100.508 18.8055 101.035 18.5938H101.246L101.351 19.5467V26.7467H99.1367C99.0312 26.7467 99.0312 19.5467 99.0312 19.5467Z" fill="black"/>
<path d="M100.086 17.7466C100.719 17.7466 101.14 17.2171 101.14 16.6877C101.14 16.0524 100.613 15.6289 100.086 15.6289C99.4531 15.6289 99.0312 16.1583 99.0312 16.6877C99.0312 17.2171 99.5585 17.7466 100.086 17.7466Z" fill="black"/>
<path d="M100.086 15.4172C100.402 15.4172 100.719 15.5231 100.929 15.7349C101.14 15.9466 101.246 16.2643 101.246 16.5819C101.246 16.8996 101.14 17.2172 100.929 17.429C100.719 17.6408 100.402 17.7466 100.086 17.7466C99.7694 17.7466 99.453 17.6408 99.2421 17.429C99.0312 17.2172 98.9258 16.8996 98.9258 16.5819C98.9258 16.2643 99.0312 15.9466 99.2421 15.7349C99.453 15.629 99.7694 15.4172 100.086 15.4172Z" fill="black"/>
<path d="M48.4127 26.7466H45.9872L45.249 24.2055H41.4527L40.609 26.7466H38.0781L41.8745 15.4172H44.7218C45.9872 19.229 47.2527 22.9349 48.6236 26.7466H48.4127ZM43.2454 18.3819L41.9799 22.1937H44.5109L43.2454 18.3819Z" fill="black"/>
</g>
<defs>
<clipPath id="clip0_2007_1551">
<rect width="116" height="36" fill="white" transform="translate(0.00878906 0.064209)"/>
</clipPath>
</defs>
</svg>
