<svg width="79" height="8" viewBox="0 0 79 8" fill="none" xmlns="http://www.w3.org/2000/svg">
<g clip-path="url(#clip0_2007_900)">
<path d="M47.0615 0V8H48.7287V0H47.0615Z" fill="#0B6BB1"/>
<path d="M76.7133 0V6L71.2354 0H69.3301V8H70.9973V2L76.5942 8H78.4995V0H76.7133Z" fill="#0B6BB1"/>
<path d="M58.4937 0H50.5151C49.5624 2 49.4434 3.17647 49.4434 4C49.4434 4.82353 49.6815 6.35294 50.0388 6.94118C50.2769 7.52941 50.7533 8 51.706 8H58.3747V6.58823H52.3014C51.706 6.58823 51.5869 6.11765 51.4678 5.64706C51.3487 5.29412 50.7533 3.41176 51.825 1.29412H58.4937V0Z" fill="#0B6BB1"/>
<path d="M16.5763 0H9.66941C8.71674 2 8.59766 3.17647 8.59766 4C8.59766 4.82353 8.83582 6.35294 9.19308 6.94118C9.43124 7.52941 9.90758 8 10.8603 8H16.5763V6.58823H11.4557C10.8603 6.58823 10.7412 6.11765 10.6221 5.64706C10.503 5.29412 9.90758 3.41176 10.9793 1.41176H16.6954L16.5763 0Z" fill="#0B6BB1"/>
<path d="M38.1306 0H29.3184V7.05882C29.3184 7.41176 29.3184 8 30.1519 8H38.1306V6.70588H31.4619C31.2237 6.70588 31.1046 6.58823 31.1046 6.23529V4.70588H36.9397V3.29412H30.9855V1.41176H38.1306V0Z" fill="#0B6BB1"/>
<path d="M38.9639 0V7.05882C38.9639 7.41176 38.9639 8 39.7975 8H46.4662V6.70588H40.9883C40.7501 6.70588 40.631 6.58823 40.631 6.23529V0H38.9639Z" fill="#0B6BB1"/>
<path d="M59.8042 0C58.8516 2 58.8516 3.17647 58.8516 4C58.8516 4.82353 59.0897 6.35294 59.447 6.94118C59.6852 7.52941 60.1615 8 61.1142 8H62.9004H64.4485H66.2348C67.1874 8 67.6638 7.64706 67.9019 6.94118C68.1401 6.35294 68.3783 4.82353 68.3783 4C68.3783 3.17647 68.2592 2 67.4256 0H59.8042ZM66.1157 1.41176C67.0684 3.52941 66.592 5.29412 66.4729 5.76471C66.3539 6.11765 66.2348 6.70588 65.6393 6.70588H64.4485H62.9004H61.7096C61.1142 6.70588 60.9951 6.23529 60.876 5.76471C60.7569 5.41176 60.1615 3.52941 61.2332 1.41176H66.1157Z" fill="#0B6BB1"/>
<path d="M19.3154 0H20.9826V3.29412H26.5796V0H28.2467V8H26.5796V4.70588H20.9826V8H19.3154V0Z" fill="#0B6BB1"/>
<path d="M9.78855 1.17647H5.85878V8H4.31069V1.17647H0.5V0H9.78855V1.17647Z" fill="#0B6BB1"/>
</g>
<defs>
<clipPath id="clip0_2007_900">
<rect width="78" height="8" fill="white" transform="translate(0.5)"/>
</clipPath>
</defs>
</svg>
