<svg width="52" height="19" viewBox="0 0 52 19" fill="none" xmlns="http://www.w3.org/2000/svg">
<g clip-path="url(#clip0_2007_1514)">
<path d="M28.0596 1.06421C28.1596 1.26421 28.2596 1.26421 28.3596 1.46421C28.4596 1.56421 28.5596 1.76421 28.6596 1.86421C28.8596 2.16421 28.9596 2.46421 29.1596 2.86421L34.4596 17.9642H36.4596C36.5596 17.8642 36.6596 17.4642 36.6596 17.3642C37.1596 15.9642 39.6596 8.66421 39.6596 8.56421L42.8596 17.8642C43.0596 17.9642 44.5596 17.8642 44.8596 17.8642C44.9596 17.4642 45.1596 17.1642 45.2596 16.7642L49.4596 4.96421C49.7596 4.26421 49.9596 3.56421 50.1596 2.76421C50.5596 1.56421 51.2596 1.16421 51.3596 1.06421H47.9596C47.9596 1.16421 48.1596 1.26421 48.1596 1.36421C48.7596 2.16421 48.1596 3.06421 47.8596 4.06421L45.7596 10.0642C45.6596 10.3642 44.7596 12.9642 44.7596 13.0642C44.6596 12.9642 43.7596 10.3642 43.7596 10.1642C43.4596 9.16421 43.0596 8.16421 42.7596 7.16421C42.5596 6.66421 41.0596 2.46421 41.0596 1.96421C40.9596 1.56421 41.0596 1.36421 41.1596 1.06421H36.7596C36.8596 1.16421 37.2596 1.46421 37.6596 2.26421C37.8596 2.66421 38.5596 4.76421 38.7596 5.36421C38.9596 5.86421 38.9596 5.76421 38.8596 6.16421C38.7596 6.46421 38.6596 6.66421 38.5596 6.96421C38.3596 7.56421 36.4596 13.0642 36.4596 13.1642L35.4596 10.2642C35.1596 9.26421 34.7596 8.26421 34.4596 7.26421C34.2596 6.76421 32.7596 2.46421 32.6596 2.06421C32.5596 1.66421 32.6596 1.46421 32.7596 1.16421L28.0596 1.06421Z" fill="#5F5E5C"/>
<path d="M23.459 16.4642H23.159C22.659 16.4642 19.059 16.4642 18.859 16.4642C18.859 16.1642 18.859 10.4642 18.859 10.3642C18.959 10.3642 23.059 10.3642 23.259 10.3642C23.359 10.3642 23.259 10.3642 23.359 10.3642C23.659 10.3642 24.259 10.5642 24.459 10.6642C24.759 10.8642 25.059 11.0642 25.259 11.2642C26.459 12.5642 26.459 14.1642 25.459 15.4642C25.259 15.6642 24.959 15.9642 24.659 16.0642C24.359 16.1642 23.859 16.4642 23.459 16.4642ZM22.259 8.56421H22.059C21.559 8.56421 19.159 8.56421 18.959 8.56421C18.959 8.16421 18.959 2.56421 18.959 2.46421C19.359 2.46421 20.859 2.46421 21.459 2.46421C21.559 2.46421 22.159 2.46421 22.259 2.46421C22.959 2.46421 23.759 2.96421 24.159 3.36421C24.559 3.76421 24.959 4.56421 24.959 5.46421C24.959 6.36421 24.559 6.96421 24.159 7.56421C23.759 8.06421 22.759 8.66421 22.259 8.56421ZM24.759 17.9642C25.159 18.0642 26.059 17.7642 26.459 17.6642C30.259 15.9642 30.159 11.0642 26.959 9.26421C26.859 9.16421 26.759 9.16421 26.659 9.06421C26.759 8.96421 27.059 8.66421 27.359 8.06421C28.159 6.76421 28.159 5.26421 27.659 3.96421C27.159 2.76421 26.259 1.86421 25.059 1.36421C24.759 1.26421 24.059 1.06421 23.659 1.06421H15.459V15.8642C15.459 16.2642 15.459 17.7642 15.459 17.9642H24.759Z" fill="#5F5E5C"/>
<path d="M0.65918 17.9641C0.85918 18.0641 3.55918 17.9641 4.05918 17.9641V10.4641C4.25918 10.4641 10.5592 10.4641 11.0592 10.4641C12.1592 10.4641 12.1592 10.5641 13.1592 10.7641V8.16411C12.8592 8.16411 12.4592 8.26411 12.1592 8.36411C10.5592 8.56411 8.15918 8.46411 6.45918 8.46411C5.75918 8.46411 4.85918 8.46411 4.15918 8.46411V2.56411C4.95918 2.46411 5.95918 2.56411 6.75918 2.56411C8.95918 2.56411 10.7592 2.46411 12.8592 2.86411C13.2592 2.96411 13.5592 3.06411 13.9592 3.06411V0.964111H0.75918L0.65918 17.9641Z" fill="#5F5E5C"/>
<path d="M24.7587 17.9642H15.6587C15.5587 17.6642 15.6587 16.2642 15.6587 15.8642V1.06422H23.8587C23.6587 0.96422 20.2587 1.06422 19.7587 1.06422C19.2587 1.06422 15.8587 1.06422 15.6587 1.06422C15.6587 1.26422 15.6587 4.96422 15.6587 5.36422C15.6587 6.16422 15.6587 17.8642 15.6587 18.0642C15.9587 18.0642 23.3587 18.0642 24.5587 18.0642L24.7587 17.9642Z" fill="#AAA9A8"/>
<path d="M23.4593 16.4641C23.3593 16.4641 23.0593 16.4641 22.8593 16.4641H18.8593V10.4641H23.2593C23.2593 10.4641 23.2593 10.4641 23.1593 10.4641C22.9593 10.4641 18.8593 10.4641 18.7593 10.4641C18.7593 10.5641 18.6593 16.2641 18.7593 16.5641C18.9593 16.5641 22.5593 16.5641 23.0593 16.5641C23.2593 16.4641 23.4593 16.4641 23.4593 16.4641Z" fill="#BCBCBB"/>
<path d="M22.2591 8.56422C21.7591 8.56422 21.1591 8.56422 20.6591 8.56422C20.1591 8.56422 19.5591 8.56422 19.0591 8.56422V2.56422H22.3591C22.2591 2.46422 21.6591 2.56422 21.5591 2.56422C20.9591 2.56422 19.4591 2.56422 19.0591 2.56422C19.0591 2.66422 18.9591 8.26422 19.0591 8.66422C19.2591 8.66422 21.6591 8.66422 22.2591 8.56422Z" fill="#BCBCBB"/>
</g>
<defs>
<clipPath id="clip0_2007_1514">
<rect width="50.7" height="17.1" fill="white" transform="translate(0.65918 0.964111)"/>
</clipPath>
</defs>
</svg>
