<svg width="121" height="10" viewBox="0 0 121 10" fill="none" xmlns="http://www.w3.org/2000/svg">
<path d="M56.8172 4.80387C56.9188 3.73591 57.5285 1.98834 58.6462 1.79416C59.3575 1.69707 62.8121 1.69707 63.625 1.79416C63.8282 2.47377 63.5234 3.0563 63.2186 3.73591C62.9138 4.51261 62.8122 4.70678 61.8977 4.80387C60.4751 4.90096 58.3414 4.80387 56.8172 4.80387ZM61.288 6.26018C62.1009 5.58057 64.5395 6.26018 65.7588 5.87183C66.4701 5.58057 67.6894 3.93008 67.1813 2.76504C66.9781 2.37669 65.0475 1.01746 64.4379 0.726201C63.3202 0.0465892 61.5928 0.240764 60.0687 0.240764C58.0365 0.240764 57.7317 0.532026 56.3092 1.40581C55.3947 1.79416 54.0738 2.47377 53.4641 3.15339C52.8545 3.73591 50.9239 8.88154 50.7207 9.75533C53.5657 9.75533 54.5818 10.1437 55.1915 8.59028C56.2076 6.35727 55.9028 5.58057 58.1381 5.96892C58.8494 6.06601 60.3735 8.29902 60.78 8.88154C61.288 9.56115 61.4912 9.75533 62.6089 9.85242C63.5234 9.85242 64.5395 9.85242 65.454 9.85242C65.2508 9.26989 64.2347 8.10484 63.8282 7.6194C63.5234 7.23105 63.4218 6.93979 62.8121 6.74562C61.5928 6.45436 61.7961 7.03688 61.288 6.26018Z" fill="#E50011"/>
<path d="M83.541 9.75534C87.8086 9.75534 87.3005 10.4349 88.6215 6.93981C91.1617 0.8233 89.5359 1.69709 95.226 1.69709C97.1566 1.69709 96.6486 2.08544 96.0389 3.54175C95.5309 4.80388 94.0067 8.10485 94.1083 9.2699C94.6164 9.65825 96.5469 10.0466 97.4614 9.56116C98.0711 9.17282 97.8679 9.17282 98.3759 7.91068C98.7823 6.84272 100.306 3.34757 100.103 2.76505C99.9 2.18252 97.9695 1.01748 97.3598 0.629126C96.0389 -0.24466 94.8196 0.0466019 93.0922 0.0466019C90.6536 0.0466019 90.8569 0.240777 89.2311 1.21165C88.5199 1.6 86.6909 2.57087 86.2845 3.05631C85.7764 3.63883 83.6426 8.97864 83.541 9.75534Z" fill="#E50011"/>
<path d="M74.8021 1.89127C75.615 1.69709 77.444 1.79418 78.4601 1.79418C80.3906 1.79418 80.289 1.79418 79.5778 3.34758C78.8665 4.99807 78.1552 7.91069 77.0375 8.10486C76.4279 8.29904 74.1925 8.20195 73.3796 8.29904C71.4491 8.29904 71.6523 8.20195 72.2619 6.74564C72.9732 4.90098 73.6844 2.08544 74.8021 1.89127ZM83.5405 3.83302C83.9469 2.66797 83.2357 2.37671 82.626 1.98836C82.0164 1.60001 81.4067 1.11457 80.6955 0.726221C79.6794 0.143697 76.3263 0.0466095 74.9038 0.240784C74.1925 0.337872 71.4491 1.98836 70.7378 2.47379C69.3153 3.25049 68.9088 4.41554 68.4008 6.2602C68.096 7.32816 68.604 7.61942 69.3153 8.10486C69.9249 8.49321 70.5346 8.97865 71.1442 9.367C72.1603 10.0466 75.5134 10.0466 76.9359 9.85243C77.6472 9.75535 80.289 8.10486 81.1019 7.71651C82.626 6.84273 82.7276 6.16311 83.5405 3.83302Z" fill="#E50011"/>
<path d="M19.1209 4.80385C19.9338 1.50288 20.7466 1.79414 22.8804 1.79414C24.811 1.79414 27.7576 2.37667 27.5544 0.240744C26.5383 0.0465692 22.6772 0.143657 21.3563 0.143657C20.0354 0.143657 18.308 1.40579 17.2919 1.98832C15.463 3.05628 15.5646 3.15337 14.7517 5.38637C14.2437 6.64851 13.4308 8.49317 13.126 9.65822C15.1582 9.75531 17.4952 9.65822 19.5273 9.65822C22.3724 9.65822 24.2013 10.1437 24.2013 8.00773L17.8 7.91065L18.6129 5.77472C20.0354 5.77472 21.3563 5.77472 22.7788 5.77472C24.0997 5.77472 25.6239 6.06599 25.5223 4.60968C25.5223 4.80385 19.1209 4.80385 19.1209 4.80385Z" fill="#E50011"/>
<path d="M32.0252 4.80385C32.1268 4.31841 32.7365 2.66793 32.9397 2.37667C34.159 0.726181 40.7635 3.34754 40.4587 0.240744C39.4426 0.0465692 35.4799 0.143657 34.3622 0.143657C33.0413 0.240744 31.3139 1.40579 30.2978 1.98832C28.2657 3.15337 28.4689 3.15337 27.656 5.38637C27.148 6.7456 26.3351 8.39608 26.0303 9.65822H35.6831C36.6992 9.56113 37.1056 9.0757 37.1056 8.10482H30.7043L31.5171 5.9689C32.9397 5.9689 34.2606 5.9689 35.6831 5.9689C37.004 5.9689 38.5282 6.26016 38.4265 4.80385H32.0252Z" fill="#E50011"/>
<path d="M6.318 4.41554C6.41961 4.02719 6.92765 2.57088 7.23248 2.18253C8.55339 0.726222 14.9547 3.25049 14.7515 0.143698C13.6338 -0.0504767 11.2968 0.0466107 10.0775 0.0466107C7.84213 0.0466107 8.04535 -0.0504767 6.318 0.920397C3.57456 2.47379 2.55847 2.57088 1.7456 5.58059H8.24856C8.14696 5.96894 7.63891 7.42525 7.43569 7.71651C6.11478 9.07574 -0.388184 6.55146 0.0182511 9.75535C1.54238 9.85244 3.06651 9.75535 4.59065 9.75535C7.84213 9.75535 7.33408 9.46409 11.1952 7.42525C11.9065 7.0369 12.0081 6.93981 12.3129 6.2602C13.1258 4.02719 12.1097 4.41554 9.46787 4.41554C8.45178 4.41554 7.33408 4.51263 6.318 4.41554Z" fill="#E50011"/>
<path d="M110.162 8.20197C110.366 7.2311 112.195 2.37673 112.804 1.98838C114.735 0.920419 119.917 3.3476 120.018 0.14372C113.007 0.14372 114.43 -0.632979 109.553 2.08547C107.622 3.25052 107.927 3.25052 107.012 5.48353C106.606 6.4544 105.59 8.7845 105.387 9.75537C107.521 9.75537 109.654 9.75537 111.788 9.75537C113.617 9.75537 116.665 10.3379 116.36 8.10489L110.162 8.20197Z" fill="#E50011"/>
<path d="M48.9937 1.79412C51.1275 1.79412 52.8548 2.37665 52.9564 0.143637C50.213 0.143637 47.4696 0.143637 44.6245 0.143637C43.202 0.143637 41.4747 -0.244712 41.373 1.11451C41.373 2.18247 43.9133 1.69704 44.7261 1.79412L41.8811 9.75529C45.7422 9.75529 45.7422 10.2407 46.9615 7.03684C47.5712 5.38636 48.4857 3.44461 48.9937 1.79412Z" fill="#E50011"/>
<path d="M99.4932 9.75531C103.862 9.75531 103.456 9.94949 104.878 6.35726C105.59 4.5126 106.809 1.98832 107.317 0.143663C102.44 0.143663 103.456 -0.341773 101.932 3.63881C101.221 5.28929 99.798 8.299 99.4932 9.75531Z" fill="#E50011"/>
</svg>
