<svg width="55" height="35" viewBox="0 0 55 35" fill="none" xmlns="http://www.w3.org/2000/svg">
<g clip-path="url(#clip0_2007_838)">
<path d="M32.5275 18.4276C32.6516 18.5512 33.1482 19.788 33.1482 19.9117L33.5206 21.0247C33.5206 21.1484 33.6447 21.3958 33.7688 21.5194C33.893 21.7668 33.893 21.8905 34.0171 22.0141L35.0102 24.735C35.0102 24.8587 35.1344 25.106 35.2585 25.2297L35.6309 26.4664C35.6309 26.5901 35.7551 26.8375 35.7551 26.8375H29.424C29.424 26.7138 29.5482 26.3428 29.5482 26.3428L29.7964 25.477C29.9206 25.106 30.0447 24.735 30.1688 24.364C30.1688 24.2403 30.1688 24.2403 30.293 24.1166C30.5413 23.2509 30.9137 22.2615 31.2861 21.3958C31.4102 21.2721 31.4102 21.0247 31.5344 20.9011C31.5344 20.7774 31.6585 20.53 31.7826 20.4064L32.5275 18.5512C32.4033 18.6749 32.4033 18.5512 32.5275 18.4276ZM22.0999 17.3145V17.4382C22.0999 17.4382 22.0999 17.5618 22.224 17.5618C22.224 17.6855 22.3482 17.8092 22.3482 17.8092C22.3482 17.9329 22.4723 18.0565 22.4723 18.0565L23.4654 20.53C23.5895 20.7774 23.7137 21.1484 23.8378 21.3958C23.9619 21.7668 24.2102 22.2615 24.3344 22.6325L24.8309 23.8693C24.8309 23.9929 24.9551 24.1166 24.9551 24.1166L25.3275 24.9823C25.4516 25.2297 25.4516 25.3534 25.5757 25.6007L25.824 26.2191C25.824 26.3428 25.9482 26.4664 25.9482 26.4664C25.9482 26.5901 26.0723 26.7138 26.0723 26.8375H18.3757C18.3757 26.7138 18.9964 25.106 18.9964 24.9823L19.6171 23.4982C19.6171 23.3746 19.7413 23.2509 19.7413 23.1272L19.9895 22.5088C20.1137 22.1378 20.3619 21.6431 20.4861 21.2721C20.6102 20.9011 20.8585 20.4064 20.9826 20.0353L21.1068 19.5406C21.3551 18.9223 21.6033 18.1802 21.8516 17.5618C21.8516 17.4382 21.9757 17.3145 21.9757 17.3145C21.9757 17.3145 21.9757 17.1908 22.0999 17.1908C22.0999 17.3145 22.0999 17.3145 22.0999 17.3145ZM26.9413 6.18374C26.9413 6.18374 27.0654 6.30742 27.0654 6.43109L28.1826 8.78092C28.1826 8.90459 28.3068 8.90459 28.3068 9.02827C28.555 9.52297 28.8033 10.1413 29.0516 10.636L30.293 13.4806C30.293 13.6042 30.4171 13.6042 30.4171 13.7279C30.7895 13.7279 31.1619 13.7279 31.5344 13.7279C34.8861 13.7279 38.1137 13.7279 41.4654 13.7279C42.3344 13.7279 42.7068 13.7279 43.3275 13.2332C43.3275 13.2332 43.3275 13.2332 43.4516 13.2332L43.5757 13.1095C43.9482 12.7385 44.1964 12.3675 44.4447 11.9965C44.5688 11.7491 44.693 11.5018 44.8171 11.2544L44.9413 11.0071V10.8834C45.0654 11.1307 45.1895 11.7491 45.1895 11.9965C45.1895 12.3675 45.3137 12.7385 45.3137 13.2332V13.4806C45.3137 13.9753 45.3137 14.5936 45.3137 15.0883C45.3137 15.583 45.3137 15.8304 45.1895 16.3251C45.1895 16.6961 45.0654 17.0671 45.0654 17.5618C44.9413 18.0565 44.8171 18.6749 44.693 19.1696C44.693 19.2933 44.5688 19.5406 44.5688 19.6643C44.5688 19.788 44.4447 20.0353 44.4447 20.159C44.3206 20.53 44.1964 20.7774 44.0723 21.1484C43.9482 21.3958 43.824 21.7668 43.6999 22.1378C43.5757 22.2615 43.5757 22.3852 43.4516 22.6325C43.2033 23.1272 42.9551 23.4982 42.7068 23.8693C42.4585 24.2403 42.2102 24.735 41.8378 25.106C41.7137 25.2297 41.7137 25.3534 41.5895 25.477C41.3413 25.7244 41.2171 25.9717 40.9688 26.2191C40.7206 26.4664 40.5964 26.7138 40.3482 26.8375C40.224 26.7138 40.0999 26.4664 40.0999 26.3428L38.2378 22.7562C37.9895 22.3852 37.8654 21.8905 37.6171 21.5194C37.6171 21.3958 37.493 21.2721 37.493 21.2721L37.1206 20.4064C36.9964 20.2827 36.8723 20.0353 36.8723 19.9117C36.8723 19.788 36.7482 19.788 36.7482 19.6643C36.624 19.417 36.4999 19.0459 36.3757 18.7986C36.2516 18.6749 36.1275 18.4276 36.1275 18.1802C36.8723 18.1802 37.7413 18.1802 38.4861 18.1802C38.9826 18.1802 39.4792 17.9329 39.8516 17.6855L40.224 17.4382C40.4723 17.1908 40.7206 16.9435 40.8447 16.6961C40.9688 16.4488 41.7137 15.4594 41.7137 15.212H31.2861C31.2861 15.212 31.4102 15.3357 31.4102 15.4594C31.4102 15.583 31.5344 15.583 31.5344 15.7067C31.6585 15.9541 31.6585 15.9541 31.5344 16.2014C31.4102 16.5724 31.2861 16.8198 31.1619 17.1908C31.0378 17.5618 30.7895 18.0565 30.6654 18.4276C30.5413 18.7986 30.293 19.2933 30.1688 19.6643C30.0447 19.788 30.0447 20.0353 29.9206 20.159C29.9206 20.2827 29.7964 20.2827 29.7964 20.4064L28.9275 22.0141C28.9275 22.1378 28.5551 22.8799 28.4309 22.8799C28.4309 22.7562 27.8102 21.5194 27.8102 21.3958C27.6861 21.2721 27.6861 21.1484 27.5619 20.9011L27.1895 19.9117C27.0654 19.5406 26.9413 19.2933 26.8171 18.9223L25.824 16.8198C25.6999 16.4488 25.4516 16.0777 25.3275 15.583C25.3275 15.4594 25.2033 15.212 25.0792 15.0883H13.9068C13.9068 15.212 14.2792 15.7067 14.2792 15.8304C14.6516 16.4488 15.1482 17.1908 15.893 17.5618C16.1413 17.6855 16.5137 17.9329 16.8861 17.9329C17.1344 17.9329 17.3826 17.9329 17.7551 17.9329C18.4999 17.9329 19.2447 17.9329 19.9895 17.9329C19.9895 18.1802 18.2516 21.2721 18.0033 21.8905L17.7551 22.5088V22.6325C17.7551 22.6325 17.7551 22.7562 17.6309 22.7562C17.6309 22.8799 17.5068 22.8799 17.5068 23.0035C17.3826 23.1272 17.2585 23.3746 17.2585 23.4982C17.0102 23.8693 16.8861 24.2403 16.6378 24.6113L16.3895 25.106C16.3895 25.2297 16.2654 25.2297 16.2654 25.3534C16.2654 25.477 16.1413 25.6007 16.1413 25.6007C16.0171 25.7244 15.893 25.9717 15.893 26.0954C15.893 26.2191 15.7688 26.3428 15.7688 26.3428C15.7688 26.4664 15.6447 26.4664 15.6447 26.5901C15.5206 26.5901 15.5206 26.5901 15.3964 26.4664C15.2723 26.3428 15.024 26.0954 14.8999 25.9717H14.0309C13.0378 24.8587 11.9206 23.1272 11.424 21.7668C11.2999 21.6431 11.2999 21.3958 11.1757 21.2721C11.0516 20.9011 10.8033 20.4064 10.6792 20.0353C10.6792 19.9117 10.6792 19.9117 10.5551 19.788C10.4309 19.5406 10.4309 19.2933 10.3068 19.0459C10.3068 18.9223 10.3068 18.9223 10.1826 18.7986C10.0585 18.0565 9.81022 17.3145 9.81022 16.4488C9.81022 16.2014 9.81022 16.0777 9.81022 15.8304C9.81022 15.583 9.81022 15.3357 9.81022 15.212C9.81022 14.7173 9.81022 14.3463 9.81022 13.8516C9.81022 13.6042 9.81022 13.1095 9.81022 12.8622C9.93436 12.3675 9.93436 11.7491 10.0585 11.1307C10.0585 11.0071 10.0585 11.0071 10.0585 10.8834C10.0585 11.0071 10.3068 11.5018 10.4309 11.6254L10.8033 12.2438C11.0516 12.3675 11.0516 12.3675 11.1757 12.4912C11.424 12.7385 11.6723 13.1095 11.9206 13.3569C11.9206 13.3569 11.9206 13.3569 12.0447 13.3569L12.293 13.6042C12.6654 13.8516 13.0378 13.8516 13.5344 13.8516H24.0861C24.0861 13.7279 23.9619 13.4806 23.8378 13.3569C23.7137 13.1095 23.7137 13.1095 23.8378 12.8622C24.2102 11.9965 24.5826 11.1307 24.9551 10.1413C25.4516 9.02827 25.9482 7.91519 26.4447 6.80212L26.9413 6.18374ZM44.9413 10.8834H32.6516L32.4033 10.3887C32.1551 9.89399 31.9068 9.27562 31.6585 8.78092L31.1619 7.66784C31.0378 7.29682 30.9137 6.92579 30.6654 6.55477L30.293 5.31802C30.1688 5.07067 30.1688 4.94699 30.0447 4.69964L29.1757 2.4735L28.9275 1.9788C29.0516 1.9788 31.7826 1.9788 32.0309 1.9788H38.2378C38.7344 1.9788 39.2309 1.9788 39.8516 1.9788C39.9757 1.9788 40.224 1.9788 40.224 1.9788L40.5964 2.4735C40.7206 2.59717 41.3413 3.33922 41.4654 3.4629C41.4654 3.58657 41.5895 3.58657 41.5895 3.71025C41.5895 3.83392 41.7137 3.83392 41.7137 3.9576C42.0861 4.45229 42.4585 4.94699 42.7068 5.44169L43.0792 6.06007L43.6999 7.29682L44.1964 8.40989C44.4447 9.02827 44.5688 9.52297 44.693 10.1413L44.9413 10.8834ZM10.1826 10.8834C10.1826 10.7597 10.1826 10.636 10.3068 10.5124C10.4309 9.89399 10.5551 9.39929 10.6792 8.78092C10.8033 8.65724 10.8033 8.65724 10.8033 8.53357C10.8033 8.40989 10.9275 8.28622 10.9275 8.16254C10.9275 8.03887 11.0516 7.91519 11.0516 7.91519C11.0516 7.79152 11.1757 7.66784 11.1757 7.66784C11.2999 7.42049 11.2999 7.42049 11.2999 7.29682L11.6723 6.43109C11.7964 6.18374 11.9206 6.06007 12.0447 5.81272C12.293 5.44169 12.6654 4.94699 12.9137 4.57597C13.5344 3.71025 14.1551 2.9682 14.8999 2.22615C15.024 2.10247 15.024 2.10247 15.1482 2.10247H25.6999C25.6999 2.22615 25.4516 3.21555 25.3275 3.33922C25.2033 3.9576 24.9551 4.45229 24.8309 5.07067C24.8309 5.31802 24.7068 5.44169 24.5826 5.56537L24.4585 5.81272C24.4585 6.06007 24.2102 6.43109 24.2102 6.67844L23.2171 9.39929C23.093 9.52297 23.093 9.77032 22.9688 9.89399C22.9688 10.0177 22.5964 10.8834 22.4723 10.8834H10.1826ZM14.5275 0.865723C14.2792 1.11307 14.1551 1.23675 14.0309 1.36042L13.4102 1.9788C13.2861 2.22615 13.0378 2.4735 12.9137 2.59717L12.1688 3.58657C11.7964 4.20495 11.2999 4.82332 10.9275 5.44169C10.6792 5.81272 10.5551 6.30742 10.3068 6.80212C10.1826 7.04947 10.0585 7.29682 9.93436 7.54417C9.81022 7.79152 9.68609 8.28622 9.56195 8.65724L9.31367 9.39929C9.18953 9.89399 9.0654 10.5124 8.94126 11.0071L8.81712 11.5018C8.69298 12.1201 8.69298 12.7385 8.56884 13.3569C8.56884 13.9753 8.44471 15.583 8.56884 16.3251C8.56884 16.5724 8.56884 16.9435 8.69298 17.1908C8.69298 17.3145 8.69298 17.4382 8.81712 17.6855L8.94126 18.3039C8.94126 18.5512 9.0654 19.0459 9.18953 19.2933C9.18953 19.417 9.18953 19.5406 9.31367 19.6643L9.56195 20.4064C9.68609 20.9011 9.93436 21.3958 10.0585 21.8905L10.6792 23.2509C10.9275 23.7456 11.1757 24.1166 11.424 24.4876C11.7964 25.106 12.293 25.7244 12.6654 26.2191C12.7895 26.3428 12.7895 26.3428 12.9137 26.4664L13.2861 26.8375C13.6585 27.2085 13.9068 27.5795 14.2792 27.9505C14.4033 28.0742 14.4033 27.9505 14.5275 27.9505C17.7551 27.9505 20.9826 27.9505 24.2102 27.9505H36.4999C37.8654 27.9505 39.2309 27.9505 40.5964 27.9505C40.7206 27.9505 40.7206 27.9505 40.9688 27.7032L41.093 27.5795L41.7137 26.9611L41.8378 26.8375C42.0861 26.5901 42.3344 26.2191 42.7068 25.8481C43.4516 24.8587 44.0723 23.8693 44.693 22.7562C44.9413 22.2615 45.1895 21.7668 45.3137 21.3958C45.4378 21.0247 45.6861 20.4064 45.8102 20.0353C45.8102 20.0353 45.8102 19.9117 45.8102 19.788C45.8102 19.6643 45.9344 19.5406 45.9344 19.417C45.9344 19.2933 46.0585 19.1696 46.0585 19.0459C46.1826 18.6749 46.3068 18.1802 46.3068 17.8092C46.3068 17.6855 46.3068 17.6855 46.3068 17.5618C46.3068 17.4382 46.4309 16.6961 46.4309 16.4488C46.4309 16.2014 46.555 15.8304 46.555 15.4594C46.555 14.3463 46.555 13.6042 46.555 12.4912L46.4309 11.1307C46.3068 10.3887 45.9344 8.90459 45.6861 8.28622C45.562 8.03887 45.5619 7.79152 45.4378 7.54417C45.1895 7.04947 45.0654 6.55477 44.8171 6.18374L43.9482 5.07067L43.5757 4.45229C43.3275 4.08127 43.0792 3.58657 42.7068 3.21555C42.5826 3.09187 42.5826 3.09187 42.4585 2.9682L41.093 1.4841L40.7206 1.11307C40.4723 0.865723 40.5964 0.989398 39.8516 0.865723C39.4792 0.865723 39.1068 0.865723 38.8585 0.865723C36.1275 0.865723 33.3964 0.865723 30.7895 0.865723C29.424 0.865723 14.5275 0.865723 14.5275 0.865723Z" fill="black"/>
<path d="M22.1 35.0001C22.1 34.2581 22.1 33.2687 22.1 32.5266C22.1 32.2793 22.1 31.9082 22.1 31.7846H21.9759C21.7276 31.7846 21.6034 31.7846 21.4793 31.7846C21.4793 31.7846 21.4793 31.9082 21.3552 31.9082L20.9828 32.6503C20.8586 32.8976 20.3621 34.0107 20.2379 34.1344C20.2379 34.1344 19.7414 33.0213 19.7414 32.8976L19.4931 32.2793C19.4931 32.1556 19.369 32.0319 19.369 31.9082C19.369 31.9082 19.369 31.7846 19.2448 31.7846V31.6609C19.2448 31.6609 19.1207 31.6609 18.8724 31.6609C18.6241 31.6609 18.6241 31.6609 18.5 31.6609C18.5 31.9082 18.5 32.1556 18.5 32.5266C18.5 33.3923 18.5 34.1344 18.5 35.0001C18.6241 35.0001 18.7483 35.0001 18.8724 35.0001C18.8724 34.7528 18.8724 34.6291 18.8724 34.3817C18.8724 33.887 18.8724 33.0213 18.8724 32.5266C18.8724 32.6503 19.1207 33.0213 19.1207 33.145L19.369 33.7634C19.369 33.887 19.4931 34.0107 19.4931 34.0107L19.8655 34.8764C19.9897 34.8764 20.1138 34.8764 20.2379 34.8764C20.2379 34.8764 20.4862 34.3817 20.4862 34.2581C20.6103 34.0107 20.6103 33.887 20.7345 33.6397C20.7345 33.516 20.8586 33.3923 20.8586 33.3923C20.8586 33.2687 20.9828 33.145 20.9828 33.145L21.231 32.6503C21.231 33.3923 21.231 34.2581 21.231 35.0001C21.3552 35.0001 21.4793 35.0001 21.6034 35.0001C21.8517 35.0001 21.9759 35.0001 22.1 35.0001Z" fill="black"/>
<path d="M28.0589 31.6609H27.9348C27.8107 31.6609 27.8107 31.6609 27.6865 31.6609C27.6865 32.774 27.6865 33.887 27.6865 35.0001C28.0589 35.0001 28.0589 35.0001 28.4314 35.0001C28.4314 34.0107 28.4314 33.0213 28.4314 32.0319C28.5555 32.0319 28.8038 32.0319 28.9279 32.0319C29.4245 32.0319 29.6727 32.1556 29.6727 32.6503C29.6727 33.145 29.3003 33.3923 28.9279 33.3923H28.5555C28.5555 33.6397 28.5555 33.516 28.8038 33.887C28.8038 33.887 28.9279 34.0107 28.9279 34.1344L29.7969 35.1238H30.6658L29.921 34.3817C29.7969 34.2581 29.4245 33.887 29.4245 33.887C29.7969 33.7634 29.921 33.7634 30.1693 33.6397C30.6658 33.2687 30.79 32.2793 29.7969 32.0319C29.3003 31.9082 29.052 32.0319 28.6796 32.0319C28.3072 31.6609 28.1831 31.6609 28.0589 31.6609Z" fill="black"/>
<path d="M38.7349 31.6608H38.6108C38.3625 31.6608 38.1143 31.6608 38.1143 31.6608C38.1143 31.7845 38.1143 31.9081 38.1143 32.0318V34.8763C38.2384 34.8763 38.3625 34.8763 38.4867 34.8763C38.6108 34.8763 38.7349 34.8763 38.8591 34.8763C38.8591 34.629 38.8591 34.3816 38.8591 34.1343C38.8591 34.0106 38.8591 33.5159 38.8591 33.3922C38.9832 33.3922 40.2246 33.3922 40.3487 33.3922V34.8763C40.597 34.8763 40.8453 34.8763 41.0936 34.8763C41.0936 34.629 41.0936 32.6502 41.0936 32.4028V31.5371C40.597 31.5371 40.8453 31.5371 40.3487 31.5371C40.3487 31.7845 40.3487 32.0318 40.3487 32.2792C40.3487 32.5265 40.3487 32.7739 40.3487 33.0212C40.2246 33.0212 38.9832 33.0212 38.8591 33.0212C38.8591 32.8975 38.8591 32.4028 38.8591 32.2792C38.7349 32.1555 38.7349 31.9081 38.7349 31.6608Z" fill="black"/>
<path d="M42.21 33.2686C42.21 32.8975 42.3342 32.6502 42.4583 32.4028C42.5825 32.1555 42.8307 32.0318 43.2031 32.0318C43.8238 32.0318 44.1963 32.7739 44.1963 33.3922C44.1963 34.0106 43.948 34.7527 43.2031 34.7527C43.079 34.7527 42.8307 34.7527 42.7066 34.629C42.5825 34.5053 42.4583 34.3816 42.4583 34.3816C42.21 34.0106 42.21 33.6396 42.21 33.2686ZM42.9549 35H43.4514C43.5756 35 43.8238 35 44.0721 34.7527C44.6928 34.3816 44.9411 33.8869 44.9411 33.1449C44.9411 32.6502 44.6928 32.2792 44.4445 32.0318C44.0721 31.7845 43.6997 31.5371 43.2031 31.5371C42.5825 31.5371 42.0859 31.7845 41.8376 32.1555C41.8376 32.2792 41.7135 32.2792 41.7135 32.4028C41.4652 32.7739 41.4652 33.3922 41.5894 33.7633C41.7135 34.0106 41.8376 34.3816 42.0859 34.5053L42.3342 34.629C42.4583 34.7527 42.5825 34.7527 42.8307 34.7527C42.8307 35 42.9549 35 42.9549 35Z" fill="black"/>
<path d="M32.2789 31.9081C32.403 31.9081 32.6513 31.9081 32.7754 31.9081C32.8996 31.9081 33.0237 32.0318 33.1478 32.1555C33.272 32.2791 33.272 32.4028 33.3961 32.5265C33.5202 32.7738 33.5202 32.8975 33.5202 33.0212C33.5202 33.2685 33.5202 33.7632 33.3961 34.0106C33.1478 34.7526 32.2789 34.7526 31.9064 34.2579C31.7823 34.0106 31.6582 33.6396 31.6582 33.3922C31.6582 32.8975 31.6582 32.2791 32.0306 32.0318C32.0306 32.0318 32.1547 32.0318 32.2789 31.9081ZM32.2789 35H32.7754H32.8996C34.2651 34.629 34.3892 33.0212 33.7685 32.2791V32.1555C33.0237 31.4134 31.534 31.5371 30.9133 32.6502C30.6651 33.2685 30.7892 34.1343 31.1616 34.5053C31.4099 34.7526 31.6582 34.8763 31.9064 35C32.0306 35 32.2789 35 32.2789 35Z" fill="black"/>
<path d="M10.6794 33.2685C10.6794 32.6501 10.9277 31.9081 11.6725 31.9081C12.9139 31.9081 13.038 34.7526 11.6725 34.7526C10.9277 34.7526 10.6794 34.0106 10.6794 33.2685ZM11.4242 35H12.0449C12.0449 35 12.0449 35 12.1691 35C12.2932 35 12.4173 34.8763 12.6656 34.8763C13.2863 34.5053 13.5346 34.0106 13.4104 33.2685C13.4104 32.6501 12.9139 32.0318 12.4173 31.7844C11.9208 31.6607 11.4242 31.6607 11.0518 31.7844C10.8035 31.9081 10.5553 32.0318 10.307 32.2791C10.1828 32.5265 10.0587 32.8975 9.93457 33.1448C9.93457 33.6395 10.0587 34.1342 10.307 34.3816C10.5553 34.7526 10.9277 34.8763 11.4242 35Z" fill="black"/>
<path d="M35.5065 32.0318C35.6307 32.0318 35.879 32.0318 36.0031 32.0318C36.4996 32.0318 36.7479 32.2792 36.7479 32.7739C36.7479 33.1449 36.6238 33.5159 36.2514 33.6396C36.0031 33.7633 35.7548 33.6396 35.5065 33.6396C35.5065 33.1449 35.5065 32.4028 35.5065 32.0318ZM34.7617 31.6608C34.7617 31.7845 34.7617 32.0318 34.7617 32.0318C34.7617 32.1555 34.7617 33.7633 34.7617 34.1343C34.7617 34.3816 34.7617 34.629 34.7617 35C34.8859 35 35.01 35 35.1341 35C35.2583 35 35.3824 35 35.5065 35V33.7633C35.6307 33.7633 35.7548 33.7633 35.879 33.7633C36.1272 33.7633 36.7479 33.7633 36.9962 33.5159C37.2445 33.3922 37.3686 33.2686 37.3686 33.0212C37.4928 32.7739 37.4928 32.5265 37.3686 32.2792C37.2445 31.6608 36.4996 31.5371 35.879 31.5371C35.5065 31.5371 35.2583 31.6608 34.8859 31.5371C34.8859 31.6608 34.8859 31.6608 34.7617 31.6608Z" fill="black"/>
<path d="M16.3899 31.6609C16.3899 31.7846 16.3899 32.0319 16.3899 32.2793C16.3899 32.774 16.3899 33.516 16.3899 34.0107L15.3968 32.8976C15.2726 32.774 15.2726 32.6503 15.1485 32.6503C14.9002 32.4029 14.6519 32.0319 14.4037 31.7846C14.1554 31.7846 14.4037 31.7846 14.0312 31.7846C14.0312 32.8976 14.0312 33.887 14.0312 35.1238C14.1554 35.1238 14.0313 35.1238 14.4037 35.1238C14.4037 34.5054 14.4037 33.516 14.4037 32.8976C14.4037 32.8976 14.6519 33.145 14.7761 33.2687L16.3899 35.1238C16.514 35.2475 16.3899 35.2475 16.514 35.2475C16.6381 35.2475 16.6381 35.2475 16.7623 35.2475C16.7623 34.1344 16.7623 33.145 16.7623 31.9082H16.6381C16.3899 31.6609 16.3899 31.6609 16.3899 31.6609Z" fill="black"/>
<path d="M48.0453 31.6608C47.9211 31.6608 47.9211 31.6608 47.9211 31.6608V32.7739C47.9211 33.1449 47.9211 33.5159 47.9211 33.8869L46.928 32.7739C46.8039 32.5265 46.5556 32.4028 46.4315 32.1555C46.3073 31.9081 46.0591 31.7845 45.9349 31.5371C45.8108 31.5371 45.8108 31.5371 45.6866 31.5371C45.5625 31.5371 45.5625 31.5371 45.5625 31.5371C45.5625 31.6608 45.5625 31.7845 45.5625 31.9081V33.1449C45.5625 33.3922 45.5625 33.6396 45.5625 34.0106C45.5625 34.258 45.5625 34.5053 45.5625 34.8763C45.6866 34.8763 45.8108 34.8763 45.9349 34.8763C45.9349 34.3816 45.9349 33.0212 45.9349 32.6502L46.0591 32.7739L46.1832 32.8975C46.3073 33.0212 46.3073 33.0212 46.4315 33.1449C46.6797 33.3922 47.6728 34.5053 47.9211 34.8763C48.0453 34.8763 48.0453 34.8763 48.1694 34.8763C48.2935 34.8763 48.2935 34.8763 48.4177 34.8763C48.4177 34.629 48.4177 34.3816 48.4177 34.0106C48.4177 33.7633 48.4177 32.0318 48.4177 31.9081C48.4177 31.7845 48.4177 31.6608 48.4177 31.5371C48.1694 31.6608 48.1694 31.6608 48.0453 31.6608Z" fill="black"/>
<path d="M52.7617 35H53.5065C53.6306 35 54.2513 34.8763 54.4996 34.3816C54.4996 34.258 54.4996 34.258 54.4996 34.258V33.8869C54.4996 33.8869 54.4996 33.8869 54.4996 33.7633C54.4996 33.7633 54.4996 33.7633 54.4996 33.6396C54.2513 33.1449 53.0099 32.8975 52.7617 32.5265C52.6375 32.2792 52.6375 32.1555 52.7617 31.9081C53.0099 31.6608 53.6306 31.6608 54.003 31.9081C54.2513 32.1555 54.2513 32.2792 54.2513 32.4028H54.3755L54.4996 31.7845C54.003 31.4134 53.0099 31.2898 52.3892 31.6608C52.0168 31.7845 51.8927 32.0318 51.8927 32.5265C52.0168 33.5159 54.2513 33.5159 53.7548 34.3816C53.5065 34.7527 52.6375 34.7527 52.141 34.3816C52.141 34.3816 52.141 34.3816 52.0168 34.258C52.0168 34.258 52.0168 34.3816 51.8927 34.5053L51.7686 34.629C52.0168 34.7527 52.2651 34.8763 52.6375 34.8763C52.7617 35 52.6375 35 52.7617 35Z" fill="black"/>
<path d="M4.96869 35.0001H5.71352C5.71352 35.0001 5.83766 35.0001 5.96179 35.0001C6.08593 35.0001 6.08593 35.0001 6.21007 35.0001C6.33421 35.0001 6.45834 34.8764 6.58248 34.7528C6.9549 34.3817 7.07903 33.7634 6.58248 33.516C6.08593 33.145 5.3411 33.0213 5.09283 32.774C4.84455 32.5266 4.96869 32.2793 5.21697 32.0319C5.58938 31.9082 6.21007 31.9082 6.45834 32.4029C6.45834 32.4029 6.45834 32.5266 6.58248 32.6503H6.70662C6.70662 32.6503 6.83076 32.1556 6.83076 32.0319C6.70662 32.0319 6.70662 31.9082 6.58248 31.9082C6.33421 31.7846 6.08593 31.7846 5.83766 31.6609C5.3411 31.6609 4.72041 31.6609 4.348 32.1556C4.22386 32.2793 4.22386 32.5266 4.22386 32.6503C4.22386 33.516 5.58938 33.516 6.08593 34.0107C6.21007 34.1344 6.21007 34.3817 6.21007 34.5054C6.08593 34.7528 5.58938 34.8764 5.21697 34.7528C4.96869 34.7528 4.96869 34.6291 4.72041 34.6291C4.348 34.5054 4.22386 34.3817 4.22386 34.2581C4.22386 34.2581 4.22386 34.3817 4.09972 34.5054C4.09972 34.6291 3.97559 34.6291 3.97559 34.6291C4.22386 34.7528 4.47214 34.8764 4.84455 35.0001C4.96869 35.0001 4.96869 35.0001 4.96869 35.0001Z" fill="black"/>
<path d="M1.36897 33.7634C1.36897 33.6397 1.4931 33.516 1.4931 33.3923C1.4931 33.2687 1.86552 32.4029 1.86552 32.4029C1.86552 32.5266 2.23793 33.2687 2.23793 33.3923L2.36207 33.7634C2.36207 33.7634 1.61724 33.7634 1.36897 33.7634ZM0.5 35.0001C0.624138 35.0001 0.748276 35.0001 0.872414 35.0001C0.872414 34.8764 0.996552 34.6291 0.996552 34.5054C0.996552 34.3817 1.12069 34.1344 1.24483 34.0107C1.74138 34.0107 2.11379 34.0107 2.61034 34.0107L2.98276 35.0001C3.1069 35.0001 3.23103 35.0001 3.35517 35.0001C3.47931 35.0001 3.60345 35.0001 3.72759 35.0001C3.72759 34.8764 3.60345 34.6291 3.47931 34.6291L2.36207 32.1556C2.36207 32.0319 2.36207 32.0319 2.23793 31.9082C2.23793 31.7846 2.23793 31.7846 2.11379 31.6609H1.98966C1.74138 31.6609 1.74138 31.6609 1.61724 31.6609L1.74138 32.1556C1.74138 32.2793 1.61724 32.4029 1.61724 32.5266C1.4931 32.6503 0.624138 34.8764 0.5 35.0001Z" fill="black"/>
<path d="M49.6589 32.0319C49.783 32.0319 49.9072 32.0319 50.0313 32.0319H50.9003C51.0244 32.0319 51.1485 32.0319 51.2727 32.0319V31.6609C51.1485 31.6609 50.9003 31.6609 50.652 31.6609C50.4037 31.6609 49.1623 31.6609 48.9141 31.6609C48.9141 32.1556 48.9141 32.774 48.9141 33.2687C48.9141 33.7634 48.9141 34.3817 48.9141 34.8764C49.2865 34.8764 49.783 34.8764 50.1554 34.8764C50.4037 34.8764 50.5279 34.8764 50.7761 34.8764C50.9003 34.8764 51.2727 34.8764 51.3968 34.8764C51.3968 34.7528 51.3968 34.6291 51.3968 34.5054C51.2727 34.5054 51.1485 34.5054 51.0244 34.5054C50.652 34.5054 50.1554 34.5054 49.783 34.5054C49.783 34.3817 49.783 33.3923 49.783 33.2687C50.0313 33.2687 50.1554 33.2687 50.4037 33.2687C50.5279 33.2687 50.9003 33.2687 51.0244 33.2687C51.0244 33.145 51.0244 33.0213 51.0244 32.8976C50.9003 32.8976 50.7761 32.8976 50.7761 32.8976C50.652 32.8976 50.652 32.8976 50.5279 32.8976C50.2796 32.8976 50.1554 32.8976 49.9072 32.8976C49.6589 33.0213 49.6589 32.1556 49.6589 32.0319Z" fill="black"/>
<path d="M25.5759 35H26.0724H26.1966C26.3207 35 26.4449 35 26.569 34.8763C26.6931 34.8763 26.8173 34.7526 26.9414 34.6289C26.9414 34.6289 26.9414 34.5053 26.8173 34.5053V34.3816C26.8173 34.3816 26.8173 34.3816 26.6931 34.5053C26.3207 34.8763 25.7 34.8763 25.3276 34.7526C25.0793 34.6289 24.9552 34.3816 24.8311 34.2579C24.7069 34.0106 24.7069 33.7632 24.7069 33.3922C24.7069 33.2685 24.7069 33.1448 24.7069 32.8975C24.8311 32.6501 24.9552 32.4028 25.0793 32.2791C25.3276 32.0318 25.9483 31.9081 26.1966 32.0318C26.4449 32.1554 26.569 32.2791 26.569 32.6501H26.6931C26.6931 32.5265 26.8173 32.1554 26.8173 32.0318L26.6931 31.9081C26.569 31.7844 26.3207 31.7844 26.0724 31.6607C25.3276 31.5371 24.3345 31.7844 23.9621 32.5265C23.7138 33.0212 23.7138 33.6395 24.0862 34.1342C24.2104 34.2579 24.2104 34.2579 24.3345 34.3816C24.3345 34.5053 24.5828 34.5053 24.5828 34.6289C24.7069 34.7526 24.8311 34.7526 24.9552 34.7526L25.5759 35Z" fill="black"/>
<path d="M6.95508 32.0319H8.07232C8.07232 32.5266 8.07232 33.6397 8.07232 34.2581C8.07232 34.5054 8.07232 34.7528 8.07232 35.0001C8.07232 35.0001 8.56887 35.0001 8.81715 35.0001C8.81715 34.0107 8.81715 33.0213 8.81715 32.0319H9.93439V31.6609C9.68611 31.6609 9.43784 31.6609 9.18956 31.6609H7.69991C7.45163 31.6609 7.20335 31.6609 6.95508 31.6609V32.0319Z" fill="black"/>
<path d="M23.5896 35.0001C23.5896 34.8764 23.5896 34.7528 23.5896 34.6291C23.5896 34.3817 23.5896 33.6397 23.5896 33.3923C23.5896 33.145 23.5896 32.774 23.5896 32.5266C23.5896 32.2793 23.5896 32.0319 23.5896 31.6609C23.093 31.6609 23.2171 31.6609 22.8447 31.6609C22.8447 31.7846 22.8447 31.9082 22.8447 32.0319C22.8447 32.1556 22.8447 32.2793 22.8447 32.4029C22.8447 32.774 22.8447 33.6397 22.8447 34.0107V34.7528C22.9689 34.7528 23.093 34.7528 23.2171 34.7528C23.3413 35.0001 23.4654 35.0001 23.5896 35.0001Z" fill="black"/>
<path d="M42.831 0.24735C42.831 0.24735 43.0793 0.24735 43.2034 0.24735C43.9482 0.4947 43.9482 1.4841 43.2034 1.73145C42.831 1.85512 42.3344 1.60777 42.3344 1.23675C42.3344 0.865724 42.3344 0.618375 42.7069 0.371025C42.7069 0.24735 42.7069 0.24735 42.831 0.24735ZM42.831 0H42.7069C42.5827 0.123675 42.4586 0.123675 42.3344 0.24735C41.8379 0.865724 42.3344 1.9788 43.3276 1.73145C43.8241 1.60777 44.1965 1.11307 44.0724 0.618375C43.9482 0.371025 43.7 0.123675 43.3276 0C43.2034 0 42.9551 0 42.831 0Z" fill="black"/>
<path d="M42.7065 0.494664L43.2031 0.370989C43.5755 0.370989 43.6996 0.742014 43.3272 0.865689C43.4513 0.989364 43.4513 0.989364 43.4513 1.11304C43.4513 1.23671 43.4513 1.36039 43.5755 1.36039H43.3272C43.3272 1.23671 43.3272 1.11304 43.2031 1.11304C43.2031 0.989364 43.0789 0.989364 42.9548 0.989364V1.36039H42.7065V0.494664ZM42.8307 0.247314C42.7065 0.247314 42.7065 0.247314 42.5824 0.370989C42.3341 0.494664 42.21 0.865689 42.21 1.23671C42.3341 1.60774 42.7065 1.85509 43.0789 1.73141C43.8238 1.48406 43.8238 0.494664 43.0789 0.247314C43.0789 0.247314 42.9548 0.247314 42.8307 0.247314Z" fill="white"/>
<path d="M1.36914 33.7633C1.61742 33.7633 2.36224 33.7633 2.48638 33.7633L2.36224 33.3922C2.36224 33.2686 1.98983 32.5265 1.98983 32.4028C1.98983 32.4028 1.61742 33.2686 1.61742 33.3922C1.49328 33.5159 1.36914 33.6396 1.36914 33.7633Z" fill="white"/>
<path d="M42.9553 0.742119C42.9553 0.618444 43.2036 0.618444 43.3277 0.742119C43.3277 0.865793 43.2036 0.865793 42.9553 0.865793V0.742119ZM42.707 0.494769V1.36049H42.9553V0.989468C43.0794 0.989468 43.2036 0.989468 43.2036 1.11314C43.2036 1.23682 43.2036 1.36049 43.3277 1.36049H43.576C43.576 1.23682 43.576 1.11314 43.4519 1.11314C43.4519 0.989468 43.3277 0.989468 43.3277 0.865793C43.576 0.742118 43.576 0.371094 43.2036 0.371094L42.707 0.494769Z" fill="black"/>
<path d="M53.3828 35H54.5001V34.1343C54.5001 34.1343 54.5001 34.1343 54.5001 34.258C54.2518 35 53.507 35 53.3828 35Z" fill="white"/>
<path d="M42.9551 0.742125V0.8658V0.989475C43.0792 0.989475 43.3275 0.989475 43.3275 0.8658C43.2034 0.61845 42.9551 0.61845 42.9551 0.742125Z" fill="white"/>
</g>
<defs>
<clipPath id="clip0_2007_838">
<rect width="54" height="35" fill="white" transform="translate(0.5)"/>
</clipPath>
</defs>
</svg>
