<svg width="84" height="12" viewBox="0 0 84 12" fill="none" xmlns="http://www.w3.org/2000/svg">
<g clip-path="url(#clip0_2007_913)">
<path d="M27.8078 0H25.2926C25.1729 0 25.1729 0 25.1729 0.116505V11.534C25.1729 11.6505 25.2926 11.6505 25.4124 11.6505H27.8078C27.9275 11.6505 28.0473 11.6505 28.0473 11.534V0.116505C28.0473 0.116505 27.9275 0 27.8078 0Z" fill="black"/>
<path d="M55.2348 5.70886L55.4743 3.14575C55.3545 3.14575 55.2348 3.14575 55.115 3.14575C54.6359 3.14575 53.9173 3.26226 53.3184 3.72828H53.1987V3.37876C53.1987 3.26226 53.1987 3.14575 52.9591 3.14575H50.5638C50.444 3.14575 50.3242 3.26226 50.3242 3.37876C50.3242 3.61177 50.3242 11.3011 50.3242 11.5341C50.3242 11.6506 50.444 11.6506 50.5638 11.6506H51.8812H53.0789C53.3185 11.6506 53.3184 11.6506 53.3184 11.5341V9.32051V7.33993C53.0789 5.82536 54.9952 5.70886 55.2348 5.70886Z" fill="black"/>
<path d="M59.7856 3.02905C57.2704 3.02905 55.2344 5.00964 55.2344 7.45624C55.2344 9.90284 57.2704 11.8834 59.7856 11.8834C62.3008 11.8834 64.3368 9.90284 64.3368 7.45624C64.3368 5.00964 62.3008 3.02905 59.7856 3.02905ZM59.7856 9.08731C58.8274 9.08731 58.1088 8.38828 58.1088 7.45624C58.1088 6.5242 58.8274 5.82517 59.7856 5.82517C60.7438 5.82517 61.4624 6.5242 61.4624 7.45624C61.4624 8.38828 60.7438 9.08731 59.7856 9.08731Z" fill="black"/>
<path d="M72.4816 11.5341C72.4816 11.6506 72.3619 11.7671 72.2421 11.7671H69.6072C69.4874 11.7671 69.4874 11.6506 69.4874 11.5341V7.10692C69.4874 6.52439 69.3676 5.94187 68.649 5.94187C67.9304 5.94187 67.8106 6.6409 67.6909 7.10692V9.204V11.5341C67.6909 11.6506 67.5711 11.6506 67.5711 11.6506H64.9362C64.8164 11.6506 64.8164 11.5341 64.8164 11.5341V3.37876C64.8164 3.26226 64.8164 3.14575 64.9362 3.14575H67.5711C67.6909 3.14575 67.6909 3.26226 67.6909 3.37876V3.84478V3.96129L67.8106 3.84478C68.4095 3.26226 69.0083 3.14575 69.9665 3.14575C71.1642 3.14575 72.6014 3.72828 72.6014 5.47585L72.4816 11.5341Z" fill="black"/>
<path d="M76.5538 11.5341C76.5538 11.6506 76.434 11.6506 76.434 11.6506H73.7991C73.5596 11.6506 73.5596 11.6506 73.5596 11.5341V3.37876C73.5596 3.26226 73.6793 3.14575 73.7991 3.14575H76.434C76.6736 3.14575 76.6736 3.26226 76.6736 3.37876V11.5341H76.5538Z" fill="black"/>
<path d="M73.5596 0.582619C73.5596 0.466114 73.6793 0.349609 73.7991 0.349609H76.434C76.6736 0.349609 76.6736 0.466114 76.6736 0.582619V2.33019C76.6736 2.4467 76.5538 2.4467 76.5538 2.4467H73.9189C73.5596 2.5632 73.5596 2.4467 73.5596 2.33019V0.582619Z" fill="black"/>
<path d="M5.41053 9.20393C5.41053 9.08742 5.29076 9.08742 5.29076 9.08742H4.21284C4.09307 9.08742 4.09307 9.08742 4.09307 9.08742C3.9733 8.97092 3.9733 8.85441 3.9733 8.85441V5.94179C3.9733 5.82529 4.09307 5.70878 4.21284 5.70878H5.29076C5.41053 5.70878 5.41053 5.59228 5.41053 5.59228V3.49519C5.41053 3.37869 5.41053 3.26218 5.29076 3.26218H4.21284C4.21284 3.26218 4.09307 3.26218 4.09307 3.14568L3.9733 3.02917V0.582569C3.9733 0.466064 3.9733 0.466064 3.85353 0.466064H3.73377C3.73377 0.466064 1.45815 1.98063 1.33838 2.09713C1.21861 2.09713 1.21861 2.21364 1.21861 2.33014V2.91267C1.21861 3.02917 1.21861 3.02917 1.09885 3.02917L0.979076 3.14568C0.859307 3.14568 0.739538 3.14568 0.619769 3.14568C0.5 3.26218 0.5 3.26218 0.5 3.49519V5.59228C0.5 5.70878 0.619769 5.70878 0.619769 5.70878C0.619769 5.70878 0.859307 5.70878 0.979076 5.70878C1.09885 5.70878 1.09885 5.70878 1.09885 5.82529V5.94179V10.602C1.09885 11.301 1.69769 11.6505 2.65584 11.6505C3.49423 11.6505 4.45238 11.6505 4.45238 11.6505C4.57215 11.6505 4.81169 11.534 4.81169 11.301C4.93146 11.4175 5.29076 9.43694 5.41053 9.20393Z" fill="black"/>
<path d="M48.8872 11.4175C48.8872 11.4175 49.3662 9.43694 49.3662 9.20393C49.3662 9.08742 49.2465 9.08742 49.2465 9.08742H49.0069H48.2883C48.1686 9.08742 48.1686 9.08742 48.0488 8.97092C47.929 8.85441 47.929 8.85441 47.929 8.73791C47.929 8.6214 47.929 5.82529 47.929 5.82529C47.929 5.70878 48.0488 5.59228 48.1686 5.59228H49.1267C49.2465 5.59228 49.2465 5.47577 49.2465 5.47577V3.37869C49.2465 3.26218 49.1267 3.26218 49.0069 3.26218H48.1686C48.0488 3.26218 48.0488 3.26218 48.0488 3.26218L47.929 3.14568V0.582569C47.929 0.466064 47.929 0.466064 47.8092 0.466064H47.6895C47.6895 0.466064 45.4139 1.98063 45.2941 2.09713C45.1743 2.21364 45.1743 2.21364 45.1743 2.44665V3.02917C45.1743 3.14568 45.1743 3.14568 45.0546 3.14568L44.9348 3.26218C44.9348 3.26218 44.6952 3.26218 44.5755 3.26218C44.4557 3.26218 44.3359 3.37869 44.3359 3.49519V5.59228C44.3359 5.70878 44.3359 5.70878 44.4557 5.70878H44.815C44.9348 5.70878 44.9348 5.70878 44.9348 5.82529V5.94179V10.602C44.9348 11.301 45.6534 11.767 46.6116 11.767H48.2883C48.6476 11.6505 48.8872 11.534 48.8872 11.4175Z" fill="black"/>
<path d="M42.5391 5.82517C42.8984 5.82517 43.3775 5.94167 43.617 5.94167C43.617 5.94167 43.617 5.94167 43.617 5.82517V3.49507C43.617 3.37857 43.617 3.37857 43.4972 3.26206C43.2577 3.14556 42.6589 3.02905 41.9402 3.02905C40.3832 3.02905 37.5088 4.0776 37.5088 7.57274C37.5088 9.66983 39.3053 11.8834 42.06 11.8834C42.7786 11.8834 43.3775 11.7669 43.4972 11.6504C43.617 11.6504 43.7368 11.5339 43.7368 11.5339V9.20381C43.7368 9.08731 43.7368 9.08731 43.617 9.08731C43.4972 9.08731 43.0182 9.20381 42.5391 9.20381C42.4193 9.20381 42.4193 9.20381 42.2996 9.20381C41.2216 9.08731 40.6228 8.50478 40.6228 7.57274C40.6228 6.6407 41.2216 6.05818 42.2996 5.94167C42.4193 5.82517 42.4193 5.82517 42.5391 5.82517Z" fill="black"/>
<path d="M82.3021 5.82517C82.6614 5.82517 83.1405 5.94167 83.3801 5.94167C83.4998 5.94167 83.4998 5.94167 83.4998 5.82517V3.49507C83.4998 3.37857 83.4998 3.37857 83.3801 3.26206C83.1405 3.14556 82.5417 3.02905 81.8231 3.02905C80.2661 3.02905 77.3916 4.0776 77.3916 7.57274C77.3916 9.66983 79.1881 11.8834 81.9428 11.8834C82.6614 11.8834 83.2603 11.7669 83.3801 11.6504C83.4998 11.6504 83.6196 11.5339 83.6196 11.5339V9.20381C83.6196 9.08731 83.6196 9.08731 83.4998 9.08731C83.3801 9.08731 82.901 9.20381 82.4219 9.20381C82.3021 9.20381 82.3021 9.20381 82.1824 9.20381C81.1044 9.08731 80.5056 8.50478 80.5056 7.57274C80.5056 6.6407 81.1044 6.05818 82.1824 5.94167C82.1824 5.82517 82.3021 5.82517 82.3021 5.82517Z" fill="black"/>
<path d="M11.5186 5.82517C11.7581 5.82517 12.2372 5.94167 12.4767 5.94167C12.5965 5.94167 12.5965 5.94167 12.5965 5.82517V3.49507C12.5965 3.37857 12.5965 3.37857 12.4767 3.26206C12.2372 3.14556 11.6384 3.02905 10.9197 3.02905C9.36274 3.02905 6.48828 4.1941 6.48828 7.57274C6.48828 9.66983 8.28482 11.8834 11.0395 11.8834C11.7581 11.8834 12.357 11.7669 12.4767 11.6504C12.5965 11.6504 12.7163 11.5339 12.7163 11.5339V9.20381C12.7163 9.08731 12.7163 9.08731 12.5965 9.08731C12.4767 9.08731 11.9977 9.20381 11.5186 9.20381C11.3988 9.20381 11.3988 9.20381 11.279 9.20381C10.2011 8.9708 9.60228 8.38828 9.60228 7.45624C9.60228 6.5242 10.2011 5.94167 11.279 5.82517C11.279 5.82517 11.3988 5.82517 11.5186 5.82517Z" fill="black"/>
<path d="M24.4542 6.75721C24.5739 6.75721 24.5739 6.6407 24.5739 6.5242C24.4542 4.89313 23.0169 3.02905 20.5018 3.02905C19.1843 3.02905 18.1064 3.49507 17.268 4.31061C16.5494 5.24265 16.0703 6.29119 16.0703 7.45624C16.0703 9.78633 17.9866 11.8834 20.6215 11.8834C21.939 11.8834 23.0169 11.5339 23.496 11.1844C23.6158 11.0679 23.7355 10.9514 23.7355 10.7184V9.08731V8.9708C23.7355 8.9708 23.7355 8.8543 23.6158 8.8543H23.496C22.8972 9.08731 22.1785 9.43682 21.1006 9.43682C20.9808 9.43682 20.7413 9.43682 20.6215 9.43682C20.382 9.43682 20.1425 9.32031 19.9029 9.20381C19.7832 9.20381 19.7832 9.08731 19.7832 9.08731C19.7832 8.9708 19.9029 8.9708 19.9029 8.8543C20.9808 8.38828 24.3344 6.87371 24.4542 6.75721ZM19.1843 7.10672C19.0645 7.10672 18.9448 6.99022 18.9448 6.87371C18.9448 6.29119 19.4238 5.70866 19.9029 5.47565C20.1425 5.35915 20.382 5.24265 20.7413 5.24265C21.1006 5.24265 21.4599 5.35915 21.6995 5.59216V5.70866C21.6995 5.82517 21.6995 5.82517 21.5797 5.82517C21.5797 6.05818 19.1843 7.10672 19.1843 7.10672Z" fill="black"/>
<path d="M37.03 6.75721C37.1497 6.75721 37.1497 6.6407 37.1497 6.5242C37.03 4.89313 35.5927 3.02905 33.0776 3.02905C31.7601 3.02905 30.6822 3.49507 29.8438 4.31061C29.0054 5.12614 28.5264 6.17468 28.5264 7.33973C28.5264 9.66983 30.4427 11.7669 33.0776 11.7669C34.3951 11.7669 35.473 11.4174 35.9521 11.0679C36.0718 10.9514 36.1916 10.8349 36.1916 10.6019V9.08731V8.9708C36.1916 8.9708 36.1916 8.8543 36.0718 8.8543H35.9521C35.3532 9.08731 34.6346 9.43682 33.5567 9.43682C33.4369 9.43682 33.1974 9.43682 33.0776 9.43682C32.8381 9.43682 32.5985 9.32031 32.359 9.20381C32.2392 9.20381 32.2392 9.08731 32.2392 9.08731C32.2392 8.9708 32.359 8.9708 32.359 8.8543C33.6764 8.38828 36.9102 6.87371 37.03 6.75721ZM31.7601 7.10672C31.6404 7.10672 31.5206 6.99022 31.5206 6.87371C31.5206 6.29119 31.9997 5.70866 32.4787 5.47565C32.7183 5.35915 32.9578 5.24265 33.3171 5.24265C33.6764 5.24265 34.0357 5.35915 34.2753 5.59216V5.70866C34.2753 5.82517 34.2753 5.82517 34.1555 5.82517C34.1555 6.05818 31.8799 7.10672 31.7601 7.10672Z" fill="black"/>
</g>
<defs>
<clipPath id="clip0_2007_913">
<rect width="83" height="12" fill="white" transform="translate(0.5)"/>
</clipPath>
</defs>
</svg>
