<svg width="89" height="15" viewBox="0 0 89 15" fill="none" xmlns="http://www.w3.org/2000/svg">
<g clip-path="url(#clip0_2007_1024)">
<path d="M88.5 7.56196C88.5 11.6529 68.793 15.1239 44.5 15.1239C20.207 15 0.5 11.6529 0.5 7.56196C0.5 3.47105 20.207 0.123941 44.5 0.123941C68.793 -2.59504e-05 88.5 3.34708 88.5 7.56196Z" fill="#A6A9AA"/>
<path d="M44.4998 13.7604C32.8491 13.7604 21.8181 13.0166 13.5139 11.529C3.8463 10.0414 1.73926 8.42983 1.73926 7.56206C1.73926 6.69429 3.97024 5.08272 13.6378 3.47115C21.8181 1.98355 32.8491 1.23975 44.4998 1.23975C56.1505 1.23975 67.1815 1.98355 75.4857 3.47115C85.1533 5.08272 87.3843 6.69429 87.3843 7.56206C87.3843 8.42983 85.1533 10.0414 75.4857 11.653C67.1815 13.0166 56.1505 13.7604 44.4998 13.7604Z" fill="#252422"/>
<path d="M13.2665 7.68601L14.258 6.44634L15.1256 7.68601H13.2665ZM15.9932 5.08271H13.3904L13.8862 5.95048L11.4073 9.17362L10.0439 9.79345H13.3904L12.151 9.04965L12.6468 8.42981H15.4975L15.8693 9.04965L15.3735 9.79345H19.7116L18.5961 9.04965L16.489 5.70254L17.1087 4.95874L15.9932 5.08271Z" fill="#A6A9AA"/>
<path d="M39.1709 7.68583L40.1624 6.32219L41.03 7.68583H39.1709ZM41.4018 9.79326H45.7399L44.8723 9.04946L42.2694 5.08252H39.2948L39.6666 5.70235L37.1878 9.04946L36.0723 9.79326H39.0469L38.1793 9.04946L38.5511 8.55359H41.5258L41.8976 9.17343L41.4018 9.79326Z" fill="#A6A9AA"/>
<path d="M27.3962 5.08271L26.4046 6.07444V8.18188C26.4046 8.80172 26.1567 9.29758 25.7849 9.54552C25.1652 9.79345 24.5455 9.91742 23.6779 9.91742C22.8103 9.91742 21.8187 9.79345 21.199 9.42155C20.5793 9.17362 20.3314 8.67775 20.3314 8.18188V6.07444L19.3398 4.95874H23.43L22.5624 6.07444V7.80998C22.5624 8.18188 22.8103 8.30585 22.9342 8.55378C23.1821 8.67775 23.5539 8.80172 23.9258 8.80172C24.4215 8.80172 24.7934 8.67775 25.0413 8.55378C25.2891 8.42981 25.4131 8.18188 25.4131 7.80998V6.07444L24.4215 5.08271H27.3962Z" fill="#A6A9AA"/>
<path d="M31.3621 7.43789H32.8494H33.3452C33.841 7.43789 33.9649 6.81806 33.9649 6.44616C33.9649 6.19822 33.717 6.07426 33.5931 5.95029C33.4691 5.82632 33.0973 5.82632 32.6015 5.82632H31.3621V7.43789ZM34.7086 5.08252C34.7086 5.08252 36.072 5.33045 36.072 6.57012C36.072 7.80979 34.8325 8.18169 34.2128 8.30566L34.8325 9.04946L35.948 9.79326H33.2213L31.9818 8.18169H31.2382V8.92549L32.2297 9.91723H28.0156L29.2551 9.04946V5.82632L28.1396 5.08252H33.0973H34.7086Z" fill="#A6A9AA"/>
<path d="M52.432 5.08252V7.31392L51.1925 5.82632H49.9531V8.80153L51.0686 9.79326H46.7306L47.8461 8.80153V5.82632H46.4827L45.3672 7.31392V5.08252H52.432Z" fill="#A6A9AA"/>
<path d="M58.6294 8.92563C58.3815 9.29753 57.8857 9.42149 57.3899 9.42149C56.8942 9.42149 56.3984 9.29753 56.1505 8.92563C55.7787 8.55372 55.6547 8.05786 55.6547 7.56199C55.6547 6.94215 55.7787 6.44629 56.1505 6.07439C56.5223 5.70249 56.8942 5.45455 57.3899 5.45455C57.8857 5.45455 58.2576 5.57852 58.6294 6.07439C59.0012 6.44629 59.1252 6.94215 59.1252 7.56199C59.1252 8.18182 58.8773 8.55372 58.6294 8.92563ZM60.2407 5.45455C59.497 4.83472 58.5054 4.83472 57.3899 4.83472C56.2745 4.83472 55.2829 4.95868 54.5392 5.45455C53.7956 5.95042 53.2998 6.69422 53.2998 7.43802C53.2998 8.18182 53.6716 9.04959 54.5392 9.54546C55.4068 10.0413 56.2745 10.1653 57.3899 10.1653C58.5054 10.1653 59.373 10.0413 60.2407 9.54546C60.9843 9.04959 61.4801 8.05786 61.4801 7.31406C61.3561 6.69422 60.9843 6.07439 60.2407 5.45455Z" fill="#A6A9AA"/>
<path d="M61.7285 5.08252H65.1989L68.4215 7.68583V6.07426L67.306 5.08252H70.1567L69.2891 5.95029V9.79326H67.5539L64.0834 7.06599V9.04946L65.075 9.79326H62.3482L63.2158 9.04946V6.32219L61.7285 5.08252Z" fill="#A6A9AA"/>
<path d="M70.6523 5.08252H78.9566V6.57012L77.4692 5.82632H74.1228V7.31392H76.2298L77.2214 6.44616V8.80153L76.2298 7.93376H74.1228V9.17343H77.5932L78.9566 8.42963V9.91723H70.6523L71.7678 8.80153V6.19822L70.6523 5.08252Z" fill="#A6A9AA"/>
</g>
<defs>
<clipPath id="clip0_2007_1024">
<rect width="88" height="15" fill="white" transform="translate(0.5)"/>
</clipPath>
</defs>
</svg>
