<svg width="86" height="23" viewBox="0 0 86 23" fill="none" xmlns="http://www.w3.org/2000/svg">
<g clip-path="url(#clip0_2007_2296)">
<path d="M27.4035 8.7937C29.0234 10.5293 31.3375 11.455 33.6516 10.8764C34.5773 10.645 35.3872 10.4136 35.6187 9.60364C35.7344 9.25652 35.7344 8.7937 35.503 8.44658C35.2715 8.09946 34.8087 7.86804 34.4616 7.86804C31.8003 7.28951 28.3291 7.98375 26.2464 5.66961C25.6679 4.85967 25.4365 3.93401 25.7836 2.89265C26.3621 0.809927 28.6762 0.231393 30.6433 -2.04034e-05C33.3045 -0.231434 35.8501 0.462807 37.8171 2.31412L35.8501 4.04972C34.2302 2.31412 31.8003 2.19841 29.7176 2.66124C29.4862 2.77694 28.9077 3.00836 28.6762 3.47118C28.5605 3.7026 28.5605 4.04972 28.792 4.28113C29.3705 4.85967 30.1804 4.74396 30.759 4.97537C33.5359 5.4382 37.3543 4.97537 38.3956 8.21516C38.7427 9.48794 38.3956 10.645 37.5857 11.6864C36.1972 13.0748 34.4616 13.422 32.6103 13.422C29.8333 13.5377 26.7092 12.8434 24.9736 10.2979L27.4035 8.7937Z" fill="#231F20"/>
<path d="M53.3214 3.93403L50.7759 4.74398C49.8502 3.4712 48.5774 2.66126 46.9575 2.66126C45.2219 2.54555 43.3706 3.58691 42.5607 5.0911C41.9822 6.36387 42.0979 7.86806 42.9078 9.02513C44.0649 10.7607 46.0319 11.2236 47.9989 10.7607C49.156 10.4136 50.313 9.60366 50.8916 8.67801L53.5528 9.48796C52.1644 11.9178 49.6188 13.422 46.8418 13.422C44.2963 13.5377 41.635 12.3806 40.2466 9.95079C39.2052 8.21518 39.0895 5.55393 40.1308 3.81832C41.4036 1.38848 43.9492 0.115707 46.6104 0C49.2717 0.115707 51.9329 1.38848 53.3214 3.93403Z" fill="#231F20"/>
<path d="M8.54334 3.12416V13.0749H5.30355V3.12416H0.55957V0.578613H13.2873V3.12416H8.54334Z" fill="#231F20"/>
<path d="M17.1055 7.86813H19.8825L17.9154 3.70268L16.0641 7.86813H17.1055V10.5294H14.6757L13.5186 13.0749H10.1631L16.2955 0.462891H19.651L25.4364 13.0749H22.1966L21.0395 10.5294H17.1055V7.86813Z" fill="#231F20"/>
<path d="M59.2227 7.86814H62.2311L60.4955 3.7027L58.5285 7.86814H59.2227V10.5294H57.2557L55.983 13.0749H52.7432L58.7599 0.578613H62.1154L68.0165 13.0749H64.7767L63.2725 10.5294H59.2227V7.86814Z" fill="#231F20"/>
<path d="M68.5947 13.0749H71.4874V4.97546L74.7272 12.9592H77.0413L80.2811 5.09116V13.0749H83.2895V0.462891H79.4712L76 9.02519L72.4131 0.462891H68.5947V13.0749Z" fill="#231F20"/>
<path d="M5.41954 21.8685H4.49389V18.0502H2.64258V17.1245H7.15514V18.0502H5.41954V21.8685Z" fill="#231F20"/>
<path d="M17.6838 21.8685H16.6425L16.1797 20.8271H13.7498L13.4027 21.8685H12.3613L14.5598 17.1245H15.6011L17.6838 21.8685ZM14.2126 19.9015H15.9482L15.1383 18.1659L14.2126 19.9015Z" fill="#231F20"/>
<path d="M20.3454 21.9844C19.6511 21.9844 18.9569 21.753 18.6098 21.2902C18.0312 20.8273 17.7998 20.1331 17.7998 19.4389C17.7998 18.7446 18.1469 18.0504 18.6098 17.5876C19.0726 17.1247 19.7668 16.8933 20.3454 16.8933C21.3867 16.8933 22.081 17.3561 22.6595 18.1661L22.7752 18.2818L21.8495 18.7446V18.6289C21.5024 18.1661 20.9239 17.9347 20.2296 17.9347C19.6511 17.9347 19.304 18.0504 18.9569 18.3975C18.6098 18.7446 18.494 19.0917 18.494 19.5546C18.494 20.0174 18.6098 20.4802 18.9569 20.7116C19.304 21.0588 19.7668 21.1745 20.3454 21.1745C21.0396 21.1745 21.5024 20.943 21.9653 20.4802H21.8495L22.6595 20.943L22.5438 21.0588C22.1967 21.4059 21.8495 21.753 21.5024 21.9844C21.5024 21.9844 21.3867 21.9844 21.3867 22.1001C21.1553 21.8687 20.6925 21.9844 20.3454 21.9844Z" fill="#231F20"/>
<path d="M26.1307 21.8685H25.2051V17.1245H28.4449C28.9077 17.1245 29.2548 17.2402 29.4862 17.5873C29.7176 17.8188 29.8334 18.2816 29.8334 18.7444C29.8334 19.2072 29.7176 19.6701 29.3705 19.9015C29.1391 20.1329 28.6763 20.2486 28.2135 20.2486H26.015L26.1307 21.8685ZM26.1307 19.2072H28.3292C28.792 19.2072 29.0234 18.9758 29.0234 18.6287C29.0234 18.1659 28.792 17.9345 28.3292 17.9345H26.1307V19.2072Z" fill="#231F20"/>
<path d="M35.387 21.8685H34.3457L33.1886 20.1329H31.453V21.8685H30.5273V17.1245H33.7671C34.23 17.1245 34.5771 17.2402 34.8085 17.5873C35.0399 17.8188 35.1556 18.2816 35.1556 18.7444C35.1556 19.2072 35.0399 19.5544 34.8085 19.7858C34.6928 20.0172 34.4614 20.1329 34.1143 20.2486L35.387 21.8685ZM31.453 19.2072H33.6514C34.1143 19.2072 34.3457 18.9758 34.3457 18.6287C34.3457 18.1659 34.1143 17.9345 33.6514 17.9345H31.5687L31.453 19.2072Z" fill="#231F20"/>
<path d="M42.9086 21.8685H42.0986V17.1245H46.2641V18.0502H42.9086V18.8601H45.917V19.7858H42.9086V21.8685Z" fill="#231F20"/>
<path d="M51.4701 21.8685H47.0732V17.1245H51.3544V18.0502H47.9989V18.8601H50.8916V19.7858H47.9989V20.9428H51.4701V21.8685Z" fill="#231F20"/>
<path d="M12.015 21.8685H7.61816V17.1245H11.8993V17.9345V18.0502H8.54382V18.8601H11.4365V19.7858H8.54382V20.9428H12.015V21.8685Z" fill="#231F20"/>
<path d="M54.4786 21.9842C53.4373 21.9842 52.743 21.7528 52.0488 21.1742L51.9331 21.0585L52.3959 20.3643L52.5116 20.48C53.0902 20.9428 53.7844 21.1742 54.3629 21.1742C54.8258 21.1742 55.1729 21.0585 55.4043 20.9428C55.6357 20.8271 55.7514 20.7114 55.7514 20.48C55.7514 20.2486 55.6357 20.1329 55.2886 20.0172C55.1729 20.0172 54.8258 19.9015 53.9001 19.9015C53.2059 19.9015 52.743 19.7858 52.3959 19.5543C52.0488 19.3229 51.8174 18.9758 51.8174 18.513C51.8174 18.0502 52.0488 17.703 52.3959 17.3559C52.743 17.1245 53.3216 17.0088 54.0158 17.0088C54.9415 17.0088 55.6357 17.2402 56.2142 17.703L56.3299 17.8187L55.7514 18.513H55.6357C55.0572 18.1659 54.4786 18.0502 53.9001 18.0502C53.553 18.0502 53.2059 18.0502 52.9745 18.1659C52.743 18.2816 52.743 18.3973 52.743 18.513C52.743 18.6287 52.743 18.7444 52.9745 18.8601C53.0902 18.9758 53.4373 18.9758 53.7844 18.9758C54.3629 18.9758 54.7101 19.0915 54.9415 19.0915C55.52 19.2072 55.8671 19.3229 56.0985 19.5543C56.3299 19.7858 56.5614 20.1329 56.5614 20.48C56.5614 21.0585 56.33 21.4056 55.9828 21.7528C55.6357 21.7528 55.1729 21.8685 54.4786 21.9842Z" fill="#231F20"/>
<path d="M59.6857 21.9842C58.6443 21.9842 57.9501 21.7528 57.2558 21.1742L57.1401 21.0585L57.6029 20.3643L57.7187 20.48C58.2972 20.9428 58.9914 21.1742 59.57 21.1742C60.0328 21.1742 60.3799 21.0585 60.6113 20.9428C60.8427 20.8271 60.9584 20.7114 60.9584 20.48C60.9584 20.2486 60.8427 20.1329 60.4956 20.0172C60.3799 20.0172 60.0328 19.9015 59.1071 19.9015C58.4129 19.9015 57.9501 19.7858 57.6029 19.5543C57.2558 19.3229 57.0244 18.9758 57.0244 18.513C57.0244 18.0502 57.2558 17.703 57.6029 17.3559C57.9501 17.1245 58.5286 17.0088 59.2228 17.0088C60.1485 17.0088 60.8427 17.2402 61.4213 17.703L61.537 17.8187L60.9584 18.513H60.8427C60.2642 18.1659 59.6857 18.0502 59.1071 18.0502C58.76 18.0502 58.4129 18.0502 58.1815 18.1659C57.9501 18.2816 57.9501 18.3973 57.9501 18.513C57.9501 18.6287 57.9501 18.7444 58.1815 18.8601C58.2972 18.9758 58.6443 18.9758 58.9914 18.9758C59.57 18.9758 59.9171 19.0915 60.1485 19.0915C60.727 19.2072 61.0742 19.3229 61.3056 19.5543C61.537 19.7858 61.7684 20.1329 61.7684 20.48C61.7684 21.0585 61.537 21.4056 61.1899 21.7528C61.0742 21.7528 60.4956 21.8685 59.6857 21.9842Z" fill="#231F20"/>
<path d="M63.7352 17.1245H62.8096V21.8685H63.7352V17.1245Z" fill="#231F20"/>
<path d="M67.3219 21.9844C66.6277 21.9844 65.9334 21.753 65.5863 21.2902C65.0078 20.8273 64.7764 20.1331 64.7764 19.4389C64.7764 18.7446 65.1235 18.0504 65.702 17.5876C66.1648 17.1247 66.8591 16.8933 67.4376 16.8933C68.0162 16.8933 68.8261 17.1247 69.1732 17.5876C69.7518 18.0504 69.9832 18.7446 69.9832 19.4389C69.9832 20.1331 69.7518 20.8273 69.1732 21.2902C68.7104 21.753 68.0162 21.9844 67.3219 21.9844ZM67.3219 17.9347C66.7434 17.9347 66.3963 18.0504 66.0491 18.3975C65.702 18.7446 65.5863 19.0917 65.5863 19.5546C65.5863 20.0174 65.702 20.4802 66.0491 20.7116C66.3963 21.0588 66.8591 21.1745 67.3219 21.1745C67.9005 21.1745 68.2476 21.0588 68.5947 20.7116C68.9418 20.3645 69.0575 20.0174 69.0575 19.5546C69.0575 19.0917 68.8261 18.6289 68.479 18.2818C68.2476 18.0504 67.7847 17.9347 67.3219 17.9347Z" fill="#231F20"/>
<path d="M38.6276 21.9844C37.9333 21.9844 37.2391 21.753 36.892 21.2902C36.3134 20.8273 36.082 20.1331 36.082 19.4389C36.082 18.7446 36.4292 18.0504 37.0077 17.5876C37.4705 17.1247 38.1648 16.8933 38.7433 16.8933C39.4375 16.8933 40.1318 17.1247 40.4789 17.5876C41.0574 18.0504 41.2888 18.7446 41.2888 19.4389C41.2888 20.1331 41.0574 20.8273 40.4789 21.2902C40.0161 21.753 39.4375 21.9844 38.6276 21.9844ZM38.6276 17.9347C38.049 17.9347 37.7019 18.0504 37.3548 18.3975C37.0077 18.7446 36.892 19.0917 36.892 19.5546C36.892 20.0174 37.0077 20.4802 37.3548 20.7116C37.7019 21.0588 38.1648 21.1745 38.6276 21.1745C39.2061 21.1745 39.5532 21.0588 39.9004 20.7116C40.2475 20.3645 40.3632 20.0174 40.3632 19.5546C40.3632 19.0917 40.1318 18.6289 39.7846 18.2818C39.5532 18.0504 39.2061 17.9347 38.6276 17.9347Z" fill="#231F20"/>
<path d="M75.4217 21.8685H74.3804L71.6034 18.3973V21.8685H70.6777V17.1245H71.7191L74.4961 20.5957V17.1245H75.4217V21.8685Z" fill="#231F20"/>
<path d="M81.0916 21.8685H80.0502L79.5874 20.8271H77.1575L76.6947 21.7528H76.0005H75.8848L76.0005 21.6371L78.0832 17.0088H78.8931L81.0916 21.8685ZM77.6204 19.9015H79.356L78.546 18.1659L77.6204 19.9015Z" fill="#231F20"/>
<path d="M85.4887 21.8685H81.5547V17.1245H82.3646V20.9428H85.4887V21.8685Z" fill="#231F20"/>
</g>
<defs>
<clipPath id="clip0_2007_2296">
<rect width="84.9288" height="22.1" fill="white" transform="translate(0.55957)"/>
</clipPath>
</defs>
</svg>
