<svg width="142" height="9" viewBox="0 0 142 9" fill="none" xmlns="http://www.w3.org/2000/svg">
<path d="M2.7002 0.316039C3.0002 0.416039 3.3002 0.416039 3.6002 0.416039H5.4002H11.8002C11.5002 0.316039 11.2002 0.316039 10.9002 0.316039H9.0002H2.7002ZM13.9002 0.316039C14.2002 0.416039 14.6002 0.416039 15.0002 0.416039H17.3002H25.1002C24.8002 0.316039 24.4002 0.316039 24.0002 0.316039H21.7002H13.9002ZM27.8002 0.316039C28.1002 0.416039 28.4002 0.416039 28.7002 0.416039H30.4002C30.1002 0.316039 29.8002 0.316039 29.5002 0.316039H27.8002ZM42.1002 0.316039C42.4002 0.416039 42.8002 0.416039 43.1002 0.416039H45.2002H52.3002C52.0002 0.316039 51.6002 0.316039 51.3002 0.316039H49.2002H42.1002ZM55.5002 0.316039C55.8002 0.416039 56.2002 0.416039 56.5002 0.416039H58.6002H65.7002C65.4002 0.316039 65.0002 0.316039 64.7002 0.316039H62.6002H55.5002ZM68.6002 0.316039C68.8002 0.416039 69.1002 0.416039 69.4002 0.416039H70.9002C70.6002 0.316039 70.3002 0.316039 70.1002 0.316039H68.6002ZM81.9002 0.316039C82.1002 0.416039 82.4002 0.416039 82.7002 0.416039H84.1002C83.9002 0.316039 83.6002 0.316039 83.3002 0.316039H81.9002ZM87.6002 0.316039C87.9002 0.416039 88.2002 0.416039 88.5002 0.416039H90.2002C89.9002 0.316039 89.6002 0.316039 89.3002 0.316039H87.6002ZM101.3 0.316039C101.8 0.516039 102.7 0.416039 103.3 0.416039C102.8 0.116039 101.9 0.316039 101.3 0.316039ZM109.7 0.316039C110 0.416039 110.5 0.416039 110.9 0.416039H113.4C113.1 0.316039 112.6 0.316039 112.2 0.316039H109.7ZM116.3 0.316039C116.6 0.416039 117 0.416039 117.3 0.416039H119.4H126.5C126.2 0.316039 125.8 0.316039 125.5 0.316039H123.4H116.3ZM129.7 0.316039C130 0.416039 130.3 0.416039 130.6 0.416039H132.4H138.8C138.5 0.316039 138.2 0.316039 137.9 0.316039H136.1H129.7Z" fill="#C9E6D5"/>
<path d="M2.69966 0.416026C2.49966 0.416026 2.29966 0.516026 2.09966 0.616026C0.899662 1.21603 1.09966 2.51603 1.09966 3.61603C1.09966 4.01603 0.999662 4.71603 1.29966 5.01603C1.59966 5.31603 2.39966 5.11603 2.79966 5.11603H7.09966C7.69966 5.11603 8.79966 5.01603 8.99966 5.81603C8.99966 6.01603 8.79966 6.21603 8.59966 6.31603C8.09966 6.41603 7.49966 6.31603 7.09966 6.31603H2.09966C1.69966 6.31603 1.29966 6.31603 0.899662 6.31603C0.699662 6.31603 0.499662 6.21603 0.299662 6.41603C0.199662 6.51603 0.199662 6.71603 0.199662 6.81603C0.199662 7.11603 -0.000337571 8.11603 0.499662 8.21603C0.699662 8.31603 0.999662 8.21603 1.29966 8.21603H2.89966H7.99966C8.99966 8.21603 10.1997 8.41603 11.1997 8.01603C12.4997 7.51603 12.1997 5.91603 12.1997 4.81603C12.1997 4.51603 12.2997 3.71603 11.9997 3.51603C11.5997 3.21603 10.7997 3.41603 10.3997 3.41603H6.19966C5.79966 3.41603 5.19966 3.51603 4.89966 3.31603C4.69966 3.21603 4.49966 3.01603 4.59966 2.81603C4.69966 2.11603 5.99966 2.31603 6.49966 2.31603H10.5997H11.6997C11.8997 2.31603 12.0997 2.31603 12.1997 2.21603C12.3997 2.11603 12.3997 1.91603 12.3997 1.71603C12.3997 1.31603 12.5997 0.516026 12.0997 0.416026C11.6997 0.316026 11.1997 0.416026 10.7997 0.416026H8.09966H4.39966C3.79966 0.416026 3.19966 0.316026 2.69966 0.416026Z" fill="#008836"/>
<path d="M17.6004 2.31595C17.6004 2.61595 17.9004 2.81595 17.9004 3.01595C18.1004 4.01595 17.9004 5.11595 17.9004 6.01595C17.9004 6.51595 17.7004 7.41595 18.0004 7.81595C18.2004 8.11595 18.5004 8.11595 18.7004 8.11595C19.2004 8.11595 19.7004 8.11595 20.2004 8.11595C20.5004 8.11595 20.7004 8.11595 20.8004 7.81595C21.1004 7.31595 20.9004 6.51595 20.9004 5.91595C20.9004 4.91595 20.8004 3.81595 20.9004 2.91595C20.9004 2.61595 21.1004 2.51595 21.2004 2.21595H24.0004C24.3004 2.21595 24.8004 2.31595 25.1004 2.21595C25.4004 2.11595 25.3004 1.71595 25.3004 1.51595C25.3004 1.01595 25.4004 0.315953 24.7004 0.215953C23.9004 0.115953 23.0004 0.215953 22.1004 0.215953H16.9004H14.7004C14.3004 0.215953 13.9004 0.115953 13.6004 0.315953C13.1004 0.515953 13.2004 1.21595 13.3004 1.61595C13.3004 1.81595 13.3004 2.11595 13.6004 2.21595C13.9004 2.31595 14.4004 2.21595 14.8004 2.21595L17.6004 2.31595Z" fill="#008836"/>
<path d="M27.5996 0.416016C27.6996 0.416016 27.6996 0.416016 27.7996 0.516016C27.7996 0.416016 27.6996 0.416016 27.5996 0.416016Z" fill="#50AC7A"/>
<path d="M34.5004 8.21602C34.4004 7.81602 34.2004 7.61602 33.9004 7.31602C33.6004 7.01602 33.1004 6.31602 32.6004 6.31602C32.0004 6.21602 31.3004 6.31602 30.7004 6.31602C30.4004 6.31602 30.1004 6.31602 29.9004 6.21602C29.6004 6.01602 29.6004 5.61602 29.6004 5.21602V2.81602C29.7004 2.81602 29.7004 2.81602 29.7004 2.71602C30.1004 3.01602 30.4004 3.31602 30.7004 3.61602C31.5004 4.41602 32.4004 5.21602 33.2004 6.01602C33.7004 6.51602 34.3004 7.01602 34.8004 7.51602C35.0004 7.71602 35.3004 8.11602 35.7004 8.21602C35.9004 8.31602 36.2004 8.21602 36.4004 8.21602H37.7004C38.1004 8.21602 38.5004 8.21602 39.0004 8.21602C39.1004 8.21602 39.3004 8.21602 39.4004 8.01602C39.4004 7.71602 39.0004 7.41602 38.8004 7.21602L36.9004 5.41602C35.8004 4.41602 34.7004 3.31602 33.5004 2.31602C32.8004 1.71602 32.2004 1.11602 31.4004 0.716016C30.7004 0.416016 29.9004 0.416016 29.1004 0.416016C28.7004 0.416016 28.3004 0.416016 27.9004 0.416016C27.2004 0.516016 27.0004 1.21602 27.0004 1.81602V6.21602C27.0004 6.81602 26.9004 7.51602 27.3004 8.01602C27.8004 8.41602 28.7004 8.21602 29.3004 8.21602H34.5004Z" fill="#008836"/>
<path d="M42.1003 0.415953C41.9003 0.415953 41.6004 0.515953 41.4004 0.615953C40.4004 1.01595 40.5004 2.11595 40.5004 3.11595V5.31595C40.5004 6.01595 40.4004 6.91595 40.9004 7.61595C41.5004 8.41595 42.6004 8.21595 43.5004 8.21595H49.2004C50.0004 8.21595 51.1003 8.41595 51.8003 8.01595C52.9003 7.41595 52.6003 5.81595 52.6003 4.71595C52.6003 4.31595 52.8003 3.61595 52.3003 3.41595C52.0003 3.31595 51.7004 3.31595 51.4004 3.31595C50.9004 3.31595 50.4004 3.31595 49.9004 3.31595C49.6004 3.31595 49.3004 3.41595 49.2004 3.61595C48.9004 4.21595 49.5004 5.31595 48.9004 5.81595C48.6004 6.01595 48.1003 6.01595 47.8003 6.01595H45.3003C44.9003 6.01595 44.5004 6.01595 44.2004 5.71595C43.9004 5.31595 44.0004 4.61595 44.0004 4.11595C44.0004 3.61595 43.9003 2.91595 44.3003 2.51595C44.7003 2.11595 45.5004 2.21595 46.0004 2.21595H50.4004H52.0003C52.2003 2.21595 52.5003 2.21595 52.6003 2.01595C52.7003 1.91595 52.7004 1.71595 52.7004 1.61595C52.7004 1.21595 52.9004 0.415953 52.4004 0.215953C52.1004 0.115953 51.7003 0.215953 51.3003 0.215953H49.1003H44.6003C43.7003 0.415953 42.9003 0.315953 42.1003 0.415953Z" fill="#008836"/>
<path d="M55.2998 0.416016C55.3998 0.416016 55.3998 0.416016 55.4998 0.516016C55.4998 0.416016 55.3998 0.416016 55.2998 0.416016Z" fill="#50AD76"/>
<path d="M57.4003 6.31604C57.4003 6.01604 56.9003 5.71604 57.3003 5.31604C57.8003 4.91604 58.9003 5.11604 59.5003 5.11604H63.5003C64.2003 5.11604 65.0003 5.01604 65.8003 5.21604C66.0003 4.81604 66.1003 3.81604 65.7003 3.51604C65.3003 3.21604 64.4003 3.31604 63.9003 3.31604H59.3003C58.8003 3.31604 58.1003 3.41604 57.6003 3.31604C57.4003 3.21604 57.2003 3.01604 57.2003 2.81604C57.2003 2.61604 57.5003 2.41604 57.7003 2.31604C58.2003 2.21604 58.8003 2.31604 59.3003 2.31604H64.1003H65.3003C65.5003 2.31604 65.7003 2.31604 65.9003 2.21604C66.0003 2.11604 66.0003 1.91604 66.1003 1.81604C66.1003 1.51604 66.2003 0.91604 66.1003 0.61604C66.0003 0.31604 65.6003 0.31604 65.4003 0.31604H63.3003H56.5003C55.6003 0.31604 54.5003 0.51604 54.3003 1.61604C54.2003 2.11604 54.3003 2.91604 54.3003 3.51604V6.11604C54.3003 6.41604 54.2003 6.71604 54.3003 7.01604C54.3003 7.41604 54.6003 7.71604 54.9003 7.91604C55.4003 8.31604 56.1003 8.21604 56.8003 8.21604H60.4003H64.8003C65.2003 8.21604 66.1003 8.41604 66.2003 7.91604C66.3003 7.61604 66.2003 7.11604 66.2003 6.81604C66.2003 6.61604 66.2003 6.51604 66.0003 6.41604C65.8003 6.31604 65.6003 6.31604 65.4003 6.31604C64.9003 6.31604 64.3003 6.31604 63.8003 6.31604H57.4003Z" fill="#008836"/>
<path d="M74.9998 8.216C74.8998 7.816 74.6998 7.616 74.3998 7.316C73.9998 6.916 73.4998 6.316 72.8998 6.216C72.3998 6.116 71.7998 6.216 71.1998 6.216C70.9998 6.216 70.6998 6.216 70.4998 6.116C70.0998 5.916 70.0998 5.416 70.0998 5.016C70.0998 4.216 70.0998 3.416 70.1998 2.516C70.6998 2.916 71.1998 3.416 71.6998 3.816C72.5998 4.616 73.4998 5.416 74.3998 6.216C74.8998 6.716 75.4998 7.516 76.2998 7.516C77.1998 7.516 77.6998 6.816 78.2998 6.316C79.3998 5.416 80.3998 4.316 81.4998 3.416C81.7998 3.116 82.0998 2.816 82.4998 2.516C82.6998 3.316 82.5998 4.216 82.5998 5.016C82.5998 5.416 82.5998 5.716 82.1998 6.016C81.9998 6.116 81.7998 6.116 81.5998 6.116C81.1998 6.116 80.6998 6.116 80.2998 6.116C79.4998 6.116 79.0998 6.616 78.4998 7.116C78.1998 7.416 77.8998 7.616 77.7998 8.016C78.3998 8.216 79.0998 8.116 79.6998 8.116H83.2998C83.8998 8.116 84.6998 8.216 85.0998 7.716C85.4998 7.216 85.2998 6.516 85.2998 5.916V2.716C85.2998 2.216 85.3998 1.616 85.2998 1.116C85.1998 0.716 84.7998 0.416 84.3998 0.316C83.9998 0.216 83.5998 0.216 83.1998 0.216C82.5998 0.216 81.9998 0.216 81.3998 0.316C80.3998 0.616 79.5998 1.316 78.8998 2.016C78.3998 2.516 77.7998 3.016 77.2998 3.516C77.0998 3.716 76.7998 4.116 76.4998 4.116C76.1998 4.116 75.9998 3.916 75.7998 3.716C75.3998 3.316 74.8998 2.916 74.4998 2.516C73.5998 1.716 72.6998 0.616 71.4998 0.216C70.8998 0.016 70.2998 0.016 69.5998 0.016C69.0998 0.016 68.4998 -0.084 67.9998 0.216C67.3998 0.616 67.3998 1.216 67.3998 1.816V5.816C67.3998 6.416 67.2998 7.116 67.8998 7.516C68.4998 7.916 69.3998 7.716 70.0998 7.716L74.9998 8.216Z" fill="#008836"/>
<path d="M94.3003 8.21595C94.3003 7.81595 94.0002 7.51595 93.6002 7.21595C93.2002 6.91595 92.8003 6.31595 92.3003 6.21595C91.7003 6.11595 91.1002 6.21595 90.5002 6.21595C90.2002 6.21595 89.9002 6.21595 89.7002 6.11595C89.4002 5.91595 89.4002 5.61595 89.4002 5.31595V3.91595C89.4002 3.41595 89.4002 3.01595 89.6002 2.61595C91.0002 4.01595 92.4002 5.41595 93.9002 6.71595C94.4002 7.11595 94.9002 7.91595 95.5002 8.11595C95.8002 8.21595 96.3002 8.11595 96.7002 8.11595H99.2002C99.2002 7.61595 98.9002 7.41595 98.5002 7.01595C97.9002 6.41595 97.2002 5.81595 96.6002 5.31595C95.4002 4.31595 94.3002 3.21595 93.2002 2.11595C92.5002 1.51595 91.8002 0.815951 90.9002 0.415951C90.3002 0.215951 89.8002 0.215951 89.2002 0.215951C88.6002 0.215951 87.9003 0.115951 87.3003 0.415951C86.7003 0.715951 86.8003 1.41595 86.8003 2.01595V6.31595C86.8003 6.81595 86.6002 7.61595 87.1002 8.01595C87.6002 8.41595 88.6002 8.21595 89.1002 8.21595H94.3003Z" fill="#008836"/>
<path d="M107.7 6.31605C108 6.91605 108.7 7.31605 109.1 7.71605C109.3 7.91605 109.5 8.11605 109.8 8.21605C110.4 8.41605 111.2 8.21605 111.9 8.21605C112.3 8.21605 112.7 8.21605 113 8.21605C113.1 8.21605 113.3 8.21605 113.4 8.11605C113.6 7.81605 112.9 7.31605 112.7 7.11605C112 6.51605 111.3 5.81605 110.6 5.11605C110.3 4.91605 110.1 4.61605 109.7 4.41605C109.9 4.11605 110.3 3.81605 110.6 3.51605C111.2 2.91605 111.9 2.31605 112.5 1.61605C112.8 1.31605 113.4 0.916051 113.4 0.516051C113.4 0.216051 112.9 0.316051 112.7 0.316051H110.4C110.2 0.316051 109.9 0.316051 109.7 0.416051C109.1 0.616051 108.6 1.41605 108.1 1.81605C107.1 2.81605 106.1 3.71605 105.1 4.61605C104.7 5.01605 104.3 5.61605 103.7 5.81605V2.31605C103.7 1.81605 103.8 1.11605 103.6 0.616051C103.5 0.416051 103.4 0.316051 103.2 0.316051C102.7 0.216051 102.1 0.316051 101.6 0.316051C101.4 0.316051 101.2 0.316051 101 0.516051C100.8 0.616051 100.8 0.916051 100.8 1.11605C100.8 1.51605 100.8 1.91605 100.8 2.31605V6.41605C100.8 7.11605 100.8 7.71605 101.5 8.01605C101.9 8.21605 102.4 8.21605 102.9 8.21605C103.7 8.21605 104.5 8.21605 105.3 7.91605C106.3 7.51605 106.9 6.71605 107.7 6.31605Z" fill="#008836"/>
<path d="M126.7 8.01602C126.6 7.61602 126.6 7.31602 126.6 6.91602C126.6 6.71602 126.6 6.51602 126.4 6.41602C126.2 6.21602 125.9 6.31602 125.7 6.31602H124.2H118.1C118.1 6.11602 117.9 5.91602 117.9 5.61602C117.9 5.41602 118.2 5.31602 118.2 5.11602H121.6H123.9H125.7C125.9 5.11602 126.3 5.21602 126.5 5.11602C126.7 5.01602 126.7 4.81602 126.7 4.71602C126.7 4.31602 126.8 3.71602 126.4 3.51602C125.9 3.31602 125 3.41602 124.4 3.41602H120C119.5 3.41602 118.9 3.51602 118.4 3.41602C118.1 3.41602 117.9 3.21602 118 2.91602C118 2.61602 118.3 2.41602 118.5 2.41602C119 2.31602 119.6 2.41602 120.2 2.41602H124.8H126C126.2 2.41602 126.4 2.41602 126.6 2.31602C126.7 2.21602 126.7 2.11602 126.8 1.91602C126.8 1.61602 126.9 1.11602 126.8 0.816016C126.7 0.516016 126.4 0.516016 126.1 0.516016H124.2H118C117.1 0.516016 116 0.416016 115.4 1.01602C114.8 1.61602 114.9 2.21602 114.9 2.91602C114.9 4.11602 114.9 5.21602 114.9 6.41602C114.9 7.01602 114.9 7.61602 115.5 8.01602C116.2 8.51602 117.4 8.31602 118.3 8.31602H124.3C124.9 8.21602 126 8.41602 126.7 8.01602Z" fill="#008836"/>
<path d="M140.6 8.21597C140.6 7.61597 140.1 7.41597 139.7 7.01597C139 6.41597 138.1 5.81597 137.6 5.11597C138.3 5.11597 139.2 5.21597 139.8 4.71597C140.1 4.41597 140.1 4.01597 140.1 3.61597C140.1 2.81597 140.4 1.21597 139.6 0.715971C138.9 0.215971 137.8 0.415971 137 0.415971H131.8C131 0.415971 130 0.315971 129.2 0.515971C128.6 0.715971 128.2 1.21597 128.1 1.81597C128 2.31597 128.1 2.81597 128.1 3.31597V6.11597C128.1 6.61597 128.1 7.11597 128.1 7.61597C128.1 7.81597 128.2 8.11597 128.4 8.21597C128.6 8.31597 128.9 8.21597 129.1 8.21597C129.6 8.21597 130.1 8.21597 130.6 8.21597C130.8 8.21597 131.1 8.21597 131.2 7.91597C131.4 7.41597 131.2 6.71597 131.2 6.21597C131.2 5.91597 131.2 5.61597 131.4 5.41597C131.8 5.01597 132.6 5.11597 133.2 5.11597C133.7 5.11597 134 5.51597 134.3 5.81597C134.9 6.41597 135.5 6.91597 136.2 7.51597C136.4 7.71597 136.6 7.91597 136.8 8.01597C137.1 8.21597 137.6 8.11597 137.9 8.11597L140.6 8.21597Z" fill="#008836"/>
<path d="M55.0996 0.416016C55.0996 0.516016 55.1996 0.516016 55.0996 0.416016V0.416016Z" fill="#70BB90"/>
<path d="M68.3003 0.416016C68.2003 0.516016 68.3003 0.516016 68.3003 0.416016V0.416016Z" fill="#4AAA71"/>
<path d="M71.2002 0.416016C71.2002 0.516016 71.3002 0.516016 71.2002 0.416016V0.416016Z" fill="#73BD92"/>
<path d="M113.4 0.416016V0.616016C113.5 0.516016 113.5 0.516016 113.4 0.416016Z" fill="#C8E5D4"/>
<path d="M141.1 0.416016C141.2 0.416016 141.3 0.516016 141.4 0.516016C141.3 0.416016 141.2 0.416016 141.1 0.416016Z" fill="#6EBC8B"/>
<path d="M141.1 0.515991C141.2 0.615991 141.3 0.615991 141.5 0.615991C141.3 0.515991 141.2 0.515991 141.1 0.515991Z" fill="#00832C"/>
<path d="M141.4 0.515991C141.5 0.715991 141.6 0.715991 141.7 0.815991C141.7 0.715991 141.6 0.615991 141.4 0.515991Z" fill="#20974F"/>
<path d="M12 0.615967V2.11597C12.2 1.71597 12.2 0.915967 12 0.615967Z" fill="#36A163"/>
<path d="M141.1 1.41599C140.9 1.01599 140.9 0.915991 141.1 0.515991C140.7 0.815991 140.7 1.21599 141.1 1.41599Z" fill="#1F9650"/>
<path d="M141.1 0.615967C141.2 0.615967 141.3 0.715967 141.4 0.715967C141.3 0.615967 141.2 0.615967 141.1 0.615967Z" fill="#D8EDE0"/>
<path d="M66 0.615967V2.11597C66.1 1.71597 66.1 1.01597 66 0.615967Z" fill="#DDF0E5"/>
<path d="M80.9995 0.615967C80.8995 0.715967 80.9995 0.715967 80.9995 0.615967V0.615967Z" fill="#2A9C57"/>
<path d="M141 0.615967L140.9 0.715967H141C141.1 0.615967 141.1 0.715967 141 0.615967Z" fill="#A9D6BC"/>
<path d="M141.1 0.615967C141.5 0.815967 141.5 0.915967 141.6 1.31597C141.5 1.21597 141.4 1.21597 141.3 1.11597L141.1 1.31597C141.4 1.41597 141.9 1.11597 141.6 0.715967C141.4 0.615967 141.2 0.615967 141.1 0.615967Z" fill="white"/>
<path d="M100.9 0.715942V7.11594C101.1 6.61594 101 5.91594 101 5.41594V2.21594C101 1.71594 101.1 1.11594 100.9 0.715942Z" fill="#50AD77"/>
<path d="M126.7 0.715942V2.01594C126.8 1.71594 126.8 1.01594 126.7 0.715942Z" fill="#36A162"/>
<path d="M141.1 0.715942C141.2 0.815942 141.3 0.815942 141.4 0.815942C141.3 0.715942 141.2 0.715942 141.1 0.715942Z" fill="#4BAB71"/>
<path d="M25.5 0.81604V2.11604C25.6 1.71604 25.6 1.11604 25.5 0.81604Z" fill="#70BD90"/>
<path d="M52.5 0.81604V2.11604C52.6 1.71604 52.6 1.11604 52.5 0.81604Z" fill="#229751"/>
<path d="M140.9 0.81604C140.8 1.01604 140.8 1.11604 140.9 1.31604C141 1.01604 141 0.91604 140.9 0.81604Z" fill="white"/>
<path d="M141 0.81604V1.31604C141.1 1.01604 141.1 0.91604 141 0.81604Z" fill="#75BF92"/>
<path d="M141.1 0.816049V1.31605C141.1 1.21605 141.2 1.21605 141.2 1.11605L141.4 1.21605C141.3 1.01605 141.2 0.916049 141.1 0.816049C141.3 0.916049 141.3 0.916049 141.4 1.01605C141.5 0.716049 141.2 0.816049 141.1 0.816049Z" fill="#00822C"/>
<path d="M141.4 0.81604V1.01604C141.5 0.81604 141.5 0.91604 141.4 0.81604Z" fill="#8BC9A3"/>
<path d="M141.1 0.916026C141.2 0.816026 141.2 0.916026 141.1 0.916026V0.916026Z" fill="#3BA364"/>
<path d="M141.2 0.81604C141.2 0.91604 141.3 0.91604 141.2 0.81604V0.81604Z" fill="#EFF8F1"/>
<path d="M141.3 0.81604C141.3 1.01604 141.3 1.11604 141.4 1.21604C141.4 1.11604 141.4 0.91604 141.3 0.81604Z" fill="#0E8F41"/>
<path d="M141.7 0.81604V1.11604C141.8 1.01604 141.8 1.01604 141.7 0.81604Z" fill="#008430"/>
<path d="M141.6 0.916016V1.11602C141.7 1.01602 141.7 1.01602 141.6 0.916016Z" fill="#D4EADE"/>
<path d="M13.4004 0.916016V1.91602C13.5004 1.71602 13.5004 1.21602 13.4004 0.916016Z" fill="#50AD77"/>
<path d="M103.7 0.916016V5.71602C103.8 5.41602 103.8 4.91602 103.8 4.61602V2.21602C103.8 1.81602 103.9 1.31602 103.7 0.916016Z" fill="#DDF0E4"/>
<path d="M141.1 1.01599L141 1.31599C141.1 1.21599 141.1 1.21599 141.1 1.01599Z" fill="#5BB27D"/>
<path d="M141.4 1.11597L141.3 1.21597C141.4 1.31597 141.5 1.31597 141.4 1.11597Z" fill="#8DC9A4"/>
<path d="M141.6 1.11597V1.31597C141.7 1.21597 141.7 1.21597 141.7 1.11597H141.6Z" fill="#219650"/>
<path d="M67.4004 1.31605C67.5004 1.21605 67.5004 1.31605 67.4004 1.31605V1.31605Z" fill="#4EAD72"/>
<path d="M85.2998 1.31605C85.3998 1.21605 85.3998 1.31605 85.2998 1.31605V1.31605Z" fill="#AFD8BD"/>
<path d="M140.9 1.21594C140.9 1.31594 140.9 1.31594 141 1.31594V1.21594H140.9Z" fill="#AAD7BC"/>
<path d="M26.9004 1.31604V7.31604C27.1004 6.91604 27.0004 6.31604 27.0004 5.91604V2.91604C27.0004 2.41604 27.1004 1.71604 26.9004 1.31604Z" fill="#C9E6D4"/>
<path d="M86.7002 1.31604V7.31604C86.9002 6.91604 86.8002 6.21604 86.8002 5.71604V2.71604C86.8002 2.21604 86.9002 1.71604 86.7002 1.31604Z" fill="#EFF8F0"/>
<path d="M86.7998 1.31604V7.31604C86.9998 6.91604 86.8998 6.21604 86.8998 5.71604V2.71604C86.7998 2.21604 86.8998 1.71604 86.7998 1.31604Z" fill="#108F47"/>
<path d="M67.2998 1.31604V1.61604C67.3998 1.51604 67.3998 1.51604 67.2998 1.31604Z" fill="#C6E4D4"/>
<path d="M85.2998 1.31604V1.61604C85.3998 1.51604 85.3998 1.51604 85.2998 1.31604Z" fill="#249750"/>
<path d="M141.1 1.31604C141.2 1.31604 141.3 1.41604 141.4 1.41604C141.3 1.41604 141.2 1.41604 141.1 1.31604Z" fill="#D8ECE0"/>
<path d="M141.4 1.51602L141.6 1.41602C141.5 1.41602 141.5 1.41602 141.4 1.51602Z" fill="#259952"/>
<path d="M141.1 1.41602C141.2 1.51602 141.3 1.51602 141.5 1.51602C141.3 1.41602 141.2 1.41602 141.1 1.41602Z" fill="#00832E"/>
<path d="M140.1 1.51599V4.11599C140.3 3.61599 140.2 2.81599 140.2 2.21599C140.2 2.01599 140.2 1.71599 140.1 1.51599Z" fill="#6EBD8C"/>
<path d="M141.1 1.51599C141.2 1.51599 141.3 1.61599 141.4 1.61599C141.3 1.51599 141.2 1.51599 141.1 1.51599Z" fill="#70BC8D"/>
<path d="M40.4004 1.71594V6.91594C40.6004 6.51594 40.5004 6.01594 40.5004 5.61594V3.01594C40.5004 2.51594 40.6004 2.01594 40.4004 1.71594Z" fill="#AFDAC0"/>
<path d="M67.2998 1.71594V7.01594C67.4998 6.61594 67.3998 6.11594 67.3998 5.71594V3.01594C67.3998 2.61594 67.4998 2.11594 67.2998 1.71594Z" fill="#36A161"/>
<path d="M85.2998 1.71594V7.11594C85.4998 6.71594 85.3998 6.21594 85.3998 5.81594V3.11594C85.3998 2.61594 85.4998 2.11594 85.2998 1.71594Z" fill="#00812C"/>
<path d="M85.4004 1.71594V7.11594C85.6004 6.71594 85.5004 6.21594 85.5004 5.81594V3.11594C85.4004 2.61594 85.5004 2.11594 85.4004 1.71594Z" fill="#8FCAA9"/>
<path d="M1 1.91602V4.71602C1.2 4.11602 1.1 3.21602 1.1 2.61602C1.1 2.41602 1.1 2.11602 1 1.91602Z" fill="#AFDAC0"/>
<path d="M53.9004 1.91602V6.91602C54.0004 6.61602 54.0004 6.11602 54.0004 5.71602V3.21602C54.0004 2.81602 54.0004 2.31602 53.9004 1.91602Z" fill="#70BD8F"/>
<path d="M54 1.91602V6.91602C54.1 6.61602 54.1 6.11602 54.1 5.71602V3.21602C54 2.81602 54.1 2.31602 54 1.91602Z" fill="#00812B"/>
<path d="M114.6 1.91602V6.71602C114.7 6.41602 114.7 5.91602 114.7 5.61602V3.21602C114.7 2.81602 114.8 2.31602 114.6 1.91602Z" fill="#8FCAA9"/>
<path d="M128.1 1.91602V7.71602C128.3 7.31602 128.2 6.81602 128.2 6.41602V3.51602C128.1 3.01602 128.2 2.41602 128.1 1.91602Z" fill="#51AD75"/>
<path d="M114.7 2.01599V6.71599C114.9 6.31599 114.8 5.81599 114.8 5.41599V3.11599C114.7 2.81599 114.8 2.31599 114.7 2.01599Z" fill="#00802C"/>
<path d="M4.7002 2.31604C4.9002 2.41604 5.2002 2.41604 5.5002 2.41604H6.8002H11.7002C11.5002 2.31604 11.2002 2.31604 10.9002 2.31604H9.6002H4.7002Z" fill="#35A15F"/>
<path d="M57.5996 2.31602C57.8996 2.41602 58.1996 2.41602 58.4996 2.41602H60.0996H65.6996C65.3996 2.21602 65.0996 2.31602 64.7996 2.31602H63.1996H57.5996Z" fill="#35A15F"/>
<path d="M118.3 2.31604C118.6 2.41604 118.9 2.41604 119.2 2.41604H120.8H126.4C126.1 2.31604 125.8 2.31604 125.5 2.31604H123.9H118.3Z" fill="#35A15F"/>
<path d="M131.6 2.31602C132 2.51602 132.7 2.41602 133.1 2.41602H136.3C135.9 2.21602 135.2 2.31602 134.8 2.31602H131.6Z" fill="#35A15F"/>
<path d="M13.9004 2.31604C14.2004 2.41604 14.7004 2.41604 15.1004 2.41604H17.6004C17.2004 2.31604 16.7004 2.31604 16.4004 2.31604H13.9004ZM21.3004 2.31604C21.7004 2.51604 22.2004 2.41604 22.6004 2.41604H25.2004C24.8004 2.31604 24.3004 2.31604 23.9004 2.31604H21.3004Z" fill="#008129"/>
<path d="M44.5996 2.31604C44.7996 2.41604 45.0996 2.41604 45.3996 2.41604H46.8996H52.1996C51.9996 2.31604 51.6996 2.31604 51.3996 2.31604H49.8996H44.5996Z" fill="#229750"/>
<path d="M131.6 2.41605C131.3 2.51605 131.2 3.11605 131.5 3.21605C131.8 3.31605 132.3 3.21605 132.7 3.21605H135.4C135.7 3.21605 136.4 3.31605 136.6 3.11605C137 2.81605 136.6 2.31605 136.2 2.31605C135.1 2.21605 134 2.31605 133 2.31605C132.6 2.31605 132 2.21605 131.6 2.41605Z" fill="white"/>
<path d="M13.9004 2.41602C14.2004 2.51602 14.7004 2.51602 15.1004 2.51602H17.6004C17.3004 2.41602 16.8004 2.41602 16.4004 2.41602H13.9004ZM21.3004 2.41602C21.6004 2.51602 22.1004 2.51602 22.5004 2.51602H25.1004C24.8004 2.41602 24.3004 2.41602 23.9004 2.41602H21.3004Z" fill="#8FCAA8"/>
<path d="M131.3 2.61597V3.11597C131.4 2.91597 131.4 2.81597 131.3 2.61597Z" fill="#36A163"/>
<path d="M4.2002 2.71594V3.01594C4.3002 2.81594 4.3002 2.81594 4.2002 2.71594Z" fill="#6FBB91"/>
<path d="M136.8 2.71594V3.01594C136.9 2.81594 136.9 2.81594 136.8 2.71594Z" fill="#91C9A8"/>
<path d="M29.9002 2.81604C29.8002 2.81604 29.8002 2.91604 29.9002 2.81604V2.81604Z" fill="#DDEEE2"/>
<path d="M29.6996 2.81604V5.21604C29.6996 5.51604 29.5996 5.91604 29.8996 6.21604C30.0996 6.31604 30.3996 6.31604 30.6996 6.31604H32.3996C31.8996 6.11604 31.1996 6.21604 30.6996 6.21604C30.4996 6.21604 30.1996 6.21604 29.9996 6.11604C29.6996 5.91604 29.6996 5.51604 29.6996 5.11604V3.61604C29.7996 3.31604 29.7996 3.11604 29.6996 2.81604Z" fill="#00812A"/>
<path d="M57.0996 2.81604V3.01604C57.1996 2.91604 57.1996 2.91604 57.0996 2.81604Z" fill="#AFD9C0"/>
<path d="M70.2002 2.81604V3.21604C70.3002 3.11604 70.3002 3.01604 70.2002 2.81604Z" fill="#70BC8E"/>
<path d="M82.5 2.81604V3.11604C82.6 3.01604 82.6 2.91604 82.5 2.81604Z" fill="#219852"/>
<path d="M21 2.91602V7.71602C21.1 7.41602 21.1 6.91602 21.1 6.51602V4.11602C21.1 3.71602 21.2 3.21602 21 2.91602Z" fill="#AED9BF"/>
<path d="M29.7998 2.91602V5.91602C29.8998 5.71602 29.8998 5.41602 29.8998 5.11602V3.81602C29.7998 3.51602 29.8998 3.11602 29.7998 2.91602Z" fill="#70BD8F"/>
<path d="M43.9004 2.91602V3.11602C44.0004 3.01602 44.0004 3.01602 43.9004 2.91602Z" fill="#92C9A9"/>
<path d="M89.5004 2.91602V5.31602C89.5004 5.61602 89.4004 6.01602 89.7004 6.21602C89.9004 6.41602 90.2004 6.31602 90.5004 6.31602H92.2004C91.7004 6.11602 91.0004 6.21602 90.5004 6.21602C90.3004 6.21602 90.0004 6.21602 89.8004 6.11602C89.5004 5.91602 89.5004 5.51602 89.5004 5.11602V3.61602C89.6004 3.41602 89.6004 3.11602 89.5004 2.91602Z" fill="#00812A"/>
<path d="M89.5996 2.91602V5.91602C89.6996 5.71602 89.6996 5.41602 89.6996 5.21602V3.81602C89.5996 3.51602 89.6996 3.11602 89.5996 2.91602Z" fill="#36A162"/>
<path d="M17.7998 2.91602V7.51602C17.8998 7.21602 17.8998 6.71602 17.8998 6.41602V4.11602C17.7998 3.81602 17.8998 3.31602 17.7998 2.91602Z" fill="#EFF8F0"/>
<path d="M17.7998 2.91602V7.51602C17.8998 7.21602 17.8998 6.71602 17.8998 6.41602V4.11602C17.8998 3.81602 17.9998 3.31602 17.7998 2.91602Z" fill="#108F47"/>
<path d="M43.9004 3.11597V5.51597C44.1004 5.01597 44.0004 4.31597 44.0004 3.81597C43.9004 3.61597 44.0004 3.31597 43.9004 3.11597Z" fill="#229753"/>
<path d="M70.0996 3.21594V5.71594C70.1996 5.51594 70.1996 5.21594 70.1996 5.01594C70.1996 4.41594 70.2996 3.71594 70.0996 3.21594Z" fill="#128F45"/>
<path d="M70.2002 3.21594V5.71594C70.3002 5.51594 70.3002 5.21594 70.3002 5.01594C70.3002 4.41594 70.4002 3.71594 70.2002 3.21594Z" fill="#EDF7F0"/>
<path d="M82.5 3.21594V5.71594C82.6 5.51594 82.6 5.21594 82.6 5.01594C82.6 4.51594 82.7 3.71594 82.5 3.21594Z" fill="#ACDABF"/>
<path d="M4.59961 3.31602C4.79961 3.41602 5.09961 3.41602 5.39961 3.41602H6.69961H11.4996C11.3996 3.21602 11.0996 3.31602 10.7996 3.31602H9.49961H4.59961Z" fill="#C9E5D6"/>
<path d="M57.5 3.31602C57.8 3.41602 58.1 3.41602 58.4 3.41602H60H65.7C65.4 3.21602 65 3.31602 64.8 3.31602H63.2H57.5Z" fill="#C9E5D6"/>
<path d="M118.3 3.31604C118.6 3.41604 118.9 3.41604 119.2 3.41604H120.8H126.4C126.1 3.31604 125.8 3.31604 125.5 3.31604H123.9H118.3Z" fill="#C9E5D6"/>
<path d="M131.6 3.31602C132 3.51602 132.7 3.41602 133.1 3.41602H136.5C136.1 3.21602 135.4 3.31602 135 3.31602H131.6Z" fill="#C9E5D6"/>
<path d="M49.5996 3.31604C49.8996 3.41604 50.1996 3.41604 50.4996 3.41604H52.1996C51.7996 3.31604 51.4996 3.31604 51.1996 3.31604H49.5996Z" fill="#DDF0E4"/>
<path d="M66 3.61597V4.91597C66.1 4.61597 66.1 3.91597 66 3.61597Z" fill="#DDF0E5"/>
<path d="M12 3.71594V6.71594C12.1 6.41594 12.1 6.11594 12.1 5.81594V4.41594C12.1 4.21594 12.1 3.91594 12 3.71594Z" fill="#36A163"/>
<path d="M49.0996 3.71594V3.91594C49.1996 3.81594 49.1996 3.81594 49.0996 3.71594Z" fill="#37A160"/>
<path d="M52.5 3.71594C52.5 3.81594 52.6 3.71594 52.5 3.71594V3.71594Z" fill="#B3D9BF"/>
<path d="M126.7 3.71594V4.91594C126.8 4.61594 126.8 4.01594 126.7 3.71594Z" fill="#36A162"/>
<path d="M49.0996 3.91602V5.71602C49.1996 5.31602 49.1996 4.31602 49.0996 3.91602Z" fill="#AFD9BF"/>
<path d="M52.5 3.91602V6.81602C52.6 6.61602 52.6 6.31602 52.6 6.11602V4.71602C52.6 4.41602 52.6 4.11602 52.5 3.91602Z" fill="#229751"/>
<path d="M76.4004 4.31604C76.5004 4.31604 76.5004 4.31604 76.6004 4.41604C76.5004 4.41604 76.5004 4.31604 76.4004 4.31604Z" fill="#50AD76"/>
<path d="M1.5 5.11594C2.1 5.31594 3 5.21594 3.6 5.21594H8.3C7.7 5.01594 6.8 5.11594 6.2 5.11594H1.5Z" fill="#00802B"/>
<path d="M57.7002 5.11597C58.0002 5.21597 58.3002 5.21597 58.6002 5.21597H60.2002H65.8002C65.5002 5.11597 65.2002 5.11597 64.9002 5.11597H63.3002H57.7002Z" fill="#00802B"/>
<path d="M118.3 5.11597C118.6 5.21597 118.9 5.21597 119.2 5.21597H120.9H126.6C126.3 5.11597 126 5.11597 125.7 5.11597H124H118.3Z" fill="#00802B"/>
<path d="M1.5 5.11594C2.1 5.31594 3 5.21594 3.6 5.21594H8.4C7.8 5.01594 6.9 5.11594 6.3 5.11594H1.5Z" fill="#70BC8E"/>
<path d="M57.5 5.11597C57.8 5.21597 58.1 5.21597 58.4 5.21597H60H65.7C65.4 5.11597 65.1 5.11597 64.8 5.11597H63.2H57.5Z" fill="#70BC8E"/>
<path d="M118.3 5.11594C118.6 5.21594 118.9 5.21594 119.2 5.21594H120.8H126.5C126.2 5.11594 125.9 5.11594 125.6 5.11594H124H118.3ZM131.8 5.11594C132.3 5.31594 133.2 5.21594 133.7 5.21594C133.2 5.01594 132.3 5.11594 131.8 5.11594ZM137.6 5.31594C138 5.21594 138.3 5.21594 138.7 5.21594C138.5 5.11594 137.8 5.01594 137.6 5.31594Z" fill="#70BC8E"/>
<path d="M131.3 5.51599V7.81599C131.5 7.41599 131.4 6.71599 131.4 6.21599C131.4 6.01599 131.4 5.71599 131.3 5.51599Z" fill="#36A163"/>
<path d="M57.0996 5.61597V5.81597C57.1996 5.71597 57.1996 5.71597 57.0996 5.61597Z" fill="#ADD9C0"/>
<path d="M8.7998 5.71594V5.91594C8.8998 5.81594 8.8998 5.81594 8.7998 5.71594Z" fill="#74BE8D"/>
<path d="M8.90039 5.71594C8.60039 6.51594 7.50039 6.21594 6.80039 6.21594H0.400391C1.00039 6.41594 1.90039 6.31594 2.50039 6.31594H7.10039C7.60039 6.31594 8.10039 6.41594 8.60039 6.31594C8.80039 6.11594 9.00039 5.91594 8.90039 5.71594Z" fill="#00812A"/>
<path d="M82.5 5.71594V5.91594C82.6 5.81594 82.6 5.81594 82.5 5.71594Z" fill="#239756"/>
<path d="M44.4004 6.11594C44.8004 6.31594 45.3004 6.21594 45.7004 6.21594H48.6004C48.2004 6.01594 47.7004 6.11594 47.3004 6.11594H44.4004Z" fill="#70BD90"/>
<path d="M0.5 6.11597C0.8 6.21597 1.1 6.21597 1.4 6.21597H3H8.6C8.3 6.11597 8 6.11597 7.7 6.11597H6.1H0.5Z" fill="#90CAA6"/>
<path d="M30.0996 6.11597C30.2996 6.21597 30.5996 6.21597 30.8996 6.21597H32.3996C32.1996 6.11597 31.8996 6.11597 31.5996 6.11597H30.0996Z" fill="#90CAA6"/>
<path d="M57.5 6.11597C57.8 6.21597 58.1 6.21597 58.4 6.21597H60H65.7C65.4 6.11597 65.1 6.11597 64.8 6.11597H63.2H57.5Z" fill="#90CAA6"/>
<path d="M70.5 6.11597C70.7 6.21597 71 6.21597 71.3 6.21597H72.8C72.6 6.11597 72.3 6.11597 72 6.11597H70.5Z" fill="#90CAA6"/>
<path d="M79.9004 6.11597C80.1004 6.21597 80.4004 6.21597 80.7004 6.21597H82.2004C82.0004 6.11597 81.7004 6.11597 81.4004 6.11597H79.9004Z" fill="#90CAA6"/>
<path d="M89.9004 6.11597C90.2004 6.21597 90.5004 6.21597 90.8004 6.21597H92.3004C92.0004 6.11597 91.7004 6.11597 91.4004 6.11597H89.9004Z" fill="#90CAA6"/>
<path d="M118.2 6.11597C118.5 6.21597 118.8 6.21597 119.1 6.21597H120.7H126.4C126.1 6.11597 125.8 6.11597 125.5 6.11597H123.9H118.2Z" fill="#90CAA6"/>
<path d="M57.4004 6.21594C57.7004 6.31594 58.0004 6.31594 58.3004 6.31594H59.9004H65.6004C65.3004 6.21594 65.0004 6.21594 64.7004 6.21594H63.1004H57.4004Z" fill="#00812A"/>
<path d="M70.5 6.21594C70.7 6.31594 71 6.31594 71.3 6.31594H72.8C72.6 6.21594 72.3 6.21594 72 6.21594H70.5Z" fill="#00812A"/>
<path d="M79.5 6.31597C79.8 6.41597 80 6.21597 80.3 6.21597C80.9 6.21597 81.6 6.21597 82.2 6.21597C81.9 6.11597 81.6 6.11597 81.3 6.11597C80.8 6.21597 80.1 6.11597 79.5 6.31597Z" fill="#00812A"/>
<path d="M118.1 6.21594C118.6 6.41594 119.5 6.31594 120 6.31594H124.2H125.7C125.9 6.31594 126.2 6.31594 126.4 6.51594C126.7 6.81594 126.6 7.61594 126.6 8.01594C126.7 7.71594 126.8 6.61594 126.5 6.41594C126.3 6.31594 126 6.31594 125.7 6.31594H124.1H118.1V6.21594Z" fill="#00812A"/>
<path d="M107.6 6.31604C107.6 6.41604 107.7 6.41604 107.6 6.31604V6.31604Z" fill="#D9ECDE"/>
<path d="M66 6.51599V8.01599C66.1 7.61599 66.1 6.81599 66 6.51599Z" fill="#DDF0E5"/>
<path d="M0 6.51599V8.01599C0.2 7.61599 0.2 6.91599 0 6.51599Z" fill="#229750"/>
<path d="M126.7 6.51599V7.91599C126.8 7.61599 126.8 6.91599 126.7 6.51599Z" fill="#36A162"/>
<path d="M12 6.81604C12 6.91604 12.1 6.81604 12 6.81604V6.81604Z" fill="#DBEEE6"/>
<path d="M67.2998 7.01599V7.31599C67.3998 7.21599 67.3998 7.11599 67.2998 7.01599Z" fill="#C9E6D4"/>
<path d="M85.2998 7.01599V7.31599C85.3998 7.21599 85.3998 7.21599 85.2998 7.01599Z" fill="#25984F"/>
<path d="M85.2998 7.41603C85.3998 7.31603 85.3998 7.41603 85.2998 7.41603V7.41603Z" fill="#B9DCC7"/>
<path d="M76.0996 7.71594C76.2996 7.81594 76.4996 7.81594 76.7996 7.81594C76.4996 7.71594 76.2996 7.71594 76.0996 7.71594Z" fill="#8FCCA6"/>
<path d="M131.3 7.81604V8.01604C131.4 7.91604 131.4 7.91604 131.3 7.81604Z" fill="#C6E5D1"/>
<path d="M39.4004 7.91602V8.11602C39.5004 8.01602 39.5004 8.01602 39.4004 7.91602Z" fill="#50AC73"/>
<path d="M99.2002 7.91602V8.11602C99.3002 8.01602 99.3002 8.01602 99.2002 7.91602Z" fill="#23974F"/>
<path d="M113.4 7.91602V8.11602C113.5 8.01602 113.5 8.01602 113.4 7.91602Z" fill="#C8E4D4"/>
<path d="M94.2998 8.01599C94.3998 8.01599 94.3998 8.11599 94.2998 8.01599V8.01599Z" fill="#1E934F"/>
<path d="M10.6997 8.11597C10.5997 8.21597 10.6997 8.21597 10.6997 8.11597V8.11597Z" fill="#90C9A9"/>
<path d="M41.7002 8.11597C41.7002 8.21597 41.8002 8.21597 41.7002 8.11597V8.11597Z" fill="#6DB78C"/>
<path d="M51.2002 8.11597C51.3002 8.11597 51.3002 8.11597 51.4002 8.21597C51.4002 8.11597 51.3002 8.11597 51.2002 8.11597Z" fill="#72B98F"/>
<path d="M55.0996 8.11597C55.0996 8.21597 55.1996 8.21597 55.0996 8.11597V8.11597Z" fill="#72BD90"/>
<path d="M68.3003 8.11597C68.2003 8.21597 68.3003 8.21597 68.3003 8.11597V8.11597Z" fill="#4DA973"/>
<path d="M101.9 8.11597C101.9 8.21597 102 8.21597 101.9 8.11597V8.11597Z" fill="#61B584"/>
<path d="M0.299805 8.21594C0.599805 8.31594 0.999805 8.31594 1.2998 8.31594H3.3998H10.3998C10.0998 8.21594 9.6998 8.21594 9.3998 8.21594H7.2998H0.299805Z" fill="#50AD75"/>
<path d="M10.2998 8.21594C10.3998 8.21594 10.3998 8.21594 10.4998 8.31594C10.4998 8.21594 10.3998 8.21594 10.2998 8.21594Z" fill="#DFEFE2"/>
<path d="M18.2998 8.21594C18.5998 8.31594 18.8998 8.31594 19.1998 8.31594H20.6998C20.3998 8.21594 20.0998 8.21594 19.7998 8.21594H18.2998Z" fill="#50AD75"/>
<path d="M27.7998 8.21604C28.2998 8.41604 29.1998 8.31604 29.7998 8.31604H34.3998C33.8998 8.11604 32.9998 8.21604 32.3998 8.21604H27.7998Z" fill="#50AD75"/>
<path d="M35.7002 8.21594C36.0002 8.31594 36.5002 8.31594 36.9002 8.31594H39.3002C39.0002 8.21594 38.5002 8.21594 38.1002 8.21594H35.7002Z" fill="#50AD75"/>
<path d="M42 8.21594C42.3 8.31594 42.6 8.31594 42.9 8.31594H44.7H51C50.7 8.21594 50.4 8.21594 50.1 8.21594H48.3H42Z" fill="#50AD75"/>
<path d="M51 8.21594C51.1 8.21594 51.1 8.21594 51.2 8.31594C51.2 8.21594 51.1 8.21594 51 8.21594Z" fill="#DFEFE2"/>
<path d="M55.5 8.21594C55.8 8.31594 56.2 8.31594 56.5 8.31594H58.6H65.8C65.5 8.21594 65.1 8.21594 64.8 8.21594H62.7H55.5Z" fill="#50AD75"/>
<path d="M68.5 8.21604C69 8.41604 69.9 8.31604 70.4 8.31604H74.8C74.3 8.11604 73.4 8.21604 72.9 8.21604H68.5Z" fill="#50AD75"/>
<path d="M77.9004 8.21604C78.4004 8.41604 79.3004 8.31604 79.8004 8.31604H84.2004C83.7004 8.11604 82.8004 8.21604 82.3004 8.21604H77.9004Z" fill="#50AD75"/>
<path d="M84.2002 8.21594C84.3002 8.21594 84.3002 8.21594 84.4002 8.31594C84.4002 8.21594 84.3002 8.21594 84.2002 8.21594Z" fill="#DEEFE2"/>
<path d="M87.5996 8.21604C88.1996 8.41604 89.0996 8.31604 89.6996 8.31604H94.2996C93.6996 8.11604 92.7996 8.21604 92.1996 8.21604H87.5996ZM95.4996 8.21604C95.7996 8.31604 96.2996 8.31604 96.6996 8.31604H99.1996C98.8996 8.21604 98.3996 8.21604 97.9996 8.21604H95.4996Z" fill="#50AD75"/>
<path d="M102.2 8.21594C102.8 8.41594 103.7 8.31594 104.3 8.31594C103.7 8.01594 102.8 8.21594 102.2 8.21594Z" fill="#50AD75"/>
<path d="M109.7 8.21594C110 8.31594 110.5 8.31594 110.9 8.31594H113.3C113 8.21594 112.5 8.21594 112.1 8.21594H109.7Z" fill="#50AD75"/>
<path d="M116.2 8.21594C116.5 8.31594 116.9 8.31594 117.2 8.31594H119.3H126.5C126.2 8.21594 125.8 8.21594 125.5 8.21594H123.4H116.2Z" fill="#50AD75"/>
<path d="M128.5 8.21594C128.8 8.31594 129.1 8.31594 129.4 8.31594H131.1C130.8 8.21594 130.5 8.21594 130.2 8.21594H128.5Z" fill="#50AD75"/>
<path d="M136.9 8.21594C137.2 8.31594 137.7 8.31594 138 8.31594H140.4C140.1 8.21594 139.6 8.21594 139.3 8.21594H136.9Z" fill="#50AD75"/>
</svg>
