<svg width="77" height="22" viewBox="0 0 77 22" fill="none" xmlns="http://www.w3.org/2000/svg">
<g clip-path="url(#clip0_2007_2003)">
<path d="M3.99341 6.07275C3.99341 5.9628 3.99341 5.9628 3.99341 6.07275V6.07275ZM19.2376 17.8371C19.2376 17.8371 19.1271 17.8371 19.1271 17.9471C18.9062 18.057 18.7957 17.9471 18.5748 17.8371C18.4643 17.8371 18.4643 17.7272 18.3539 17.6172C18.3539 17.5073 18.3539 17.5073 18.3539 17.3974C18.3539 17.2874 18.3539 17.2874 18.4643 17.2874L18.3539 17.3974L18.2434 17.5073L18.0225 17.7272L17.912 17.8371L17.8016 17.9471L17.5806 18.057H17.4702C17.4702 18.057 17.4702 18.057 17.3597 18.167L17.2492 18.2769L16.8074 18.6068L16.3655 18.9366L16.255 19.0466H16.1446L15.9236 19.1565L15.5923 19.2665L15.1504 19.4864H15.0399H14.9295L14.1562 19.9261H14.0457L13.0516 20.146L12.3888 20.256H11.8364L8.96434 19.9261C8.96434 19.9261 8.96434 19.9261 8.85388 19.9261C8.85388 19.9261 8.85388 19.9261 8.74341 19.9261H8.63295C8.63295 19.9261 8.63295 19.9261 8.52248 19.9261H8.41202L8.19109 19.8162H8.08062L7.85969 19.7063L7.5283 19.3764L6.64458 19.0466L6.42365 18.8267H6.31318L5.98179 18.6068L5.65039 18.3869C5.65039 18.3869 5.53993 18.3869 5.53993 18.2769C5.42946 18.167 5.53993 18.2769 5.42946 18.167L5.20853 17.9471L5.09807 17.8371L4.76667 17.6172C4.76667 17.6172 4.76667 17.5073 4.6562 17.5073L4.54574 17.3974L4.21434 16.9576C4.21434 16.9576 4.21434 16.9576 4.21434 16.8476V16.7377V16.6277C4.21434 16.6277 4.21434 16.5178 4.10388 16.5178L3.99341 16.4078L3.77248 16.078L3.55155 15.7481V15.6382L3.33062 15.0885L2.7783 14.6487L2.66783 14.4288L2.55737 14.3188L2.4469 14.0989L2.33644 13.879V13.5492C2.33644 13.5492 2.33644 13.5492 2.33644 13.4392C2.33644 13.4392 2.33644 13.4392 2.33644 13.3293V13.1094C2.33644 13.1094 2.33644 13.1094 2.33644 12.9994L2.22597 12.4497L2.00504 11.9V11.3502L2.33644 8.49159C2.33644 8.49159 2.33644 8.49159 2.33644 8.38165V8.2717V8.16175C2.33644 8.16175 2.33644 8.16175 2.33644 8.0518L2.4469 7.83191L2.55737 7.72196L2.66783 7.50207V7.39212L2.7783 7.17222L2.88876 6.95233L3.10969 6.29264L3.22016 6.07275L3.33062 5.9628L3.44109 5.85285V6.07275C3.44109 6.07275 3.44109 6.18269 3.55155 6.18269H3.77248C3.77248 6.18269 3.88295 6.18269 3.88295 6.07275V6.18269L3.55155 6.62248V6.73243V6.84238L3.33062 7.06227L3.22016 7.39212V7.50207V7.61201L2.99923 7.94186V8.0518C2.99923 8.16175 2.99923 8.16175 2.99923 8.16175V8.2717V8.49159C2.99923 8.49159 2.99923 8.49159 2.99923 8.60154L2.66783 9.26123L2.55737 9.81097V10.3607L2.88876 13.1094C2.88876 13.1094 2.88876 13.1094 2.88876 13.2193V13.3293C2.88876 13.3293 2.88876 13.3293 2.88876 13.4392L2.99923 13.6591L3.10969 13.989L3.22016 14.3188L3.44109 14.7586L3.55155 14.9785L3.66202 15.1984L4.21434 15.968C4.21434 16.078 4.21434 15.968 4.32481 16.078L4.43527 16.1879L4.54574 16.2979L4.6562 16.4078C4.6562 16.4078 4.6562 16.5178 4.76667 16.5178L5.09807 16.8476L5.319 17.0675L5.42946 17.1775C5.53993 17.1775 5.42946 17.1775 5.53993 17.2874C5.53993 17.2874 5.53993 17.2874 5.65039 17.3974C5.65039 17.3974 5.65039 17.3974 5.76086 17.5073C5.76086 17.5073 5.76086 17.5073 5.87132 17.6172H5.98179L6.09225 17.9471C6.09225 17.9471 6.09225 17.9471 6.20272 18.057L6.31318 18.167L6.53411 18.2769L6.64458 18.3869C6.64458 18.3869 6.75504 18.3869 6.75504 18.4968L6.86551 18.6068L7.41783 18.8267L7.63876 18.9366H7.74923C7.85969 18.9366 7.85969 18.9366 7.85969 19.0466L8.41202 19.2665H8.52248H8.63295H8.74341L9.7376 19.4864L10.2899 19.5963L11.0632 19.7063L13.7143 19.3764H13.8248H13.9353C13.9353 19.3764 13.9353 19.3764 14.0457 19.3764H14.1562L14.4876 19.2665L14.7085 19.1565L14.819 19.0466L15.3713 18.7167H15.4818L15.5923 18.6068L15.8132 18.4968L16.1446 18.2769C16.1446 18.2769 16.1446 18.2769 16.255 18.167L16.476 18.057L16.6969 17.9471H16.8074L16.9178 17.8371L17.0283 17.7272L17.1388 17.6172L17.4702 17.2874V17.1775C17.3597 17.1775 17.3597 17.1775 17.2492 17.2874C17.0283 17.2874 16.8074 17.2874 16.6969 17.1775C16.5864 17.0675 16.476 16.7377 16.5864 16.5178C16.5864 16.5178 16.5864 16.5178 16.476 16.6277C16.476 16.6277 16.476 16.6277 16.476 16.7377L16.1446 17.0675L16.0341 17.1775C15.9236 17.1775 15.9236 17.2874 15.9236 17.2874C15.9236 17.2874 15.8132 17.2874 15.8132 17.3974L15.5923 17.5073L15.4818 17.6172L15.1504 17.8371L15.0399 17.9471L15.2609 17.6172H15.1504L14.819 17.8371H14.7085L14.0457 18.057H13.9353C13.9353 18.057 13.9353 18.057 13.8248 18.057H13.7143C13.7143 18.057 13.7143 18.057 13.6039 18.057L13.0516 18.167L12.3888 18.2769L9.51667 18.057C9.51667 18.057 9.51667 18.057 9.40621 18.057H9.29574C9.29574 18.057 9.29574 18.057 9.18528 18.057H9.07481C9.07481 18.057 9.07481 18.057 8.96434 18.057L8.74341 17.9471L8.52248 17.8371L8.30155 17.9471L7.63876 17.6172H7.5283C7.5283 17.6172 7.41783 17.6173 7.41783 17.5073L7.30737 17.3974L7.1969 17.2874C7.1969 17.2874 7.1969 17.2874 7.08644 17.1775L6.86551 17.0675C6.86551 17.0675 6.86551 17.0675 6.75504 16.9576L6.53411 16.8476C6.53411 16.8476 6.42365 16.8476 6.42365 16.7377C6.42365 16.7377 6.31318 16.7377 6.31318 16.6277L5.98179 16.2979L5.87132 16.1879C5.87132 16.1879 5.87132 16.078 5.76086 16.078L5.53993 15.8581C5.42946 15.7481 5.42946 15.7481 5.319 15.7481L5.20853 15.5282C5.20853 15.5282 5.20853 15.5282 5.09807 15.4183L4.9876 15.3083L4.87713 15.1984L4.76667 15.0885C4.76667 14.9785 4.6562 14.9785 4.6562 14.9785V14.8686V14.7586L4.54574 14.6487L4.43527 14.4288L4.32481 14.2089L4.21434 13.7691V13.6591L4.10388 13.4392L3.99341 13.2193V13.1094C3.99341 13.1094 3.99341 13.1094 3.99341 12.9994V12.8895L3.88295 12.3398L3.77248 11.5701L3.99341 8.93139V9.04133C4.10388 9.15128 4.10388 9.04133 4.10388 9.15128H4.21434H4.43527L4.32481 9.81097L4.21434 10.4707L4.43527 12.7796C4.43527 12.7796 4.43527 12.7796 4.43527 12.8895V12.9994C4.43527 12.9994 4.43527 12.9994 4.43527 13.1094V13.2193L4.54574 13.4392V13.5492V13.6591L4.6562 13.879L4.76667 14.2089L4.87713 14.4288L5.09807 14.7586L5.319 15.0885C5.319 15.0885 5.319 15.0885 5.42946 15.1984C5.42946 15.1984 5.53993 15.1984 5.53993 15.3083L5.87132 15.6382L5.98179 15.7481L6.20272 15.8581H6.31318L6.53411 16.078C6.53411 16.078 6.53411 16.078 6.64458 16.1879H6.75504L6.97597 16.4078L7.1969 16.5178L7.41783 16.6277L8.63295 17.1775L8.74341 17.2874H8.85388H9.07481L10.1795 17.9471H10.8423L13.3829 17.7272H13.4934C13.4934 17.7272 13.4934 17.7272 13.6039 17.7272L14.0457 17.6172L14.2667 17.5073L14.5981 17.2874L14.819 17.1775H14.9295L15.1504 17.0675L15.2609 16.8476L15.3713 16.7377L15.7027 16.5178C15.8132 16.5178 15.8132 16.4078 15.8132 16.4078L15.9236 16.2979L16.0341 16.1879H16.1446L16.5864 15.7481C16.476 15.8581 16.476 15.8581 16.255 15.968C16.0341 15.968 15.7027 15.8581 15.7027 15.5282C15.7027 15.3083 15.7027 15.3083 15.7027 15.0885L15.2609 15.5282L15.1504 15.6382H15.0399C15.0399 15.6382 14.9295 15.6382 14.9295 15.7481C14.9295 15.7481 14.819 15.7481 14.819 15.8581L14.4876 16.078L14.3771 16.1879H14.2667H14.1562H14.0457L13.7143 16.4078L13.162 16.6277C13.162 16.6277 13.162 16.6277 13.0516 16.6277L12.4992 16.8476L11.9469 16.9576L9.84807 16.7377C9.84807 16.7377 9.84807 16.7377 9.7376 16.7377H9.62714L9.29574 16.6277H9.18528L8.41202 16.2979L8.30155 16.1879L7.74923 15.7481L7.63876 15.6382L7.5283 15.5282L7.41783 15.4183L7.08644 15.0885L6.97597 14.9785C6.97597 14.9785 6.97597 14.9785 6.97597 14.8686C6.97597 14.7586 6.97597 14.8686 6.86551 14.7586C6.86551 14.7586 6.86551 14.7586 6.86551 14.6487L6.42365 14.3188L6.31318 14.2089L6.09225 13.879L5.76086 13.3293V13.2193L5.65039 13.1094L5.53993 12.7796V12.4497L5.42946 11.9L5.319 11.4602L5.53993 9.15128V8.82144V8.71149L5.65039 8.60154V8.49159L5.76086 8.38165L5.87132 8.2717L5.98179 8.16175L6.09225 7.94186L6.20272 7.83191L6.42365 7.28217L6.64458 7.06227V6.95233L6.75504 6.84238L6.97597 6.62248C6.97597 6.51254 7.08644 6.51254 7.08644 6.40259L7.30737 6.29264L7.41783 6.18269L7.85969 5.85285H7.97016H8.08062L8.52248 5.63296H8.63295L8.85388 5.52301L8.96434 5.41306L9.07481 5.30311H9.18528H9.29574H9.7376C9.7376 5.30311 9.7376 5.30311 9.84807 5.30311H9.95853C9.95853 5.30311 9.95853 5.30311 10.069 5.30311L10.5109 4.75337L11.0632 4.64343L13.162 4.86332H13.2725H13.3829L13.4934 4.97327H13.6039L13.8248 5.08322C13.8248 5.08322 13.9353 5.08322 13.9353 5.19317H14.0457L14.1562 5.30311L15.0399 5.85285C15.0399 5.85285 15.0399 5.85285 15.1504 5.9628C15.1504 5.9628 15.2609 5.9628 15.2609 6.07275L15.4818 6.29264C15.4818 6.18269 15.3713 6.18269 15.3713 6.18269L15.2609 6.07275C15.3713 5.9628 15.2609 5.85285 15.2609 5.63296C15.0399 5.08322 15.0399 4.42353 15.3713 3.98374C15.4818 3.87379 15.4818 3.76385 15.5923 3.6539L15.7027 3.54395L15.8132 3.434C16.3655 2.88426 17.2492 2.55442 18.0225 2.88426C18.4643 2.99421 18.5748 3.10416 18.6853 3.21411L18.5748 3.10416C18.4643 2.99421 18.5748 3.10416 18.3539 2.99421C18.3539 2.99421 18.2434 2.99421 18.2434 2.88426C18.1329 2.77432 18.1329 2.88426 18.1329 2.77432L17.912 2.55442L17.6911 2.44447C17.5806 2.44447 17.6911 2.44447 17.5806 2.33453C17.5806 2.33453 17.5806 2.33453 17.4702 2.22458L17.1388 2.00468L17.0283 1.89474L16.8074 1.78479C16.8074 1.78479 16.6969 1.78479 16.6969 1.67484L16.476 1.56489C16.3655 1.56489 16.3655 1.56489 16.3655 1.45495H16.0341L15.9236 1.345L15.7027 1.23505L15.4818 1.1251L15.2609 1.01515L14.9295 0.905207H14.819H14.7085C14.7085 0.905207 14.7085 0.905207 14.5981 0.905207C14.5981 0.905207 14.5981 0.905207 14.4876 0.905207H14.3771L13.8248 0.795259L13.0516 0.465416L12.2783 0.355469L8.74341 0.685312C8.74341 0.685312 8.74341 0.685312 8.63295 0.685312H8.41202H8.30155C8.30155 0.685312 8.30155 0.685312 8.19109 0.685312H8.08062H7.85969L7.63876 1.01515L7.5283 1.1251H7.41783L7.08644 1.23505L6.86551 1.345L6.64458 1.45495L6.31318 1.67484H6.20272L5.98179 1.89474H5.87132L5.53993 2.11463C5.53993 2.11463 5.53993 2.11463 5.42946 2.22458C5.42946 2.22458 5.42946 2.22458 5.319 2.33453C5.319 2.33453 5.319 2.33453 5.20853 2.44447C5.20853 2.44447 5.20853 2.44447 5.09807 2.55442C5.09807 2.55442 5.09807 2.55442 4.9876 2.55442C4.9876 2.55442 4.9876 2.55442 4.87713 2.66437L4.76667 2.77432C4.76667 2.77432 4.76667 2.77432 4.6562 2.88426H4.54574L3.88295 3.54395L3.77248 3.6539C3.77248 3.76385 3.66202 3.76385 3.66202 3.76385L3.44109 3.98374L3.33062 4.20364L3.22016 4.31358L3.10969 4.42353C3.10969 4.53348 3.10969 4.53348 2.99923 4.53348L2.7783 4.86332L2.66783 4.97327L2.55737 5.19317L2.4469 5.30311V5.41306L2.33644 5.52301L2.11551 5.85285L1.89458 6.40259L1.67365 6.73243V6.84238V6.95233V7.06227V7.17222V7.28217L1.34225 7.83191V7.94186C1.34225 7.94186 1.34225 7.94186 1.34225 8.0518V8.2717C1.34225 8.2717 1.34225 8.2717 1.34225 8.38165L1.01086 8.93139L0.900391 9.70102V10.2508L1.23179 13.7691C1.23179 13.7691 1.23179 13.7691 1.23179 13.879V13.989C1.23179 13.989 1.23179 13.989 1.23179 14.0989L1.34225 14.4288L1.56318 14.8686V14.9785L1.67365 15.1984V15.3083V15.4183L2.00504 15.5282V15.6382L2.33644 16.2979L2.4469 16.4078C2.4469 16.5178 2.55737 16.5178 2.55737 16.6277L2.7783 16.8476C2.7783 16.8476 2.7783 16.8476 2.88876 16.9576V17.0675L2.99923 17.1775C2.99923 17.1775 2.99923 17.2874 3.10969 17.2874V17.3974L3.22016 17.5073V17.6172C3.22016 17.6172 3.22016 17.7272 3.33062 17.7272L3.44109 17.8371L3.55155 17.9471C3.55155 18.057 3.55155 17.9471 3.66202 18.057L3.77248 18.167L4.21434 18.4968C4.21434 18.4968 4.21434 18.4968 4.32481 18.6068L4.54574 18.7167C4.6562 18.8267 4.6562 18.8267 4.6562 18.8267L4.87713 19.0466C4.87713 19.0466 4.9876 19.0466 4.9876 19.1565C4.9876 19.1565 5.09807 19.1565 5.09807 19.2665L5.53993 19.5963L5.76086 19.7063C5.76086 19.7063 5.87132 19.8162 5.98179 19.8162L6.09225 19.9261L6.20272 20.0361C6.20272 20.0361 6.31318 20.0361 6.42365 20.146L6.53411 20.256L6.64458 20.3659H6.75504L7.08644 20.4759H7.1969H7.30737H7.41783L7.85969 20.5858H7.97016H8.08062C8.08062 20.5858 8.08062 20.5858 8.19109 20.5858H8.41202L9.18528 20.8057L10.1795 21.2455L11.0632 21.3555L14.1562 21.0256C14.1562 21.0256 14.1562 21.0256 14.2667 21.0256H14.3771H14.4876C14.4876 21.0256 14.4876 21.0256 14.5981 21.0256L14.7085 20.9157H14.819C14.9295 20.9157 15.0399 20.9157 15.0399 20.8057L15.2609 20.6958H15.3713H15.4818L15.7027 20.5858L16.0341 20.4759L16.3655 20.256L16.476 20.146L16.6969 19.9261L17.0283 19.7063L17.1388 19.5963L17.3597 19.3764C17.3597 19.3764 17.3597 19.3764 17.4702 19.2665H17.5806L17.6911 19.1565L17.8016 19.0466L17.912 18.9366C17.912 18.9366 18.0225 18.9366 18.0225 18.8267L18.2434 18.6068L19.2376 17.8371Z" fill="#384048"/>
<path d="M48.2895 11.4602L48.1791 12.1199C48.1791 12.1199 48.1791 12.1199 48.1791 12.2299V12.3398L48.0686 12.4498L47.9581 12.6696V12.7796V12.8895L47.8477 12.9995L47.6267 13.3293L47.5163 13.4393L47.4058 13.5492H47.2954C47.2954 13.5492 47.1849 13.5492 47.1849 13.6592L46.964 13.7691C46.8535 13.7691 46.8535 13.7691 46.8535 13.8791H46.743L46.4116 13.989H42.9872V6.95237L46.1907 7.39216L46.5221 7.50211H46.6326H46.743L47.0744 7.722L47.1849 7.83195L47.2954 7.9419C47.4058 8.05185 47.4058 8.05185 47.4058 8.05185L47.6267 8.27174L47.8477 8.71153L47.9581 8.93143V9.04138C47.9581 9.15132 47.9581 9.15132 47.9581 9.15132L48.0686 9.59111V9.92096L48.2895 11.4602ZM40.2256 7.83195V16.9576L47.1849 16.8477C47.1849 16.8477 47.1849 16.8477 47.2954 16.8477L47.5163 16.7377H47.6267C47.6267 16.7377 47.6268 16.7377 47.7372 16.7377L47.8477 16.6278H47.9581L48.0686 16.5178C48.0686 16.5178 48.0686 16.5178 48.1791 16.4079H48.2895C48.2895 16.4079 48.2895 16.4079 48.4 16.2979C48.4 16.2979 48.4 16.2979 48.5105 16.188L48.6209 16.078L49.0628 15.6382L49.1733 15.5283C49.1733 15.5283 49.1733 15.4183 49.2837 15.4183C49.2837 15.4183 49.2837 15.4183 49.3942 15.3084L49.5047 15.1984V15.0885C49.5047 14.9785 49.6151 14.9785 49.6151 14.8686L49.7256 14.6487V14.5388C49.7256 14.5388 49.7256 14.4288 49.8361 14.4288L50.057 13.8791V13.7691L50.2779 13.3293L50.3884 12.6696L50.4988 12.1199L50.2779 9.04138C50.2779 9.04138 50.2779 9.04138 50.2779 8.93143V8.82148V8.60159V8.05185L50.057 7.61206L49.9465 7.39216C49.9465 7.39216 49.9465 7.28221 49.8361 7.28221L49.7256 7.17227V6.95237V6.84242L49.6151 6.73248L49.5047 6.62253C49.5047 6.51258 49.5047 6.62253 49.3942 6.51258L49.0628 6.18274L48.9523 6.07279L48.8419 5.96284L48.6209 5.74295C48.6209 5.74295 48.6209 5.74295 48.5105 5.633L48.4 5.52305L48.2895 5.4131L48.1791 5.30316L47.8477 5.08326L47.2954 4.86337H47.1849C47.1849 4.86337 47.1849 4.86337 47.0744 4.86337L46.6326 4.75342H46.0802H40.2256V7.83195Z" fill="#384149"/>
<path d="M57.9008 10.6906L58.0113 9.70106C58.0113 9.70106 58.0113 9.70106 58.0113 9.59111V9.48117V9.37122L58.4531 8.71153C58.4531 8.71153 58.4531 8.71153 58.5636 8.60159C58.5636 8.60159 58.5636 8.49164 58.6741 8.49164L58.7845 8.38169L59.1159 8.05185L59.4473 7.83195L59.7787 7.61206H59.8892L60.2206 7.50211L60.4415 7.39216L60.8834 7.28221L62.4299 7.39216C62.4299 7.39216 62.4299 7.39216 62.5404 7.39216H62.6508L62.8718 7.50211L63.0927 7.61206L63.4241 7.83195L63.5345 7.9419L64.0869 8.38169L64.1973 8.49164L64.3078 8.60159L64.4183 8.71153L64.5287 8.93143V9.04138V9.15132L64.6392 9.37122C64.6392 9.48117 64.7497 9.59111 64.7497 9.59111L64.8601 10.0309V10.4707L64.9706 12.01C64.9706 12.01 64.9706 12.01 64.9706 12.1199V12.2299L64.4183 13.1094L64.3078 13.2194C64.3078 13.2194 64.3078 13.3293 64.1973 13.3293V13.4393C64.0869 13.4393 64.1973 13.4393 64.0869 13.5492L63.9764 13.6592C63.9764 13.6592 63.9764 13.6592 63.8659 13.7691L63.7555 13.8791L63.4241 14.099C63.3136 14.099 63.3136 14.2089 63.2031 14.2089L62.7613 14.3189H62.6508H62.5404L61.988 14.4288L60.552 14.3189H60.4415L59.9997 14.099L59.8892 13.989L59.6683 13.8791L59.1159 13.5492L58.6741 13.1094L58.5636 12.9995C58.5636 12.9995 58.5636 12.9995 58.4531 12.8895L58.3427 12.7796V12.6696V12.5597L58.1218 12.1199V12.01V11.9V11.7901C58.1218 11.7901 58.1218 11.7901 58.1218 11.6801L57.9008 11.3503V10.6906ZM61.4357 4.75342L59.7787 4.97331L59.5578 5.08326L59.3369 5.19321L59.2264 5.30316L58.7845 5.52305L58.0113 5.96284V6.07279L57.6799 6.29269L57.459 6.51258L57.238 6.84242L57.1276 6.95237C57.1276 6.95237 57.1276 6.95237 57.0171 7.06232L56.9066 7.28221L56.1334 7.83195V8.05185V8.16179L56.0229 8.27174V8.38169L55.9124 8.60159L55.802 8.93143V9.04138C55.802 9.04138 55.802 9.04138 55.802 9.15132L55.6915 9.59111L55.5811 10.0309L55.802 12.4498V12.5597C55.802 12.5597 55.802 12.5597 55.802 12.6696L55.9124 12.8895L56.1334 13.4393V13.5492V13.6592C56.1334 13.6592 56.1334 13.7691 56.2438 13.7691L56.3543 13.989L56.5752 14.3189L56.6857 14.4288C56.6857 14.4288 56.6857 14.4288 56.7962 14.5388L57.0171 14.7587L57.3485 15.0885L57.5694 15.3084C57.5694 15.3084 57.6799 15.3084 57.6799 15.4183L58.0113 15.6382C58.0113 15.6382 58.0113 15.6382 58.1218 15.7482L58.3427 15.8581L58.4531 15.9681H58.5636L58.895 16.188L59.3369 16.2979C59.3369 16.2979 59.3369 16.2979 59.4473 16.2979H59.5578C59.5578 16.2979 59.5578 16.2979 59.6683 16.2979L60.2206 16.4079L60.6624 16.5178L62.7613 16.4079C62.7613 16.4079 62.7613 16.4079 62.8718 16.4079H62.9822C62.9822 16.4079 62.9822 16.4079 63.0927 16.4079H63.2031L63.3136 16.2979H63.4241L63.9764 15.9681L64.1973 15.7482L64.3078 15.6382C64.3078 15.6382 64.3078 15.6382 64.4183 15.5283C64.4183 15.5283 64.4183 15.5283 64.5287 15.4183L64.6392 15.3084L64.7497 15.1984L64.8601 15.0885V16.188H67.2904L67.1799 8.82148C67.1799 8.82148 67.1799 8.82148 67.1799 8.71153V8.49164V8.60159L67.0694 8.38169V8.27174L66.959 8.05185C66.959 7.9419 66.959 8.05185 66.8485 7.9419L66.6276 7.50211V7.39216L66.5171 7.28221L66.4066 7.17227L66.0752 6.84242C66.0752 6.73248 66.0752 6.84242 65.9648 6.73248L65.6334 6.40263L65.4125 6.18274L65.302 6.07279L65.1915 5.96284L65.0811 5.85289H64.9706L64.4183 5.52305L64.3078 5.4131H64.1973L63.9764 5.30316H63.8659C63.7555 5.19321 63.7555 5.30316 63.645 5.19321C63.5345 5.19321 63.5345 5.19321 63.5345 5.19321H63.4241C63.4241 5.19321 63.4241 5.19321 63.3136 5.19321L62.5404 4.75342H62.0985H61.4357Z" fill="#384149"/>
<path d="M21.8888 10.8005L21.9992 9.81101C21.9992 9.81101 21.9992 9.81101 21.9992 9.70106V9.59111V9.48117L22.1097 9.26127C22.1097 9.15132 22.1097 9.26127 22.2202 9.15132L22.3306 8.93143L22.5516 8.60159L22.9934 8.16179L23.1039 8.05185L23.2143 7.9419L23.3248 7.83195H23.4353H23.5457H23.6562H23.7667L23.8771 7.722H23.9876H24.0981L24.5399 7.61206L25.976 7.722C25.976 7.722 25.976 7.722 26.0864 7.722H26.1969H26.3074L26.4178 7.83195L26.7492 8.05185L26.8597 8.16179C26.8597 8.16179 26.8597 8.16179 26.9702 8.27174L27.6329 8.93143L27.7434 9.04138C27.7434 9.04138 27.7434 9.04138 27.8539 9.15132H28.7376L28.8481 9.48117V9.59111L28.9585 9.92096V10.2508L28.8481 11.6801V11.7901C28.8481 11.7901 28.8481 11.9 28.7376 11.9V12.01V12.1199L28.6271 12.3398L28.5167 12.4498C28.5167 12.5597 28.4062 12.5597 28.4062 12.5597L28.2957 12.7796L27.9643 13.1094L27.7434 13.2194L27.6329 13.3293C27.6329 13.3293 27.5225 13.3293 27.5225 13.4393L27.412 13.5492L26.9702 13.7691H26.8597L26.4178 13.8791L24.8713 13.7691C24.8713 13.7691 24.8713 13.7691 24.7609 13.7691H24.6504C24.6504 13.7691 24.6504 13.7691 24.5399 13.7691L24.0981 13.5492L23.8771 13.4393L23.6562 13.3293L23.5457 13.2194L23.4353 13.1094H23.3248L22.9934 12.7796L22.7725 12.5597L22.5516 12.1199L22.4411 12.01L22.3306 11.6801V11.5702H21.8888V10.8005ZM25.4236 4.75342L23.8771 4.97331C23.8771 4.97331 23.8771 4.97331 23.7667 4.97331H23.6562C23.6562 4.97331 23.6562 4.97331 23.5457 4.97331H23.4353L22.9934 5.30316L22.7725 5.4131L22.5516 5.52305L22.4411 5.633L21.8888 5.96284L21.7783 6.07279L21.6678 6.18274L21.5574 6.29268L21.4469 6.40263L21.3364 6.51258L21.226 6.62253L21.005 6.84242L20.8946 6.95237C20.8946 6.95237 20.8946 7.06232 20.7841 7.06232V7.17227L20.6736 7.28221L20.5632 7.39216L20.4527 7.722L20.2318 8.27174V8.38169L20.1213 8.71153V8.82148V9.15132C20.1213 9.15132 20.1213 9.15132 20.1213 9.26127L20.0109 9.92096L19.9004 10.4707L20.1213 12.5597C20.1213 12.5597 20.1213 12.5597 20.1213 12.6696V12.7796C20.1213 12.8895 20.1213 12.8895 20.2318 12.9995V13.1094L20.3423 13.2194L20.6736 13.7691L20.7841 13.8791L21.005 14.3189L21.7783 15.1984L21.8888 15.3084C21.8888 15.3084 21.9992 15.3084 21.9992 15.4183L21.8888 15.7482L22.1097 15.8581L22.3306 16.078L22.4411 16.188L22.8829 16.4079L23.1039 16.5178H23.2143L23.3248 16.6278H23.4353L23.8771 16.7377L24.319 16.8477L26.4178 16.7377C26.4178 16.7377 26.4178 16.7377 26.5283 16.7377H26.6388C26.6388 16.7377 26.6388 16.7377 26.7492 16.7377H26.8597C26.8597 16.7377 26.8597 16.7377 26.9702 16.7377L27.1911 16.6278C27.1911 16.6278 27.3016 16.6278 27.3016 16.5178H27.412L27.7434 16.4079L27.8539 16.2979L28.0748 16.188L28.2957 16.078L28.4062 15.9681H28.5167C28.5167 15.9681 28.5167 15.9681 28.6271 15.8581H28.7376L28.9585 15.6382L29.1795 15.4183C29.1795 15.4183 29.2899 15.4183 29.2899 15.3084V15.1984L29.4004 15.0885C29.4004 14.9785 29.4004 15.0885 29.5109 14.9785L29.6213 14.8686L29.7318 14.6487V14.5388L29.8423 14.3189L29.9527 14.099L30.0632 13.7691L30.1736 13.4393L30.2841 13.2194C30.2841 13.2194 30.2841 13.2194 30.2841 13.1094V12.4498C30.2841 12.4498 30.2841 12.4498 30.2841 12.3398L30.3946 11.7901L30.505 11.1304L31.3888 9.15132V9.04138V8.93143C31.3888 8.93143 31.3888 8.93143 31.3888 8.82148L31.2783 8.49164L31.1678 8.27174V8.16179L30.8364 7.50211L30.6155 7.17227C30.6155 7.17227 30.6155 7.17227 30.6155 7.06232L30.2841 6.95237L30.1736 6.84242L30.0632 6.73248C29.8422 6.51258 29.6213 6.29269 29.6213 6.18274L29.4004 5.96284L29.1795 5.85289H29.069C28.9585 5.74295 28.9585 5.74295 28.9585 5.74295L28.5167 5.52305L28.4062 5.4131L28.1853 5.30316H28.0748L27.8539 5.19321H27.7434H27.6329H27.5225H27.412C27.412 5.19321 27.412 5.19321 27.3016 5.19321C27.3016 5.19321 27.3016 5.19321 27.1911 5.19321L26.7492 4.75342H26.1969H25.4236Z" fill="#384149"/>
<path d="M68.7256 4.6434V16.8476H76.9V14.2088H71.1558V4.53345H68.7256C68.7256 4.64339 68.7256 4.6434 68.7256 4.6434Z" fill="#384149"/>
<path d="M37.7961 4.75342L36.4705 4.97331C36.4705 4.97331 36.4705 4.97331 36.3601 4.97331H36.2496L36.0287 5.08326L35.8078 5.19321H35.6973L35.4764 5.30316L35.145 5.52305C35.145 5.52305 35.145 5.52305 35.0345 5.633L34.924 5.74295C34.924 5.74295 34.924 5.74295 34.8136 5.85289C34.7031 5.85289 34.7031 5.85289 34.5926 5.85289L34.2612 6.18274C34.2612 6.18274 34.2612 6.29268 34.1508 6.29268C34.1508 6.29268 34.1508 6.29268 34.0403 6.40263C34.0403 6.40263 34.0403 6.40263 33.9298 6.51258C33.9298 6.51258 33.9298 6.51258 33.8194 6.62253L33.7089 6.73248L33.5985 6.95237C33.5985 6.95237 33.5985 7.06232 33.488 7.06232L33.2671 7.50211V7.61206V8.05185V8.16179V8.27174V8.38169L33.1566 8.93143L32.9357 9.48117L32.8252 10.2508V11.0204V16.9576H35.145L35.3659 9.59111C35.3659 9.59111 35.3659 9.59111 35.3659 9.48117V9.37122C35.3659 9.37122 35.3659 9.37122 35.3659 9.26127L35.4764 9.15132L35.5868 8.82148L35.8078 8.49164C35.8078 8.49164 35.8078 8.49164 35.9182 8.38169L36.0287 8.27174L36.2496 8.05185L36.3601 7.9419L36.581 7.83195L36.8019 7.722L37.0229 7.61206L37.4647 7.50211H38.6798C38.6798 7.50211 38.6798 7.50211 38.7903 7.50211H38.9008H39.0112H39.1217V4.75342C39.1217 4.75342 39.1217 4.75342 39.0112 4.75342H38.5694H37.7961Z" fill="#384149"/>
<path d="M51.8252 9.48101V16.8475H54.2554V4.64331H51.8252V9.48101Z" fill="#384149"/>
<path d="M17.1388 3.76381C17.9121 3.65386 18.4644 4.2036 18.4644 4.75334C18.4644 4.97323 18.4644 5.08318 18.3539 5.30308C18.3539 5.41302 18.2435 5.63292 18.133 5.63292V5.85282C17.6912 6.18266 17.0284 6.18266 16.5865 5.85282C15.7028 5.19313 16.1446 3.87376 17.1388 3.76381ZM15.5923 6.29261C15.7028 6.40255 15.7028 6.40255 15.5923 6.29261L15.9237 6.62245C15.9237 6.62245 15.9237 6.62245 16.0342 6.7324L16.3656 6.95229H16.476C16.5865 6.95229 16.5865 6.95229 16.5865 6.95229L16.9179 7.06224L17.9121 6.95229C17.9121 6.95229 17.9121 6.95229 18.0226 6.95229L18.6853 6.62245L18.9063 6.40255L19.0167 6.29261L19.3481 5.85282L19.4586 5.63292L19.5691 5.30308L19.4586 4.4235C19.4586 4.4235 19.4586 4.4235 19.4586 4.31355V4.2036V4.09365C19.4586 4.09365 19.4586 4.09365 19.4586 3.98371L19.3481 3.87376L19.1272 3.65386C19.1272 3.54391 19.0167 3.54391 19.0167 3.54391L18.9063 3.43397C18.9063 3.43397 18.9063 3.32402 18.7958 3.32402C18.5749 3.21407 18.4644 3.10412 18.133 2.99418C17.2493 2.77428 16.476 2.99418 15.9237 3.54391L15.8132 3.65386L15.7028 3.76381C15.5923 3.87376 15.5923 3.98371 15.4819 4.09365C15.2609 4.64339 15.2609 5.19313 15.3714 5.74287C15.3714 5.85282 15.4819 5.96276 15.4819 6.07271C15.4819 6.18266 15.5923 6.18266 15.5923 6.18266C15.5923 6.29261 15.5923 6.18266 15.5923 6.29261Z" fill="#656667"/>
<path d="M17.1386 3.76384C16.1444 3.87378 15.7026 5.19315 16.4758 5.85284C16.9177 6.18268 17.5805 6.18268 18.0223 5.85284L18.1328 5.74289C18.2433 5.63295 18.3537 5.523 18.3537 5.41305C18.3537 5.3031 18.4642 5.08321 18.4642 4.86331C18.4642 4.20363 17.9119 3.65389 17.1386 3.76384Z" fill="#A57F62"/>
<path d="M18.0226 16.4077C18.0226 16.6276 17.8016 16.7376 17.5807 16.6276C17.4702 16.6276 17.2493 16.4077 17.3598 16.1878C17.3598 16.0779 17.5807 15.858 17.8016 15.9679C17.9121 15.9679 18.133 16.1878 18.0226 16.4077ZM17.2493 15.9679C17.2493 16.0779 17.2493 16.0779 17.2493 15.9679C17.1389 16.1878 17.1389 16.5177 17.3598 16.6276C17.4702 16.7376 17.6912 16.8475 17.9121 16.7376C18.0226 16.7376 18.0226 16.7376 18.133 16.6276L18.2435 16.5177C18.354 16.4077 18.2435 16.4077 18.2435 16.4077V16.0779C18.2435 16.0779 18.2435 16.0779 18.2435 15.9679C18.2435 15.858 18.2435 15.9679 18.133 15.858L18.0226 15.748C17.9121 15.748 18.0226 15.748 17.9121 15.748H17.5807C17.5807 15.748 17.5807 15.748 17.4702 15.748H17.3598L17.2493 15.9679Z" fill="#656667"/>
<path d="M16.3658 14.8686C16.8077 14.7586 16.9182 15.4183 16.4763 15.5283C16.1449 15.6382 15.924 14.9785 16.3658 14.8686ZM16.0344 14.8686C16.0344 14.9785 15.924 15.0885 16.0344 15.3084C16.1449 15.5283 16.3658 15.7482 16.5868 15.7482C16.8077 15.7482 16.8077 15.6382 16.9182 15.5283V15.4183V15.0885L16.8077 14.8686L16.6972 14.6487H16.3658H16.2554C16.0344 14.8686 16.1449 14.8686 16.0344 14.8686Z" fill="#656667"/>
<path d="M19.2372 17.5072C19.1268 17.947 18.464 17.837 18.5744 17.3972C18.6849 16.8475 19.3477 16.9574 19.2372 17.5072ZM18.464 17.1773C18.464 17.2873 18.464 17.1773 18.3535 17.2873C18.3535 17.3972 18.3535 17.3972 18.3535 17.5072C18.3535 17.6171 18.464 17.7271 18.5744 17.7271C18.6849 17.837 18.9058 17.837 19.1268 17.837C19.2372 17.837 19.2372 17.837 19.2372 17.7271L19.3477 17.5072V17.1773C19.3477 17.1773 19.3477 17.1773 19.3477 17.0674V16.9574C19.3477 16.9574 19.3477 16.9574 19.3477 16.8475C19.3477 16.8475 19.3477 16.8475 19.2372 16.8475C19.1268 16.7375 19.1268 16.8475 19.1268 16.7375H18.7954C18.6849 16.7375 18.7954 16.7375 18.6849 16.7375C18.6849 16.7375 18.5744 16.7375 18.5744 16.8475C18.464 17.0674 18.5744 17.0674 18.464 17.1773Z" fill="#656667"/>
<path d="M19.238 17.5073C19.3485 17.0676 18.6857 16.9576 18.5753 17.3974C18.4648 17.7272 19.238 17.9471 19.238 17.5073Z" fill="#A57F62"/>
<path d="M16.3653 14.8685C15.9234 14.9785 16.0339 15.6381 16.4757 15.5282C17.0281 15.4183 16.8071 14.7586 16.3653 14.8685Z" fill="#A57F62"/>
<path d="M18.0222 16.4078C18.0222 16.1879 17.9117 16.078 17.8012 15.968C17.5803 15.968 17.4698 16.078 17.3594 16.1879C17.3594 16.4078 17.4698 16.5178 17.5803 16.6277C17.9117 16.6277 18.0222 16.5178 18.0222 16.4078Z" fill="#A57F62"/>
</g>
<defs>
<clipPath id="clip0_2007_2003">
<rect width="76" height="21" fill="white" transform="translate(0.900391 0.355469)"/>
</clipPath>
</defs>
</svg>
