<svg width="65" height="12" viewBox="0 0 65 12" fill="none" xmlns="http://www.w3.org/2000/svg">
<g clip-path="url(#clip0_2007_956)">
<path d="M50.2914 4.125V6.25C50.2914 6.5 50.4128 6.625 50.5342 6.625C54.299 6.625 57.9422 6.625 61.7069 6.625C62.0712 6.625 62.557 6.75 62.557 7.25C62.557 7.625 62.557 7.875 62.3141 8.125C62.1927 8.25 61.9498 8.25 61.5855 8.25H50.2914C50.2914 8.25 50.1699 8.25 50.1699 8.375C50.1699 10 51.7487 11.875 53.6917 11.875H60.8568C63.0428 11.875 64.3786 10 64.3786 8.25V5.375C64.3786 5.375 64.3786 5.25 64.2572 5.25H52.8416C52.5988 5.25 51.9916 5.25 51.9916 4.625V4.25C51.9916 3.75 52.3559 3.5 52.8416 3.5H64.1358C64.2572 3.5 64.3786 3.5 64.3786 3.25C64.3786 1.5 62.6785 -0.125 60.8568 -0.125H53.6917C51.9916 0 50.2914 1.625 50.2914 3.5C50.2914 3.75 50.2914 4 50.2914 4.125Z" fill="#CA9212"/>
<path d="M21.7519 7.625V4.375C21.7519 3.875 22.1163 3.5 22.602 3.5H31.5888C32.0745 3.5 32.3174 3.75 32.3174 4.25V7.5C32.3174 8 31.9531 8.25 31.4673 8.25H22.3592C22.1163 8.375 21.7519 8 21.7519 7.625ZM20.0518 0.25V11.875L20.2946 12.125H30.7387C32.0745 12.125 34.2605 11.875 34.2605 8.5V3.5C34.2605 1.875 33.1675 0 30.7387 0H20.2946C20.1732 0 20.0518 0.125 20.0518 0.25Z" fill="#CA9212"/>
<path d="M0.5 4.25V11.875C0.5 12 0.621442 12 0.621442 12H2.07875C2.20019 12 2.20019 11.875 2.20019 11.75V4.25C2.32163 3.5 2.8074 3.5 3.05028 3.5H6.57211C6.69355 3.5 6.81499 3.5 6.93643 3.625C7.17932 3.75 7.4222 4.125 7.4222 4.25V11.75C7.4222 11.875 7.54364 12 7.54364 12H9.00095C9.12239 12 9.12239 12 9.12239 11.75V4.25C9.12239 3.875 9.48672 3.5 9.97249 3.5H13.4943C14.1015 3.5 14.3444 3.75 14.3444 4.25V11.75C14.3444 11.875 14.4658 12 14.4658 12H15.9232C16.0446 12 16.0446 11.875 16.0446 11.75C16.0446 11 16.0446 8.375 16.0446 7.875C16.0446 6.5 16.0446 5.125 16.0446 3.75C16.0446 3.125 16.0446 2.875 15.9232 2.375C15.9232 2.25 15.8017 2.125 15.8017 2C15.5588 1.5 15.1945 0.875 14.7087 0.625C14.223 0.25 13.4943 0 12.6442 0H4.14326C2.92884 0 2.07875 0.25 1.22865 1.125C0.985769 1.625 0.742884 2.25 0.621442 2.875C0.5 3.375 0.5 3.875 0.5 4.25Z" fill="#CA9212"/>
<path d="M37.0542 4.375C37.0542 4 37.2971 3.625 37.7829 3.625H46.6481C47.3768 3.625 47.6197 3.875 47.6197 4.375C47.6197 4.875 47.2553 5.25 46.7696 5.25H37.9043C37.2971 5.25 37.0542 4.75 37.0542 4.375ZM35.4755 12H36.9328C37.0542 12 37.0542 11.875 37.0542 11.75V7.375C37.0542 6.875 37.1756 6.5 37.7829 6.5H46.891C47.3768 6.5 47.6197 6.75 47.6197 7.25V11.875C47.6197 12 47.7411 12.125 47.8626 12.125H49.1984C49.3199 12.125 49.3199 12 49.3199 11.875V3.5C49.3199 1.5 48.3483 0 46.4052 0H38.3901C35.8398 0 35.354 1.875 35.354 3.5V11.75C35.2326 11.875 35.354 12 35.4755 12Z" fill="#CA9212"/>
<path d="M17.5017 12H18.8375C18.959 12 19.0804 11.875 19.0804 11.75V0.125C19.0804 0 18.959 0 18.8375 0H17.5017C17.3802 0 17.2588 0.125 17.2588 0.25V11.75C17.2588 11.875 17.3802 12 17.5017 12Z" fill="#CA9212"/>
</g>
<defs>
<clipPath id="clip0_2007_956">
<rect width="64" height="12" fill="white" transform="translate(0.5)"/>
</clipPath>
</defs>
</svg>
