<svg width="40" height="38" viewBox="0 0 40 38" fill="none" xmlns="http://www.w3.org/2000/svg">
<g clip-path="url(#clip0_2007_2288)">
<path d="M18.3302 0C17.8933 0.109827 17.347 0.219653 16.9101 0.219653C16.6916 0.219653 16.3639 0.32948 16.2546 0.32948C16.1454 0.32948 15.9269 0.439306 15.8176 0.439306C15.7084 0.439306 15.4899 0.549133 15.4899 0.549133C15.3807 0.549133 15.2714 0.65896 15.1622 0.65896C14.9437 0.768786 14.3975 0.988439 14.0697 1.20809C13.8512 1.31792 13.742 1.42775 13.4143 1.6474C13.305 1.75723 13.1958 1.75723 13.0865 1.86705C12.7588 2.19653 11.5571 3.2948 11.2294 3.7341C11.1202 3.7341 11.1202 3.84393 11.0109 3.95376C11.0109 3.95376 10.9017 4.06358 10.9017 4.17341C10.9017 4.28324 10.6832 4.39306 10.6832 4.50289C10.5739 4.61272 10.4647 4.72254 10.3555 4.83237C10.3555 4.9422 10.2462 5.05202 10.137 5.05202C10.137 5.16185 10.0277 5.27168 9.91848 5.3815C9.91848 5.49133 9.69999 5.71098 9.59075 5.93064C9.69999 6.15029 9.59075 6.47977 9.4815 6.5896C9.4815 6.69942 9.37226 6.91908 9.37226 7.0289C9.26302 7.0289 9.26302 7.24856 9.26302 7.35838C9.26302 7.46821 9.15377 7.68786 9.15377 7.79769C9.15377 7.90752 9.04453 8.12717 9.04453 8.34682C9.04453 8.56647 8.93528 8.89596 8.93528 9.11561C8.7168 9.44509 8.7168 9.66474 8.7168 10.4335C8.7168 11.3121 8.7168 11.422 8.82604 11.8613C8.93528 12.0809 8.93528 12.5202 8.93528 12.6301C8.93528 12.8497 9.04453 13.0694 9.04453 13.0694C9.04453 13.1792 9.15377 13.3988 9.15377 13.5087C9.15377 13.6185 9.26302 13.8382 9.26302 13.948C9.26302 14.0578 9.37226 14.1676 9.37226 14.2775C9.59075 14.8266 10.2462 16.1445 10.7924 16.8035C10.9017 16.9133 11.0109 17.0231 11.1202 17.1329C11.4479 17.5723 12.2126 18.341 12.7588 18.7803C12.8681 18.8902 13.4143 19.2197 13.6328 19.3295C14.0697 19.5491 14.2882 19.7688 14.3975 19.7688C14.5067 19.7688 14.616 19.8786 14.7252 19.9884C14.8344 19.9884 14.9437 20.0983 15.0529 20.0983C15.1622 20.0983 15.2714 20.2081 15.3807 20.2081C15.4899 20.3179 15.7084 20.3179 15.8176 20.3179C15.9269 20.3179 16.2546 20.4277 16.3639 20.4277C17.2378 20.6474 18.658 20.8671 19.5319 20.7572C20.1874 20.7572 21.2798 20.5376 21.4983 20.4277C21.6076 20.4277 21.826 20.3179 22.0445 20.3179C22.263 20.3179 22.3723 20.2081 22.4815 20.2081C22.5907 20.2081 22.7 20.0983 22.8092 20.0983C22.9185 20.0983 23.0277 19.9884 23.137 19.9884C23.2462 19.9884 23.3555 19.8786 23.4647 19.7688C23.5739 19.7688 23.7924 19.5491 23.9017 19.5491C24.0109 19.4393 24.2294 19.3295 24.3386 19.3295C24.4479 19.3295 24.5571 19.2197 24.6664 19.1098C24.7756 19.1098 24.8849 19 24.8849 18.8902C25.2126 18.6705 25.2126 18.6705 25.6496 18.2312C26.0865 17.9017 26.305 17.5723 26.742 17.1329C27.179 16.5838 27.3975 16.3642 27.7252 15.815C27.9437 15.4855 28.3807 14.4971 28.4899 14.2775C28.4899 14.1676 28.5991 13.948 28.5991 13.8382C28.5991 13.7283 28.7084 13.5087 28.7084 13.3988C28.7084 13.289 28.8176 13.0694 28.8176 12.9595C28.8176 12.8497 28.9269 12.6301 28.9269 12.5202C28.9269 12.4104 29.0361 11.9711 29.0361 11.7514C29.1454 11.3121 29.1454 11.0925 29.1454 10.4335C29.1454 9.77457 29.1454 9.55491 29.0361 9.11561C28.9269 8.78613 28.9269 8.45665 28.9269 8.34682C28.9269 8.23699 28.8176 8.01734 28.8176 7.90752C28.8176 7.79769 28.7084 7.57804 28.7084 7.35838C28.7084 7.13873 28.5991 6.91908 28.5991 6.91908C28.5991 6.80925 28.4899 6.69942 28.4899 6.5896C28.3807 6.36994 27.8344 5.16185 27.7252 5.05202C27.7252 5.05202 27.616 4.83237 27.5067 4.83237C27.8344 4.72254 27.7252 4.50289 27.616 4.39306C27.5067 4.28324 27.3975 4.17341 27.3975 4.06358C27.2882 3.84393 26.6328 3.18497 26.4143 2.96532C26.305 2.85549 25.9773 2.63584 25.8681 2.41619C25.6496 2.30636 25.4311 2.19653 25.4311 2.08671C25.3218 1.97688 24.4479 1.42775 24.2294 1.31792C23.7924 1.09827 23.2462 0.878613 23.137 0.768786C23.137 0.768786 22.9185 0.65896 22.8092 0.65896C22.3723 0.439306 21.7168 0.219653 21.2798 0.219653C21.0613 0.219653 20.6244 0.109827 20.4059 0.109827C20.0781 0 19.8597 0 19.2042 0C18.7672 0 18.4395 0 18.3302 0ZM20.5151 3.2948C21.6076 3.62428 22.0445 3.7341 22.9185 4.17341C24.1202 4.83237 25.2126 6.04046 25.6496 7.24856C25.6496 7.35838 25.7588 7.46821 25.8681 7.57804C25.8681 7.68786 25.9773 7.79769 25.9773 7.90752C25.9773 8.01734 26.0865 8.12717 26.0865 8.23699C26.1958 8.34682 26.1958 8.78613 26.305 9.66474C26.4143 10.104 26.4143 10.763 26.305 11.0925C26.305 11.2023 26.1958 11.422 26.1958 11.6416C26.0865 12.1908 26.0865 12.6301 25.8681 12.9595C25.7588 13.289 25.6496 13.289 25.6496 13.289C25.5403 13.1792 25.3218 12.6301 25.3218 12.5202C25.3218 12.3006 24.7756 11.3121 24.5571 10.9827C24.2294 10.5434 24.1202 10.3237 23.9017 10.104C23.7924 9.99422 23.6832 9.77457 23.5739 9.66474C23.3555 9.33526 22.8092 8.78613 22.3723 8.45665C21.9353 7.79769 21.826 7.68786 21.2798 7.35838C21.1706 7.35838 21.1706 7.24856 21.0613 7.24856C20.9521 7.13873 20.4059 6.80925 20.1874 6.69942C20.0781 6.69942 19.9689 6.5896 19.9689 6.5896C19.9689 6.5896 19.7504 6.47977 19.6412 6.47977C19.5319 6.47977 19.3134 6.36994 19.2042 6.26012C18.3302 5.93064 18.1118 5.93064 17.1286 5.82081C16.4731 5.71098 16.3639 5.71098 16.2546 5.82081C16.1454 5.93064 16.1454 6.04046 16.2546 6.26012C16.2546 6.36994 16.3639 6.69942 16.3639 7.0289C16.3639 7.35838 16.4731 7.57804 16.4731 7.68786C16.4731 7.79769 16.4731 8.12717 16.4731 8.45665C16.4731 9.00578 16.4731 9.22543 16.3639 9.55491C16.3639 9.77457 16.2546 10.104 16.2546 10.3237C16.1454 10.763 15.8176 11.7514 15.3807 12.3006C15.2714 12.4104 15.1622 12.5202 15.1622 12.6301C14.8344 13.0694 13.742 14.2775 13.4143 14.3873C13.305 14.3873 13.305 14.4971 13.0865 14.3873C12.9773 14.3873 12.8681 14.2775 12.8681 14.1676C12.8681 14.0578 12.7588 13.948 12.6496 13.8382C12.5403 13.7283 12.5403 13.6185 12.5403 13.5087C12.5403 13.5087 12.4311 13.289 12.4311 13.1792C12.2126 12.7399 11.9941 12.1908 11.9941 11.7514C11.9941 11.5318 11.8849 11.2023 11.8849 11.0925C11.7756 10.763 11.7756 9.66474 11.8849 9.33526C11.8849 9.22543 11.9941 8.89596 11.9941 8.6763C12.1034 8.23699 12.3218 7.46821 12.4311 7.24856C12.4311 7.24856 12.5403 7.13873 12.5403 7.0289C12.6496 6.80925 12.8681 6.36994 12.9773 6.26012C12.9773 6.26012 13.0865 6.15029 13.1958 6.04046C13.4143 5.71098 14.179 4.83237 14.7252 4.50289C14.8344 4.61272 15.0529 4.39306 15.0529 4.39306C15.2714 4.17341 16.3639 3.62428 16.4731 3.62428C16.4731 3.62428 16.5823 3.62428 16.8008 3.51445C16.9101 3.51445 17.2378 3.40462 17.4563 3.2948C17.6748 3.2948 17.8933 3.18497 18.0025 3.18497C18.221 3.07515 18.658 3.07514 19.4227 3.07514C19.9689 3.18497 20.0781 3.18497 20.5151 3.2948ZM20.0781 10.3237C20.1874 10.4335 20.4059 10.5434 20.5151 10.6532C20.9521 11.0925 22.0445 12.3006 22.0445 12.5202C22.0445 12.5202 22.0445 12.6301 22.1538 12.7399C22.3723 13.0694 22.8092 14.1676 22.9185 14.7168C22.9185 14.9364 23.0277 15.3757 23.0277 15.815V16.5838L22.8092 16.8035C22.7 16.9133 22.5907 17.0231 22.4815 17.0231C22.3723 17.0231 22.263 17.1329 22.1538 17.1329C22.0445 17.1329 21.9353 17.2428 21.826 17.2428C21.7168 17.2428 21.6076 17.3526 21.4983 17.3526C21.3891 17.3526 21.1706 17.4624 20.9521 17.4624C20.7336 17.4624 20.5151 17.5723 20.2966 17.5723C20.0781 17.6821 19.8597 17.6821 19.2042 17.6821C18.5487 17.6821 18.4395 17.6821 18.221 17.5723C18.1118 17.5723 17.784 17.4624 17.5655 17.4624C17.347 17.4624 17.0193 17.3526 17.0193 17.3526C16.9101 17.3526 16.8008 17.2428 16.6916 17.2428C16.4731 17.1329 15.9269 16.9133 15.8176 16.8035C15.7084 16.6936 15.8176 16.474 16.0361 16.2543C16.3639 15.9249 17.2378 15.1561 17.5655 14.6069C17.8933 14.1676 17.8933 14.0578 18.0025 13.948C18.0025 13.8382 18.1118 13.8382 18.1118 13.7283C18.221 13.5087 18.7672 12.5202 18.8765 12.3006C18.8765 12.1908 18.9857 11.9711 19.0949 11.8613C19.2042 11.7514 19.2042 11.5318 19.2042 11.422C19.2042 11.3121 19.3134 11.0925 19.3134 10.9827C19.3134 10.8728 19.4227 10.6532 19.4227 10.4335C19.4227 10.2139 19.5319 9.99422 19.5319 9.99422C19.5319 9.99422 19.6412 9.88439 19.7504 9.88439C19.8597 10.2139 19.8597 10.2139 20.0781 10.3237Z" fill="black"/>
<path d="M0.742056 26.6877C0.632812 26.6877 0.632812 26.7976 0.632812 26.7976C0.632812 26.9074 0.632812 37.6704 0.632812 37.8901C0.742056 38.1097 0.523569 38.1097 5.43954 38.1097C8.06138 38.1097 9.91853 38.1097 10.0278 38.1097C10.137 37.9999 10.2463 37.8901 10.2463 36.4623V35.1444L10.137 35.0346L10.0278 34.9247H7.29668C5.76727 34.9247 4.56559 34.9247 4.45634 34.9247C4.23785 34.8149 4.23785 34.9247 4.23785 30.8612V27.0172L4.12861 26.9074L4.01937 26.7976H2.38071C1.17903 26.6877 0.742056 26.6877 0.742056 26.6877Z" fill="black"/>
<path d="M12.1034 26.6879L11.9941 32.2891C11.9941 36.2429 11.9941 37.7804 11.9941 37.8903C11.9941 38.0001 12.1034 38.0001 12.1034 38.0001C12.2126 38.0001 22.4815 38.0001 22.5908 38.0001C22.8093 37.8903 22.8093 37.7804 22.8093 36.3527C22.8093 34.8151 22.8093 34.9249 22.4815 34.8151C22.3723 34.8151 20.8429 34.8151 18.9857 34.8151H15.7084H15.8177C15.7084 34.7053 15.7084 34.0463 15.8177 33.9365L15.9269 33.8267H19.3135C22.9185 33.8267 22.9185 33.8267 22.9185 33.607C22.9185 33.607 22.9185 32.9481 22.9185 32.2891C22.9185 31.081 22.9185 30.9712 22.8093 30.8614C22.8093 30.7515 22.7 30.7515 22.5908 30.7515C22.4815 30.7515 20.9521 30.7515 19.095 30.7515C15.1622 30.7515 15.5992 30.7515 15.5992 30.3122C15.5992 29.9827 15.5992 29.9827 15.7084 29.8729L15.8177 29.7631H19.2042C21.0614 29.7631 22.5908 29.7631 22.5908 29.7631C22.5908 29.7631 22.7 29.6533 22.7 29.5434C22.8093 29.4336 22.8093 29.3238 22.8093 28.1157V26.7978L22.7 26.6879L22.5908 26.5781H17.3471L12.1034 26.6879Z" fill="black"/>
<path d="M30.0198 26.6879C29.9106 26.6879 29.6921 27.0174 29.5828 27.237C29.4736 27.4567 29.4736 27.4567 29.1459 27.896C29.0366 28.0058 29.0366 28.1157 28.9274 28.2255C28.9274 28.3353 28.8181 28.4451 28.7089 28.4451C28.7089 28.555 28.5996 28.555 28.5996 28.555C28.5996 28.555 28.4904 28.7746 28.2719 29.1041C28.2719 29.2139 28.1627 29.3238 28.0534 29.4336C27.9442 29.5434 27.9442 29.6532 27.8349 29.7631C27.8349 29.7631 27.7257 29.8729 27.7257 29.9827C27.7257 30.0925 27.5072 30.3122 27.2887 30.6417C27.2887 30.7515 27.1795 30.8613 27.0702 30.9712C26.961 31.081 26.961 31.1908 26.8517 31.3006C26.7425 31.4105 26.524 31.7399 26.4148 31.9596C26.4148 32.0694 26.3055 32.1792 26.1963 32.3989C26.087 32.5087 25.9778 32.7284 25.9778 32.8382C25.9778 32.948 25.8685 33.0579 25.7593 33.1677C25.7593 33.2775 25.6501 33.3873 25.5408 33.4972C25.5408 33.607 25.4316 33.7168 25.4316 33.7168C25.2131 34.0463 24.9946 34.3758 24.9946 34.3758C24.9946 34.4856 24.8853 34.5954 24.7761 34.7053C24.5576 35.1446 24.5576 35.0347 24.5576 36.4625C24.5576 37.6706 24.5576 37.7804 24.5576 37.8902C24.6669 38.1099 24.6669 38.1099 25.8685 38.1099H26.8517L26.961 38.0001C27.0702 37.8902 27.1795 37.8902 27.1795 37.7804C27.1795 37.7804 27.2887 37.5607 27.398 37.4509C27.5072 37.3411 27.5072 37.2313 27.5072 37.2313C27.5072 37.2313 27.5072 37.1214 27.6164 37.1214C27.6164 37.0116 27.7257 36.9018 27.8349 36.792C27.9442 36.5723 28.0534 36.3527 28.2719 35.9134C28.4904 35.6937 28.4904 35.5839 28.5996 35.5839C28.7089 35.5839 30.129 35.5839 31.8769 35.5839C34.4988 35.5839 35.045 35.5839 35.1543 35.5839C35.2635 35.6937 35.482 35.8035 35.482 36.0232C35.482 36.133 35.5912 36.3527 35.7005 36.4625C35.8097 36.5723 35.919 36.9018 36.0282 37.0116C36.3559 37.6706 36.6837 38.0001 36.7929 38.1099C36.7929 38.1099 37.3391 38.1099 37.8853 38.1099C39.087 38.1099 39.087 38.1099 39.087 37.8902C39.087 37.6706 39.1963 35.3642 39.087 35.1446C39.087 35.0347 38.9778 34.9249 38.9778 34.8151C38.9778 34.7053 38.8685 34.5954 38.7593 34.4856C38.6501 34.3758 38.5408 34.1561 38.5408 34.0463C38.4316 33.9365 38.3223 33.7168 38.3223 33.607C38.2131 33.4972 38.2131 33.3873 38.1038 33.3873C38.1038 33.3873 37.9946 33.2775 37.9946 33.1677C37.9946 33.0579 37.8853 32.948 37.7761 32.8382C37.6669 32.7284 37.6669 32.6186 37.6669 32.6186C37.6669 32.6186 37.6669 32.5087 37.5576 32.3989C37.4484 32.2891 37.4484 32.1792 37.3391 32.0694C37.2299 31.8498 37.0114 31.5203 36.9022 31.4105C36.7929 31.3006 36.7929 31.1908 36.7929 31.1908C36.7929 31.1908 36.6837 31.081 36.6837 30.9712C36.6837 30.8613 36.5744 30.7515 36.4652 30.6417C36.3559 30.5318 36.3559 30.3122 36.2467 30.2024C36.1374 30.0925 36.0282 29.8729 36.0282 29.8729C35.919 29.7631 35.8097 29.5434 35.8097 29.4336C35.7005 29.3238 35.5912 29.1041 35.5912 28.9943C35.482 28.8844 35.482 28.7746 35.3727 28.6648C35.3727 28.555 35.2635 28.4451 35.1543 28.3353C35.045 28.2255 35.045 28.1157 34.9358 28.1157C34.9358 28.1157 34.8265 28.0058 34.7173 27.7862C34.608 27.6764 34.608 27.4567 34.4988 27.4567C34.3896 27.237 34.1711 27.0174 34.1711 26.7977C34.1711 26.6879 34.0618 26.6879 33.9526 26.5781C33.8433 26.4683 33.7341 26.4683 31.6585 26.4683C31.1122 26.5781 30.129 26.6879 30.0198 26.6879ZM32.5324 30.3122C32.6416 30.5318 32.7509 30.7515 32.8601 30.8613C32.9694 30.9712 32.9694 31.081 32.9694 31.1908C32.9694 31.1908 32.9694 31.3006 33.0786 31.4105C33.1879 31.5203 33.1879 31.6301 33.2971 31.6301C33.2971 31.7399 33.4064 31.9596 33.5156 32.0694L33.7341 32.3989L33.6248 32.5087C33.5156 32.5087 33.4064 32.6186 32.2047 32.6186C30.8938 32.6186 30.8938 32.6186 30.7845 32.5087C30.6753 32.3989 30.6753 32.3989 30.8938 32.1792C31.003 31.9596 31.1122 31.8498 31.1122 31.7399C31.1122 31.6301 31.2215 31.5203 31.2215 31.5203C31.2215 31.4105 31.3307 31.3006 31.3307 31.3006C31.44 31.1908 31.5492 30.8613 31.7677 30.5318C31.8769 30.3122 32.0954 30.2024 32.2047 30.2024C32.3139 29.9827 32.4232 30.0925 32.5324 30.3122Z" fill="black"/>
</g>
<defs>
<clipPath id="clip0_2007_2288">
<rect width="39" height="38" fill="white" transform="translate(0.523438)"/>
</clipPath>
</defs>
</svg>
