<svg width="34" height="42" viewBox="0 0 34 42" fill="none" xmlns="http://www.w3.org/2000/svg">
<g clip-path="url(#clip0_2007_1592)">
<path d="M24.9708 27.8971H14.9645L15.8252 23.401H25.8316L24.9708 27.8971ZM26.5847 19.2261H16.5784C16.686 17.0851 18.2999 15.4794 19.8063 14.8371C20.2366 14.623 22.8189 14.73 23.5721 14.73C24.8632 14.73 26.1544 14.73 27.4455 14.73L26.5847 19.2261ZM13.7809 9.16343C13.8885 9.05638 13.9961 8.94933 14.1037 8.84228C14.2113 8.73523 14.3189 8.62818 14.4265 8.52113C17.5468 5.41669 20.4518 5.84489 24.4328 5.84489C25.9392 5.84489 27.5531 5.84489 29.0594 5.84489L28.3063 10.2339C27.8759 10.341 20.2366 10.2339 19.3759 10.2339C16.9012 10.341 14.8569 11.3044 13.5658 13.3384C12.8126 14.5159 12.705 15.1582 12.4898 16.764L11.0911 24.2574C10.8759 25.435 10.5531 26.8266 10.4455 28.0042H4.95816L8.93917 5.84489H14.4265L13.7809 9.16343ZM0.00878906 0.064209V33.6778H33.9012V0.064209H0.00878906Z" fill="#E31F25"/>
<path d="M13.781 9.16351L14.3189 5.95202H8.8316L4.85059 28.0042H10.3379C10.4455 26.8267 10.7683 25.4351 10.9835 24.2575L12.3822 16.764C12.705 15.2653 12.705 14.516 13.4582 13.3384C14.7493 11.3045 16.686 10.3411 19.2683 10.234C20.1291 10.234 27.7683 10.234 28.1987 10.234L28.9519 5.84497C27.4455 5.84497 25.8316 5.84497 24.3253 5.84497C20.2367 5.84497 17.4392 5.41677 14.3189 8.52121C14.2113 8.62826 14.1038 8.73531 13.9962 8.84236C13.9962 8.94941 13.8886 9.05646 13.781 9.16351Z" fill="#FDFDFD"/>
<path d="M25.831 23.4011H15.717L14.9639 27.8972H24.9702L25.831 23.4011Z" fill="#FDFDFD"/>
<path d="M27.3378 14.73C26.1542 14.6229 24.7555 14.73 23.4644 14.73C22.8188 14.73 20.1289 14.6229 19.6986 14.837C18.1922 15.4793 16.5783 17.085 16.4707 19.226H26.477L27.3378 14.73Z" fill="#FDFDFD"/>
<path d="M1.8379 36.1398C2.37588 36.1398 3.02145 36.1398 3.55942 36.1398C3.9898 36.1398 4.74297 36.1398 4.63537 36.7821C4.63537 36.9962 4.42018 37.2103 4.31259 37.3174C3.9898 37.4244 2.16069 37.4244 1.8379 37.4244V36.1398ZM0.00878906 40.9571H1.73031V38.4949C2.37588 38.4949 2.91385 38.4949 3.23664 38.9231L4.63537 40.4218C4.85056 40.6359 4.95816 40.85 5.17335 40.85H7.11005C7.00246 40.743 6.1417 39.6725 6.03411 39.4584C5.71132 39.0302 5.49613 38.8161 5.17335 38.4949C5.06575 38.3879 4.85056 38.3879 4.85056 38.2808C5.49613 38.0667 6.2493 37.9597 6.46449 37.1033C6.67967 36.3539 6.35689 35.6046 5.60373 35.1764C4.95816 34.8552 3.88221 34.8552 3.02145 34.8552C2.37588 34.8552 0.654359 34.8552 0.116384 34.8552L0.00878906 40.9571Z" fill="black"/>
<path d="M9.5848 40.9569V38.4948C10.0152 38.4948 12.4899 38.4948 12.7051 38.4948C12.7051 38.2807 12.7051 37.5313 12.7051 37.3173H9.5848V36.1397H13.243V34.9622H7.86328C7.86328 35.0692 7.86328 40.7428 7.86328 40.9569H9.5848Z" fill="black"/>
<path d="M26.4774 38.3878C26.4774 37.8526 26.8002 37.4244 27.3382 37.4244C27.8761 37.4244 28.1989 37.8526 28.1989 38.4949L26.4774 38.3878ZM29.2749 39.7794L28.0913 39.5653C27.9837 39.7794 27.9837 39.8865 27.7685 40.1006C27.5534 40.2076 27.3382 40.2076 27.0154 40.2076C26.585 40.1006 26.3698 39.6724 26.3698 39.1371H29.3825C29.4901 38.4948 29.2749 37.8526 29.0597 37.4244C28.3065 36.1398 25.8318 36.1398 25.4015 38.1737C25.0787 39.4583 25.6166 40.6358 26.585 40.957C27.3382 41.1711 28.4141 41.1711 28.9521 40.4217C29.0597 40.3147 29.2749 39.9935 29.2749 39.7794Z" fill="#2B2A29"/>
<path d="M18.7302 37.2104V36.5681H17.6543C17.6543 36.7822 17.6543 40.529 17.6543 40.9572H18.8378C18.8378 40.2078 18.8378 39.4585 18.8378 38.8162C18.8378 38.1739 18.9454 37.5316 19.6986 37.4245C20.5594 37.3175 20.5594 38.0668 20.5594 38.8162C20.5594 39.5655 20.5594 40.3149 20.5594 41.0642H21.7429C21.7429 40.4219 21.7429 39.6726 21.7429 39.0303C21.7429 37.9598 21.8505 37.2104 20.9897 36.7822C20.5594 36.5681 19.8062 36.5681 19.3758 36.8893C18.9454 36.8893 18.9454 37.1034 18.7302 37.2104Z" fill="#2B2A29"/>
<path d="M22.8192 35.7116V36.568H22.2812V37.4244H22.8192C22.8192 37.8526 22.7116 39.8866 22.9268 40.3148C23.142 41.1712 24.218 41.0641 24.8635 40.85L24.7559 39.9936C24.5407 39.9936 24.3256 40.2077 24.1104 39.9936C24.0028 39.9936 24.0028 39.6725 24.0028 39.4584V37.5315H24.7559V36.568H24.0028V35.0693C23.7876 35.1764 23.142 35.6046 22.8192 35.7116Z" fill="#2B2A29"/>
<path d="M15.2871 40.9569H16.4707C16.4707 40.7428 16.4707 35.0692 16.4707 34.9622H15.2871C15.2871 35.0692 15.2871 40.7428 15.2871 40.9569Z" fill="#2B2A29"/>
<path d="M32.6104 40.9569H33.7939V34.9622H32.6104C32.6104 35.1763 32.6104 38.923 32.6104 39.4582C32.6104 39.9935 32.6104 40.5287 32.6104 40.9569Z" fill="#2B2A29"/>
<path d="M30.3506 40.9569H31.4265V34.9622H30.3506V40.9569Z" fill="#2B2A29"/>
<path d="M33.9008 0.064209V33.6778H0.00843447V0.064209H33.9008ZM0.00843447 33.7848C0.546409 33.7848 7.75527 33.7848 8.50843 33.7848H31.8565C32.2869 33.7848 33.5781 33.8919 34.0084 33.7848V0.064209H0.116029C0.00843447 0.385358 0.116029 7.45063 0.116029 8.41408V29.5029C0.00843447 30.8945 -0.0991605 32.3932 0.00843447 33.7848Z" fill="#EC605F"/>
</g>
<defs>
<clipPath id="clip0_2007_1592">
<rect width="34" height="41" fill="white" transform="translate(0.00878906 0.064209)"/>
</clipPath>
</defs>
</svg>
