<svg width="97" height="15" viewBox="0 0 97 15" fill="none" xmlns="http://www.w3.org/2000/svg">
<g clip-path="url(#clip0_2007_864)">
<path d="M8.22118 0.130435C8.09249 0.26087 8.09249 0.391304 8.09249 0.652174C11.567 1.43478 12.7252 3.65217 12.9826 4.95652C13.4973 6.91304 12.9826 9.26087 11.567 10.5652C10.6662 11.4783 9.25067 11.7391 7.83512 11.2174C6.41957 11.7391 5.00402 11.4783 3.97453 10.5652C2.55898 9.13044 1.91555 6.78261 2.55898 4.69565C3.07373 2.6087 4.87534 1.17391 7.44906 0.652174H7.57775V0.521739C7.44906 0.391304 7.44906 0 6.93432 0C3.07373 0.26087 0.5 3.91304 0.5 7.17391C0.5 12.5217 4.2319 15 7.83512 15C12.2105 15 15.1702 11.7391 15.1702 7.17391C15.0416 3.3913 12.2105 0.26087 8.73592 0C8.47855 0 8.34987 0 8.22118 0.130435ZM8.34987 0.26087C8.47855 0.26087 8.47855 0.130435 8.73592 0.26087C12.2105 0.521739 14.9129 3.65217 15.0416 7.30435C15.0416 11.8696 12.0818 15 7.83512 15C4.36059 14.8696 0.757373 12.5217 0.628686 7.30435V7.17391C0.628686 4.04348 3.20241 0.391304 6.93432 0.26087C7.19169 0.26087 7.32038 0.391304 7.32038 0.652174C3.84584 1.17391 2.68767 3.3913 2.43029 4.69565C2.17292 5.21739 2.17292 5.86957 2.17292 6.3913C2.17292 7.95652 2.81635 9.65217 3.84584 10.5652C5.00402 11.6087 6.29088 11.8696 7.83512 11.3478C9.37936 11.8696 10.7949 11.6087 11.8244 10.5652C12.8539 9.52174 13.4973 8.08696 13.4973 6.3913C13.4973 5.86957 13.3686 5.34783 13.2399 4.82609C12.8539 3.65217 11.6957 1.30435 8.22118 0.521739C8.22118 0.391304 8.22118 0.26087 8.34987 0.26087Z" fill="#003671"/>
<path d="M1.6582 9C2.30163 11.3478 4.23193 13.9565 7.83515 13.9565C11.3097 13.9565 13.3687 11.4783 14.0121 9H13.8834C13.1113 11.2174 10.6662 13.0435 7.83515 12.2609C5.00405 13.0435 2.68769 11.2174 1.78689 9H1.6582ZM2.17295 10.1739C3.33113 11.8696 5.39011 13.0435 7.70646 12.3913C10.1515 13.0435 12.2105 12 13.3687 10.3043C12.4679 12.1304 10.5376 13.8261 7.83515 13.8261C4.87536 13.8261 3.07375 12.1304 2.17295 10.1739Z" fill="#003671"/>
<path d="M7.1916 0.391357C6.80554 0.391357 6.54817 0.521792 6.16211 0.521792C6.41948 0.521792 6.80554 0.391357 7.1916 0.391357Z" fill="#003671"/>
<path d="M7.83559 11.2174C5.13317 12.2609 3.07419 10.4348 2.43076 7.95654H1.91602C2.55945 10.6957 4.8758 12.9131 7.83559 11.8696C10.9241 13.0435 13.2404 10.8261 13.7552 7.95654H13.2404C12.597 10.4348 10.538 12.2609 7.83559 11.2174Z" fill="url(#paint0_linear_2007_864)"/>
<path d="M7.4491 0.652227C7.4491 0.521792 7.4491 0.521792 7.4491 0.391357C7.32041 0.391357 7.32041 0.391357 7.19172 0.391357C2.55901 1.3044 1.27215 4.95657 1.91558 7.95657H2.43033C1.65821 5.08701 2.94507 1.43484 7.4491 0.652227Z" fill="url(#paint1_linear_2007_864)"/>
<path d="M8.47905 0.391357C8.35037 0.391357 8.35037 0.391357 8.22168 0.391357C8.22168 0.521792 8.22168 0.521792 8.22168 0.652227C12.597 1.56527 13.8839 5.08701 13.2404 7.95657H13.7552C14.2699 4.95657 12.8544 1.43484 8.47905 0.391357Z" fill="url(#paint2_linear_2007_864)"/>
<path d="M13.7546 9.26089C13.1112 11.6087 10.9235 13.8261 7.70634 13.9565C4.48918 13.9565 2.30151 11.7392 1.52939 9.00002C1.65808 9.13046 1.78677 9.13046 1.78677 9.26089C1.65808 8.86959 1.52939 8.34785 1.40071 7.95654H1.01465C1.27202 11.6087 4.23181 14.4783 7.83502 14.4783C11.4382 14.4783 14.398 11.6087 14.6554 7.95654H14.2693C14.1407 8.34785 14.012 8.86959 13.7546 9.26089Z" fill="url(#paint3_linear_2007_864)"/>
<path d="M1.78645 9.26095C2.68725 11.6088 5.13229 13.174 7.83471 12.3914C10.7945 13.174 13.2395 11.2175 13.883 9.00009C13.883 9.13052 13.883 9.13052 13.7543 9.26095C13.883 8.86965 14.0117 8.34791 14.1403 7.95661H13.6256C13.1108 10.6957 10.7945 12.9131 7.83471 11.7392C4.87492 12.9131 2.55857 10.6957 1.91514 7.82617H1.40039C1.52908 8.34791 1.65776 8.86965 1.78645 9.26095Z" fill="url(#paint4_linear_2007_864)"/>
<path d="M7.44865 0.652227C7.44865 0.521792 7.44865 0.521792 7.44865 0.391357C7.44865 0.391357 7.06259 0.521792 6.80522 0.521792C6.54784 0.521792 6.41916 0.652227 6.16179 0.652227H6.0331H5.90441C3.202 1.43484 1.40039 3.9131 1.40039 6.9131C1.40039 7.3044 1.40039 7.56527 1.52908 7.95657H2.04382H2.55857C1.65776 5.08701 2.94463 1.43484 7.44865 0.652227Z" fill="url(#paint5_linear_2007_864)"/>
<path d="M8.99282 0.391421C8.86413 0.391421 8.2207 0.260986 8.2207 0.260986C8.2207 0.391421 8.2207 0.391421 8.2207 0.521856C12.596 1.4349 13.8829 4.95664 13.2395 7.8262H13.7542H14.269C14.269 7.4349 14.3976 7.17403 14.3976 6.78273C14.269 3.65229 11.9526 1.0436 8.99282 0.391421Z" fill="url(#paint6_linear_2007_864)"/>
<path d="M7.83534 14.4783C4.23212 14.4783 1.27234 11.6087 1.01497 7.95654H0.628906C1.01497 12.5218 4.10344 14.8696 7.83534 15C11.5672 15 14.7844 12.3913 15.0418 7.95654H14.6557C14.3983 11.6087 11.4386 14.4783 7.83534 14.4783Z" fill="url(#paint7_linear_2007_864)"/>
<path d="M8.73545 0.130444C8.34939 9.08971e-06 8.2207 0.130444 8.2207 0.260879C8.34939 0.260879 8.86413 0.391313 8.99282 0.391313C11.9526 0.913053 14.269 3.65218 14.269 6.78262C14.269 7.17392 14.269 7.43479 14.1403 7.8261H14.655H15.0411C15.0411 7.56523 15.0411 7.30436 15.0411 7.04349C14.9124 3.26088 11.9526 0.260879 8.73545 0.130444Z" fill="url(#paint8_linear_2007_864)"/>
<path d="M6.93406 0.130371C3.20216 0.260806 0.499746 3.91298 0.628432 7.17385C0.628432 7.43472 0.628432 7.69559 0.628432 7.95646H1.01449H1.40055C1.40055 7.56515 1.27186 7.30428 1.27186 6.91298C1.27186 4.04342 3.20216 1.56515 5.77589 0.65211H5.90457H6.03326C6.41932 0.521675 7.19143 0.391241 7.32012 0.391241C7.32012 0.130371 7.19143 0.130371 6.93406 0.130371Z" fill="url(#paint9_linear_2007_864)"/>
<path d="M14.9131 2.3479H23.149V3.52181H20.3179V12.2609H17.8729V3.52181H14.9131V2.3479Z" fill="#003671"/>
<path d="M22.1191 4.43481C22.1191 4.43481 22.1191 7.95655 22.1191 9.52177C22.1191 11.8696 23.406 12.5218 24.8216 12.5218C26.4945 12.5218 27.2666 12 27.2666 12V12.3913H29.1969V4.43481H27.2666C27.2666 4.43481 27.2666 8.08699 27.2666 9.39134C27.2666 10.6957 27.1379 11.4783 25.7224 11.4783C24.3068 11.4783 24.1781 10.6957 24.1781 9.52177C24.1781 8.34786 24.1781 4.43481 24.1781 4.43481H22.1191Z" fill="#003671"/>
<path d="M34.9884 6.52167C34.731 5.73906 34.4737 5.34776 33.8302 5.34776C33.0581 5.34776 32.672 5.73906 32.672 7.30428C32.672 8.60863 32.672 12.3912 32.672 12.3912H30.4844V4.43472H32.672V4.69559C33.7015 4.04341 35.5031 4.04341 36.4039 5.08689L34.9884 6.52167Z" fill="#003671"/>
<path d="M44.7678 7.43486C44.7678 6.00007 43.7383 4.30442 41.0359 4.43486C39.6204 4.56529 39.1056 5.21747 39.1056 5.21747V2.3479H36.918V12.3914H38.977V12.0001C38.977 12.0001 39.7491 12.6522 41.2933 12.6522C43.3523 12.6522 44.5105 11.4783 44.7678 9.39138C44.8965 9.00007 44.7678 7.82616 44.7678 7.43486ZM41.0359 11.6088C38.977 11.7392 38.977 10.0436 38.977 8.3479C38.977 6.13051 39.6204 5.47833 40.7786 5.47833C42.4515 5.47833 42.7089 6.65225 42.7089 8.47833C42.7089 10.3044 42.4515 11.6088 41.0359 11.6088Z" fill="#003671"/>
<path d="M59.9527 6.91296V6.13035C59.824 5.60861 59.6953 5.08687 58.1511 5.08687C56.7355 5.08687 56.6068 5.99992 56.6068 6.52165C56.6068 7.17383 56.8642 7.56513 58.4084 7.56513C59.824 7.56513 61.2395 7.69557 61.883 8.47818C62.6551 9.39122 62.1403 10.9564 61.4969 11.6086C60.8535 12.2608 59.6953 12.5217 58.1511 12.5217C56.6068 12.5217 54.5479 11.9999 54.5479 9.65209H56.8642C56.8642 9.65209 56.6068 10.826 57.379 11.2173C57.8937 11.6086 59.3092 11.6086 59.9527 11.0869C60.4674 10.6956 60.4674 9.52165 59.824 9.26078C59.1806 8.99992 58.0224 9.13035 56.8642 8.99992C55.5773 8.86948 54.9339 8.08687 54.9339 6.78252C54.9339 5.08687 56.6068 4.17383 58.6658 4.17383C61.1109 4.17383 62.5264 5.08687 62.269 6.91296H59.9527Z" fill="#003671"/>
<path d="M49.5295 4.17383C47.4706 4.17383 45.6689 4.95644 45.6689 8.34774C45.6689 11.8695 47.3419 12.5217 49.6582 12.5217C51.8459 12.5217 53.6475 11.9999 53.6475 8.47818C53.6475 4.69557 51.9746 4.17383 49.5295 4.17383ZM49.5295 11.6086C48.114 11.4782 47.7279 11.2173 47.7279 8.34774C47.7279 5.47818 48.2427 5.34774 49.6582 5.21731C51.3311 5.34774 51.4598 5.73905 51.4598 8.47818C51.4598 11.0869 51.0738 11.4782 49.5295 11.6086Z" fill="#003671"/>
<path d="M71.9209 4.43481C71.9209 4.43481 71.9209 7.95655 71.9209 9.52177C71.9209 11.8696 72.9504 12.5218 74.6233 12.5218C76.2962 12.5218 77.0684 12 77.0684 12V12.3913H79.1273V4.43481H77.0684C77.0684 4.43481 77.0684 8.08699 77.0684 9.39134C77.0684 10.5652 76.9397 11.4783 75.5241 11.4783C73.9799 11.4783 73.9799 10.5652 73.9799 9.52177C73.9799 8.34786 73.9799 4.43481 73.9799 4.43481H71.9209Z" fill="#003671"/>
<path d="M87.6203 12.3912C87.6203 12.3912 87.6203 8.86948 87.6203 7.30426C87.6203 5.21731 86.2047 4.17383 84.6605 4.17383C82.8589 4.17383 82.3441 4.826 82.3441 4.826V4.4347H80.2852V12.3912H82.3441C82.3441 12.3912 82.3441 8.73905 82.3441 7.4347C82.3441 6.13035 82.7302 5.34774 83.8884 5.34774C85.3039 5.34774 85.4326 6.13035 85.4326 7.30426C85.4326 8.47818 85.4326 12.3912 85.4326 12.3912H87.6203Z" fill="#003671"/>
<path d="M94.3126 2.3479V5.21747C94.3126 5.21747 93.6692 4.43486 92.2536 4.30442C89.6799 4.17399 88.6504 5.60877 88.6504 8.3479C88.6504 10.6957 89.5512 12.5218 92.1249 12.5218C93.6692 12.5218 94.4413 11.8696 94.4413 11.8696V12.2609H96.5003V2.3479H94.3126ZM92.2536 11.6088C90.7094 11.6088 90.5807 10.3044 90.5807 8.47833C90.5807 6.65225 90.7094 5.47833 92.511 5.47833C93.7978 5.47833 94.4413 6.26094 94.4413 8.3479C94.4413 10.174 94.4413 11.7392 92.2536 11.6088Z" fill="#003671"/>
<path d="M66.9026 4.17383C64.8436 4.17383 63.042 4.95644 63.042 8.34774C63.042 11.8695 64.7149 12.5217 67.0313 12.5217C69.2189 12.5217 71.0205 11.9999 71.0205 8.47818C71.0205 4.69557 69.3476 4.17383 66.9026 4.17383ZM66.9026 11.4782C65.487 11.3477 65.101 11.0869 65.101 8.21731C65.101 5.34774 65.6157 5.21731 66.9026 5.08687C68.7042 5.21731 68.8329 5.73905 68.8329 8.34774C68.8329 11.0869 68.4468 11.4782 66.9026 11.4782Z" fill="#003671"/>
</g>
<defs>
<linearGradient id="paint0_linear_2007_864" x1="8.03296" y1="17.8672" x2="8.03296" y2="7.99391" gradientUnits="userSpaceOnUse">
<stop stop-color="#C7CBE1"/>
<stop offset="1" stop-color="#4C6397"/>
</linearGradient>
<linearGradient id="paint1_linear_2007_864" x1="4.82971" y1="-0.270866" x2="4.82971" y2="7.97989" gradientUnits="userSpaceOnUse">
<stop stop-color="#7B88B3"/>
<stop offset="0.4902" stop-color="#39578D"/>
<stop offset="1" stop-color="#7B88B3"/>
</linearGradient>
<linearGradient id="paint2_linear_2007_864" x1="11.2122" y1="-0.270866" x2="11.2122" y2="7.97989" gradientUnits="userSpaceOnUse">
<stop stop-color="#7B88B3"/>
<stop offset="0.4902" stop-color="#39578D"/>
<stop offset="1" stop-color="#7B88B3"/>
</linearGradient>
<linearGradient id="paint3_linear_2007_864" x1="8.04277" y1="14.5402" x2="8.04277" y2="7.98454" gradientUnits="userSpaceOnUse">
<stop stop-color="#949DC2"/>
<stop offset="0.7804" stop-color="#4C6397"/>
<stop offset="1" stop-color="#4C6397"/>
</linearGradient>
<linearGradient id="paint4_linear_2007_864" x1="8.01478" y1="12.1334" x2="8.01478" y2="7.98929" gradientUnits="userSpaceOnUse">
<stop stop-color="#003671"/>
<stop offset="0.8902" stop-color="#4C6397"/>
<stop offset="1" stop-color="#4C6397"/>
</linearGradient>
<linearGradient id="paint5_linear_2007_864" x1="4.6122" y1="7.97989" x2="4.6122" y2="0.363604" gradientUnits="userSpaceOnUse">
<stop stop-color="#4C6397"/>
<stop offset="1" stop-color="#003671"/>
</linearGradient>
<linearGradient id="paint6_linear_2007_864" x1="11.4276" y1="7.97995" x2="11.4276" y2="0.368374" gradientUnits="userSpaceOnUse">
<stop stop-color="#4C6397"/>
<stop offset="1" stop-color="#003671"/>
</linearGradient>
<linearGradient id="paint7_linear_2007_864" x1="8.03847" y1="15.0693" x2="8.03847" y2="7.97986" gradientUnits="userSpaceOnUse">
<stop stop-color="#003671"/>
<stop offset="0.9608" stop-color="#4C6397"/>
<stop offset="1" stop-color="#4C6397"/>
</linearGradient>
<linearGradient id="paint8_linear_2007_864" x1="11.8526" y1="7.98219" x2="11.8526" y2="-0.659543" gradientUnits="userSpaceOnUse">
<stop stop-color="#4C6397"/>
<stop offset="0.149" stop-color="#4C6397"/>
<stop offset="1" stop-color="#C7CBE1"/>
</linearGradient>
<linearGradient id="paint9_linear_2007_864" x1="4.19498" y1="7.97977" x2="4.19498" y2="-0.683052" gradientUnits="userSpaceOnUse">
<stop stop-color="#4C6397"/>
<stop offset="1" stop-color="#C7CBE1"/>
</linearGradient>
<clipPath id="clip0_2007_864">
<rect width="96" height="15" fill="white" transform="translate(0.5)"/>
</clipPath>
</defs>
</svg>
