<svg width="34" height="20" viewBox="0 0 34 20" fill="none" xmlns="http://www.w3.org/2000/svg">
<g clip-path="url(#clip0_2007_770)">
<path d="M11.5743 14.8603V0H8.69508C8.69508 0 8.69508 10.0559 8.69508 9.94413C5.92662 8.04469 1.8293 9.60894 0.832659 12.7374C-0.0532472 15.1955 0.943397 17.8771 3.15816 19.2179C4.7085 20.1117 6.81252 20.2235 8.69508 19.2179V19.7765H11.5743V14.8603ZM5.81588 17.095C4.48702 17.095 3.37964 15.9777 3.37964 14.6369C3.37964 13.2961 4.48702 12.1788 5.81588 12.1788C7.14474 12.1788 8.25212 13.2961 8.25212 14.6369C8.25212 15.9777 7.14474 17.095 5.81588 17.095Z" fill="#CF0A2C"/>
<path d="M25.417 19.8883V16.9833C28.6284 16.7598 28.6284 12.2905 25.417 12.0671V9.05029C27.2995 9.05029 28.6284 9.60895 29.5143 11.0615C30.2895 9.49722 32.0613 9.05029 33.6116 9.05029V11.9553C30.511 12.1788 30.4002 16.4246 33.6116 16.8715V19.7766C30.6217 19.7766 29.5143 18.1006 29.5143 18.1006C28.7391 19.1062 27.7425 19.8883 25.417 19.8883Z" fill="#CF0A2C"/>
<path d="M24.1986 12.7374C23.0913 9.72067 19.1047 8.15642 16.3362 9.94413V0H13.457V14.1899V19.6648H16.3362V19.1061C18.3295 20.2235 20.3228 20.1117 21.8731 19.1061C24.0879 17.8771 25.0845 15.3073 24.1986 12.7374ZM19.2154 17.095C17.8866 17.095 16.7792 15.9777 16.7792 14.6369C16.7792 13.2961 17.8866 12.1788 19.2154 12.1788C20.5443 12.1788 21.6517 13.2961 21.6517 14.6369C21.6517 15.9777 20.5443 17.095 19.2154 17.095Z" fill="#CF0A2C"/>
</g>
<defs>
<clipPath id="clip0_2007_770">
<rect width="33" height="20" fill="white" transform="translate(0.5)"/>
</clipPath>
</defs>
</svg>
