<svg width="92" height="22" viewBox="0 0 92 22" fill="none" xmlns="http://www.w3.org/2000/svg">
<g clip-path="url(#clip0_2007_2322)">
<path d="M91.5234 10.6001C91.5234 16.3648 70.965 21.1001 45.9191 21.1001C20.8732 21.1001 0.523438 16.4677 0.523438 10.6001C0.523438 4.83539 20.8732 0.100098 45.9191 0.100098C70.965 0.100098 91.5234 4.83539 91.5234 10.6001Z" fill="#26688F"/>
<path d="M17.9512 5.04117C18.2642 5.65882 18.3686 6.37941 18.3686 6.79117V16.5706H21.6037V8.23235C21.6037 7.51176 22.856 7.51176 22.856 8.23235V16.5706H25.9867V8.33529C25.9867 7.6147 27.239 7.51176 27.239 8.33529V16.5706H30.4741V6.48235C30.4741 5.35 29.5349 4.93823 29.2218 4.93823H27.4477C26.5085 4.93823 25.9867 5.8647 25.9867 6.17353C25.9867 5.76176 25.4649 4.93823 24.7344 4.93823H22.9603C22.2298 4.93823 21.7081 5.24706 21.4993 5.96764C21.4993 5.45294 21.2906 4.93823 21.2906 4.93823L17.9512 5.04117Z" fill="white"/>
<path d="M41.4317 5.04126C40.3881 5.04126 39.8663 5.76185 39.762 6.8942C39.6576 8.54126 39.762 13.9971 39.8663 15.1295C39.9707 16.2618 40.4925 16.6736 41.4317 16.6736C42.2666 16.6736 45.5017 16.6736 46.3365 16.6736C47.1714 16.5707 47.4845 16.3648 47.5888 15.2324V11.0118C47.5888 10.703 47.5888 10.2913 47.5888 9.98244H44.145C44.2494 10.2913 44.3537 10.703 44.3537 11.0118V13.9971H43.5189C43.2058 13.9971 43.1014 13.6883 43.1014 13.4824V8.33538C43.1014 8.02655 43.3101 7.51185 46.7539 7.82067C46.9627 7.82067 47.1714 7.82067 47.3801 8.02655V5.04126H41.4317Z" fill="white"/>
<path d="M49.7805 5.04126C48.8413 5.04126 48.4238 5.76185 48.4238 6.68832V16.5707H51.4502V7.92361C51.4502 7.30597 52.7025 7.10008 52.7025 7.92361V16.5707H55.8332V6.68832C55.8332 5.45302 55.5202 5.04126 54.1635 5.04126H49.7805Z" fill="white"/>
<path d="M52.8067 11.3208H51.3457V13.9973H52.8067V11.3208Z" fill="white"/>
<path d="M72.7391 5.04126H69.6084V16.5707H72.7391V5.04126Z" fill="white"/>
<path d="M56.251 5.04117C56.564 5.65882 56.6684 6.37941 56.6684 6.79117V16.5706H59.9035V8.23235C59.9035 7.51176 61.1558 7.51176 61.1558 8.23235V16.5706H64.2865V8.33529C64.2865 7.6147 65.5388 7.51176 65.5388 8.33529V16.5706H68.7739V6.48235C68.7739 5.35 67.8347 4.93823 67.5216 4.93823H65.7475C64.8083 4.93823 64.2865 5.8647 64.2865 6.17353C64.2865 5.76176 63.7647 4.93823 63.0342 4.93823H61.2602C60.5296 4.93823 60.0079 5.24706 59.7991 5.96764C59.7991 5.45294 59.5904 4.93823 59.5904 4.93823L56.251 5.04117Z" fill="white"/>
<path d="M34.544 8.02647V13.8941C34.6484 14.8206 35.7963 14.7176 35.7963 13.8941V8.02647C35.7963 7.20294 34.544 7.20294 34.544 8.02647ZM36.1094 5.04117C37.8835 5.04117 38.7183 6.37941 38.8227 7.30588C39.0314 8.74706 39.0314 12.9676 38.8227 14.6147C38.614 16.0559 37.153 16.6735 36.6312 16.6735C36.005 16.6735 35.3789 16.7765 33.9179 16.6735C32.5612 16.6735 31.622 15.5412 31.5176 14.6147C31.3089 13.0706 31.3089 8.95294 31.4133 7.30588C31.5176 5.96764 32.7699 4.93823 34.2309 4.93823C34.1266 4.93823 34.3353 4.93823 36.1094 5.04117Z" fill="white"/>
</g>
<defs>
<clipPath id="clip0_2007_2322">
<rect width="91" height="21" fill="white" transform="translate(0.523438 0.100098)"/>
</clipPath>
</defs>
</svg>
