<svg width="36" height="38" viewBox="0 0 36 38" fill="none" xmlns="http://www.w3.org/2000/svg">
<g clip-path="url(#clip0_2007_1524)">
<path d="M0.00878906 0.064209V9.78256H14.2467L9.38499 0.064209H0.00878906Z" fill="#D0000F"/>
<path d="M0.00878906 13.6465H15.6358H16.2146L14.4782 10.251H14.3625H1.2821H0.00878906V13.6465Z" fill="#CD000E"/>
<path d="M18.0667 12.2415V11.4219L16.5618 14.4662L16.4461 14.232H0.00878906V16.925H17.8352C17.8352 16.6909 17.3721 15.9883 17.2564 15.7542C17.0249 15.1687 16.7934 15.1687 17.0249 14.5833C17.1406 14.232 18.0667 12.3586 18.0667 12.2415Z" fill="#CA000C"/>
<path d="M21.5395 32.849L22.1183 34.7224H20.9608C20.9608 34.8395 21.5395 32.849 21.5395 32.849ZM14.9415 33.6686V32.4977C15.4045 32.4977 16.4463 32.2636 16.4463 33.0832C16.4463 33.7857 15.4045 33.6686 14.9415 33.6686ZM13.2051 36.9471H14.9415V34.7224C15.636 34.7224 15.636 35.0737 15.9833 35.6591C16.2148 36.1275 16.4463 36.4788 16.6778 36.9471H20.382L20.6135 36.0104H22.4656L22.6971 36.9471H24.4334L22.4656 31.3269H20.6135L18.5299 36.83C18.4141 36.7129 17.8354 35.425 17.3723 34.8395C17.1408 34.4883 16.9093 34.6053 16.7936 34.3712C17.0251 34.137 17.4881 34.2541 17.8354 33.6686C18.0669 33.2003 18.0669 32.6148 17.8354 32.1465C17.3723 31.0927 15.8675 31.3269 14.9415 31.3269C14.71 31.3269 13.2051 31.3269 13.0894 31.3269C12.9736 31.4439 12.9736 32.849 12.9736 33.0832C13.2051 34.4883 13.2051 35.6591 13.2051 36.9471Z" fill="black"/>
<path d="M0.00878906 19.501H19.1085L18.0667 17.5105H18.2982H0.00878906V19.501Z" fill="#CA000C"/>
<path d="M0.00878906 36.9472H1.39786V32.8491C1.62937 33.4345 1.86088 34.4883 1.97663 35.1908C2.09239 35.5421 2.20815 36.0104 2.3239 36.3617C2.43966 36.9472 2.43966 37.0642 2.78692 37.0642C2.90268 37.0642 3.01844 37.0642 3.13419 37.0642C3.24995 37.0642 3.3657 37.0642 3.3657 37.0642H3.71297C3.82872 37.0642 3.82872 36.9472 3.94448 36.4788C4.06024 36.0104 4.75477 33.0832 4.87053 33.0832V37.0642H6.25959V31.5611H4.06024L3.24995 34.8396L2.43966 31.5611H0.2403C0.00878906 31.3269 0.00878906 36.9472 0.00878906 36.9472Z" fill="black"/>
<path d="M25.1273 36.9472H26.7479V33.9029L28.8315 36.9472H30.452V31.327H28.8315V34.3713C28.4842 34.02 27.9054 32.9662 27.5582 32.6149C27.3266 32.2637 27.0951 32.0295 26.9794 31.6782C26.6321 31.2099 26.4006 31.327 25.7061 31.327C24.8958 31.327 25.1273 31.327 25.1273 32.2637V36.9472Z" fill="black"/>
<path d="M25.822 0.532563H32.7674V30.156H21.5391V30.6243H33.2304V0.064209H25.822V0.532563Z" fill="#950000"/>
<path d="M9.61655 32.8489L10.1953 34.8394H9.03777L9.61655 32.8489ZM12.6262 36.947H10.7741L10.5426 36.0103H8.6905L8.45899 36.947H6.72266C7.18568 35.7761 7.53295 34.6053 7.99597 33.4344C8.22748 32.8489 8.45899 32.2635 8.6905 31.678C8.92201 31.0926 8.92201 31.3268 9.50079 31.3268C9.7323 31.3268 10.5426 31.3268 10.6583 31.3268L12.6262 36.947Z" fill="black"/>
<path d="M14.7098 24.0674V22.8965H0.00878906V24.0674H14.7098Z" fill="#CD000E"/>
<path d="M10.4268 21.8427V20.3206H0.00878906V21.8427H10.4268Z" fill="#D20010"/>
<path d="M10.4268 21.8427H20.266L19.5715 20.3206H10.4268V21.8427Z" fill="#BC0009"/>
<path d="M31.4941 36.9472H33.2305V32.1465C33.2305 31.2098 33.3462 31.444 32.4202 31.444C31.4941 31.444 31.6099 31.2098 31.6099 32.1465C31.4941 32.1465 31.4941 36.9472 31.4941 36.9472Z" fill="black"/>
<path d="M10.4268 26.058H22.3496L22.0023 25.3555H10.4268V26.058Z" fill="#B80007"/>
<path d="M10.4268 26.058V25.3555H0.00878906V26.058H10.4268Z" fill="#D20010"/>
<path d="M14.71 24.0674H21.308L20.845 22.8965H14.71V24.0674Z" fill="#B50005"/>
<path d="M14.7098 30.6244V30.156H0.00878906V30.6244H14.7098Z" fill="#CD000E"/>
<path d="M18.0664 11.3047V12.2414L24.0857 0.532563H25.822V0.064209H23.7384L18.0664 11.3047Z" fill="#AC0003"/>
<path d="M10.4268 28.1654H23.3914L23.1599 27.697H23.3914H10.4268V28.1654Z" fill="#B80007"/>
<path d="M10.4268 28.1654V27.697H0.00878906V28.1654H0.587567H10.4268Z" fill="#D20010"/>
<path d="M14.71 30.6244H21.5395V30.156H14.71V30.6244Z" fill="#B50005"/>
<path d="M34.0406 32.6147C33.9248 31.5609 35.5454 31.3268 35.6611 32.4977C35.7769 33.6685 34.1563 33.7856 34.0406 32.6147ZM34.7351 31.5609C33.2303 31.7951 33.5775 33.9027 34.9666 33.7856C36.4714 33.5514 36.2399 31.3268 34.7351 31.5609Z" fill="black"/>
<path d="M34.7359 32.4977V32.2635C35.199 32.2635 35.199 32.4977 34.7359 32.4977ZM34.5044 33.0831H34.7359V32.6147H34.9674L35.0832 33.0831H35.4305L35.199 32.6147C35.662 32.3806 35.3147 32.0293 34.7359 32.0293C34.3887 32.0293 34.3887 32.0293 34.3887 32.3806C34.5044 32.6147 34.5044 32.8489 34.5044 33.0831Z" fill="black"/>
</g>
<defs>
<clipPath id="clip0_2007_1524">
<rect width="36" height="37" fill="white" transform="translate(0.00878906 0.064209)"/>
</clipPath>
</defs>
</svg>
