<svg width="58" height="13" viewBox="0 0 58 13" fill="none" xmlns="http://www.w3.org/2000/svg">
<g clip-path="url(#clip0_2007_748)">
<path d="M7.33911 5.95324C7.45748 5.95324 7.57585 6.07474 7.69421 6.07474C8.28605 6.43922 8.75952 6.9252 8.99625 7.65418C9.46972 7.28969 9.94319 6.9252 10.0616 6.56072C10.1799 6.31773 10.1799 6.07474 10.1799 5.83175C10.1799 5.71025 10.1799 5.46726 10.0616 5.34576C9.94319 5.22427 9.70646 4.98128 9.35136 4.85978H9.11462L9.23299 4.61679C9.23299 4.4953 9.35136 4.25231 9.35136 4.13081C9.35136 3.88782 9.23299 3.76633 9.11462 3.52333C8.87789 3.28034 8.40442 3.03735 7.93095 3.03735C7.81258 3.03735 7.69421 3.03735 7.69421 3.03735C7.33911 3.15885 6.98401 3.40184 6.62891 3.64483C6.86564 4.00932 7.10238 4.3738 7.22074 4.85978C7.33911 5.10277 7.33911 5.46726 7.33911 5.95324Z" fill="#8E9090"/>
<path d="M7.33911 6.43937C7.22074 6.43937 7.22074 6.31787 7.10238 6.31787C7.10238 6.68236 6.86564 7.04684 6.62891 7.28983C6.86564 7.53282 7.22074 7.65432 7.45748 7.65432C7.57585 7.65432 7.81258 7.65432 7.93095 7.65432C8.04931 7.65432 8.16768 7.65432 8.40442 7.65432C8.28605 7.16834 7.93095 6.80385 7.33911 6.43937Z" fill="#8E9090"/>
<path d="M5.56299 7.65416C5.79972 7.53267 5.91809 7.41117 6.03646 7.28968C5.79972 7.04669 5.56299 6.6822 5.44462 6.43921C5.08952 6.5607 4.73441 6.80369 4.49768 7.04669C4.37931 7.28968 4.26095 7.53267 4.14258 7.77566C4.61605 7.89715 5.08952 7.77566 5.56299 7.65416Z" fill="#8E9090"/>
<path d="M8.04914 8.26177C7.8124 8.26177 7.69404 8.26177 7.4573 8.14028C7.1022 8.14028 6.62873 7.89729 6.39199 7.6543C6.15526 7.77579 6.03689 7.89729 5.80016 8.01878C5.44506 8.26177 4.97159 8.26177 4.61648 8.26177C4.37975 8.26177 4.26138 8.26177 4.02465 8.14028C3.90628 8.74775 4.14302 9.35523 4.37975 9.71972C4.49812 9.96271 4.73485 10.2057 4.85322 10.2057C4.97159 10.3272 5.08995 10.3272 5.32669 10.3272C5.68179 10.3272 5.91853 10.2057 6.15526 9.96271L6.27363 9.71972L6.39199 9.96271C6.51036 10.0842 6.62873 10.2057 6.7471 10.2057C7.1022 10.3272 7.33893 10.3272 7.4573 10.3272C7.93077 10.2057 8.40424 9.71972 8.52261 9.23374C8.64097 8.86925 8.64097 8.50476 8.52261 8.26177C8.40424 8.26177 8.16751 8.26177 8.04914 8.26177Z" fill="#8E9090"/>
<path d="M6.74654 6.19629C6.62817 6.19629 6.50981 6.19629 6.39144 6.19629C6.27307 6.19629 6.1547 6.19629 5.91797 6.19629C6.03634 6.43928 6.1547 6.68227 6.39144 6.92526C6.50981 6.80377 6.62817 6.56078 6.74654 6.19629Z" fill="#8E9090"/>
<path d="M5.2082 5.95333C5.2082 5.71034 5.2082 5.46735 5.2082 5.34585C5.2082 4.73838 5.44494 4.1309 5.91841 3.64492C5.44494 3.28043 4.97147 3.15894 4.61637 3.15894C4.37963 3.15894 4.1429 3.28043 4.02453 3.28043C3.78779 3.40193 3.66943 3.40193 3.66943 3.52342C3.43269 3.76641 3.43269 4.1309 3.55106 4.61688V4.85987H3.31433C3.19596 4.85987 2.95922 4.98137 2.84086 4.98137C2.72249 5.10286 2.60412 5.22436 2.48575 5.46735C2.24902 5.95333 2.48575 6.5608 2.72249 6.92529C2.95922 7.28978 3.31433 7.53277 3.66943 7.65426C3.78779 7.28978 4.02453 7.04679 4.1429 6.8038C4.37963 6.43931 4.8531 6.19632 5.2082 5.95333Z" fill="#8E9090"/>
<path d="M5.7998 5.83186C6.15491 5.71037 6.51001 5.71037 6.86511 5.83186C6.86511 5.46738 6.86511 5.22439 6.86511 4.9814C6.74674 4.49542 6.51001 4.25243 6.27327 3.88794C5.91817 4.37392 5.7998 4.8599 5.7998 5.34588C5.7998 5.46738 5.7998 5.71037 5.7998 5.83186Z" fill="#8E9090"/>
<path d="M10.5347 6.68224C10.1796 7.28972 9.58776 7.7757 8.99592 8.01869C9.11429 8.50467 8.99592 8.86916 8.99592 9.35514C8.75918 9.96262 8.28572 10.5701 7.57551 10.8131C7.22041 10.9346 6.98367 10.8131 6.62857 10.6916C6.5102 10.6916 6.39184 10.5701 6.27347 10.4486C6.03674 10.6916 5.8 10.8131 5.32653 10.8131C5.0898 10.8131 4.85306 10.8131 4.73469 10.6916C4.49796 10.5701 4.26122 10.3271 4.02449 10.0841C3.78776 9.84112 3.43265 9.23364 3.55102 8.14019V8.01869C3.07755 7.7757 2.72245 7.53271 2.36735 7.16822C2.01224 6.80374 1.77551 5.95327 2.01224 5.2243C2.13061 4.98131 2.36735 4.73832 2.72245 4.61682C2.84082 4.61682 2.95918 4.49533 3.07755 4.49533C3.07755 4.00935 3.07755 3.64486 3.31429 3.40187C3.43265 3.15888 3.55102 3.03738 3.78776 2.91589C4.02449 2.79439 4.26122 2.6729 4.61633 2.6729H4.73469C5.20816 2.6729 5.8 2.79439 6.39184 3.28037C6.62857 3.03738 7.10204 2.79439 7.57551 2.6729C7.69388 2.6729 7.81224 2.6729 7.93061 2.6729C8.40408 2.6729 8.99592 2.79439 9.35102 3.28037C9.58776 3.52336 9.70612 3.76636 9.70612 4.13084C9.70612 4.25234 9.70612 4.37383 9.70612 4.49533C10.0612 4.61682 10.4163 4.85981 10.5347 5.2243C10.6531 5.46729 10.6531 5.71028 10.6531 5.95327C10.6531 6.19626 10.6531 6.43925 10.5347 6.68224ZM6.27347 0C2.84082 0 0 2.91589 0 6.43925C0 9.96262 2.84082 12.8785 6.27347 12.8785C9.70612 12.8785 12.5469 9.96262 12.5469 6.43925C12.6653 2.91589 9.82449 0 6.27347 0Z" fill="#8E9090"/>
<path d="M57.2897 3.76636L57.7632 0.607477C56.3427 0.364486 54.4489 0 52.6734 0C50.6611 0 48.8856 0.121495 48.2938 0.242991C47.3468 0.485981 46.5183 0.728972 45.8081 1.21495C45.0979 1.70093 44.6244 2.42991 44.3876 3.28037C44.0325 4.13084 43.7958 5.2243 43.7958 6.56075C43.7958 7.8972 43.9142 8.99065 44.2693 9.84112C44.6244 10.6916 45.0979 11.2991 45.6897 11.785C46.3999 12.271 47.2285 12.6355 48.1754 12.757C49.1223 12.8785 50.4244 13 51.8448 13C54.4489 13 57.4081 12.271 57.8815 12.028V6.19626H52.3183V8.50467H54.804V9.47664C54.4489 9.71963 53.1468 9.96262 51.8448 9.96262C47.4652 10.0841 47.2285 8.38318 47.2285 6.56075C47.2285 4.98131 47.8203 3.52336 49.8325 3.28037C51.8448 3.03738 54.3305 3.15888 57.2897 3.76636ZM19.057 0.364486H23.3183L29.1183 12.757H25.4489L24.3836 10.5701H17.755L16.8081 12.757H13.1387L19.057 0.364486ZM19.057 0.364486H23.3183L29.1183 12.757H25.4489L24.3836 10.5701H17.755L16.8081 12.757H13.1387L19.057 0.364486ZM19.057 0.364486H23.3183L29.1183 12.757H25.4489L24.3836 10.5701H17.755L16.8081 12.757H13.1387L19.057 0.364486ZM19.1754 7.8972H23.3183L21.1876 3.28037L19.1754 7.8972ZM19.1754 7.8972H23.3183L21.1876 3.28037L19.1754 7.8972ZM19.1754 7.8972H23.3183L21.1876 3.28037L19.1754 7.8972ZM30.1836 0.364486H33.853V4.85981H34.2081L38.8244 0.242991H43.9142L37.404 6.31776L44.7428 12.6355H39.653L34.3264 7.8972H33.9713V12.6355H30.3019L30.1836 0.364486Z" fill="#8E9090"/>
</g>
<defs>
<clipPath id="clip0_2007_748">
<rect width="58" height="13" fill="white"/>
</clipPath>
</defs>
</svg>
