<svg width="28" height="28" viewBox="0 0 28 28" fill="none" xmlns="http://www.w3.org/2000/svg">
<g clip-path="url(#clip0_2007_816)">
<path d="M0 23.498H28V28H0V23.498ZM1.78486 26.6824H2.23108V26.0235H2.56574C2.67729 26.0235 2.78884 26.0235 2.9004 26.0235C3.01195 26.0235 3.12351 26.0235 3.12351 25.9137C3.23506 25.9137 3.23506 25.8039 3.23506 25.6941C3.34661 25.5843 3.34661 25.4745 3.34661 25.3647C3.34661 25.2549 3.34661 25.1451 3.23506 25.1451C3.23506 25.0353 3.12351 25.0353 3.01195 24.9255C2.9004 24.9255 2.9004 24.8157 2.78884 24.8157C2.67729 24.8157 2.56574 24.8157 2.45418 24.8157H1.78486V26.6824ZM2.23108 25.1451H2.45418H2.56574H2.67729C2.67729 25.1451 2.78884 25.1451 2.78884 25.2549V25.3647V25.4745C2.78884 25.4745 2.78884 25.4745 2.67729 25.5843H2.56574H2.45418H2.23108V25.1451ZM3.90438 26.6824H4.3506V25.9137H4.57371L5.01992 26.6824H5.57769L5.01992 25.9137C5.13147 25.9137 5.24303 25.8039 5.35458 25.6941C5.46614 25.5843 5.46614 25.4745 5.46614 25.3647C5.46614 25.2549 5.46614 25.1451 5.35458 25.1451C5.24303 25.1451 5.24303 25.0353 5.13147 24.9255C5.01992 24.9255 5.01992 24.8157 4.90837 24.8157C4.79681 24.8157 4.68526 24.8157 4.57371 24.8157H3.90438V26.6824ZM4.3506 25.1451H4.68526H4.79681H4.90837C4.90837 25.1451 5.01992 25.1451 5.01992 25.2549V25.3647V25.4745C5.01992 25.4745 4.90837 25.4745 4.90837 25.5843H4.79681H4.68526H4.3506V25.1451ZM5.91235 26.1333C6.0239 26.2431 6.0239 26.3529 6.13546 26.4628C6.24701 26.5726 6.35857 26.5726 6.47012 26.6824C6.58167 26.6824 6.80478 26.7922 6.91633 26.7922C7.02789 26.7922 7.251 26.7922 7.36255 26.6824C7.4741 26.6824 7.58566 26.5726 7.69721 26.4628C7.80877 26.3529 7.92032 26.2431 7.92032 26.1333C8.03187 26.0235 8.03187 25.9137 8.03187 25.6941C8.03187 25.5843 8.03187 25.3647 7.92032 25.2549C7.80876 25.1451 7.80877 25.1451 7.69721 25.0353C7.58566 24.9255 7.4741 24.9255 7.36255 24.8157C7.251 24.8157 7.02789 24.7059 6.91633 24.7059C6.80478 24.7059 6.58167 24.7059 6.47012 24.8157C6.35857 24.8157 6.24701 24.9255 6.13546 25.0353C6.0239 25.1451 5.91235 25.2549 5.91235 25.3647C5.8008 25.4745 5.8008 25.5843 5.8008 25.8039C5.8008 25.9137 5.91235 26.0235 5.91235 26.1333ZM6.35857 25.4745C6.35857 25.3647 6.47012 25.3647 6.47012 25.2549C6.58167 25.2549 6.58167 25.2549 6.69323 25.2549C6.80478 25.2549 6.80478 25.2549 6.91633 25.2549C7.02789 25.2549 7.13944 25.2549 7.13944 25.2549C7.251 25.2549 7.251 25.3647 7.36255 25.3647C7.4741 25.3647 7.4741 25.4745 7.4741 25.5843C7.4741 25.6941 7.4741 25.6941 7.4741 25.8039C7.4741 25.9137 7.4741 25.9137 7.4741 26.0235C7.4741 26.1333 7.36255 26.1333 7.36255 26.2431C7.251 26.2431 7.251 26.3529 7.13944 26.3529C7.02789 26.3529 7.02789 26.3529 6.91633 26.3529C6.80478 26.3529 6.69323 26.3529 6.69323 26.3529C6.58167 26.3529 6.58167 26.2431 6.47012 26.2431C6.35857 26.2431 6.35857 26.1333 6.35857 26.0235C6.35857 25.9137 6.35857 25.9137 6.35857 25.8039C6.24701 25.6941 6.35857 25.5843 6.35857 25.4745ZM8.58964 26.6824H9.03586V26.0235H9.92829V25.6941H9.03586V25.2549H9.92829V24.9255H8.58964V26.6824ZM10.4861 26.6824H11.9363V26.3529H10.9323V26.0235H11.8247V25.6941H10.9323V25.2549H11.8247V24.9255H10.4861V26.6824ZM13.8327 24.9255C13.7211 24.8157 13.6096 24.8157 13.498 24.8157C13.3865 24.8157 13.2749 24.8157 13.1633 24.8157C13.0518 24.8157 12.9402 24.8157 12.8287 24.8157C12.7171 24.8157 12.6056 24.9255 12.6056 24.9255C12.494 24.9255 12.494 25.0353 12.3825 25.1451C12.3825 25.2549 12.2709 25.2549 12.2709 25.3647C12.2709 25.4745 12.2709 25.5843 12.3825 25.5843C12.3825 25.6941 12.494 25.6941 12.6056 25.6941C12.7171 25.6941 12.7171 25.8039 12.8287 25.8039C12.9402 25.8039 12.9402 25.8039 13.0518 25.9137C13.1633 25.9137 13.1633 25.9137 13.2749 26.0235L13.3865 26.1333V26.2431C13.3865 26.2431 13.3865 26.2431 13.2749 26.3529H13.1633H13.0518C12.9402 26.3529 12.9402 26.3529 12.8287 26.3529C12.7171 26.3529 12.7171 26.2431 12.6056 26.2431L12.2709 26.5726C12.3825 26.6824 12.494 26.6824 12.6056 26.7922C12.7171 26.7922 12.8287 26.902 12.9402 26.902C13.0518 26.902 13.1633 26.902 13.2749 26.902C13.3865 26.902 13.498 26.7922 13.498 26.7922C13.6096 26.7922 13.6096 26.6824 13.7211 26.5726C13.7211 26.4628 13.8327 26.4628 13.8327 26.3529C13.8327 26.2431 13.8327 26.1333 13.7211 26.1333C13.7211 26.0235 13.6096 26.0235 13.498 26.0235C13.3865 26.0235 13.3865 25.9137 13.2749 25.9137C13.1633 25.9137 13.1633 25.9137 13.0518 25.8039C12.9402 25.6941 12.9402 25.8039 12.8287 25.6941L12.7171 25.5843V25.4745C12.7171 25.4745 12.7171 25.4745 12.8287 25.3647H12.9402H13.0518C13.1633 25.3647 13.1633 25.3647 13.2749 25.3647C13.3865 25.3647 13.3865 25.3647 13.3865 25.4745L13.8327 24.9255ZM15.7291 24.9255C15.6175 24.8157 15.506 24.8157 15.3944 24.8157C15.2829 24.8157 15.1713 24.8157 15.0598 24.8157C14.9482 24.8157 14.8367 24.8157 14.7251 24.8157C14.6135 24.8157 14.502 24.9255 14.502 24.9255C14.3904 24.9255 14.3904 25.0353 14.2789 25.1451C14.2789 25.2549 14.1673 25.2549 14.1673 25.3647C14.1673 25.4745 14.1673 25.5843 14.2789 25.5843C14.2789 25.6941 14.3904 25.6941 14.502 25.6941C14.6135 25.6941 14.6135 25.8039 14.7251 25.8039C14.8367 25.8039 14.8367 25.8039 14.9482 25.9137C15.0598 25.9137 15.0598 25.9137 15.1713 26.0235L15.2829 26.1333V26.2431C15.2829 26.2431 15.2829 26.2431 15.1713 26.3529H15.0598H14.9482C14.8367 26.3529 14.8367 26.3529 14.7251 26.3529C14.6135 26.3529 14.6135 26.2431 14.502 26.2431L14.1673 26.5726C14.2789 26.6824 14.3904 26.6824 14.502 26.7922C14.6135 26.7922 14.7251 26.902 14.8367 26.902C14.9482 26.902 15.0598 26.902 15.1713 26.902C15.2829 26.902 15.3944 26.7922 15.3944 26.7922C15.506 26.7922 15.506 26.6824 15.6175 26.5726C15.6175 26.4628 15.7291 26.4628 15.7291 26.3529C15.7291 26.2431 15.7291 26.1333 15.6175 26.1333C15.6175 26.0235 15.506 26.0235 15.3944 26.0235C15.2829 26.0235 15.2829 25.9137 15.1713 25.9137C15.0598 25.9137 15.0598 25.9137 14.9482 25.8039C14.8367 25.6941 14.8367 25.8039 14.7251 25.6941L14.6135 25.5843V25.4745C14.6135 25.4745 14.6135 25.4745 14.7251 25.3647C14.8367 25.2549 14.8367 25.3647 14.8367 25.3647H14.9482C15.0598 25.3647 15.0598 25.3647 15.1713 25.3647C15.2829 25.3647 15.2829 25.3647 15.2829 25.4745L15.7291 24.9255ZM16.2869 26.6824H16.7331V24.9255H16.2869V26.6824ZM17.2908 26.1333C17.4024 26.2431 17.4024 26.3529 17.5139 26.4628C17.6255 26.5726 17.7371 26.5726 17.8486 26.6824C17.9602 26.6824 18.1833 26.7922 18.2948 26.7922C18.4064 26.7922 18.6295 26.7922 18.741 26.6824C18.8526 26.6824 18.9641 26.5726 19.0757 26.4628C19.1873 26.3529 19.2988 26.2431 19.2988 26.1333C19.4104 26.0235 19.4104 25.9137 19.4104 25.6941C19.4104 25.5843 19.4104 25.3647 19.2988 25.2549C19.1873 25.1451 19.1873 25.0353 19.0757 24.9255C18.9641 24.8157 18.8526 24.8157 18.741 24.7059C18.6295 24.7059 18.4064 24.5961 18.2948 24.5961C18.1833 24.5961 17.9602 24.5961 17.8486 24.7059C17.7371 24.7059 17.6255 24.8157 17.5139 24.9255C17.4024 25.0353 17.2908 25.1451 17.2908 25.2549C17.1793 25.3647 17.1793 25.4745 17.1793 25.6941C17.1793 25.9137 17.2908 26.0235 17.2908 26.1333ZM17.7371 25.4745C17.7371 25.3647 17.8486 25.3647 17.8486 25.2549C17.9602 25.2549 17.9602 25.1451 18.0717 25.1451C18.1833 25.1451 18.1833 25.1451 18.2948 25.1451C18.4064 25.1451 18.5179 25.1451 18.5179 25.1451C18.6295 25.1451 18.6295 25.2549 18.741 25.2549C18.8526 25.2549 18.8526 25.3647 18.8526 25.4745C18.8526 25.5843 18.8526 25.5843 18.8526 25.6941C18.8526 25.8039 18.8526 25.8039 18.8526 25.9137C18.8526 26.0235 18.741 26.0235 18.741 26.1333C18.6295 26.1333 18.6295 26.2431 18.5179 26.2431C18.4064 26.2431 18.4064 26.2431 18.2948 26.2431C18.1833 26.2431 18.0717 26.2431 18.0717 26.2431C17.9602 26.2431 17.9602 26.1333 17.8486 26.1333C17.7371 26.1333 17.7371 26.0235 17.7371 25.9137C17.7371 25.8039 17.7371 25.8039 17.7371 25.6941C17.7371 25.6941 17.7371 25.5843 17.7371 25.4745ZM19.9681 26.6824H20.4143V25.3647L21.3068 26.6824H21.8645V24.9255H21.4183V26.1333L20.5259 24.9255H19.9681V26.6824ZM22.3108 26.6824H22.757L22.9801 26.3529H23.761L23.9841 26.6824H24.5418L23.6494 24.9255H23.3147L22.3108 26.6824ZM23.6494 25.9137H23.2032L23.4263 25.3647L23.6494 25.9137ZM24.8765 26.6824H26.2151V26.3529H25.4343V24.9255H24.988V26.6824H24.8765Z" fill="#F47735"/>
<path d="M0 22.6196H28V0H0V22.6196ZM22.6454 16.0314H17.8486V6.58823H19.4104V14.7137C19.4104 15.1529 19.745 15.4824 20.1912 15.4824C20.6375 15.4824 20.9721 15.1529 20.9721 14.7137V13.0667H22.5339L22.6454 16.0314ZM10.8207 14.3843C10.8207 15.3725 10.1514 16.1412 8.47809 16.1412C6.80478 16.1412 6.13546 15.0431 6.13546 14.3843V13.0667H7.69721V14.7137C7.69721 15.1529 8.03187 15.4824 8.47809 15.4824C8.9243 15.4824 9.25896 15.1529 9.25896 14.7137V6.58823H10.8207V14.3843ZM6.80478 10.102C7.36255 10.102 7.69721 10.5412 7.69721 10.9804C7.69721 11.4196 7.251 11.8588 6.80478 11.8588C6.24701 11.8588 5.91235 11.4196 5.91235 10.9804C5.91235 10.5412 6.24701 10.102 6.80478 10.102ZM8.25498 6.58823L6.80478 9.88235L5.35458 6.58823H8.25498ZM16.7331 9.66274C16.7331 10.102 16.2869 10.9804 15.7291 10.9804C16.3984 10.9804 16.7331 11.5294 16.7331 11.8588V14.7137C16.7331 15.1529 16.2869 15.9216 15.1713 15.9216H12.0478V6.58823H15.1713C15.7291 6.58823 16.7331 7.02745 16.7331 8.12549V9.66274ZM14.502 11.4196H13.498V15.2627H14.502C15.1713 15.2627 15.1713 14.8235 15.1713 13.3961C15.1713 11.8588 15.1713 11.4196 14.502 11.4196ZM14.3904 7.46667H13.498V10.651H14.3904C14.9482 10.651 15.0598 10.5412 15.0598 9.11372C15.1713 7.57647 15.0598 7.46667 14.3904 7.46667Z" fill="#F47735"/>
</g>
<defs>
<clipPath id="clip0_2007_816">
<rect width="28" height="28" fill="white"/>
</clipPath>
</defs>
</svg>
