<svg width="83" height="15" viewBox="0 0 83 15" fill="none" xmlns="http://www.w3.org/2000/svg">
<g clip-path="url(#clip0_2007_2234)">
<path d="M39.3066 14.8929V0.107178H48.215V1.28575H41.6679V6.42861H47.7857V7.71432H41.6679V13.7143H48.4297V14.8929H39.3066Z" fill="#00886C"/>
<path d="M60.1279 14.8929V0.107178H68.929V1.28575H62.3819V6.42861H68.4997V7.71432H62.3819V13.7143H69.1436V14.8929H60.1279Z" fill="#00886C"/>
<path d="M14.2979 14.8929V0.107178H23.2062V1.28575H16.6591V6.42861H22.7769V7.71432H16.6591V13.7143H23.3136V14.8929H14.2979Z" fill="#00886C"/>
<path d="M50.4688 14.8929V0H52.6153V13.3929H58.9478V14.8929H50.4688Z" fill="#00886C"/>
<path d="M39.3066 14.8929V0.107178H48.215V1.28575H41.6679V6.42861H47.7857V7.71432H41.6679V13.7143H48.4297V14.8929H39.3066Z" fill="#00886C"/>
<path d="M60.1279 14.8929V0.107178H68.929V1.28575H62.3819V6.42861H68.4997V7.71432H62.3819V13.7143H69.1436V14.8929H60.1279Z" fill="#00886C"/>
<path d="M12.6884 14.1429C9.46846 15 9.2538 15 7.32187 15C2.92134 15 0.0234375 12.2143 0.0234375 7.71433C0.345427 0.964333 5.38993 0.107191 7.85852 0.107191C8.60983 0.107191 10.3271 4.81158e-05 12.4737 0.857191L12.0444 2.25005C8.82448 1.07148 7.32187 1.39291 6.3559 1.50005C5.60459 1.71433 2.17003 2.67862 2.17003 7.07148C2.27736 11.25 4.10197 12.75 7.53653 13.5C8.71716 13.6072 9.14647 13.7143 10.7564 13.3929V8.35719H7.10721V6.75005H12.6884V14.1429Z" fill="#00886C"/>
<path d="M14.2979 14.8929V0.107178H23.2062V1.28575H16.6591V6.42861H22.7769V7.71432H16.6591V13.7143H23.3136V14.8929H14.2979Z" fill="#00886C"/>
<path d="M25.0312 14.8929V0H26.7485L36.1936 11.1429V0.107143H37.8035V14.8929H36.0862L26.8559 3.42857V14.8929H25.0312Z" fill="#00886C"/>
<path d="M50.4688 14.8929V0H52.6153V13.3929H58.9478V14.8929H50.4688Z" fill="#00886C"/>
<path d="M70.6465 7.49999C70.6465 3.64285 73.0077 -0.214296 77.9449 -1.05733e-05C79.8768 -1.05733e-05 80.5208 0.107132 82.0234 0.749989L81.5941 1.92856C76.2276 0.321418 72.4711 2.0357 72.7931 7.39285C73.2224 14.4643 78.9109 13.9286 81.5941 12.6428L82.0234 13.9286C76.4423 16.6071 70.6465 13.7143 70.6465 7.49999Z" fill="#00886C"/>
</g>
<defs>
<clipPath id="clip0_2007_2234">
<rect width="82" height="15" fill="white" transform="translate(0.0234375)"/>
</clipPath>
</defs>
</svg>
