<svg width="91" height="11" viewBox="0 0 91 11" fill="none" xmlns="http://www.w3.org/2000/svg">
<g clip-path="url(#clip0_2007_979)">
<path d="M54.4265 3.125H55.7808V0.25H49.8711V3.125H51.1023V10.75H54.4265V3.125ZM54.0571 10.375H51.4716V2.75H50.2405V0.625H55.4114V2.75H54.0571V10.375Z" fill="#788181"/>
<path d="M56.3965 8.375C56.3965 9.875 57.1352 10.75 58.4895 10.75H62.3062V7.875H59.7207V7H62.3062V4.125H59.7207V3.125H62.3062V0.25H58.4895C57.8739 0.25 57.3814 0.375 57.0121 0.75C56.6427 1 56.5196 1.5 56.3965 2.25V2.625V8.375ZM56.7658 2.75V2.375C56.889 1.75 57.0121 1.375 57.2583 1.125C57.5046 0.875 57.8739 0.75 58.4895 0.75H61.9368V2.875H59.3513V4.5H61.9368V6.75H59.3513V8.25H61.9368V10.5H58.4895C57.3814 10.5 56.7658 9.875 56.7658 8.5V2.75Z" fill="#788181"/>
<path d="M63.0449 10.75H66.3691V7.125H66.4923H66.6154C66.7385 7.125 66.8616 7.125 66.8616 7.5V9.375C66.8616 9.625 66.8616 9.875 66.9847 10.125C66.9847 10.25 67.1079 10.5 67.231 10.625L67.3541 10.75H70.6783L70.4321 10.25C70.3089 10.125 70.3089 10 70.3089 9.875C70.3089 9.75 70.3089 9.5 70.3089 9.125V7.125C70.3089 6.5 70.1858 6 69.9396 5.75C69.8165 5.625 69.5702 5.5 69.324 5.375C69.324 5.25 69.4471 5.125 69.5702 5C69.8165 4.75 69.9396 4.375 69.9396 3.875V1.875C69.9396 1.75 69.9396 1.5 69.9396 1.5C69.9396 1.375 70.0627 1.25 70.0627 1.125L70.1858 1V0.875L70.4321 0.375H66.9847L66.8616 0.625C66.7385 0.875 66.7385 1 66.7385 1.25V1.5V3.625V3.75C66.7385 4 66.6154 4.125 66.3691 4.125V0.375H63.0449V10.75ZM63.4143 0.625H65.9998V4.375H66.1229C66.4923 4.375 66.8616 4.125 66.8616 3.625V3.375V1.375V1.125C66.8616 1 66.9847 0.75 66.9847 0.625H69.6934V0.75L69.5702 0.875C69.4471 1.125 69.4471 1.25 69.4471 1.375C69.4471 1.5 69.4471 1.625 69.4471 1.875V3.875C69.4471 4.25 69.324 4.625 69.2009 4.75C69.0778 5 68.7084 5.125 68.0928 5.375C68.7084 5.5 69.0778 5.75 69.2009 6C69.4471 6.25 69.5702 6.625 69.5702 7.125V9.125C69.5702 9.5 69.5702 9.75 69.5702 9.875C69.5702 10 69.6934 10.25 69.6934 10.375H67.1078C66.9847 10.25 66.9847 10.125 66.8616 10C66.8616 9.875 66.8616 9.625 66.8616 9.375V7.5C66.8616 7 66.6154 6.75 66.246 6.75H66.1229H65.9998H65.6304V10.375H63.0449L63.4143 0.625Z" fill="#788181"/>
<path d="M70.8008 0.25L70.9239 0.75L71.047 1C71.1701 1.5 71.2933 2 71.2933 2.375V10.75H74.6175V3.625C74.6175 3.25 74.7406 3.25 74.7406 3.25H74.8637C74.8637 3.25 74.8637 3.375 74.8637 3.5V10.625H78.1879V2.25C78.1879 1.625 78.0648 1.125 77.8186 0.75C77.5723 0.375 77.203 0.25 76.5874 0.25H75.6024C75.2331 0.25 74.8637 0.375 74.3712 0.75C74.3712 0.625 74.3712 0.625 74.2481 0.5L74.125 0.25H70.8008ZM76.7105 0.625C77.0799 0.625 77.4492 0.75 77.5723 1C77.8186 1.25 77.8186 1.75 77.8186 2.25V10.375H75.2331V3.625C75.2331 3.375 75.2331 3.25 75.2331 3.25C75.2331 3.125 75.1099 3.125 75.1099 3C74.9868 2.875 74.8637 2.875 74.8637 2.875C74.4944 2.875 74.3712 3.125 74.3712 3.625V10.375H71.7857V2.375C71.7857 1.875 71.6626 1.375 71.5395 0.875L71.4164 0.625H74.125C74.125 0.75 74.2481 0.875 74.2481 1C74.2481 1.125 74.2481 1.25 74.2481 1.5V1.75V1.875L74.3712 1.625C74.6175 0.875 75.1099 0.625 75.7255 0.625H76.7105Z" fill="#788181"/>
<path d="M78.9268 10.75H82.251V0.25H78.9268V10.75ZM79.2961 0.625H81.8816V10.375H79.2961V0.625Z" fill="#788181"/>
<path d="M82.9893 10.75H86.3135V7.125H86.4366H86.5597C86.6828 7.125 86.6828 7.125 86.6828 7.5V9.375C86.6828 9.625 86.6828 9.875 86.8059 10.125C86.8059 10.25 86.9291 10.5 87.0522 10.625L87.1753 10.75H90.4995L90.2533 10.25C90.1302 10.125 90.1302 10 90.1302 9.875C90.1302 9.75 90.1302 9.5 90.1302 9.125V7.125C90.1302 6.5 90.007 6 89.7608 5.75C89.6377 5.625 89.3914 5.5 89.1452 5.375C89.3914 5.25 89.5146 5.125 89.6377 5C89.8839 4.75 90.007 4.375 90.007 3.875V1.875C90.007 1.75 90.007 1.5 90.007 1.5C90.007 1.375 90.1302 1.25 90.1302 1.125L90.2533 1V0.875L90.3764 0.25H86.9291L86.8059 0.5C86.6828 0.625 86.6828 0.875 86.6828 1V1.25V3.375V3.5C86.5597 3.75 86.5597 3.875 86.3135 3.875V0.125H82.9893V10.75ZM83.3586 0.625H85.9441V4.375H86.0672C86.4366 4.375 86.8059 4.125 86.8059 3.625V3.375V1.375V1.125C86.8059 1 86.9291 0.75 86.9291 0.625H89.6377V0.75L89.5146 0.875C89.3915 1.125 89.3914 1.25 89.3914 1.375C89.3914 1.5 89.3914 1.625 89.3914 1.875V3.875C89.3914 4.25 89.2683 4.625 89.1452 4.75C89.1452 5 88.7759 5.125 88.2834 5.375C88.7759 5.5 89.2683 5.75 89.3914 6C89.6377 6.25 89.7608 6.625 89.7608 7.125V9.125C89.7608 9.5 89.7608 9.75 89.7608 9.875C89.7608 10 89.8839 10.25 89.8839 10.375H87.2984C87.1753 10.25 87.1753 10.125 87.0522 10C87.0522 9.875 87.0522 9.625 87.0522 9.375V7.5C87.0522 7 86.806 6.75 86.4366 6.75H86.3135H86.1904H85.821V10.375H83.2355L83.3586 0.625Z" fill="#788181"/>
<path d="M12.9346 10.75V0.25H15.7663V4.25H16.0125C16.505 4.25 16.7513 4 16.8744 3.5V3.25V1V0.75C16.8744 0.625 16.9975 0.375 16.9975 0.25H19.9524V0.375L19.8292 0.5C19.7061 0.75 19.7061 0.875 19.7061 1C19.7061 1.125 19.7061 1.25 19.7061 1.5V3.75C19.7061 4.125 19.583 4.5 19.4599 4.75C19.3368 5 18.8443 5.125 18.3518 5.375C18.9674 5.5 19.3368 5.75 19.583 6C19.8292 6.25 19.9524 6.625 19.9524 7.25V9.375C19.9524 9.75 19.9524 10 19.9524 10.25C19.9524 10.375 20.0755 10.625 20.1986 10.75H17.3669C17.2437 10.625 17.2437 10.5 17.1206 10.375C17.1206 10.25 17.1206 10 17.1206 9.75V7.625C17.1206 7.125 16.8744 6.875 16.505 6.875H16.3819H16.2588H15.8894V10.75H12.9346Z" fill="#788181"/>
<path d="M20.5684 0.25H23.8926C23.7695 0.5 23.7695 0.75 23.6463 1C23.6463 1.25 23.5232 1.5 23.5232 1.875V8.25C23.6463 8.25 23.7695 8.25 24.0157 8.25C24.2619 8.25 24.6313 8.25 25.0006 8.125L25.2469 8H25.4931L25.1238 10.75H20.8146V2.25C20.8146 1.875 20.8146 1.375 20.6915 0.875V0.5L20.5684 0.25Z" fill="#788181"/>
<path d="M25.9854 10.75V1.75C25.9854 1.375 25.9853 1.125 26.1085 1C26.1085 0.875 26.2316 0.75 26.3547 0.625C26.6009 0.375 26.8472 0.25 27.2165 0.25H31.4026C31.7719 0.25 32.1413 0.375 32.3875 0.625C32.5107 0.75 32.5107 0.875 32.6338 1.125C32.6338 1.25 32.7569 1.5 32.7569 1.875V10.875H29.9252V8.5H28.8171V10.75H25.9854ZM29.9252 6.25V3.125C29.9252 2.625 29.802 2.375 29.4327 2.375C28.9402 2.5 28.8171 2.75 28.8171 3.125V6.25H29.9252Z" fill="#788181"/>
<path d="M33.7422 10.75V0.25H38.4207C39.775 0.25 40.3906 0.875 40.3906 2V3.5V3.875C40.3906 4.375 40.2675 4.625 40.0213 4.875C39.775 5.125 39.5288 5.25 39.0363 5.375C39.5288 5.5 39.8981 5.625 40.1444 6C40.3906 6.25 40.5137 6.625 40.5137 7.25V9.5C40.5137 9.75 40.5137 10 40.5137 10.125C40.5137 10.25 40.6369 10.375 40.76 10.625L40.8831 10.75H37.9282C37.8051 10.5 37.682 10.25 37.682 9.875V7.5V7.375C37.5589 7 37.4358 6.875 37.0664 6.875H36.697V10.75H33.7422ZM36.8202 4.375C37.0664 4.375 37.3126 4.25 37.4358 4.125C37.5589 4 37.5589 3.625 37.5589 3C37.5589 2.625 37.3126 2.5 36.8202 2.5H36.5739V4.375H36.8202Z" fill="#788181"/>
<path d="M41.376 10.75V0.25H44.2077V4.25H44.454C44.9464 4.25 45.1927 4 45.3158 3.5V3.25V1V0.75C45.3158 0.625 45.4389 0.375 45.4389 0.25H48.3938V0.375L48.2706 0.5C48.1475 0.75 48.1475 0.875 48.1475 1C48.1475 1.125 48.1475 1.25 48.1475 1.5V3.75C48.1475 4.125 48.0244 4.5 47.9013 4.75C47.7782 5 47.2857 5.125 46.7932 5.375C47.4088 5.5 47.7782 5.75 48.0244 6C48.2706 6.25 48.3938 6.625 48.3938 7.25V9.375C48.3938 9.75 48.3938 10 48.3938 10.25C48.3938 10.375 48.5169 10.625 48.64 10.75H45.8083C45.6851 10.625 45.6851 10.5 45.562 10.375C45.562 10.25 45.562 10 45.562 9.75V7.625C45.562 7.125 45.3158 6.875 44.9464 6.875H44.8233H44.7002H44.3308V10.75H41.376Z" fill="#788181"/>
<path d="M5.91724 0C2.96238 0 0.5 2.5 0.5 5.5C0.5 8.5 2.96238 11 5.91724 11C8.87209 11 11.3345 8.5 11.3345 5.5C11.3345 2.5 8.87209 0 5.91724 0ZM6.77907 9.75V8.75C6.53283 8.875 6.28659 8.875 5.91724 8.875C5.54788 8.875 5.30164 8.875 5.0554 8.75V9.75C3.45486 9.375 2.22367 8 1.85431 6.375H2.83926C2.71614 6.125 2.59302 5.875 2.59302 5.5C2.59302 5.125 2.59302 4.875 2.71614 4.625H1.85431C2.22367 3 3.45486 1.75 5.0554 1.375V2.375C5.30164 2.25 5.671 2.25 5.91724 2.25C6.28659 2.25 6.53283 2.25 6.77907 2.375V1.375C8.37962 1.75 9.61081 3 9.98016 4.625H9.11833C9.24145 4.875 9.24145 5.25 9.24145 5.5C9.24145 5.875 9.24145 6.125 9.11833 6.375H10.1033C9.73393 8 8.37962 9.375 6.77907 9.75Z" fill="#788181"/>
<path d="M5.91764 6.625C6.52961 6.625 7.02571 6.12132 7.02571 5.5C7.02571 4.87868 6.52961 4.375 5.91764 4.375C5.30567 4.375 4.80957 4.87868 4.80957 5.5C4.80957 6.12132 5.30567 6.625 5.91764 6.625Z" fill="#788181"/>
<path d="M6.90234 6.5V8.75C7.8873 8.375 8.74913 7.5 9.11849 6.5H6.90234Z" fill="#788181"/>
<path d="M5.05501 2.25C3.94694 2.625 3.08511 3.5 2.83887 4.625H5.05501V2.25Z" fill="#788181"/>
<path d="M9.11849 4.625C8.74913 3.5 7.8873 2.625 6.90234 2.25V4.625H9.11849Z" fill="#788181"/>
<path d="M2.71582 6.5C3.08518 7.5 3.94701 8.375 5.05508 8.75V6.5H2.71582Z" fill="#788181"/>
</g>
<defs>
<clipPath id="clip0_2007_979">
<rect width="90" height="11" fill="white" transform="translate(0.5)"/>
</clipPath>
</defs>
</svg>
