<svg width="103" height="26" viewBox="0 0 103 26" fill="none" xmlns="http://www.w3.org/2000/svg">
<g clip-path="url(#clip0_2007_2021)">
<path d="M6.64522 3.24008C6.64522 4.84265 6.64522 6.1247 6.64522 6.1247C6.64522 6.1247 6.53682 6.01786 6.32003 5.91102C5.77805 5.48367 5.12768 5.27 4.36891 5.27C3.39336 5.27 2.63459 5.59051 1.98422 6.23154C0.249891 7.94094 0.575077 11.0392 2.63459 12.1076C3.06817 12.3213 3.71854 12.535 4.36891 12.535C5.23608 12.535 5.66966 12.3213 6.53682 11.7871L6.64522 11.6803V12.1076V12.535H7.72917H8.81312V6.44521V0.355469H7.72917H6.64522V3.24008ZM5.66966 7.19308C6.32003 7.40675 6.75361 8.15461 6.75361 8.79564C6.75361 9.43667 6.64522 9.97085 6.21163 10.2914C5.88645 10.6119 5.56126 10.8256 5.12768 10.8256C4.26052 10.8256 3.50175 10.3982 3.17656 9.65034C2.63459 8.6888 3.28496 7.40675 4.47731 7.08624C4.80249 6.9794 5.23608 6.9794 5.66966 7.19308Z" fill="black"/>
<path d="M21.7119 6.44521V12.535H22.6875H23.663V12.1076C23.663 11.8939 23.663 11.6803 23.663 11.6803C23.663 11.6803 23.7714 11.7871 23.8798 11.8939C24.4218 12.4281 25.0722 12.6418 25.9393 12.6418C27.0233 12.6418 27.6737 12.4281 28.324 11.7871C28.9744 11.1461 29.2996 10.1845 29.2996 9.11615C29.2996 7.51359 28.5408 6.33838 27.1317 5.80419C26.6981 5.59051 26.2645 5.48367 25.8309 5.48367C25.1806 5.48367 24.4218 5.69735 23.8798 6.1247L23.663 6.23154V3.24008V0.355469H22.6875H21.7119V6.44521ZM26.2645 7.40675C26.5897 7.51359 27.0233 7.94094 27.1317 8.36829C27.3485 8.79564 27.3485 9.43667 27.1317 9.86402C26.9149 10.2914 26.6981 10.505 26.2645 10.7187C26.0477 10.8256 25.9393 10.8256 25.3974 10.8256C24.8554 10.8256 24.8554 10.8256 24.5302 10.6119C23.9882 10.2914 23.5546 9.65034 23.663 8.90248C23.663 8.26145 23.9882 7.8341 24.5302 7.51359C24.9638 7.19308 25.7225 7.19308 26.2645 7.40675Z" fill="black"/>
<path d="M78.4033 7.08622V12.8555H84.1483H90.0016V7.08622V1.42383H84.1483H78.4033V7.08622Z" fill="black"/>
<path d="M91.3018 1.42383C91.3018 1.42383 91.3018 3.98793 91.3018 7.19306V12.8555H97.1551H103.008V7.08622V1.42383H97.1551C92.4941 1.42383 91.3018 1.42383 91.3018 1.42383Z" fill="black"/>
<path d="M14.1249 1.53063C12.8242 1.95798 12.0654 3.02635 12.2822 4.41524C12.2822 5.1631 12.499 5.69729 12.8242 6.12464L12.9325 6.33832L12.3906 6.76567C11.0898 7.62037 10.5479 8.36823 10.5479 9.43661C10.5479 10.2913 10.7646 11.0392 11.1982 11.5734C11.6318 12.1075 12.3906 12.4281 13.1493 12.5349C13.9081 12.6417 14.8837 12.2144 16.076 11.3597L16.7264 10.9323L17.3768 11.6802L18.0271 12.4281H19.2195H20.4118L19.3279 11.146C18.7859 10.3981 18.2439 9.86396 18.2439 9.75712C18.2439 9.75712 18.5691 9.54345 19.0027 9.22293C19.4363 8.90242 19.7615 8.68875 19.7615 8.68875C19.7615 8.68875 18.7859 7.40669 18.5691 7.29986C18.5691 7.29986 18.2439 7.51353 17.8103 7.83404C17.3768 8.15456 17.16 8.36823 17.0516 8.36823C17.16 8.15456 16.076 6.76567 16.076 6.76567C16.076 6.76567 16.1844 6.65883 16.4012 6.44516C17.0516 5.91097 17.5935 5.37678 17.7019 4.73575C17.8103 4.41524 17.8103 4.3084 17.8103 3.88105C17.7019 2.70584 17.2684 1.95798 16.2928 1.63746C15.7508 1.42379 14.5585 1.42379 14.1249 1.53063ZM15.534 3.34687C15.8592 3.56054 15.9676 3.77422 15.9676 3.98789C15.9676 4.3084 15.8592 4.41524 15.3172 4.84259C14.8837 5.1631 14.7753 5.1631 14.7753 5.1631C14.5585 5.05627 14.3417 4.52208 14.3417 4.3084C14.3417 3.98789 14.3417 3.77422 14.5585 3.56054C14.7753 3.13319 15.2089 3.13319 15.534 3.34687ZM14.8837 8.68875L15.534 9.43661L15.4256 9.54345C15.1005 9.75712 14.5585 10.0776 14.1249 10.2913C13.4745 10.6118 13.0409 10.505 12.7158 10.0776C12.3906 9.65028 12.499 9.22293 12.9325 8.68875C13.2577 8.58191 14.1249 7.83404 14.2333 7.83404C14.2333 7.83404 14.5585 8.2614 14.8837 8.68875Z" fill="black"/>
<path d="M21.8204 16.0605V18.9452L21.6036 18.7315C20.9532 18.1973 20.3029 17.9836 19.5441 17.9836C18.6769 17.9836 18.135 18.1973 17.4846 18.6246C16.8342 19.052 16.4006 19.693 16.1838 20.4409C16.0754 20.8682 16.0754 21.9366 16.1838 22.5776C16.509 23.9665 17.4846 24.9281 18.7853 25.1417C19.8693 25.3554 20.8448 25.1417 21.3868 24.6076C21.4952 24.5007 21.6036 24.3939 21.6036 24.3939C21.6036 24.3939 21.6036 24.5007 21.6036 24.7144V25.0349H22.6876H23.7715V19.052V13.0691H22.796H21.8204V16.0605ZM20.8448 20.0135C21.17 20.2272 21.4952 20.4409 21.712 20.8682C21.8204 21.0819 21.8204 21.1888 21.8204 21.6161C21.8204 22.0435 21.8204 22.1503 21.712 22.4708C21.4952 22.8982 21.2784 23.1118 20.8448 23.3255C20.628 23.4323 20.5196 23.4323 20.0861 23.4323C19.6525 23.4323 19.5441 23.4323 19.3273 23.3255C18.6769 23.005 18.2433 22.4708 18.2433 21.6161C18.2433 21.1888 18.2433 21.1888 18.3517 20.8682C18.7853 20.0135 19.8693 19.5862 20.8448 20.0135Z" fill="black"/>
<path d="M51.0869 19.1589V25.1418H52.0625H52.9296V23.2188C52.9296 21.4025 52.9296 21.2957 53.038 20.9752C53.1464 20.5478 53.4716 20.1205 53.7968 20.0136C54.0136 19.9068 54.122 19.9068 54.4472 19.9068C54.9891 19.9068 55.3143 20.1205 55.5311 20.5478L55.6395 20.8683V23.0051V25.1418H56.7235H57.8074V22.5777C57.8074 20.1205 57.8074 20.0136 57.699 19.5863C57.3738 18.5179 56.6151 17.9837 55.5311 17.9837C55.2059 17.9837 54.9891 17.9837 54.664 18.0906C54.2304 18.1974 53.58 18.5179 53.2548 18.8384C53.1464 18.9453 52.9296 19.0521 52.9296 19.0521C52.9296 19.0521 52.9296 17.6632 52.9296 16.0606V13.176H51.9541H50.9785L51.0869 19.1589Z" fill="black"/>
<path d="M67.8887 19.1589V25.1418H68.8642H69.8398V23.6461V22.1504L71.0321 23.5393C71.6825 24.2871 72.2245 24.9282 72.3329 25.035C72.4413 25.1418 72.4413 25.1418 73.742 25.1418H75.0428L73.4168 23.3256C72.5497 22.3641 71.7909 21.5094 71.7909 21.5094C71.7909 21.5094 72.4413 20.7615 73.3084 20.0136C74.1756 19.2658 74.9344 18.5179 74.9344 18.4111L75.0428 18.3042H73.742H72.4413L71.2489 19.5863L70.0566 20.8683V17.0222V13.176H69.081H68.1055L67.8887 19.1589Z" fill="black"/>
<path d="M83.1727 13.9238C81.9804 14.1375 80.8964 14.6717 80.0293 15.5264C79.2705 16.2743 78.7285 17.129 78.5117 18.1973C78.4033 18.6247 78.4033 18.8384 78.4033 19.4794C78.4033 20.0136 78.4033 20.3341 78.5117 20.6546C78.9453 22.4708 80.0293 23.8597 81.6552 24.6076C82.6307 25.0349 83.1727 25.2486 84.2567 25.2486C85.0154 25.2486 85.2322 25.2486 85.6658 25.1418C86.8582 24.8213 87.7253 24.3939 88.4841 23.5392C89.3513 22.6845 89.8932 21.8298 90.11 20.6546C90.2184 19.9067 90.2184 18.8384 90.0016 18.1973C89.4596 16.1674 87.8337 14.5649 85.6658 14.0307C85.1238 13.9238 83.7147 13.9238 83.1727 13.9238Z" fill="black"/>
<path d="M91.1934 19.6932V25.2487H97.0467H102.9V19.6932V14.0308H97.0467H91.1934V19.6932Z" fill="black"/>
<path d="M25.0726 14.3512C24.3138 14.5649 23.8803 15.4196 24.3138 16.0606C24.5306 16.3811 24.8558 16.5948 25.181 16.7017C25.8314 16.8085 26.5901 16.1675 26.5901 15.5264C26.4818 14.7786 25.8314 14.1376 25.0726 14.3512Z" fill="black"/>
<path d="M66.1541 14.4581C65.3954 14.7786 65.0702 15.6333 65.5038 16.2743C65.9374 16.9153 66.6961 16.9153 67.2381 16.488C67.9969 15.7401 67.6717 14.5649 66.5877 14.4581C66.4793 14.3512 66.2625 14.3512 66.1541 14.4581Z" fill="black"/>
<path d="M34.9365 17.2358V18.3041H34.5029H34.1777V19.1588V19.9067H34.5029H34.9365V22.5776V25.2486H35.9121H36.8876V22.5776V19.9067H37.538H38.08V19.1588V18.3041H37.538H36.8876V17.2358V16.0605H35.9121H34.9365V17.2358Z" fill="black"/>
<path d="M3.93546 18.0906C3.17669 18.1974 2.52632 18.518 1.98434 19.0521C1.22558 19.8 0.900391 20.6547 0.900391 21.8299C1.00879 23.4325 1.98434 24.8214 3.39348 25.2487C4.47744 25.5692 5.56139 25.3556 6.32016 24.7145C6.42855 24.6077 6.64534 24.5009 6.64534 24.5009C6.64534 24.5009 6.64534 24.7145 6.64534 24.9282V25.3556H7.6209H8.59646V23.6462C8.59646 22.6846 8.59646 21.0821 8.59646 20.2274V18.518H7.51251H6.64534V18.8385C6.64534 19.0521 6.64534 19.159 6.64534 19.159C6.64534 19.159 6.53695 19.159 6.53695 19.0521C6.42855 18.8385 5.77818 18.518 5.45299 18.4111C4.91102 18.0906 4.47744 17.9838 3.93546 18.0906ZM5.66979 20.1205C6.32016 20.441 6.75374 20.9752 6.75374 21.7231C6.75374 22.4709 6.32016 23.112 5.56139 23.5393C5.3446 23.6462 5.12781 23.6462 4.80262 23.6462C4.36904 23.6462 4.26065 23.6462 4.04386 23.4325C2.9599 22.7915 2.74311 21.4026 3.61027 20.441C4.04386 19.9068 4.91102 19.8 5.66979 20.1205Z" fill="black"/>
<path d="M30.0591 18.0906C28.8667 18.1974 27.6744 19.0521 27.1324 20.1205C26.1569 22.1504 27.024 24.5008 29.1919 25.2487C29.6255 25.3555 29.7339 25.3555 30.4927 25.3555C31.2514 25.3555 31.3598 25.3555 31.9018 25.1419C32.8774 24.8213 33.6361 24.1803 34.0697 23.4325C34.7201 22.1504 34.5033 20.3342 33.5277 19.2658C32.9858 18.6248 32.0102 18.1974 31.143 18.0906C30.9263 18.0906 30.7095 18.0906 30.6011 18.0906C30.4927 18.0906 30.2759 18.0906 30.0591 18.0906ZM31.2514 19.9068C31.685 20.1205 32.0102 20.441 32.227 20.8684C32.3354 21.082 32.3354 21.2957 32.3354 21.7231C32.3354 22.1504 32.3354 22.2572 32.227 22.5778C32.0102 23.0051 31.7934 23.2188 31.3598 23.4325C31.143 23.5393 31.0346 23.5393 30.6011 23.5393C29.9507 23.5393 29.7339 23.4325 29.3003 23.0051C28.8667 22.5778 28.7583 22.2572 28.7583 21.6162C28.7583 21.1889 28.7583 21.082 28.8667 20.7615C29.0835 20.3342 29.5171 20.0137 29.8423 19.8C30.2759 19.6931 30.8179 19.6931 31.2514 19.9068Z" fill="black"/>
<path d="M48.703 18.0905C47.9443 18.1973 47.2939 18.5178 46.6435 19.1589C46.2099 19.5862 46.1015 19.6931 45.8848 20.1204C45.5596 20.7614 45.4512 21.2956 45.4512 21.9367C45.5596 23.4324 46.5351 24.7144 47.9443 25.2486C48.2695 25.3555 48.4862 25.3555 49.1366 25.3555C49.787 25.3555 49.8954 25.3555 50.329 25.1418L50.7625 24.9281V23.9666V23.005L50.6542 23.1119C50.329 23.3255 50.0038 23.4324 49.4618 23.5392C48.703 23.5392 48.4862 23.4324 47.9443 23.005C47.5107 22.5777 47.2939 22.1503 47.4023 21.6161C47.4023 21.0819 47.5107 20.7614 47.9443 20.4409C48.5946 19.7999 49.5702 19.6931 50.4374 20.1204L50.7625 20.3341V19.7999C50.7625 19.5862 50.7625 19.1589 50.7625 18.8384V18.411L50.4374 18.3042C49.8954 18.0905 49.245 17.9837 48.703 18.0905Z" fill="black"/>
<path d="M40.5732 18.1973C39.706 18.411 38.8388 19.052 38.5137 19.7999C38.1885 20.4409 38.0801 20.8683 38.0801 21.8298C38.0801 22.5777 38.0801 22.6845 38.1885 23.1118C38.6221 24.5007 40.0312 25.4623 41.6571 25.4623C43.0663 25.4623 44.1502 25.0349 44.8006 24.0734C45.0174 23.7529 45.1258 23.7529 44.2586 23.2187L43.6082 22.7913L43.2831 23.1118C42.8495 23.5392 42.4159 23.7529 41.7655 23.7529C41.2235 23.7529 40.8984 23.646 40.4648 23.4324C40.248 23.2187 40.0312 22.7913 39.9228 22.4708V22.2571H42.4159C44.8006 22.2571 44.909 22.2571 44.909 22.1503C44.909 21.723 44.8006 20.6546 44.6922 20.4409C44.367 19.2657 43.4998 18.5178 42.4159 18.1973C42.0907 18.0905 41.0068 18.0905 40.5732 18.1973ZM42.1991 19.5862C42.6327 19.7999 43.0663 20.4409 43.0663 20.8683V20.9751H41.5487H39.9228V20.7614C40.0312 20.2272 40.3564 19.7999 40.79 19.5862C41.2235 19.4794 41.8739 19.4794 42.1991 19.5862Z" fill="black"/>
<path d="M61.6015 18.3043C61.6015 18.3043 61.3847 18.4111 61.1679 18.4111C60.9511 18.5179 60.7343 18.6248 60.5175 18.8384L60.1923 19.159V18.7316V18.3043H59.2168H58.2412V21.7231V25.1419H59.2168H60.1923V23.1119C60.1923 20.9752 60.1923 20.8684 60.6259 20.3342C61.0595 19.8 61.9266 19.6931 62.4686 20.1205C62.7938 20.441 62.9022 20.5478 62.9022 22.8983V25.035H63.8778H64.8533V22.4709C64.8533 19.6931 64.8533 19.6931 64.5281 19.159C64.0946 18.4111 63.4442 18.0906 62.2518 18.0906C62.035 18.1974 61.7099 18.3043 61.6015 18.3043Z" fill="black"/>
<path d="M9.03027 20.5478C9.03027 22.5778 9.03027 22.8983 9.13867 23.2188C9.24706 23.753 9.46385 24.0735 9.78904 24.394C10.331 24.9282 11.0898 25.2487 12.1737 25.2487C13.6913 25.3555 14.992 24.8213 15.4256 23.8598C15.7508 23.2188 15.7508 23.1119 15.8592 20.5478V18.1974H14.7752H13.7997V20.3342C13.7997 22.2572 13.7997 22.5778 13.6913 22.7914C13.4745 23.2188 13.1493 23.4325 12.4989 23.4325C11.8486 23.4325 11.415 23.2188 11.1982 22.6846C11.0898 22.3641 11.0898 22.3641 11.0898 20.2273V18.0906H10.0058H9.03027V20.5478Z" fill="black"/>
<path d="M24.3135 18.3042C24.3135 18.3042 24.3135 19.9068 24.3135 21.723V25.1418H25.3974H26.4814V21.723V18.3042H25.5058C24.8555 18.3042 24.4219 18.3042 24.3135 18.3042Z" fill="black"/>
<path d="M65.5039 18.3042C65.5039 18.3042 65.5039 19.9068 65.5039 21.723V25.1418H66.4795H67.455V21.723V18.3042H66.4795C65.9375 18.3042 65.5039 18.3042 65.5039 18.3042Z" fill="black"/>
</g>
<defs>
<clipPath id="clip0_2007_2021">
<rect width="102" height="25" fill="white" transform="translate(0.900391 0.355469)"/>
</clipPath>
</defs>
</svg>
