<svg width="86" height="39" viewBox="0 0 86 39" fill="none" xmlns="http://www.w3.org/2000/svg">
<g clip-path="url(#clip0_2007_1965)">
<path d="M0.400391 38.2521L1.43951 32.7793H6.84293L10.5838 35.8771L11.2072 32.7793H15.5715L14.5324 38.2521H9.44073L5.28425 35.051L4.66078 38.2521H0.400391Z" fill="#1D1D1B"/>
<path d="M16.6104 38.2521L17.6495 32.7793H27.4172L27.1055 34.1217H20.9747L20.8707 34.7413H25.8585L25.6507 36.0836H20.559L20.4551 36.8065H27.0015L26.6898 38.2521H16.6104Z" fill="#1D1D1B"/>
<path d="M29.2879 32.7793H32.8209L32.3014 35.4641C32.1975 35.8771 32.1975 36.0836 32.1975 36.2902C32.1975 36.4967 32.3014 36.6 32.4053 36.7032C32.5092 36.8065 32.717 36.9097 33.0288 37.013C33.3405 37.1163 33.7561 37.1163 34.2757 37.1163C34.7953 37.1163 35.2109 37.1163 35.5226 37.013C35.8344 36.9097 36.1461 36.8065 36.25 36.7032C36.3539 36.6 36.4578 36.4967 36.5618 36.2902C36.6657 36.0836 36.6657 35.8771 36.7696 35.4641L36.8735 35.051L37.2891 32.7793H40.8222L40.3026 35.6706C40.1987 36.2902 39.9909 36.7032 39.783 37.013C39.5752 37.3228 39.2635 37.5293 38.7439 37.7358C38.2244 37.9423 37.6009 38.1489 36.8735 38.2521C36.0422 38.3554 35.107 38.4586 34.0679 38.4586C32.9248 38.4586 31.9896 38.3554 31.2623 38.2521C30.5349 38.1489 29.9114 37.9423 29.4957 37.7358C29.184 37.5293 28.8723 37.3228 28.7684 37.013C28.6645 36.7032 28.6645 36.2902 28.7684 35.6706L28.8723 35.1543L29.2879 32.7793Z" fill="#1D1D1B"/>
<path d="M43.732 38.2521L44.5633 34.1217H41.5498L41.8615 32.7793H51.3175L51.0058 34.1217H48.0963L47.265 38.2521H43.732Z" fill="#1D1D1B"/>
<path d="M65.0332 38.2521L66.0723 32.7793H70.2288L69.1897 38.2521H65.0332Z" fill="#1D1D1B"/>
<path d="M71.1641 38.2521L72.3071 32.7793H76.2558L75.7362 35.2576L80.8279 32.7793H85.4L79.477 35.4641L84.6726 38.2521H79.7888L75.6323 35.7739L75.1127 38.2521H71.1641Z" fill="#1D1D1B"/>
<path d="M51.6289 38.2521L52.4602 32.7793H56.8245C58.4871 32.7793 59.734 32.7793 60.3575 32.8826C60.981 32.9858 61.6045 32.9858 62.0201 33.1923C62.5397 33.2956 62.9553 33.5021 63.1631 33.7086C63.371 33.9152 63.5788 34.2249 63.4749 34.4315C63.371 34.8445 63.0592 35.1543 62.4358 35.4641C61.8123 35.7739 60.981 35.8771 59.838 35.9804L63.6827 38.1489H59.0067L55.7854 35.9804L55.4737 38.1489H51.6289V38.2521ZM55.9932 35.3608H56.7206C57.6558 35.3608 58.2793 35.2576 58.6949 35.1543C59.1106 35.051 59.3184 34.8445 59.4223 34.638C59.4223 34.3282 59.3184 34.1217 58.9027 34.0184C58.4871 33.9152 57.8636 33.8119 56.9284 33.8119H56.0971L55.9932 35.3608Z" fill="#1D1D1B"/>
<path d="M42.9006 28.5457C50.7055 28.5457 57.0326 22.2582 57.0326 14.5022C57.0326 6.74622 50.7055 0.45874 42.9006 0.45874C35.0957 0.45874 28.7686 6.74622 28.7686 14.5022C28.7686 22.2582 35.0957 28.5457 42.9006 28.5457Z" fill="#009982" stroke="black" stroke-width="0.25" stroke-miterlimit="22.9256"/>
<path d="M39.0557 8.71961C40.1987 7.99678 41.5496 7.58374 42.9004 7.58374C44.3552 7.58374 45.6021 7.99678 46.7451 8.71961" stroke="white" stroke-miterlimit="22.9256" stroke-linecap="round" stroke-linejoin="round"/>
<path d="M40.0946 12.7469L37.185 10.6816C36.4576 11.8175 36.042 13.1599 36.042 14.6056C36.042 16.1545 36.5616 17.6001 37.4968 18.8392" stroke="white" stroke-miterlimit="22.9256" stroke-linecap="round" stroke-linejoin="round"/>
<path d="M48.7201 10.5784C49.4475 11.7142 49.967 13.0566 49.967 14.5023C49.967 16.0512 49.4475 17.4968 48.5123 18.736L45.8105 16.774" stroke="white" stroke-miterlimit="22.9256" stroke-linecap="round" stroke-linejoin="round"/>
<path d="M42.9004 7.58374V21.6272" stroke="white" stroke-miterlimit="22.9256" stroke-linecap="round" stroke-linejoin="round"/>
<path d="M42.9006 25.2414C48.8691 25.2414 53.7074 20.4334 53.7074 14.5023C53.7074 8.57126 48.8691 3.76318 42.9006 3.76318C36.9321 3.76318 32.0938 8.57126 32.0938 14.5023C32.0938 20.4334 36.9321 25.2414 42.9006 25.2414Z" stroke="white" stroke-miterlimit="22.9256" stroke-linecap="round" stroke-linejoin="round"/>
</g>
<defs>
<clipPath id="clip0_2007_1965">
<rect width="85" height="38" fill="white" transform="translate(0.400391 0.355469)"/>
</clipPath>
</defs>
</svg>
