<svg width="52" height="18" viewBox="0 0 52 18" fill="none" xmlns="http://www.w3.org/2000/svg">
<g clip-path="url(#clip0_2007_793)">
<path d="M33.1418 11.962C33.1418 12.1899 33.0303 12.4177 32.9187 12.6456C31.5796 14.9241 28.1204 14.8102 26.5582 12.5317C25.8886 11.5064 25.6654 10.3671 25.5539 9.22787C25.4423 6.94939 26.8929 4.67091 29.2363 4.44306C30.5753 4.32914 32.3607 4.44306 33.0303 5.81015V8.65825C32.1376 7.97471 31.2448 7.17724 29.9058 7.51901C29.2363 7.63294 28.6783 8.20256 28.5667 8.8861C28.3436 10.0253 28.7899 11.2785 30.0174 11.5064C31.3564 11.7342 32.1376 10.8228 33.0303 10.0253L33.1418 11.962Z" fill="#1E417C"/>
<path d="M48.876 8.88619V13.7849H52.0005V7.17733C52.0005 6.94948 52.0005 6.83556 51.8889 6.60771C51.6657 5.24062 50.1035 4.671 48.876 4.78493C47.9833 4.89885 47.2022 5.35455 46.5327 6.15202C46.5327 6.26594 46.4211 6.15202 46.4211 6.03809V4.89885H43.4082V13.671H46.5327V8.88619C46.6443 8.08873 47.4254 7.5191 48.3181 7.74695C48.6528 7.86088 48.876 8.20265 48.9876 8.54442C48.876 8.65835 48.876 8.77227 48.876 8.88619Z" fill="#1E417C"/>
<path d="M24.8845 4.89868C23.8802 5.01261 22.7643 5.01261 21.6484 4.89868V13.7848H24.8845V4.89868Z" fill="#1E417C"/>
<path d="M0 0H2.67811V15.3797H52V18H0V0Z" fill="#1E417C"/>
<path d="M6.69549 7.97467C6.69549 7.40505 7.81137 6.83543 8.36931 6.83543C9.15042 6.83543 10.0431 7.40505 10.0431 7.97467H7.25343H6.69549ZM12.0517 10.2532C12.2749 8.54429 12.3865 6.49366 10.9358 5.35442C9.15042 3.8734 6.5839 3.98733 5.02167 5.69619C3.68261 7.1772 3.68261 9.34176 4.24055 11.2785C4.57532 12.5316 5.46802 13.5569 6.69549 13.8987C8.14613 14.3544 9.59678 14.2405 11.0474 13.443C12.0517 12.8734 11.9401 11.6202 11.9401 10.7088L11.7169 10.5949C10.8242 11.6202 9.3736 12.1899 8.14613 11.7342C7.58819 11.5063 7.03025 10.9367 7.03025 10.2532H7.69978H12.0517Z" fill="#1E417C"/>
<path d="M16.6266 7.17732L17.8541 4.78491H21.0901L18.412 9.22795L21.0901 13.7849H17.6309L16.515 11.7343L15.3991 13.7849H12.1631L14.5064 9.22795L12.1631 4.78491H15.3991L16.6266 7.17732Z" fill="#1E417C"/>
<path d="M38.2745 11.5063C37.3818 11.5063 36.8239 10.7088 36.8239 9.22784C36.8239 8.31644 37.3818 7.40505 38.2745 7.40505C39.2788 7.40505 39.7252 8.31644 39.7252 9.22784C39.7252 10.5949 39.0556 11.5063 38.2745 11.5063ZM39.0556 4.3291C38.8325 4.3291 38.4977 4.3291 38.2745 4.3291C37.9398 4.3291 37.7166 4.3291 37.4934 4.3291C35.0385 4.55695 34.0342 6.72151 34.0342 8.99999C34.0342 10.9367 34.4805 13.2152 36.6007 13.8987C37.1586 14.1266 37.7166 14.1266 38.2745 14.1266C38.8325 14.1266 39.3904 14.0126 39.9483 13.8987C42.0685 13.2152 42.5149 10.9367 42.5149 8.99999C42.5149 6.72151 41.5106 4.55695 39.0556 4.3291Z" fill="#1E417C"/>
<path d="M23.3215 4.21507C22.3172 4.21507 21.5361 3.64545 21.5361 2.9619C21.5361 2.27836 22.3172 1.70874 23.3215 1.70874C24.3258 1.70874 25.1069 2.27836 25.1069 2.9619C25.1069 3.64545 24.2142 4.21507 23.3215 4.21507Z" fill="#1E417C"/>
</g>
<defs>
<clipPath id="clip0_2007_793">
<rect width="52" height="18" fill="white"/>
</clipPath>
</defs>
</svg>
