<svg width="104" height="25" viewBox="0 0 104 25" fill="none" xmlns="http://www.w3.org/2000/svg">
<g clip-path="url(#clip0_2007_1577)">
<path d="M24.1769 19.3944C22.6429 19.8288 21.8759 20.3718 19.7939 20.589C18.0408 20.6976 16.3971 20.4804 14.9727 20.046C9.16522 17.9827 5.98756 12.0098 7.9599 6.14556C9.16522 2.56185 10.9184 1.80167 12.7812 0.0641156C8.8365 -0.0444816 5.22054 0.389907 1.38543 0.932894C0.180116 5.05959 0.180116 19.0686 1.38543 23.1953C8.61735 24.0641 16.3971 24.6071 23.7386 23.1953C23.7386 23.0867 24.1769 19.3944 24.1769 19.3944Z" fill="#02AAEA"/>
<path d="M79.6217 6.57994C82.6898 5.60257 84.1143 8.2089 84.6621 10.7066C85.3196 13.7474 84.5526 16.4623 82.0323 17.2225C76.8823 18.96 74.8004 8.1003 79.6217 6.57994ZM89.3738 12.6614C90.6887 1.91026 73.7047 1.15008 72.4994 10.8152C71.8419 15.9193 75.3483 19.2858 79.9504 19.6116C85.1004 20.1546 88.826 17.2225 89.3738 12.6614Z" fill="#1D3034"/>
<path d="M64.172 6.68867C67.788 6.58007 67.021 11.3584 64.172 11.6841V6.68867ZM59.8986 19.3946H64.0625L64.172 13.2045C64.7199 13.8561 65.0486 14.8335 65.4869 15.5936C65.9252 16.4624 66.3635 17.2226 66.8018 18.0914C67.8976 19.8289 70.0891 19.5032 72.938 19.3946C72.7189 18.9602 71.9518 18.3086 71.6231 17.8742C71.1848 17.2226 70.8561 16.7882 70.4178 16.028C69.7603 15.0507 68.555 13.0959 68.1167 12.1185C68.8837 11.5756 70.1986 11.1412 70.6369 9.29501C71.0752 7.55745 70.1986 6.14569 69.322 5.3855C68.1167 4.40813 66.8018 4.40813 65.0486 4.40813C63.5146 4.40813 61.2135 4.29953 59.7891 4.40813L59.8986 19.3946Z" fill="#1D3034"/>
<path d="M50.037 8.5347C50.4753 9.07769 51.4614 12.3356 51.6806 12.8786L48.7221 12.4442L50.037 8.5347ZM43.6816 19.3944L46.3114 19.503L48.3933 13.4216C49.8178 13.7474 51.0231 14.8333 51.7901 15.7021C52.7763 16.8967 53.105 17.9827 53.9816 19.503H58.5838C58.5838 19.0686 53.6529 5.60257 53.105 4.5166H49.0508L43.6816 19.3944Z" fill="#1D3034"/>
<path d="M24.5061 15.9194V14.8334C22.0954 15.5936 20.6709 16.028 18.3699 14.7248C14.2061 12.4443 14.5348 6.90583 17.822 4.62528C20.0135 3.21352 21.5475 3.21352 24.1773 3.8651C24.1773 2.45334 24.0678 2.34474 23.0816 1.91035C22.3146 1.58456 21.7667 1.25877 20.7805 1.15017C15.5209 0.0641966 10.4805 3.75651 10.4805 9.40356C10.3709 16.8968 19.0273 20.6977 24.5061 15.9194Z" fill="#02AAEA"/>
<path d="M41.9283 19.3944C42.257 18.6342 42.6953 17.3311 42.9145 16.4623C40.9421 17.0053 39.0794 17.874 36.8879 16.7881C36.2304 16.4623 35.3538 15.5935 35.0251 14.9419C33.7102 12.5528 34.0389 8.20889 36.2304 6.90572C38.3123 5.60255 40.5038 6.90572 42.1474 7.5573C42.1474 4.40798 42.257 4.40798 41.2708 4.29938C40.8325 4.19079 40.3942 4.19079 40.0655 4.19079C28.5602 2.99622 27.4645 14.3989 32.6145 17.9826C35.3538 19.9374 37.9836 19.9374 41.9283 19.3944Z" fill="#1D3034"/>
<path d="M100.879 17.2224H95.6191L95.5095 4.40796L91.3457 4.51656V19.3944H100.331L100.879 17.2224Z" fill="#1D3034"/>
<path d="M24.506 12.9872L24.3964 7.44874C24.2869 5.60259 24.506 5.60259 22.8624 5.0596C20.2326 4.19082 18.1507 5.81978 17.3837 7.23155C16.1783 9.51209 17.0549 11.7926 18.4794 12.9872C19.2464 13.5302 20.2326 14.0732 21.4379 14.0732C23.0815 14.0732 23.5198 13.5302 24.506 12.9872Z" fill="#02AAEA"/>
<path d="M101.865 5.05949L102.742 5.16809C102.742 5.92827 102.742 5.71108 102.851 6.47126C102.522 6.36266 102.742 6.47126 102.413 6.25406H101.975C101.755 6.57986 102.084 6.25406 101.755 6.47126L101.865 5.05949ZM101.865 4.7337C100.44 5.27669 101.317 7.12284 102.522 6.68845C103.728 6.25406 103.18 4.29931 101.865 4.7337Z" fill="#FAFAFA"/>
<path d="M101.865 4.73368C103.18 4.19069 103.728 6.25404 102.523 6.68843C101.317 7.12282 100.55 5.27666 101.865 4.73368ZM101.865 4.51648C100.002 5.16807 101.208 7.55721 102.632 6.90562C104.276 6.36264 103.399 3.9735 101.865 4.51648Z" fill="#1D3034"/>
<path d="M101.756 6.36269C102.085 6.1455 101.756 6.36269 101.975 6.1455H102.413C102.632 6.36269 102.523 6.2541 102.852 6.36269C102.632 5.71111 102.742 5.81971 102.742 5.05952L101.865 4.95093L101.756 6.36269Z" fill="#1D3034"/>
</g>
<defs>
<clipPath id="clip0_2007_1577">
<rect width="103" height="24" fill="white" transform="translate(0.508789 0.064209)"/>
</clipPath>
</defs>
</svg>
