<svg width="59" height="12" viewBox="0 0 59 12" fill="none" xmlns="http://www.w3.org/2000/svg">
<g clip-path="url(#clip0_2007_932)">
<path d="M58.4992 0.23291L54.3478 6.52417V9.5533C54.3478 11.6504 52.2129 11.8834 52.2129 11.8834V9.78631C52.2129 9.78631 52.2129 7.45621 52.2129 6.52417L48.0615 0.23291H50.6709L53.2803 4.31058L55.8897 0.23291H58.4992Z" fill="#85754E"/>
<path d="M55.6532 10.2524C55.5345 10.3689 55.4159 10.6019 55.4159 10.8349C55.4159 11.0679 55.5345 11.3009 55.6532 11.4174C55.7718 11.6505 56.009 11.6505 56.2462 11.6505C56.4834 11.6505 56.7206 11.534 56.8392 11.4174C56.9579 11.3009 57.0765 11.0679 57.0765 10.8349C57.0765 10.6019 56.9579 10.3689 56.8392 10.2524C56.7206 10.0194 56.4834 10.0194 56.2462 10.0194C56.009 9.90288 55.7718 10.0194 55.6532 10.2524ZM56.9579 11.5339C56.7206 11.767 56.4834 11.8835 56.2462 11.8835C55.8904 11.8835 55.6532 11.767 55.5345 11.5339C55.2973 11.3009 55.1787 11.0679 55.1787 10.8349C55.1787 10.4854 55.2973 10.2524 55.5345 10.0194C55.7718 9.78638 56.009 9.78638 56.2462 9.78638C56.4834 9.78638 56.8392 9.90288 56.9579 10.1359C57.1951 10.3689 57.3137 10.6019 57.3137 10.8349C57.3137 11.0679 57.1951 11.4174 56.9579 11.5339ZM56.3648 10.4854C56.3648 10.4854 56.2462 10.4854 56.1276 10.4854H56.009V10.8349H56.1276C56.2462 10.8349 56.2462 10.8349 56.2462 10.8349L56.3648 10.7184C56.3648 10.4854 56.3648 10.4854 56.3648 10.4854ZM55.7718 11.4174V10.2524C55.8904 10.2524 56.009 10.2524 56.1276 10.2524C56.2462 10.2524 56.3648 10.2524 56.3648 10.2524C56.4834 10.2524 56.4834 10.2524 56.602 10.3689C56.7206 10.3689 56.7206 10.4854 56.7206 10.6019C56.7206 10.7184 56.7206 10.7184 56.602 10.8349C56.602 10.8349 56.4834 10.9514 56.3648 10.9514C56.4834 10.9514 56.4834 10.9514 56.4834 11.0679C56.602 11.0679 56.602 11.1844 56.602 11.3009V11.4174H56.3648V11.3009C56.3648 11.1844 56.3648 11.1844 56.3648 11.1844C56.3648 11.1844 56.3648 11.0679 56.2462 11.0679C56.2462 11.0679 56.2462 11.0679 56.1276 11.0679H56.009H55.8904V11.5339L55.7718 11.4174Z" fill="#85754E"/>
<path d="M6.54863 9.5533C6.54863 11.7669 4.29506 11.8834 4.29506 11.8834V2.09699C3.70201 2.09699 0.618164 2.09699 0.618164 2.09699V0.23291H10.3441V2.09699H6.54863V9.5533Z" fill="#85754E"/>
<path d="M37.3867 10.9516C37.3867 11.6506 36.9122 12.0001 36.3192 12.0001C35.8447 12.0001 35.3703 11.6506 35.1331 11.3011L29.6771 3.96129V10.9516C29.6771 11.5341 29.4398 12.0001 28.6096 12.0001C28.2537 12.0001 27.8979 11.7671 27.6607 11.5341L21.9674 3.96129V10.2525C21.8488 10.9516 21.1372 11.8836 20.0697 11.8836H19.8325H19.7139V1.51468C19.7139 0.582646 20.1883 0.349636 20.5441 0.233132C22.0861 -0.116383 22.6791 1.28168 23.5094 2.44672C24.8141 4.1943 25.8816 5.82536 27.3049 7.80595C27.3049 7.80595 27.3049 1.51469 27.3049 1.28168C27.3049 0.815656 27.6607 0.466141 28.1351 0.233132C28.8468 0.000121832 29.6771 0.000121832 30.1515 0.466141L35.2517 7.80595V1.8642C35.2517 1.16517 36.082 0.233132 37.0308 0.233132H37.2681H37.3867V10.9516Z" fill="#85754E"/>
<path d="M12.1229 6.87369H14.8509C13.5462 3.72806 14.8509 6.87369 13.5462 3.72806L12.1229 6.87369ZM15.7998 8.97077H11.174C10.581 10.0193 10.4624 11.6504 8.92047 11.8834H7.73438L10.8182 4.19407L12.3601 0.23291H14.6137L16.1556 4.19407L19.2395 11.8834H18.0534C16.5115 11.6504 16.3929 10.0193 15.7998 8.97077Z" fill="#85754E"/>
<path d="M39.9963 5.94175C39.9963 8.03883 41.7754 9.78641 43.9104 9.78641C46.0454 9.78641 47.8245 8.03883 47.8245 5.94175C47.8245 3.84466 46.0454 2.09709 43.9104 2.09709C41.7754 2.09709 39.9963 3.84466 39.9963 5.94175ZM37.8613 5.94175C37.8613 2.67961 40.5893 0 43.9104 0C47.2315 0 49.9595 2.67961 49.9595 5.94175C49.9595 9.20388 47.2315 11.8835 43.9104 11.8835C40.5893 12 37.8613 9.32039 37.8613 5.94175Z" fill="#85754E"/>
</g>
<defs>
<clipPath id="clip0_2007_932">
<rect width="58" height="12" fill="white" transform="translate(0.5)"/>
</clipPath>
</defs>
</svg>
