<svg width="126" height="15" viewBox="0 0 126 15" fill="none" xmlns="http://www.w3.org/2000/svg">
<g clip-path="url(#clip0_2007_1617)">
<path d="M68.1423 2.34375H62.8428L65.4925 0C66.4142 0.703125 67.3359 1.52344 68.1423 2.34375Z" fill="#231F20"/>
<path d="M51.4376 2.34375H47.751V8.78906H51.4376V2.34375Z" fill="#231F20"/>
<path d="M65.4927 6.91406L65.6079 6.79688C66.9904 5.39063 68.0272 3.75 69.2945 2.34375H75.6309V8.67188H71.9443V4.21875H71.7139H71.5987L67.2208 8.67188H63.5342L59.1563 4.21875C59.1563 4.21875 59.1563 4.21875 59.0411 4.21875H58.8107V8.67188H55.124V2.34375H61.4604C62.7277 3.75 63.8798 5.39063 65.1471 6.79688L65.4927 6.91406Z" fill="#231F20"/>
<path d="M23.7872 7.26562H31.9669V8.67188H20.1006V2.34375H23.7872V7.26562Z" fill="#231F20"/>
<path d="M108.695 3.75H103.511V8.67188H99.9392V3.75H94.6396V2.34375H108.695V3.75Z" fill="#231F20"/>
<path d="M45.2164 3.75H40.0321V8.67188H36.3455V3.86719H31.1611V2.46094H45.2164V3.75Z" fill="#231F20"/>
<path d="M125.4 3.63281H115.723V4.80469H123.672V6.09375H115.723V7.38281H125.4V8.67188H112.151V2.46094H125.4V3.63281Z" fill="#231F20"/>
<path d="M95.4462 8.78906H91.6443L90.377 7.5H82.8886L81.6213 8.78906H78.2803L84.3863 2.34375H89.1098L95.4462 8.78906ZM86.8056 3.86719H86.2296L84.1558 5.97656H88.8794L86.8056 3.86719Z" fill="#231F20"/>
<path d="M24.0176 13.7109H25.2849C25.2849 13.8281 25.4001 14.0625 25.5153 14.0625C25.6305 14.1797 25.8609 14.1797 26.2065 14.1797C26.4369 14.1797 26.6673 14.1797 26.7826 14.0625C26.8978 13.9453 27.013 13.9453 27.013 13.8281C27.013 13.7109 26.6673 13.4766 26.0913 13.4766C25.9761 13.4766 25.8609 13.4766 25.8609 13.4766C25.2849 13.3594 24.824 13.2422 24.5936 13.125C24.3632 13.0078 24.248 12.7734 24.248 12.5391C24.248 12.1875 24.3632 11.9531 24.7088 11.7187C25.0544 11.4844 25.5153 11.4844 26.2065 11.4844C26.7826 11.4844 27.2434 11.6016 27.589 11.7187C27.9346 11.8359 28.0498 12.1875 28.0498 12.5391H26.8978C26.8978 12.4219 26.7826 12.3047 26.6673 12.3047C26.5521 12.1875 26.3217 12.1875 26.0913 12.1875C25.8609 12.1875 25.6305 12.1875 25.5153 12.3047C25.4001 12.3047 25.2849 12.4219 25.2849 12.5391C25.2849 12.6562 25.5153 12.7734 26.0913 12.8906C26.2065 12.8906 26.3217 12.8906 26.3217 12.8906C26.8978 13.0078 27.3586 13.125 27.589 13.2422C27.7042 13.3594 27.8194 13.4766 27.8194 13.5938C27.9346 13.7109 27.9346 13.8281 27.9346 13.9453C27.9346 14.2969 27.7042 14.5313 27.3586 14.7656C27.013 15 26.4369 15 25.8609 15C25.1697 15 24.7088 14.8828 24.3632 14.7656C24.1328 14.4141 24.0176 14.1797 24.0176 13.7109Z" fill="#231F20"/>
<path d="M36.46 11.3672H37.7272V13.3594C37.7272 13.5937 37.8424 13.8281 37.9577 13.9453C38.1881 14.0625 38.4185 14.1797 38.7641 14.1797C39.1097 14.1797 39.4554 14.0625 39.5706 13.9453C39.801 13.8281 39.801 13.5937 39.801 13.3594V11.3672H41.0683V13.3594C41.0683 13.9453 40.8378 14.2969 40.4922 14.5312C40.1466 14.7656 39.5706 14.8828 38.7641 14.8828C38.4185 14.8828 38.0729 14.8828 37.7272 14.7656C37.3816 14.6484 37.1512 14.6484 37.036 14.5312C36.8056 14.4141 36.6904 14.2969 36.5752 14.0625C36.46 13.8281 36.46 13.5937 36.46 13.3594V11.3672Z" fill="#231F20"/>
<path d="M49.709 14.8828V11.3672H51.8979C52.2435 11.3672 52.474 11.3672 52.7044 11.3672C52.9348 11.3672 53.05 11.4844 53.1652 11.4844C53.3956 11.6016 53.5108 11.7188 53.626 11.8359C53.7412 11.9531 53.7412 12.1875 53.7412 12.4219C53.7412 12.6563 53.7412 12.8906 53.626 13.0078C53.5108 13.125 53.3956 13.2422 53.1652 13.3594C53.05 13.4766 52.8196 13.4766 52.7044 13.4766C52.474 13.4766 52.2435 13.4766 51.7827 13.4766H51.6675H50.9763V14.7656L49.709 14.8828ZM50.8611 12.0703V12.8906H51.5523C51.8979 12.8906 52.1283 12.8906 52.2435 12.7734C52.3588 12.6562 52.474 12.5391 52.474 12.4219C52.474 12.3047 52.3588 12.1875 52.2435 12.0703C52.1283 11.9531 51.8979 11.9531 51.5523 11.9531H50.8611V12.0703Z" fill="#231F20"/>
<path d="M61.9209 14.8828V11.3672H64.1098C64.4555 11.3672 64.6859 11.3672 64.9163 11.3672C65.1467 11.3672 65.2619 11.4844 65.3771 11.4844C65.6075 11.6016 65.7227 11.7188 65.8379 11.8359C65.9532 11.9531 65.9532 12.1875 65.9532 12.4219C65.9532 12.6563 65.9532 12.8906 65.8379 13.0078C65.7227 13.125 65.6075 13.2422 65.3771 13.3594C65.2619 13.4766 65.0315 13.4766 64.9163 13.4766C64.6859 13.4766 64.4555 13.4766 63.9946 13.4766H63.8794H63.1882V14.7656L61.9209 14.8828ZM63.1882 12.0703V12.8906H63.8794C64.225 12.8906 64.4555 12.8906 64.5707 12.7734C64.6859 12.6562 64.8011 12.5391 64.8011 12.4219C64.8011 12.3047 64.6859 12.1875 64.5707 12.0703C64.4555 11.9531 64.225 11.9531 63.8794 11.9531H63.1882V12.0703Z" fill="#231F20"/>
<path d="M76.5521 15C75.7457 15 75.1697 14.8828 74.7088 14.5312C74.248 14.1797 74.0176 13.7109 74.0176 13.2422C74.0176 12.6562 74.248 12.1875 74.7088 11.9531C75.1697 11.6016 75.8609 11.4844 76.6673 11.4844C77.4738 11.4844 78.165 11.6016 78.5107 11.9531C78.9715 12.3047 79.2019 12.6562 79.2019 13.2422C79.2019 13.8281 78.9715 14.2969 78.5107 14.5312C78.0498 14.7656 77.4738 15 76.5521 15ZM75.2849 13.125C75.2849 13.4766 75.4001 13.7109 75.6305 13.9453C75.8609 14.1797 76.2065 14.1797 76.6673 14.1797C77.1282 14.1797 77.4738 14.0625 77.7042 13.9453C77.9346 13.7109 78.0498 13.4766 78.0498 13.125C78.0498 12.7734 77.9346 12.4219 77.7042 12.3047C77.4738 12.0703 77.1282 11.9531 76.6673 11.9531C76.2065 11.9531 75.9761 12.0703 75.7457 12.3047C75.4001 12.5391 75.2849 12.7734 75.2849 13.125Z" fill="#231F20"/>
<path d="M87.6123 14.8828V11.3672H89.9165C90.2621 11.3672 90.4925 11.3672 90.7229 11.3672C90.9533 11.3672 91.0685 11.4844 91.1837 11.4844C91.4142 11.6016 91.5294 11.6016 91.6446 11.7188C91.7598 11.8359 91.7598 11.9531 91.7598 12.1875C91.7598 12.4219 91.6446 12.6562 91.4142 12.7734C91.1837 12.8906 90.9533 13.0078 90.4925 13.125C90.8381 13.125 90.9533 13.125 91.1837 13.2422C91.2989 13.3594 91.4141 13.3594 91.5294 13.5938C91.5294 13.7109 91.6446 13.8281 91.6446 14.1797C91.6446 14.5313 91.7598 14.7656 91.875 15H90.6077C90.6077 14.8828 90.4925 14.7656 90.4925 14.6484V14.0625C90.4925 13.8281 90.3773 13.7109 90.2621 13.7109C90.1469 13.7109 89.9165 13.5938 89.5708 13.5938H88.8796V14.8828H87.6123ZM88.7644 12.0703V12.8906H89.5708C89.9165 12.8906 90.1469 12.8906 90.2621 12.7734C90.3773 12.6562 90.4925 12.6563 90.4925 12.4219C90.4925 12.3047 90.3773 12.1875 90.2621 12.0703C90.1469 12.0703 89.9165 11.9531 89.4556 11.9531L88.7644 12.0703Z" fill="#231F20"/>
<path d="M101.437 14.8828V12.1875H99.8242V11.3672H104.317V12.1875H102.704V14.8828H101.437Z" fill="#231F20"/>
<path d="M12.8428 8.67188C14.2253 8.67188 15.8382 8.20312 15.8382 7.26562V2.34375H12.2668V6.91406C12.2668 7.14844 12.0363 7.38281 11.6907 7.38281H4.77827C4.43265 7.38281 4.08703 7.14844 4.08703 6.91406V2.34375H0.400391V7.26562C0.400391 8.20312 2.01329 8.67188 3.39578 8.67188H12.8428Z" fill="#231F20"/>
<path d="M105.124 12.1875C105.124 11.7187 105.47 11.3672 105.93 11.3672C106.391 11.3672 106.737 11.7187 106.737 12.1875C106.737 12.6562 106.391 13.0078 105.93 13.0078C105.47 13.0078 105.124 12.6562 105.124 12.1875ZM106.622 12.1875C106.622 11.7187 106.276 11.4844 105.93 11.4844C105.47 11.4844 105.239 11.8359 105.239 12.1875C105.239 12.6562 105.585 12.8906 105.93 12.8906C106.391 12.8906 106.622 12.6562 106.622 12.1875ZM106.391 12.6563H106.276L106.046 12.1875H105.815V12.6563H105.7V11.7188H106.161C106.391 11.7188 106.507 11.8359 106.507 11.9531C106.507 12.1875 106.391 12.1875 106.161 12.1875L106.391 12.6563ZM105.93 12.1875C106.046 12.1875 106.276 12.1875 106.276 12.0703C106.276 11.9531 106.161 11.9531 106.046 11.9531H105.815V12.3047L105.93 12.1875Z" fill="#231F20"/>
</g>
<defs>
<clipPath id="clip0_2007_1617">
<rect width="125" height="15" fill="white" transform="translate(0.400391)"/>
</clipPath>
</defs>
</svg>
