<svg width="70" height="24" viewBox="0 0 70 24" fill="none" xmlns="http://www.w3.org/2000/svg">
<g clip-path="url(#clip0_2007_1001)">
<path d="M68.9991 16.3298C68.6234 16.3298 68.1225 16.701 67.872 16.8247C67.3711 17.1958 66.745 17.8144 65.8684 17.8144C64.9918 17.8144 66.1189 16.4536 66.2441 16.2061L68.373 13.1133C68.4982 12.9896 68.4982 12.8659 68.6234 12.7422C68.7486 12.6185 68.7486 12.4948 68.8739 12.3711C68.9991 12.2474 69.3748 11.7525 69.3748 11.6288C69.3748 11.5051 69.2495 11.3814 69.1243 11.3814H66.9955C66.745 11.3814 66.4946 11.8762 66.3693 11.9999C66.3693 11.9999 66.2441 12.2474 66.1189 12.2474L65.8684 11.8762C65.2423 11.0103 63.7396 11.2577 62.863 11.6288C62.4873 11.7525 61.9864 11.9999 61.6107 12.2474C60.2332 13.1133 59.3566 14.103 58.3548 15.3402C58.2296 15.4639 58.1044 15.7113 57.9791 15.835C57.7287 16.2061 57.4782 16.5773 57.2278 16.8247C56.9773 17.0721 56.1007 17.6907 55.5998 17.3195C55.5998 17.1958 55.4746 17.1958 55.4746 17.1958C55.2241 16.4536 56.226 15.2164 56.7269 14.7216C56.8521 14.5979 56.8521 14.4742 56.9773 14.4742C57.2278 14.2268 57.353 13.9793 57.6034 13.7319C57.9791 13.3608 58.9809 12.4948 59.2314 11.9999C59.3566 11.8762 59.4818 11.7525 59.4818 11.5051C59.4818 11.3814 59.3566 11.3814 59.2314 11.3814C59.1062 11.3814 58.7305 11.5051 58.6053 11.5051C58.1044 11.6288 57.6034 11.6288 57.2278 11.7525C56.9773 11.7525 56.3512 11.7525 56.1007 11.7525H55.3494C54.8485 11.7525 54.4728 11.6288 53.9719 11.5051C53.471 11.3814 53.5962 11.2577 53.0953 12.1237C52.8448 12.7422 52.4691 13.4845 52.0935 13.9793C51.5926 14.5979 51.2169 15.3402 50.716 15.9587L50.3403 16.4536C50.2151 16.5773 50.0898 16.701 49.9646 16.8247C49.9646 16.8247 49.8394 16.8247 49.8394 16.9484L49.4637 17.1958C48.7123 17.6907 47.961 18.0618 46.8339 18.0618C45.206 18.0618 45.7069 16.701 45.8321 16.5773C45.9573 16.5773 46.2078 16.4536 46.333 16.4536C47.0844 16.2061 47.961 15.9587 48.7123 15.5876C49.4637 15.2164 50.2151 14.7216 50.8412 14.103C51.0917 13.8556 51.3421 13.6082 51.5926 13.2371C52.4691 11.8762 51.3421 11.0103 50.0898 11.0103C48.9628 11.0103 48.0862 11.2577 47.2096 11.7525C46.5835 11.9999 45.7069 12.6185 45.206 13.1133L44.8303 13.4845C44.7051 13.6082 44.5798 13.7319 44.4546 13.8556C44.3294 13.9793 44.3294 13.9793 44.3294 13.9793C44.0789 14.2268 43.4528 14.969 43.3276 15.3402C42.9519 15.3402 42.5762 15.3402 42.2005 15.3402C42.3258 15.0927 44.5799 11.8762 44.5799 11.6288C44.5799 11.5051 44.4546 11.3814 44.3294 11.3814H42.2005C41.6996 11.3814 41.5744 11.9999 41.324 12.2474C41.1987 11.8762 41.0735 11.7525 40.823 11.5051C39.5708 10.6391 37.1915 11.8762 36.3149 12.6185C36.0644 12.8659 35.814 12.9896 35.5635 13.2371L34.5617 14.2268C34.4365 14.3505 34.4365 14.3505 34.3113 14.4742C34.186 14.5979 34.186 14.5979 34.0608 14.7216L33.6851 15.2164C33.3094 15.7113 32.9338 16.0824 32.5581 16.5773C32.3076 16.9484 32.0572 17.3195 31.6815 17.567C31.431 17.6907 30.9301 17.9381 30.5544 17.6907C30.0535 17.3195 31.0554 16.2061 31.1806 15.835L33.059 13.1133C33.1842 12.8659 33.9356 11.7525 33.9356 11.7525C33.9356 11.6288 33.8103 11.5051 33.5599 11.5051H31.431C31.1806 11.5051 31.0554 11.6288 30.9301 11.7525C30.6797 12.1237 30.304 12.7422 30.0535 13.1133L27.6742 16.5773C27.4238 16.9484 26.422 17.6907 25.7958 17.6907C25.2949 17.6907 25.0445 17.4432 25.1697 16.9484C25.2949 16.701 25.4201 16.3298 25.6706 16.0824L28.1751 12.3711C28.3004 12.2474 28.676 11.7525 28.676 11.6288C28.676 11.3814 28.4256 11.3814 28.1751 11.3814H22.6652C22.5399 11.134 22.4147 10.0206 21.4129 9.40201C21.0372 9.2783 20.912 9.2783 20.6615 9.15459C21.0372 9.03087 22.1642 8.53603 22.5399 8.28861C22.9156 8.04118 23.4165 7.79376 23.7922 7.54634L24.6688 6.92778C24.794 6.92778 24.794 6.80407 24.9192 6.80407C25.9211 5.93809 27.1733 4.57727 27.1733 3.21644C27.1733 1.97933 26.5472 1.36077 25.5454 0.742214C24.9192 0.37108 24.0427 0.123657 23.2913 0.123657C22.9156 0.123657 22.5399 0.123657 22.1642 0.123657H21.5381C21.2877 0.123657 20.912 0.123657 20.6615 0.123657C18.9083 0.247369 16.2786 0.742214 14.6506 1.23706C14.1497 1.23706 13.6488 1.48448 13.0227 1.7319C12.8975 1.7319 12.8975 1.7319 12.7722 1.85562L11.8956 2.10304C11.7704 2.22675 11.6452 2.22675 11.3947 2.35046C11.2695 2.35046 11.1443 2.47417 11.0191 2.47417C10.7686 2.59788 10.6434 2.59788 10.5181 2.7216C10.3929 2.7216 10.3929 2.7216 10.2677 2.84531L8.01361 4.08242C7.88838 4.20613 7.76316 4.20613 7.63793 4.32984C7.38748 4.45355 7.0118 4.70098 6.76134 4.82469C6.63612 4.9484 6.63612 5.07211 6.51089 5.07211C5.6343 5.69067 4.75771 6.43294 4.13158 7.29892C3.88113 7.54634 3.7559 7.67005 3.50544 8.04118C3.12976 8.53603 2.87931 9.03087 2.62886 9.64943C2.25318 10.5154 2.12795 11.8762 3.00454 12.6185C3.50544 13.1133 4.00635 13.3608 4.75771 13.4845C4.88294 13.4845 5.13339 13.4845 5.38385 13.6082C5.6343 13.6082 5.75953 13.6082 6.00998 13.6082C6.13521 13.6082 6.13521 13.6082 6.26044 13.6082H7.13702C8.01361 13.4845 8.8902 13.2371 9.76679 12.9896C9.89201 12.9896 9.89201 12.9896 10.0172 12.8659C10.1425 12.8659 10.1425 12.7422 10.2677 12.7422C10.2677 12.8659 10.1425 12.8659 10.1425 12.9896C10.0172 13.1133 10.0172 13.1133 10.0172 13.2371C10.0172 13.3608 9.89201 13.3608 9.89201 13.4845C9.51633 13.9793 9.01543 14.5979 8.63975 15.0927L7.88838 15.9587C7.76316 16.0824 7.76316 16.0824 7.63793 16.2061C7.26225 16.701 6.76134 17.0721 6.38566 17.4432L5.50907 17.8144C4.63249 18.4329 3.88112 18.6804 2.75408 18.6804C2.3784 18.6804 1.8775 18.5566 1.8775 18.1855C1.8775 17.8144 2.25318 18.0618 2.25318 17.567C2.25318 17.4432 2.12795 17.3195 2.00272 17.3195C1.62704 17.0721 1.00091 17.1958 0.750454 17.4432C0.625227 17.4432 0.5 17.6907 0.5 17.9381V18.1855C0.5 18.5566 0.625227 18.8041 0.875681 19.0515C1.00091 19.2989 1.25136 19.4226 1.50181 19.5463C2.50363 20.1649 4.13158 20.1649 5.13339 19.67L5.88476 19.4226C6.38566 19.1752 6.76134 19.0515 7.26225 18.8041C7.5127 18.6804 8.8902 17.8144 9.14065 17.567C9.64156 17.9381 9.64156 18.0618 10.3929 18.4329C10.3929 18.5566 10.3929 18.5566 10.5181 18.5566C10.6434 18.5566 10.7686 18.6804 10.7686 18.6804C11.2695 18.9278 11.8956 19.0515 12.5218 19.1752C13.1479 19.2989 13.8993 19.4226 14.5254 19.2989C14.9011 19.2989 15.402 19.1752 15.7777 19.0515C16.6543 18.8041 17.6561 18.4329 18.4074 17.9381L19.9102 16.8247L20.5363 16.2061C21.0372 15.7113 21.7886 14.7216 22.1642 13.9793C22.2895 13.6082 22.6652 12.9896 22.6652 12.6185H24.6688C24.794 12.6185 24.9192 12.7422 24.9192 12.8659C24.9192 13.1133 24.2931 13.8556 24.0426 14.103L23.5417 14.8453C23.0408 15.4639 22.4147 16.3298 22.4147 17.0721C22.4147 17.4432 22.4147 17.8144 22.6652 18.1855C23.1661 18.9278 23.9174 19.1752 24.794 19.1752C25.0445 19.1752 25.5454 19.0515 25.6706 19.0515C26.422 18.8041 27.1733 18.5566 27.7995 18.0618C28.0499 18.3092 28.4256 18.5566 28.676 18.8041C29.6779 19.2989 30.9301 19.1752 31.8067 18.6804C32.5581 18.3092 32.6833 17.9381 32.8085 17.8144C32.8085 17.9381 32.9338 18.0618 33.059 18.1855C33.059 18.1855 33.1842 18.1855 33.1842 18.3092C33.3094 18.4329 33.5599 18.5566 33.8103 18.6804C34.6869 19.0515 35.6887 19.1752 36.5653 18.8041C36.6906 18.8041 36.8158 18.6804 36.941 18.6804L36.8158 19.4226C36.5653 19.7938 36.3149 20.2886 35.9392 20.6597C35.4383 21.2783 34.9374 21.7731 34.186 22.1443C33.4347 22.6391 32.4328 22.8865 31.5563 22.5154C31.431 22.5154 31.3058 22.3917 31.3058 22.3917C31.0554 22.1443 31.1806 22.0206 31.3058 21.8969C31.5563 21.7731 31.5563 21.402 31.431 21.2783L31.3058 21.1546C30.8049 20.9072 29.9283 21.0309 29.9283 22.1443C29.9283 22.5154 30.0535 23.0103 30.4292 23.2577C30.9301 23.6288 31.5563 23.8762 32.1824 23.8762H32.9338C33.8103 23.8762 34.5617 23.6288 35.1878 23.2577C35.4383 23.134 35.5635 23.0103 35.814 22.8865C36.3149 22.5154 36.941 22.1443 37.4419 21.6494L38.0681 21.0309C38.1933 20.9072 38.1933 20.9072 38.3185 20.7835L39.1951 19.67C39.4456 19.2989 41.0735 16.9484 41.1987 16.8247C41.324 16.8247 41.4492 16.8247 41.5744 16.8247L42.9519 16.701C42.9519 17.3195 43.0771 17.8144 43.4528 18.1855C43.7033 18.4329 43.9537 18.6804 44.3294 18.9278C45.4564 19.5463 47.2096 19.67 48.5871 19.2989C48.8376 19.2989 49.088 19.1752 49.2132 19.0515L49.8394 18.8041C50.3403 18.5566 50.8412 18.3092 51.3421 17.9381C51.3421 17.9381 51.4673 17.9381 51.4673 17.8144C51.9682 17.4432 52.3439 16.9484 52.5944 16.4536L52.9701 15.9587C53.0953 15.835 53.2205 15.5876 53.3457 15.4639C53.471 15.3402 53.471 15.3402 53.471 15.2164L54.4728 13.6082C54.598 13.4845 54.598 13.4845 54.598 13.3608C54.9737 13.3608 55.3494 13.3608 55.725 13.3608C55.9755 13.3608 56.1007 13.3608 56.226 13.3608C56.226 13.3608 56.1007 13.4845 55.9755 13.6082L55.5998 13.9793C55.3494 14.3505 55.0989 14.5979 54.7232 14.969C54.0971 15.7113 53.3457 16.701 53.3457 17.6907C53.3457 18.3092 53.7214 18.8041 54.2223 19.0515C55.2241 19.67 56.6016 19.1752 57.4782 18.5566C57.6034 18.4329 57.6034 18.4329 57.7287 18.3092C57.8539 18.3092 57.8539 18.4329 57.8539 18.5566C58.7305 19.67 60.4837 19.67 61.6107 19.1752C61.9864 19.0515 62.2368 18.9278 62.4873 18.6804C62.6125 18.5566 62.6125 18.5566 62.7377 18.4329C62.7377 19.2989 63.99 19.4226 64.6161 19.4226C65.618 19.4226 66.6198 19.1752 67.3711 18.6804C67.7468 18.4329 68.1225 18.1855 68.373 17.9381C68.4982 17.8144 69.1243 17.1958 69.1243 16.9484C69.5 16.5773 69.3748 16.3298 68.9991 16.3298ZM46.9592 14.3505C47.0844 14.2268 47.0844 14.103 47.2096 13.8556C47.3348 13.7319 47.3348 13.6082 47.4601 13.4845C47.5853 13.3608 47.8358 12.9896 47.961 12.8659C48.4619 12.3711 49.088 12.1237 49.8394 12.1237C50.0898 12.1237 50.3403 12.2474 50.3403 12.4948C50.3403 12.7422 50.2151 12.9896 50.0898 13.1133C49.9646 13.3608 49.8394 13.3608 49.5889 13.4845C49.2132 13.7319 48.9628 13.8556 48.4619 14.103C48.2114 14.2268 47.5853 14.4742 47.2096 14.5979L46.7087 14.8453C46.7087 14.7216 46.8339 14.4742 46.9592 14.3505ZM8.26406 11.5051C7.5127 11.5051 6.88657 11.5051 6.38566 11.0103C6.00998 10.7628 5.75953 10.268 5.75953 9.77314C5.75953 8.28861 7.63793 6.55665 8.51452 5.93809C8.63975 5.81438 8.63975 5.81438 8.76497 5.81438C8.8902 5.69067 8.8902 5.69067 9.01543 5.69067C9.01543 5.56696 9.14065 5.56696 9.26588 5.44325C9.39111 5.44325 9.39111 5.31953 9.51633 5.31953C9.64156 5.19582 9.64156 5.19582 9.76679 5.19582L11.0191 4.45355C11.1443 4.45355 11.1443 4.32984 11.2695 4.32984C11.3947 4.32984 11.3947 4.20613 11.52 4.20613C13.1479 3.21644 14.5254 2.84531 16.2786 2.22675C17.1552 1.97933 18.5327 1.60819 19.5345 1.48448C20.4111 1.36077 21.4129 1.23706 22.4147 1.23706H22.039C21.0372 1.85562 20.912 1.85562 19.9102 2.47417L17.5309 4.32984C17.4056 4.45355 17.4056 4.45355 17.2804 4.45355L16.2786 5.44325L15.2768 6.55665C14.7759 7.1752 14.1497 7.79376 13.6488 8.41232C13.5236 8.53603 13.3984 8.65974 13.2731 8.78345L13.0227 9.40201C12.8975 9.40201 12.8975 9.52572 12.8975 9.52572L12.0209 10.6391C12.0209 10.7628 11.8956 10.7628 11.8956 10.8865C11.52 11.134 11.6452 11.134 11.0191 11.2577C10.2677 11.3814 9.26588 11.5051 8.26406 11.5051ZM19.4093 13.3608C19.0336 14.3505 18.4074 14.969 17.6561 15.7113L17.5309 15.835C17.4056 15.9587 17.4056 15.9587 17.2804 15.9587C16.1534 16.8247 14.6506 17.4432 13.1479 17.4432C12.2713 17.4432 11.6452 17.3195 10.8938 16.9484L10.3929 16.5773C10.3929 16.4536 10.6434 16.3298 10.8938 16.0824L11.3947 15.7113C11.7704 15.3402 12.1461 14.969 12.5218 14.7216L15.0263 11.9999C15.0263 11.9999 15.0263 11.8762 15.1515 11.8762L15.7777 11.134C15.6524 11.134 15.6524 11.134 15.7777 11.0103C15.9029 10.8865 16.6543 9.77314 16.7795 9.77314C16.9047 9.77314 17.6561 9.77314 17.9065 9.77314C19.1588 9.77314 19.7849 10.268 19.7849 11.5051C19.7849 12.1237 19.6597 12.8659 19.4093 13.3608ZM18.0318 8.1649C18.157 7.91747 18.5327 7.42263 18.6579 7.29892L19.6597 5.93809C19.7849 5.81438 19.9102 5.69067 20.0354 5.44325L21.0372 4.08242C21.5381 3.58757 21.5381 3.46386 22.1642 2.84531C22.2895 2.7216 22.4147 2.59788 22.5399 2.47417C23.0408 2.10304 23.4165 1.7319 23.9174 1.48448C24.794 2.35046 24.6688 3.21644 24.1679 4.20613C24.0426 4.45355 23.9174 4.57727 23.667 4.9484C23.4165 5.19582 23.4165 5.19582 23.2913 5.44325L23.0408 5.69067C22.7904 5.93809 22.6652 5.93809 22.4147 6.30922C22.039 6.55665 21.6633 6.80407 21.2877 7.05149C21.1624 7.1752 20.912 7.1752 20.7868 7.29892C20.1606 7.67005 18.7831 8.1649 18.0318 8.1649ZM38.569 16.0824C38.4437 16.2061 38.4437 16.3298 38.3185 16.4536L38.0681 16.701C37.9428 16.8247 37.5672 17.1958 37.4419 17.3195C37.1915 17.4432 36.941 17.6907 36.5653 17.6907C36.1897 17.6907 35.9392 17.4432 35.9392 17.0721C35.9392 16.4536 36.3149 15.835 36.5653 15.3402C36.6906 15.2164 36.6906 15.0927 36.8158 14.969C37.3167 14.2268 38.8194 12.4948 39.696 12.4948C40.0717 12.4948 40.3221 12.7422 40.1969 13.1133C40.1969 13.9793 39.1951 15.3402 38.569 16.0824ZM64.4909 14.4742C64.4909 14.4742 64.4909 14.5979 64.3657 14.5979C64.3657 14.7216 64.2405 14.7216 64.2405 14.7216C63.99 15.0927 63.3639 15.9587 62.9882 16.2061C62.6125 16.701 62.1116 17.1958 61.4855 17.4432C60.7341 17.6907 60.3584 17.4432 60.4837 16.5773C60.6089 15.835 61.7359 14.4742 62.2368 13.9793L62.6125 13.6082L62.7377 13.4845C62.9882 13.2371 63.4891 12.6185 63.99 12.6185C64.2405 12.6185 64.4909 12.6185 64.6161 12.8659C65.2423 13.3608 64.7414 14.103 64.4909 14.4742Z" fill="#F94B05"/>
</g>
<defs>
<clipPath id="clip0_2007_1001">
<rect width="69" height="24" fill="white" transform="translate(0.5)"/>
</clipPath>
</defs>
</svg>
