<svg width="61" height="21" viewBox="0 0 61 21" fill="none" xmlns="http://www.w3.org/2000/svg">
<g clip-path="url(#clip0_2007_2046)">
<path d="M53.7676 0.355469H53.2432V3.09231H53.7676V0.355469Z" fill="black"/>
<path d="M56.1009 0.810903L55.0547 3.33838L55.539 3.54027L56.5852 1.0128L56.1009 0.810903Z" fill="black"/>
<path d="M58.5436 2.44996L56.6113 4.38135L56.9815 4.75424L58.9137 2.82285L58.5436 2.44996Z" fill="black"/>
<path d="M60.2717 4.80329L57.749 5.84302L57.9483 6.32986L60.471 5.29013L60.2717 4.80329Z" fill="black"/>
<path d="M58.1808 7.62823L58.1787 8.15454L60.906 8.16534L60.9081 7.63902L58.1808 7.62823Z" fill="black"/>
<path d="M57.8671 9.48642L57.6641 9.97168L60.1786 11.0314L60.3817 10.5461L57.8671 9.48642Z" fill="black"/>
<path d="M56.9209 11.0937L56.5479 11.4636L58.4649 13.4103L58.8379 13.0404L56.9209 11.0937Z" fill="black"/>
<path d="M55.4166 12.1437L54.9307 12.3418L55.9569 14.8775L56.4429 14.6794L55.4166 12.1437Z" fill="black"/>
<path d="M53.0782 12.6172L53.0566 15.354L53.5811 15.3582L53.6026 12.6213L53.0782 12.6172Z" fill="black"/>
<path d="M51.2819 12.0855L50.2158 14.6045L50.6985 14.8102L51.7646 12.2912L51.2819 12.0855Z" fill="black"/>
<path d="M49.8106 10.9489L47.8633 12.865L48.2305 13.2408L50.1777 11.3247L49.8106 10.9489Z" fill="black"/>
<path d="M48.9489 9.32596L46.418 10.3457L46.6134 10.8341L49.1443 9.81438L48.9489 9.32596Z" fill="black"/>
<path d="M45.9457 7.47593L45.9395 8.0022L48.6665 8.03458L48.6727 7.50832L45.9457 7.47593Z" fill="black"/>
<path d="M46.6971 4.62184L46.4902 5.10547L48.9963 6.18515L49.2032 5.70152L46.6971 4.62184Z" fill="black"/>
<path d="M48.4238 2.25458L48.0479 2.62158L49.9496 4.58335L50.3255 4.21635L48.4238 2.25458Z" fill="black"/>
<path d="M50.9376 0.786014L50.4502 0.980225L51.4566 3.52385L51.944 3.32964L50.9376 0.786014Z" fill="black"/>
<path d="M54.6067 0.460693L55.2361 0.565957L54.2921 5.09227L53.7676 4.98701L54.6067 0.460693Z" fill="black"/>
<path d="M57.4388 1.51343L57.8584 1.82922L55.3409 5.72395L54.8164 5.40816L57.4388 1.51343Z" fill="black"/>
<path d="M59.537 3.51343L59.8517 3.93448L56.0754 6.56606L55.7607 6.14501L59.537 3.51343Z" fill="black"/>
<path d="M60.7956 6.14502L60.9005 6.67134L56.3901 7.72397L56.2852 7.19765L60.7956 6.14502Z" fill="black"/>
<path d="M60.9 9.09231L60.7951 9.61863L56.1797 8.88179L56.2846 8.35547L60.9 9.09231Z" fill="black"/>
<path d="M59.8511 11.8293L59.6413 12.2503L55.6553 9.82926L55.97 9.4082L59.8511 11.8293Z" fill="black"/>
<path d="M57.8588 13.9345L57.4392 14.3555L54.7119 10.566L55.1315 10.2502L57.8588 13.9345Z" fill="black"/>
<path d="M52.2989 15.408L51.7744 15.3027L52.6136 10.6711L53.138 10.7764L52.2989 15.408Z" fill="black"/>
<path d="M49.5714 14.3555L49.0469 14.0398L51.5644 10.145L52.0888 10.4608L49.5714 14.3555Z" fill="black"/>
<path d="M47.4739 12.3554L47.1592 11.9343L50.9354 9.30273L51.2501 9.72379L47.4739 12.3554Z" fill="black"/>
<path d="M46.2152 9.72393L46.1104 9.19761L50.6208 8.25024L50.7257 8.77656L46.2152 9.72393Z" fill="black"/>
<path d="M46.1104 6.77656L46.2152 6.25024L50.7257 7.09235L50.6208 7.61867L46.1104 6.77656Z" fill="black"/>
<path d="M47.0537 4.03971L47.3684 3.61865L51.2495 6.14497L50.9348 6.56602L47.0537 4.03971Z" fill="black"/>
<path d="M49.0469 1.82922L49.4665 1.51343L52.0888 5.40816L51.6693 5.72395L49.0469 1.82922Z" fill="black"/>
<path d="M51.6699 0.671181L52.1944 0.565918L53.2433 5.09223L52.614 5.1975L51.6699 0.671181Z" fill="black"/>
<path d="M55.2361 15.1975L54.7116 15.3027L53.7676 10.7764L54.2921 10.6711L55.2361 15.1975Z" fill="black"/>
<path d="M53.4524 8.67127C53.9159 8.67127 54.2916 8.29425 54.2916 7.82917C54.2916 7.36408 53.9159 6.98706 53.4524 6.98706C52.989 6.98706 52.6133 7.36408 52.6133 7.82917C52.6133 8.29425 52.989 8.67127 53.4524 8.67127Z" fill="black"/>
<path d="M1.32031 1.51343C1.32031 2.03974 1.32031 14.5661 1.32031 15.0924C1.73989 15.0924 7.19444 15.0924 7.19444 15.0924C10.1315 15.0924 17.0546 14.3555 17.0546 7.3029C17.0546 3.51343 14.5371 1.51343 9.71192 1.51343C9.71192 1.51343 1.84479 1.51343 1.32031 1.51343ZM6.25038 12.6713V3.72395H8.24339C10.4462 3.72395 11.7049 5.40816 11.7049 8.56606C11.7049 12.2503 9.39723 12.9871 7.40423 12.9871H6.35528L6.25038 12.6713Z" fill="black"/>
<path d="M19.3623 1.51343C19.3623 2.03974 19.3623 14.5661 19.3623 15.0924C19.7819 15.0924 23.8728 15.0924 24.2924 15.0924C24.2924 14.5661 24.2924 9.93448 24.2924 9.93448H25.5511C30.691 9.93448 32.5791 6.77659 32.5791 4.88185C32.5791 2.14501 30.1665 1.51343 28.1735 1.51343C28.1735 1.51343 19.8868 1.51343 19.3623 1.51343ZM24.2924 7.51343V3.72395H25.1315C26.705 3.72395 27.5441 4.35553 27.5441 5.51343C27.5441 6.98711 26.0756 7.82922 24.8168 7.82922H24.2924V7.51343Z" fill="black"/>
<path d="M36.0401 1.51343C35.9352 1.82922 31.0051 14.3555 30.6904 15.0924C31.2149 15.0924 32.9981 15.0924 33.3128 15.0924C33.4177 14.7766 34.3618 12.2503 34.3618 12.2503H39.7114C39.7114 12.2503 40.6555 14.7766 40.7604 15.0924C41.075 15.0924 45.3757 15.0924 46.11 15.0924C45.7953 14.3555 40.7604 1.82922 40.6555 1.51343C40.2359 1.51343 36.3548 1.51343 36.0401 1.51343ZM35.3058 9.93448L36.9841 5.3029L38.7674 10.3555H35.2009L35.3058 9.93448Z" fill="black"/>
<path d="M2.8934 20.2502H2.47382L1.84445 18.3555L1.21508 20.2502H0.900391L1.73955 17.6187H2.15913L2.7885 19.6187L3.31298 17.6187H3.73256L4.57172 20.2502H4.04724L3.52277 18.3555L2.8934 20.2502Z" fill="black"/>
<path d="M7.92871 17.6187H8.45319V20.2502H7.92871V17.6187Z" fill="black"/>
<path d="M13.4873 17.8292C12.7531 17.8292 12.3335 18.145 12.3335 18.7765C12.3335 19.6187 13.0677 20.0397 13.5922 20.0397C13.802 20.0397 14.0118 20.0397 14.1167 19.9344V20.2502C14.0118 20.2502 13.802 20.3555 13.4873 20.3555C12.5433 20.3555 11.7041 19.8292 11.7041 18.8818C11.7041 18.145 12.2286 17.6187 13.3824 17.6187C13.6971 17.6187 14.0118 17.6187 14.1167 17.6187V17.9344C14.1167 17.9344 13.802 17.8292 13.4873 17.8292Z" fill="black"/>
<path d="M18.1036 20.2502H17.5791V17.6187H18.7329C19.4672 17.6187 19.5721 17.9344 19.5721 18.2502C19.5721 18.7765 19.0476 18.9871 18.8378 18.9871L19.7819 20.2502H19.1525L18.3134 19.0923H18.1036V20.2502ZM19.0476 18.3555C19.0476 18.0397 18.7329 17.9344 18.5232 17.9344H18.2085V18.7765H18.5232C18.6281 18.7765 19.0476 18.6713 19.0476 18.3555Z" fill="black"/>
<path d="M25.8656 18.8817C25.8656 19.5133 25.3411 20.3554 24.2922 20.3554C23.2432 20.3554 22.7188 19.5133 22.7188 18.8817C22.7188 18.0396 23.453 17.6186 24.2922 17.6186C25.1313 17.5133 25.8656 17.9344 25.8656 18.8817ZM24.2922 20.0396C24.9215 20.0396 25.2362 19.3028 25.2362 18.8817C25.2362 18.1449 24.8167 17.9344 24.2922 17.9344C23.7677 17.9344 23.3481 18.2502 23.3481 18.8817C23.3481 19.408 23.6628 20.0396 24.2922 20.0396Z" fill="black"/>
<path d="M29.8516 19.1976V20.2502H29.3271V17.6187H30.3761C31.0055 17.6187 31.2153 17.9344 31.2153 18.3555C31.2153 18.8818 30.7957 19.1976 30.0614 19.1976H29.8516ZM30.6908 18.3555C30.6908 17.9344 30.3761 17.8292 30.1663 17.8292H29.8516V18.7765H29.9565C30.1663 18.8818 30.6908 18.8818 30.6908 18.3555Z" fill="black"/>
<path d="M36.5643 19.0923H35.0958V20.2502H34.5713V17.6187H35.0958V18.7765H36.5643V17.6187H37.0888V20.2502H36.5643V19.0923Z" fill="black"/>
<path d="M43.5931 18.8817C43.5931 19.5133 43.0687 20.3554 42.0197 20.3554C40.9708 20.3554 40.4463 19.5133 40.4463 18.8817C40.4463 18.0396 41.1806 17.6186 42.0197 17.6186C42.754 17.5133 43.5931 17.9344 43.5931 18.8817ZM42.0197 20.0396C42.6491 20.0396 42.9638 19.3028 42.9638 18.8817C42.9638 18.1449 42.5442 17.9344 42.0197 17.9344C41.4952 17.9344 41.0757 18.2502 41.0757 18.8817C41.0757 19.408 41.3903 20.0396 42.0197 20.0396Z" fill="black"/>
<path d="M48.9422 19.5134V17.6187H49.2569V20.2502H48.8373L47.2639 18.3555V20.2502H46.9492V17.6187H47.3688L48.9422 19.5134Z" fill="black"/>
<path d="M54.7114 20.2502H52.8232V17.6187H54.7114V17.9344H53.3477V18.7765H54.7114V19.0923H53.3477V20.0397H54.7114V20.2502Z" fill="black"/>
<path d="M59.1167 17.5134C59.3265 17.5134 59.6412 17.5134 59.851 17.6187V17.9345C59.3265 17.8292 58.5923 17.724 58.5923 18.2503C58.5923 18.5661 58.9069 18.5661 59.1167 18.6713C59.4314 18.7766 59.9559 18.7766 59.9559 19.4082C59.9559 19.8292 59.5363 20.3555 58.8021 20.3555C58.4874 20.3555 58.0678 20.2503 57.9629 20.2503V19.8292C58.1727 19.9345 58.3825 20.0397 58.6972 20.0397C59.0118 20.0397 59.3265 19.8292 59.3265 19.5134C59.3265 19.0924 58.6972 19.1976 58.2776 18.9871C57.9629 18.7766 57.9629 18.5661 57.9629 18.3555C57.9629 17.9345 58.2776 17.5134 59.1167 17.5134Z" fill="black"/>
</g>
<defs>
<clipPath id="clip0_2007_2046">
<rect width="60" height="20" fill="white" transform="translate(0.900391 0.355469)"/>
</clipPath>
</defs>
</svg>
