<svg width="72" height="12" viewBox="0 0 72 12" fill="none" xmlns="http://www.w3.org/2000/svg">
<g clip-path="url(#clip0_2007_824)">
<path d="M42.9908 0V8.15094C42.9908 11.2075 43.6462 11.6604 43.6462 11.6604H43.7554V11.7736H42.0077L41.8985 11.6604C41.7892 11.5472 41.7892 11.3208 41.68 10.8679V10.6415V10.5283C41.1338 11.434 40.1508 11.8868 39.0585 12C38.9492 12 38.9492 12 38.84 12C38.1846 12 37.5292 11.7736 36.9831 11.5472C36.4369 11.2075 35.8908 10.6415 35.4538 9.96226C35.0169 9.28302 34.9077 8.49057 34.9077 7.69811C34.9077 6.67925 35.2354 5.66038 35.7815 4.86792C36.3277 4.07547 37.0923 3.50943 37.9662 3.28302C38.2938 3.16981 38.7308 3.16981 39.0585 3.16981C39.7138 3.16981 40.26 3.28302 40.6969 3.50943C41.0246 3.62264 41.3523 3.84906 41.68 4.18868V3.96226C41.68 3.0566 41.68 2.60377 41.68 2.26415C41.68 0.792453 40.9154 0.90566 40.9154 0.90566V0.792453C40.6969 0.792453 42.0077 0.566038 42.9908 0ZM38.9492 3.96226C38.5123 3.96226 37.9662 4.07547 37.6385 4.30189C36.9831 4.86792 36.5462 6 36.5462 7.69811C36.5462 8.60377 36.6554 9.28302 36.8738 9.73585C37.0923 10.1887 37.42 10.6415 37.7477 10.8679C38.1846 11.0943 38.5123 11.2075 38.84 11.2075C39.8231 11.2075 40.5877 10.7547 41.0246 9.73585C41.2431 9.16981 41.3523 8.49057 41.3523 7.4717C41.3523 6.11321 41.0246 4.41509 39.7138 3.96226C39.6046 3.96226 39.2769 3.96226 38.9492 3.96226ZM47.6877 12C46.1585 12 44.9569 11.2075 44.0831 9.73585C43.6462 9.0566 43.5369 8.26415 43.5369 7.35849C43.5369 6.79245 43.6462 6.11321 43.8646 5.43396C44.0831 4.75472 44.4108 4.18868 44.8477 3.84906C45.2846 3.50943 45.7215 3.16981 46.1585 2.9434C46.7046 2.71698 47.2508 2.60377 47.6877 2.60377C48.2338 2.60377 48.78 2.71698 49.3262 2.9434C49.8723 3.0566 50.5277 3.39623 50.9646 3.73585L51.0738 3.84906L50.2 5.66038H50.0908V5.54717C49.7631 4.07547 48.8892 3.39623 47.5785 3.39623C47.2508 3.39623 46.9231 3.50943 46.5954 3.62264C46.2677 3.73585 45.94 4.07547 45.7215 4.5283C45.5031 4.98113 45.2846 5.32075 45.2846 5.66038C45.1754 6.11321 45.0662 6.67924 45.0662 7.35849C45.0662 8.26415 45.1754 9.0566 45.5031 9.62264C45.94 10.6415 46.7046 11.2075 47.6877 11.2075C48.3431 11.2075 48.8892 10.9811 49.2169 10.6415C49.6538 10.3019 49.9815 9.84906 50.3092 9.16981L50.5277 8.71698L50.9646 9.73585V9.84906C50.7462 10.1887 50.5277 10.6415 50.3092 10.8679C50.0908 11.2075 49.7631 11.5472 49.2169 11.7736C48.6708 12 48.2338 12.1132 47.6877 12.1132C47.6877 12 47.6877 12 47.6877 12ZM29.4462 11.6604H27.8077H25.0769L24.9677 11.5472C24.8585 11.3208 24.7492 10.9811 24.64 10.5283C24.0938 11.434 23.1108 11.8868 22.0185 11.8868C20.8169 11.8868 19.8338 11.434 19.3969 10.6415C19.0692 10.0755 18.96 9.28302 18.96 8.37736V5.20755C18.96 4.75472 18.96 4.5283 18.8508 4.41509C18.8508 4.41509 18.7415 3.84906 18.1954 3.73585V3.62264H18.4138C18.96 3.62264 19.5062 3.28302 20.1615 2.9434L20.4892 2.71698L20.38 6.33962C20.38 6.79245 20.38 7.35849 20.38 7.92453C20.38 9.16981 20.5985 10.0755 21.0354 10.5283C21.3631 10.8679 21.8 11.0943 22.3462 11.0943C22.8923 11.0943 23.5477 10.7547 23.9846 10.3019C24.3123 9.84906 24.5308 8.71698 24.5308 7.4717V5.09434C24.5308 4.75472 24.5308 4.5283 24.4215 4.41509C24.3123 3.73585 23.7662 3.73585 23.7662 3.73585V3.62264C24.8585 3.50943 26.06 2.71698 26.06 2.71698L25.9508 3.16981C25.9508 3.39623 25.8415 3.62264 25.8415 3.96226C25.8415 3.96226 25.8415 4.07547 25.8415 4.18868C25.8415 4.41509 25.8415 4.64151 25.8415 4.98113C25.8415 5.54717 25.8415 6.11321 25.8415 6.56604C25.8415 6.90566 25.8415 7.35849 25.8415 7.69811V8.9434C25.8415 9.0566 25.8415 9.16981 25.8415 9.28302C25.8415 9.39623 25.8415 9.62264 25.8415 9.73585C25.8415 9.73585 25.9508 11.3208 26.3877 11.5472C26.4969 11.5472 26.6062 11.5472 26.6062 11.5472C26.9338 11.434 27.1523 10.5283 27.1523 9.73585V6C27.1523 5.32075 27.0431 4.86792 27.0431 4.64151C27.0431 4.64151 27.0431 3.73585 26.4969 3.73585V3.62264H26.6062C27.2615 3.39623 27.8077 3.16981 28.1354 2.9434L28.4631 2.71698V4.18868C28.7908 3.73585 29.1185 3.39623 29.4462 3.0566C29.8831 2.71698 30.4292 2.60377 30.9754 2.60377C32.1769 2.60377 33.16 3.0566 33.5969 4.07547C34.1431 4.75472 34.3615 5.66038 34.3615 6.90566V9.39623C34.3615 11.2075 34.9077 11.5472 34.9077 11.5472H35.1262V11.6604H32.1769V11.5472H32.2862C32.6138 11.434 32.8323 10.5283 32.8323 9.62264V6.90566C32.8323 5.77358 32.6138 4.98113 32.2862 4.5283C31.9585 3.96226 31.4123 3.73585 30.7569 3.73585C30.1015 3.73585 29.6646 4.07547 29.3369 4.64151C29.0092 5.20755 28.7908 6 28.6815 6.90566C28.6815 7.58491 28.6815 8.15094 28.6815 8.83019C28.6815 9.16981 28.6815 9.50943 28.6815 9.84906C28.7908 9.73585 28.7908 11.5472 29.4462 11.6604ZM14.2631 12C13.6077 12 12.9523 11.7736 12.2969 11.434C11.6415 11.0943 11.0954 10.5283 10.7677 9.84906C10.2215 9.16981 10.0031 8.26415 10.0031 7.35849C10.0031 6.45283 10.2215 5.54717 10.5492 4.86792C10.9862 4.07547 11.5323 3.50943 12.1877 3.16981C12.8431 2.83019 13.4985 2.60377 14.1538 2.60377C14.9185 2.60377 15.6831 2.83019 16.3385 3.28302C16.9938 3.73585 17.4308 4.30189 17.8677 4.98113C18.1954 5.66038 18.4138 6.45283 18.4138 7.24528C18.4138 8.15094 18.1954 8.9434 17.8677 9.62264C17.54 10.4151 16.8846 10.9811 16.3385 11.3208C15.6831 11.7736 14.9185 12 14.2631 12ZM14.2631 3.39623C13.7169 3.39623 13.28 3.50943 12.9523 3.84906C12.6246 4.07547 12.2969 4.5283 12.0785 5.20755C11.86 5.77358 11.7508 6.56604 11.7508 7.35849V7.4717C11.7508 9.96226 12.6246 11.3208 14.2631 11.3208C15.0277 11.3208 15.5738 10.9811 16.0108 10.4151C16.4477 9.62264 16.7754 8.60377 16.6662 7.35849C16.6662 6.33962 16.5569 5.43396 16.2292 4.64151C15.9015 3.84906 15.2462 3.39623 14.2631 3.39623ZM5.19692 6.90566C4.10462 6.56604 3.23077 6.33962 2.57538 5.88679C1.81077 5.43396 1.48308 4.86792 1.48308 3.73585C1.48308 3.73585 1.37385 1.58491 3.44923 0.566038C6.18 -0.679245 9.56615 1.58491 9.56615 1.58491L8.47385 3.50943H8.36461V3.39623C8.36461 2.83019 8.03692 2.49057 7.81846 2.15094C7.81846 2.15094 6.72615 1.01887 4.86923 1.13208C3.12154 1.35849 2.02923 4.07547 4.86923 4.86792C7.70923 5.66038 8.25538 5.88679 8.25538 5.88679C8.69231 6.11321 9.02 6.45283 9.23846 6.79245C9.45692 7.24528 9.67538 7.69811 9.67538 8.26415C9.67538 9.50943 9.12923 10.5283 8.25538 10.9811C7.38154 11.5472 6.28923 11.8868 5.19692 11.8868C5.19692 11.8868 2.57538 11.8868 0.5 10.4151L1.37385 7.69811C1.59231 9.84906 2.90308 10.5283 2.90308 10.5283C3.55846 10.9811 4.43231 11.2075 5.30615 11.2075C5.96154 11.2075 6.72615 10.9811 7.27231 10.6415C7.70923 10.3019 8.03692 9.73585 8.03692 9.0566C8.03692 8.71698 7.92769 8.49057 7.81846 8.15094C7.27231 7.35849 5.19692 6.90566 5.19692 6.90566ZM63.8538 11.6604L62.1062 11.7736C61.8877 11.6604 61.7785 10.7547 61.7785 10.7547C61.2323 11.6604 60.4677 12 59.3754 12C58.2831 12 57.5185 11.6604 56.8631 11.2075C56.3169 10.6415 55.9892 10.0755 55.9892 9.39623C55.9892 8.83019 56.2077 8.26415 56.5354 7.81132C56.8631 7.4717 57.4092 7.01887 58.2831 6.67924C59.1569 6.45283 60.14 6.33962 61.0138 6.33962H61.4508V6C61.4508 5.20755 61.3415 4.5283 61.0138 4.18868C60.6862 3.73585 60.14 3.39623 59.4846 3.39623C58.6108 3.39623 58.0646 3.62264 57.7369 4.07547C57.4092 4.5283 57.1908 5.20755 57.1908 5.43396H57.0815L56.2077 3.62264L56.3169 3.50943C57.4092 2.9434 58.5015 2.60377 59.5938 2.60377C59.5938 2.60377 63.0892 2.37736 62.8708 5.88679V9.28302C63.0892 9.39623 62.98 11.5472 63.8538 11.6604ZM61.3415 7.01887C60.3585 7.01887 59.4846 7.13208 58.8292 7.4717C58.1738 7.81132 57.8462 8.37736 57.8462 9.28302C57.8462 9.84906 57.9554 10.3019 58.2831 10.6415C58.6108 10.9811 59.0477 11.2075 59.5938 11.2075C60.14 11.2075 60.6862 10.9811 61.0138 10.6415C61.3415 10.3019 61.56 9.84906 61.6692 9.50943V9.39623C61.7785 8.9434 61.7785 8.26415 61.7785 7.69811V7.01887H61.3415ZM69.9708 3.62264H71.5L71.1723 4.41509H69.9708C69.9708 4.64151 69.9708 4.98113 69.9708 5.32075C69.9708 6 69.9708 7.01887 69.9708 7.92453C69.9708 8.71698 69.9708 9.39623 70.08 9.84906C70.08 9.84906 70.1892 11.434 70.9538 11.5472V11.6604H69.4246C69.0969 11.6604 68.8785 11.3208 68.7692 11.2075C68.5508 10.7547 68.4415 10.1887 68.4415 9.62264V7.58491C68.4415 6 68.4415 5.20755 68.4415 4.30189H67.3492L67.6769 3.50943H68.1138C68.7692 3.39623 68.9877 3.0566 69.2062 2.71698C69.4246 2.37736 69.5338 2.03774 69.6431 1.58491V1.4717H69.8615L69.9708 3.62264ZM66.8031 11.5472H66.9123V11.6604H63.8538V11.5472H63.9631C64.4 11.434 64.5092 10.9811 64.5092 10.4151C64.6185 9.28302 64.6185 7.13208 64.6185 4.41509H63.3077L63.6354 3.62264H64.6185C64.6185 -0.113207 68.2231 0.226415 68.2231 0.226415L67.6769 1.92453H67.5677L67.4585 1.81132C67.1308 1.4717 66.8031 1.35849 66.5846 1.35849C66.4754 1.35849 66.2569 1.35849 66.1477 1.81132C66.1477 2.15094 66.0385 2.37736 66.0385 2.9434C66.0385 2.9434 66.0385 3.0566 66.0385 3.16981C66.0385 3.28302 66.0385 3.39623 66.0385 3.50943H67.3492L67.1308 4.41509H66.0385C66.0385 7.81132 66.0385 10.0755 66.1477 10.4151C66.1477 10.4151 66.1477 11.434 66.8031 11.5472ZM53.4769 2.71698V3.0566C53.4769 3.50943 53.4769 3.96226 53.4769 4.30189C53.4769 4.30189 54.46 2.49057 56.3169 2.71698L55.6615 5.09434C55.6615 5.09434 54.8969 3.28302 54.0231 4.98113C53.6954 5.54717 53.5862 6.22641 53.5862 6.90566V9.28302C53.5862 9.28302 53.5862 11.434 54.2415 11.5472H54.46V11.6604H51.2923V11.5472H51.5108C51.9477 11.5472 52.1662 10.4151 52.1662 9.28302C52.1662 8.49057 52.1662 7.92453 52.1662 7.24528C52.1662 6.79245 52.1662 6.22641 52.1662 5.88679C52.1662 4.98113 52.0569 4.41509 52.0569 4.18868C51.9477 3.50943 51.5108 3.50943 51.5108 3.50943C51.4015 3.50943 52.9308 3.16981 53.4769 2.71698Z" fill="black"/>
</g>
<defs>
<clipPath id="clip0_2007_824">
<rect width="71" height="12" fill="white" transform="translate(0.5)"/>
</clipPath>
</defs>
</svg>
