<svg width="94" height="36" viewBox="0 0 94 36" fill="none" xmlns="http://www.w3.org/2000/svg">
<g clip-path="url(#clip0_2007_1076)">
<path d="M55.1046 1.55133C53.1244 6.60167 50.4454 11.2997 47.0674 15.5278C44.7378 12.5916 42.7577 9.42046 41.0104 6.01442C42.0588 5.89697 43.2236 5.77952 44.2719 5.66207C45.0873 7.30636 46.0191 8.83321 47.0674 10.2426C47.7663 9.18556 48.3487 8.24596 48.9311 7.18891C49.5135 6.13187 50.0959 5.07482 50.6784 4.01777C49.5135 3.90032 48.2323 3.90032 47.0674 3.90032C44.8543 3.90032 42.5247 4.01777 40.3116 4.37012C39.8456 3.43052 39.4962 2.49093 39.0303 1.43388C44.3884 0.729182 49.7465 0.729182 55.1046 1.55133Z" fill="#D42E12"/>
<path d="M39.6123 26.8031V24.689C41.1266 24.8064 42.2914 25.2762 43.3397 26.3333C44.388 27.3903 44.9704 28.7997 44.9704 30.3265C44.9704 31.8534 44.388 33.2628 43.3397 34.3198C42.2914 35.3769 41.1266 35.9641 39.6123 35.9641V33.85C40.4277 33.7326 41.1266 33.4977 41.709 32.793C42.2914 32.0883 42.6408 31.2661 42.6408 30.2091C42.6408 29.1521 42.2914 28.3299 41.709 27.6252C41.0101 27.1554 40.4277 26.8031 39.6123 26.8031Z" fill="#737373"/>
<path d="M38.9138 26.8031V24.689C37.3995 24.8064 36.2347 25.2762 35.1864 26.3333C34.1381 27.3903 33.5557 28.7997 33.5557 30.3265C33.5557 31.8534 34.1381 33.2628 35.1864 34.3198C36.2347 35.3769 37.3995 35.9641 38.9138 35.9641V33.85C38.0984 33.7326 37.3995 33.4977 36.8171 32.793C36.2347 32.0883 35.8853 31.2661 35.8853 30.2091C35.8853 29.1521 36.2347 28.3299 36.8171 27.6252C37.3995 27.1554 38.0984 26.8031 38.9138 26.8031Z" fill="#737373"/>
<path d="M78.4008 31.3835L77.236 28.5647L78.5173 25.6284L82.8271 35.8465H80.2645L79.2162 33.2626H75.2559L76.0712 31.3835H78.4008Z" fill="#737373"/>
<path d="M87.2532 29.8567L83.6423 24.8064H86.2048L88.5344 28.095L90.8641 24.8064H93.4266L89.8157 29.8567L94.009 35.8467H91.4465L88.5344 31.7359L85.5059 35.8467H82.9434L87.2532 29.8567Z" fill="#737373"/>
<path d="M71.1787 35.8467L75.8379 24.8064H78.1676L73.5083 35.8467H71.1787Z" fill="#737373"/>
<path d="M61.1614 28.3299V35.8467H58.9482V24.8064H61.1614L64.3064 29.3869L67.4513 24.8064H69.6645V35.8467H67.4513V28.3299L65.0052 31.8534H63.724L61.1614 28.3299Z" fill="#737373"/>
<path d="M28.0811 31.3836C29.1295 32.9104 30.1778 34.3198 31.2261 35.8466H28.6635C27.6152 34.3198 26.5669 32.9104 25.5186 31.3836V29.5044H27.4987C28.5471 29.5044 29.1295 29.0346 29.1295 28.2124C29.1295 27.3903 28.5471 26.9205 27.4987 26.9205H25.5186V24.9238H28.0811C29.8283 24.9238 31.3426 26.4507 31.3426 28.2124C31.3426 29.8567 29.8283 31.3836 28.0811 31.3836Z" fill="#737373"/>
<path d="M49.0468 28.7997V35.8467H46.9502V24.8064H48.8139L54.2885 31.8534V24.8064H56.5016V35.8467H54.6379L49.0468 28.7997Z" fill="#737373"/>
<path d="M22.6064 24.8064H24.8196V35.8467H22.6064V24.8064Z" fill="#737373"/>
<path d="M13.0549 31.0312V35.8467H10.8418V24.8064H13.0549V28.9171H17.9471V24.8064H20.1603V35.8467H17.9471V31.0312H13.0549Z" fill="#737373"/>
<path d="M3.38673 26.803H0.00878906V24.8064H9.09429V26.803H5.71635V35.8467H3.38673V26.803Z" fill="#737373"/>
</g>
<defs>
<clipPath id="clip0_2007_1076">
<rect width="94" height="35" fill="white" transform="translate(0.00878906 0.964111)"/>
</clipPath>
</defs>
</svg>
