<svg width="62" height="52" viewBox="0 0 62 52" fill="none" xmlns="http://www.w3.org/2000/svg">
<g clip-path="url(#clip0_2007_1566)">
<path d="M0.00878906 0.064209H62.0088V51.0642H0.00878906V0.064209Z" fill="#EAA954"/>
<path d="M17.3498 21.2543C17.2311 21.2543 17.2311 21.2543 17.1123 21.2543L16.6372 21.8529L16.8747 19.2191C16.8747 18.9797 16.756 18.7402 16.3996 18.7402C16.2809 18.7402 16.0433 18.8599 15.9245 18.9797L14.8556 21.0149L15.0931 17.1839C15.0931 16.8247 14.8556 16.4656 14.4993 16.4656C14.2617 16.4656 14.0242 16.5853 13.9054 16.8247L10.5797 22.3318C10.3422 22.8106 10.4609 23.2895 10.936 23.6487C11.4111 23.8881 11.8862 23.7684 12.1238 23.2895C12.1238 23.2895 12.1238 23.2895 12.1238 23.1698L13.5491 20.2966V23.0501C13.5491 23.4092 13.7866 23.6487 14.1429 23.6487C14.3805 23.6487 14.618 23.529 14.618 23.2895L15.687 21.2543V23.4092C15.687 23.6487 15.8058 23.7684 16.0433 23.7684C16.1621 23.7684 16.2809 23.6487 16.3996 23.529L17.1123 22.0923V22.9304L17.4686 21.4937C17.4686 21.374 17.4686 21.2543 17.3498 21.2543Z" fill="#1F1B1C"/>
<path d="M17.4688 29.3951V23.888H18.894V24.3669C19.3691 24.0077 19.8442 23.7683 20.3193 23.7683C21.032 23.7683 21.7446 24.1275 22.1009 24.6063C22.576 24.1275 23.1699 23.7683 24.0013 23.7683C24.714 23.7683 25.4266 24.1275 25.9017 24.6063C26.258 25.0852 26.4956 25.5641 26.4956 26.4021V29.3951H25.0703V26.4021C25.0703 25.9232 24.9515 25.6838 24.8327 25.4444C24.5952 25.2049 24.2389 25.0852 24.0013 25.0852C23.8825 25.0852 23.8825 25.0852 23.7638 25.0852C23.1699 25.2049 22.6948 25.8035 22.6948 26.4021V29.3951H21.2695V26.4021C21.2695 25.9232 21.1507 25.6838 21.032 25.4444C20.7944 25.2049 20.4381 25.0852 20.2006 25.0852H20.0818C19.3691 25.0852 18.894 25.6838 18.894 26.4021V29.3951H17.4688Z" fill="#1F1B1C"/>
<path d="M36.3532 23.7683C38.016 23.7683 39.2038 25.0852 39.2038 26.6416C39.2038 28.1979 37.8973 29.5148 36.3532 29.5148C34.8091 29.5148 33.5026 28.1979 33.5026 26.6416C33.3838 24.9655 34.6904 23.7683 36.3532 23.7683ZM36.3532 28.0782C37.1846 28.0782 37.7785 27.3599 37.7785 26.6416C37.7785 25.8035 37.1846 25.0852 36.3532 25.0852C35.5218 25.0852 34.9279 25.8035 34.9279 26.6416C34.9279 27.4796 35.5218 28.0782 36.3532 28.0782Z" fill="#1F1B1C"/>
<path d="M39.917 29.3951V23.888H41.3423V24.3669C41.8174 24.0077 42.2925 23.7683 42.8863 23.7683C43.599 23.7683 44.3116 24.1275 44.7867 24.6063C45.143 25.0852 45.3806 25.5641 45.3806 26.5218V29.3951H43.9553V26.5218C43.9553 25.9232 43.8365 25.6838 43.599 25.4444C43.3614 25.2049 43.1239 25.0852 42.7676 25.0852H42.6488C41.9362 25.0852 41.4611 25.6838 41.4611 26.4021V29.3951H39.917Z" fill="#1F1B1C"/>
<path d="M48.706 23.7683C50.3689 23.7683 51.5566 25.0852 51.5566 26.6416C51.5566 28.1979 50.2501 29.5148 48.706 29.5148C47.162 29.5148 45.8555 28.1979 45.8555 26.6416C45.8555 24.9655 47.0432 23.7683 48.706 23.7683ZM48.706 28.0782C49.5375 28.0782 50.1313 27.3599 50.1313 26.6416C50.1313 25.8035 49.5375 25.0852 48.706 25.0852C47.8746 25.0852 47.2808 25.8035 47.2808 26.6416C47.2808 27.4796 47.8746 28.0782 48.706 28.0782Z" fill="#1F1B1C"/>
<path d="M31.3647 23.888V24.3669C30.8896 24.0077 30.4145 23.7683 29.8207 23.7683C28.3954 23.7683 27.0889 24.9655 27.0889 26.6416C27.0889 27.3599 27.3264 28.0782 27.8015 28.557C28.2766 29.1556 29.108 29.5148 29.8207 29.5148C30.4145 29.5148 30.8896 29.3951 31.3647 28.9162V29.3951H32.79V23.888H31.3647ZM30.7709 27.8387C30.5333 27.9585 30.2958 28.0782 30.0582 28.0782C29.2268 28.0782 28.6329 27.3599 28.6329 26.5218C28.6329 26.043 28.8705 25.6838 29.108 25.3246C29.3456 25.0852 29.5831 24.9655 29.9394 24.9655C30.0582 24.9655 30.0582 24.9655 30.177 24.9655C30.4145 24.9655 30.6521 25.0852 30.8896 25.3246C31.246 25.5641 31.4835 26.043 31.4835 26.5218C31.3647 27.1204 31.1272 27.5993 30.7709 27.8387Z" fill="#1F1B1C"/>
</g>
<defs>
<clipPath id="clip0_2007_1566">
<rect width="62" height="51" fill="white" transform="translate(0.00878906 0.064209)"/>
</clipPath>
</defs>
</svg>
