<svg width="81" height="30" viewBox="0 0 81 30" fill="none" xmlns="http://www.w3.org/2000/svg">
<g clip-path="url(#clip0_2007_2334)">
<path d="M72.5269 29.1001H0.0234375L3.1563 3.97414C3.38008 1.7604 5.28218 0.100098 7.63183 0.100098H80.1353L77.0025 25.1154C76.6668 27.4398 74.7647 29.1001 72.5269 29.1001Z" fill="black"/>
<path d="M58.6529 19.3596L58.541 20.7985L50.8208 16.1497L50.3732 19.3596H46.2333L47.0166 13.0504H53.8417L53.9536 11.8329H47.1284L47.3522 9.61914H55.9676C57.3103 9.61914 58.2054 10.8367 58.2054 11.9436C58.2054 12.9398 57.6459 13.8252 56.8627 14.3787C56.3033 14.7107 55.2963 15.0428 55.2963 15.0428L58.8767 16.8138L59.7718 9.61914H70.1774L69.9536 11.8329H64.3592L64.2473 13.0504H69.8417L69.5061 15.4856H63.9117L63.7998 16.8138H69.3942L69.0585 19.4703L58.6529 19.3596ZM41.3103 9.72983L40.527 16.371H39.1844L39.9676 9.72983H35.1564L34.4851 14.7107C34.1494 17.9207 36.0515 19.8023 39.1844 19.8023H39.52C43.1005 19.581 45.1145 17.1459 45.4501 14.7107L46.1214 9.72983H41.3103ZM27.3242 13.1611L27.7718 9.84051H23.0725L21.8417 19.4703H26.541L26.9886 16.1497H28.4431L27.9956 19.4703H32.6949L33.9256 9.84051H29.2263L28.7788 13.1611H27.3242ZM18.0375 19.3596C20.1634 19.3596 21.3942 17.6993 21.3942 16.1497C21.3942 15.2642 21.0585 14.7107 20.1634 14.268C19.2683 13.8252 16.0235 12.497 14.569 11.8329H21.618L21.8417 9.61914H13.4501C11.8837 9.61914 10.6529 10.9474 10.6529 12.497C10.6529 13.3825 11.1005 14.268 12.1075 14.7107L16.9187 16.7031H10.0935L9.75781 19.3596H18.0375Z" fill="#B1FF33"/>
</g>
<defs>
<clipPath id="clip0_2007_2334">
<rect width="80" height="29" fill="white" transform="translate(0.0234375 0.100098)"/>
</clipPath>
</defs>
</svg>
