<svg width="96" height="14" viewBox="0 0 96 14" fill="none" xmlns="http://www.w3.org/2000/svg">
<g clip-path="url(#clip0_2007_1932)">
<path d="M69.5996 12.7732V10.6389H69.9996C70.3996 10.6389 70.4996 10.8329 70.4996 11.221C70.4996 11.415 70.4996 11.6091 70.1996 11.7061C70.4996 11.8031 70.4996 11.9971 70.4996 12.1912C70.4996 12.5792 70.2996 12.7732 69.8996 12.7732C69.9996 12.7732 69.5996 12.7732 69.5996 12.7732ZM69.8996 10.8329L69.7996 11.512C70.0996 11.512 70.0996 11.318 70.0996 11.124C70.1996 11.027 70.0996 10.8329 69.8996 10.8329ZM69.8996 12.4822C70.1996 12.4822 70.1996 12.3852 70.1996 12.0941C70.1996 11.9001 70.0996 11.7061 69.8996 11.7061V12.4822Z" fill="#2B2B2A"/>
<path d="M70.9992 11.3181L71.1992 12.2883L71.4992 11.3181H71.6992L71.0992 13.3554H70.7992L71.0992 12.6763L70.6992 11.3181H70.9992Z" fill="#2B2B2A"/>
<path d="M72.8 10.5418V12.0941C72.8 12.3851 72.9 12.3851 73 12.3851C73.2 12.3851 73.2 12.2881 73.2 12.0941V10.4448H73.5V11.9971C73.5 12.2881 73.5 12.6762 73 12.6762C72.5 12.6762 72.5 12.3851 72.5 11.9971V10.5418H72.8Z" fill="#2B2B2A"/>
<path d="M74.0994 12.7733H73.8994V10.3479H74.0994V12.7733Z" fill="#2B2B2A"/>
<path d="M74.6998 10.9299V11.318H74.8998V11.512H74.6998V12.7732H74.4998V11.512H74.2998V11.318H74.4998V10.9299H74.6998Z" fill="#2B2B2A"/>
<path d="M75 10.8329C75 10.7359 75.1 10.6389 75.2 10.6389C75.3 10.6389 75.4 10.7359 75.4 10.8329C75.4 10.93 75.3 11.027 75.2 11.027C75.1 11.027 75 10.93 75 10.8329ZM75.3 12.7732H75V11.318H75.3V12.7732Z" fill="#2B2B2A"/>
<path d="M75.8994 11.5121C75.9994 11.4151 76.0994 11.3181 76.1994 11.3181C76.2994 11.3181 76.3994 11.4151 76.4994 11.5121C76.5994 11.4151 76.6994 11.3181 76.7994 11.3181C77.0994 11.3181 77.0994 11.5121 77.0994 11.7062V12.8704H76.7994V11.9002C76.7994 11.8032 76.7994 11.7062 76.5994 11.7062C76.3994 11.7062 76.3994 11.9002 76.3994 11.9972V12.8704H76.0994V11.9002C76.0994 11.8032 76.0994 11.6092 75.8994 11.6092C75.6994 11.6092 75.6994 11.8032 75.6994 11.9002V12.7733H75.3994V11.3181H75.6994L75.8994 11.5121Z" fill="#2B2B2A"/>
<path d="M77.8992 12.5793C77.7992 12.6763 77.7992 12.7733 77.5992 12.7733C77.2992 12.7733 77.1992 12.2883 77.1992 11.9972C77.1992 11.8032 77.1992 11.3181 77.5992 11.3181C77.6992 11.3181 77.7992 11.4151 77.8992 11.5121V11.3181H78.1992V12.7733H77.8992V12.5793ZM77.8992 11.9972C77.8992 11.9002 77.8992 11.5121 77.6992 11.5121C77.4992 11.5121 77.4992 11.9002 77.4992 11.9972C77.4992 12.0942 77.4992 12.4823 77.6992 12.4823C77.8992 12.4823 77.8992 12.0942 77.8992 11.9972Z" fill="#2B2B2A"/>
<path d="M78.7994 10.9299V11.318H78.8994V11.512H78.7994V12.7732H78.4994V11.512H78.3994V11.318H78.4994V10.9299H78.7994Z" fill="#2B2B2A"/>
<path d="M79.2996 12.0941C79.2996 12.1911 79.2996 12.5792 79.4996 12.5792C79.5996 12.5792 79.6996 12.3851 79.6996 12.2881H79.9996C79.9996 12.5792 79.8996 12.7732 79.5996 12.7732C79.1996 12.7732 79.0996 12.3851 79.0996 11.9971C79.0996 11.706 79.0996 11.2209 79.4996 11.2209C79.8996 11.2209 79.9996 11.706 79.9996 11.9971H79.2996V12.0941ZM79.6996 11.9001C79.6996 11.803 79.6996 11.512 79.4996 11.512C79.2996 11.512 79.2996 11.803 79.2996 11.9001H79.6996Z" fill="#2B2B2A"/>
<path d="M81.4992 10.9301C81.3992 10.833 81.2992 10.833 81.1992 10.833C80.9992 10.833 80.8992 10.9301 80.8992 11.1241C80.8992 11.2211 80.8992 11.3181 80.9992 11.3181L81.1992 11.5121C81.3992 11.7062 81.4992 11.9002 81.4992 12.1912C81.4992 12.4823 81.2992 12.7733 80.9992 12.7733C80.8992 12.7733 80.7992 12.7733 80.6992 12.6763V12.3853C80.7992 12.4823 80.8992 12.4823 80.9992 12.4823C81.1992 12.4823 81.2992 12.3853 81.2992 12.1912C81.2992 11.8032 80.6992 11.7062 80.6992 11.1241C80.6992 10.833 80.8992 10.542 81.1992 10.542C81.2992 10.542 81.3992 10.542 81.4992 10.639V10.9301Z" fill="#2B2B2A"/>
<path d="M82.0994 11.3181V12.1912C82.0994 12.2883 82.0994 12.4823 82.2994 12.4823C82.4994 12.4823 82.4994 12.2883 82.4994 12.1912V11.3181H82.7994V12.2883C82.7994 12.5793 82.6994 12.7733 82.3994 12.7733C81.9994 12.7733 81.8994 12.5793 81.8994 12.1912V11.3181H82.0994Z" fill="#2B2B2A"/>
<path d="M83.1994 11.5121C83.2994 11.4151 83.2994 11.3181 83.4994 11.3181C83.7994 11.3181 83.8994 11.8032 83.8994 12.0942C83.8994 12.3853 83.8994 12.8704 83.4994 12.8704C83.3994 12.8704 83.2994 12.7733 83.1994 12.6763V13.4524H82.8994V11.4151H83.1994V11.5121ZM83.5994 11.9972C83.5994 11.9002 83.5994 11.5121 83.3994 11.5121C83.1994 11.5121 83.1994 11.9002 83.1994 11.9972C83.1994 12.0942 83.1994 12.4823 83.3994 12.4823C83.5994 12.4823 83.5994 12.2883 83.5994 11.9972Z" fill="#2B2B2A"/>
<path d="M84.3996 11.5121C84.4996 11.4151 84.4996 11.3181 84.6996 11.3181C84.9996 11.3181 85.0996 11.8032 85.0996 12.0942C85.0996 12.3853 85.0996 12.8704 84.6996 12.8704C84.5996 12.8704 84.4996 12.7733 84.3996 12.6763V13.4524H84.0996V11.4151H84.3996V11.5121ZM84.6996 11.9972C84.6996 11.9002 84.6996 11.5121 84.4996 11.5121C84.2996 11.5121 84.2996 11.9002 84.2996 11.9972C84.2996 12.0942 84.2996 12.4823 84.4996 12.4823C84.6996 12.4823 84.6996 12.2883 84.6996 11.9972Z" fill="#2B2B2A"/>
<path d="M85.1992 11.9971C85.1992 11.706 85.1992 11.2209 85.6992 11.2209C86.1992 11.2209 86.1992 11.609 86.1992 11.9971C86.1992 12.2881 86.1992 12.7732 85.6992 12.7732C85.1992 12.7732 85.1992 12.2881 85.1992 11.9971ZM85.7992 11.9971C85.7992 11.9001 85.7992 11.512 85.5992 11.512C85.3992 11.512 85.3992 11.9001 85.3992 11.9971C85.3992 12.0941 85.3992 12.4821 85.5992 12.4821C85.7992 12.4821 85.7992 12.0941 85.7992 11.9971Z" fill="#2B2B2A"/>
<path d="M86.5998 11.5121C86.6998 11.4151 86.7998 11.3181 86.8998 11.3181V11.6092C86.6998 11.6092 86.5998 11.7062 86.5998 11.9002V12.7733H86.2998V11.3181H86.5998V11.5121Z" fill="#2B2B2A"/>
<path d="M87.4 10.9299V11.318H87.6V11.512H87.4V12.7732H87.2V11.512H87V11.318H87.2V10.9299H87.4Z" fill="#2B2B2A"/>
<path d="M0.499905 6.66144C0.499905 6.66144 2.3999 6.66144 2.4999 6.66144C2.4999 6.66144 2.5999 6.66144 2.4999 6.75845C2.3999 7.7286 2.9999 7.92263 3.6999 7.92263H5.2999C5.9999 7.92263 6.9999 7.63159 7.5999 6.66144L10.8999 0.355469C10.8999 0.355469 14.6999 0.355469 14.8999 0.355469C15.0999 0.355469 15.0999 0.743528 14.8999 0.743528C13.1999 0.743528 12.1999 1.90771 11.9999 2.39278C11.8999 2.58681 9.7999 6.66144 9.7999 6.66144C8.7999 8.40771 7.4999 9.76592 5.5999 9.76592H2.8999C0.999905 9.76592 0.299905 8.21368 0.399905 7.43756C0.499905 6.85547 0.499905 6.66144 0.499905 6.66144Z" fill="#2B2B2A"/>
<path d="M16.3004 7.14649L12.5004 8.60171L11.9004 9.76589H9.40039L12.4004 4.04201C13.2004 2.58679 14.3004 1.81067 15.4004 1.81067H16.8004C17.3004 1.81067 18.5004 2.58679 18.6004 4.04201L18.7004 9.76589H16.2004L16.3004 7.14649ZM16.3004 5.30321C16.3004 5.30321 16.4004 3.65395 15.6004 3.65395C14.7004 3.65395 13.5004 6.37037 13.5004 6.37037L16.3004 5.30321Z" fill="#2B2B2A"/>
<path d="M56.9996 7.14649L53.1996 8.60171L52.5996 9.76589H50.0996L53.1996 4.04201C53.9996 2.58679 55.0996 1.81067 56.1996 1.81067H57.5996C58.0996 1.81067 59.2996 2.58679 59.3996 4.04201L59.4996 9.76589H56.9996V7.14649ZM57.0996 5.30321C57.0996 5.30321 57.1996 3.65395 56.3996 3.65395C55.4996 3.65395 54.2996 6.37037 54.2996 6.37037L57.0996 5.30321Z" fill="#2B2B2A"/>
<path d="M30.8996 1.81067C31.9996 1.81067 33.4996 2.48977 33.1996 4.13903L31.6996 9.76589H29.1996L30.4996 4.91515C30.5996 4.52709 30.5996 4.13903 30.4996 3.945C30.3996 3.75097 29.9996 3.65395 29.2996 3.65395H28.4996L26.8996 9.76589H24.3996L25.9996 3.65395H25.2996C24.6996 3.65395 24.2996 3.75097 23.9996 3.945C23.6996 4.13903 23.4996 4.43007 23.3996 4.91515L22.0996 9.76589H19.5996L21.0996 4.13903C21.3996 3.26589 22.2996 1.81067 24.6996 1.81067H29.1996H30.8996Z" fill="#2B2B2A"/>
<path d="M39.8002 0.355469C39.8002 0.355469 44.4002 0.355469 44.5002 0.355469C44.6002 0.355469 44.7002 0.743528 44.5002 0.743528C43.0002 0.743528 42.1002 1.61666 41.7002 2.19875C41.5002 2.19875 37.4002 2.19875 37.4002 2.19875C36.7002 2.19875 36.6002 2.97487 36.9002 3.1689L41.4002 5.49726C42.6002 6.17636 42.8002 7.0495 42.6002 7.92263C42.3002 9.08681 41.1002 9.6689 40.1002 9.6689H32.7002L33.2002 7.82562H39.7002C40.4002 7.82562 40.7002 7.24353 39.9002 6.85547L35.5002 4.62413C34.6002 4.13905 34.2002 3.07189 34.5002 2.29577C35.0002 1.2286 35.4002 0.355469 37.7002 0.355469H41.2002H39.8002Z" fill="#2B2B2A"/>
<path d="M89.0002 9.76589C89.0002 9.76589 81.0002 9.76589 80.7002 9.76589C81.5002 8.89276 81.7002 7.92261 81.7002 7.92261H88.2002C88.6002 7.92261 88.6002 7.63156 88.4002 7.53455L83.9002 5.78828C82.6002 5.20619 82.6002 4.04201 82.9002 3.26589C83.4002 2.10171 84.4002 1.81067 86.2002 1.81067H93.1002L92.6002 3.65395H85.7002C85.2002 3.65395 85.2002 4.04201 85.4002 4.13903L90.3002 6.07933C91.4002 6.5644 91.6002 6.95246 91.6002 7.53455C91.6002 8.5047 90.6002 9.76589 89.0002 9.76589Z" fill="#2B2B2A"/>
<path d="M46.4002 3.55694H42.7002C42.7002 3.55694 42.9002 3.07186 43.1002 2.6838C43.4002 2.0047 44.2002 1.81067 44.9002 1.81067C47.5002 1.81067 53.8002 1.81067 54.0002 1.81067C53.6002 2.0047 52.4002 3.65395 52.4002 3.65395H48.9002L47.3002 9.76589H44.8002L46.4002 3.55694Z" fill="#2B2B2A"/>
<path d="M69.9004 9.76592H67.4004L68.7004 4.91518C68.8004 4.52712 68.8004 4.13906 68.7004 3.94503C68.6004 3.751 68.2004 3.65398 67.5004 3.65398H66.1004C65.5004 3.65398 65.1004 3.751 64.8004 3.94503C64.5004 4.13906 64.3004 4.4301 64.2004 4.91518L62.9004 9.76592H60.4004L61.9004 4.13906C62.1004 3.45995 62.5004 2.87786 63.1004 2.4898C63.7004 2.10174 64.5004 1.90771 65.4004 1.90771H69.0004C70.1004 1.90771 70.8004 2.10174 71.1004 2.4898C71.4004 2.87786 71.5004 3.45995 71.3004 4.23607L69.9004 9.76592Z" fill="#2B2B2A"/>
<path d="M73.0004 1.81067H79.5004C81.7004 1.81067 82.1004 2.87783 81.8004 4.13903L80.9004 7.53455C80.8004 7.92261 80.7004 8.21365 80.5004 8.5047C80.3004 8.79574 80.1004 8.98977 79.8004 9.1838C79.5004 9.37783 79.2004 9.47485 78.8004 9.57186C78.4004 9.66888 78.0004 9.76589 77.4004 9.76589H70.9004L73.0004 1.81067ZM73.9004 7.92261H76.8004C77.1004 7.92261 77.4004 7.92261 77.6004 7.82559C77.8004 7.72858 78.0004 7.72858 78.1004 7.53455C78.2004 7.43753 78.3004 7.34052 78.4004 7.14649C78.5004 6.95246 78.6004 6.85545 78.6004 6.5644L79.1004 4.72112C79.2004 4.52709 79.2004 4.33306 79.2004 4.13903C79.2004 3.945 79.1004 3.84798 79.1004 3.75097C79.1004 3.65395 78.9004 3.55694 78.7004 3.45992C78.5004 3.36291 78.3004 3.36291 78.0004 3.36291H75.1004L73.9004 7.92261Z" fill="#2B2B2A"/>
<path d="M93.5 2.6838C93.6 2.19873 94 1.81067 94.6 1.81067C95.1 1.81067 95.4 2.19873 95.4 2.6838C95.3 3.16888 94.9 3.55694 94.3 3.55694C93.8 3.55694 93.5 3.16888 93.5 2.6838ZM95.1 2.6838C95.2 2.29574 94.9 2.0047 94.5 2.0047C94.1 2.0047 93.8 2.29574 93.7 2.6838C93.6 3.07186 93.9 3.36291 94.3 3.36291C94.7 3.36291 95.1 3.07186 95.1 2.6838ZM94.8 3.07186H94.6L94.4 2.6838H94.3L94.2 3.07186H94L94.1 2.19873H94.6C94.8 2.19873 95 2.19873 94.9 2.48977C94.9 2.6838 94.8 2.6838 94.6 2.78082L94.8 3.07186ZM94.6 2.58679C94.7 2.58679 94.8 2.58679 94.8 2.48977C94.8 2.29574 94.6 2.29574 94.5 2.29574H94.3V2.48977L94.6 2.58679Z" fill="#2B2B2A"/>
</g>
<defs>
<clipPath id="clip0_2007_1932">
<rect width="95" height="13" fill="white" transform="translate(0.400391 0.355469)"/>
</clipPath>
</defs>
</svg>
