<svg width="60" height="22" viewBox="0 0 60 22" fill="none" xmlns="http://www.w3.org/2000/svg">
<g clip-path="url(#clip0_2007_806)">
<path d="M40.585 3.90148L46.6179 9.86207L56.7093 0L40.585 3.90148Z" fill="#FFD503"/>
<path d="M0 6.50244H5.92322L8.44607 16.3645L10.8592 6.50244H16.4534V21.7832H12.9433V10.6207L9.87203 21.7832H6.47166L3.40037 10.5123V21.7832H0V6.50244Z" fill="black"/>
<path d="M27.5319 21.7832V14.7389C27.5319 13.6551 27.3125 12.5714 26.764 11.9211C25.7768 10.8374 23.9121 10.729 23.0346 10.729C21.2796 10.729 19.8536 11.1625 19.0858 12.0295C18.318 12.8965 18.318 13.7635 18.318 14.197H21.7183C21.7183 13.0049 22.3765 12.5714 23.0346 12.5714C24.1315 12.5714 24.2412 13.6551 24.2412 14.7389C20.1827 14.5221 17.7695 15.6059 17.7695 18.532C17.7695 20.3743 18.7567 21.7832 21.1699 21.7832C23.1443 21.7832 23.8024 20.8078 24.2412 20.0492V21.5664L27.5319 21.7832ZM24.2412 16.798C24.2412 17.2315 24.2412 18.0985 23.9121 18.7487C23.5831 19.6157 22.9249 19.7241 22.4862 19.7241C21.6087 19.7241 21.1699 19.0738 21.1699 18.3152C21.2796 16.798 22.7055 16.798 24.2412 16.798Z" fill="black"/>
<path d="M29.0674 11.1625H32.3581L32.4677 12.8965C33.1259 10.8374 34.9906 11.0542 35.8681 11.0542V14.5221C35.6487 14.5221 35.3197 14.5221 35.1003 14.4138C32.9065 14.4138 32.5774 16.1478 32.5774 17.2315V21.6749H29.0674V11.1625Z" fill="black"/>
<path d="M43.1081 11.1627V14.3055H40.8047V17.4484C40.8047 18.7489 40.8047 19.3991 42.2306 19.3991C42.5597 19.3991 42.7791 19.3991 43.1081 19.2908V21.7834C42.6694 21.8917 42.0112 22.0001 40.8047 22.0001C37.9527 22.0001 37.4043 20.9164 37.4043 18.8573V8.23657H40.9144V11.1627H43.1081Z" fill="black"/>
<path d="M44.7529 11.1626H48.263V21.7833H44.7529V11.1626Z" fill="black"/>
<path d="M50.0186 11.1625H53.4189V12.7882C53.8577 12.0295 54.6255 10.9458 56.5999 10.9458C60.11 10.9458 60.0003 13.8719 60.0003 15.3891V21.8916H56.4902V15.7143C56.4902 14.9557 56.4902 13.4384 55.0643 13.4384C53.5286 13.4384 53.5286 15.2808 53.5286 15.7143V21.8916H50.0186V11.1625Z" fill="black"/>
</g>
<defs>
<clipPath id="clip0_2007_806">
<rect width="60" height="22" fill="white"/>
</clipPath>
</defs>
</svg>
