<svg width="77" height="16" viewBox="0 0 77 16" fill="none" xmlns="http://www.w3.org/2000/svg">
<g clip-path="url(#clip0_2007_2362)">
<path d="M36.9014 15.7441H39.8943V5.81607L44.17 15.7441H48.2319V1.17578H45.3458V11.1038H45.2389L41.0701 1.17578H36.9014V15.7441Z" fill="#3E3D35"/>
<path d="M49.835 15.7441L54.5382 1.17578H58.6001L63.3033 15.7441H59.669L58.707 12.6146H54.1106L53.1486 15.7441H49.835ZM56.4622 4.19736L54.8589 9.91679H57.9587L56.4622 4.19736Z" fill="#3E3D35"/>
<path d="M64.6934 15.7441H68.007V9.16139L71.8551 15.7441H76.0239L71.1069 7.97434L75.7032 1.17578H71.7482L68.007 7.11103V1.17578H64.6934V15.7441Z" fill="#3E3D35"/>
<path d="M0.0234375 1.17578H3.97843C7.71964 1.17578 9.5368 2.68657 9.5368 5.92398C9.5368 8.83765 7.71964 10.6722 4.61978 10.6722H3.33708V15.7441H0.0234375V1.17578ZM3.33708 7.86643H4.19221C5.36802 7.86643 6.22316 7.43477 6.22316 5.81607C6.22316 4.30528 5.36802 3.87362 4.19221 3.87362H3.33708V7.86643Z" fill="#3E3D35"/>
<path d="M28.2433 0.852051C26.4261 0.852051 24.7158 1.71536 23.54 3.11824L25.0365 6.57148C25.571 5.27651 26.7468 4.19737 28.0295 4.19737C29.8467 4.19737 31.3431 5.92399 31.3431 7.86644C31.3431 10.2405 29.8467 12.0751 28.0295 12.0751C27.8157 12.0751 27.6019 12.0751 27.3881 11.9672L28.9915 15.7441C32.3052 15.3125 34.6568 12.2909 34.6568 7.97435C34.6568 3.87363 31.5569 0.852051 28.2433 0.852051Z" fill="#3E3D35"/>
<path d="M26.2122 12.291C27.9224 12.291 29.312 10.8881 29.312 9.16148C29.312 7.43486 27.9224 6.03198 26.2122 6.03198C24.5019 6.03198 23.1123 7.43486 23.1123 9.16148C23.1123 10.996 24.5019 12.291 26.2122 12.291Z" fill="#7CC03F"/>
<path d="M11.3535 15.7441H14.5603V9.48513H18.5153V15.7441H21.722V1.17578H18.5153V6.78729H14.5603V1.17578H11.3535V15.7441Z" fill="#3E3D35"/>
</g>
<defs>
<clipPath id="clip0_2007_2362">
<rect width="76" height="15" fill="white" transform="translate(0.0234375 0.852051)"/>
</clipPath>
</defs>
</svg>
