<svg width="81" height="13" viewBox="0 0 81 13" fill="none" xmlns="http://www.w3.org/2000/svg">
<g clip-path="url(#clip0_2007_2280)">
<path d="M7.70924 5.17896C7.38448 5.17896 7.16797 5.39034 7.16797 5.70741V7.08139C7.16797 7.39847 7.38448 7.60985 7.70924 7.60985H14.6375L25.0299 13.0001C25.2465 13.1058 25.6795 13.0001 25.7877 12.7887L26.4373 11.6261C26.5455 11.4147 26.4373 10.992 26.2207 10.8863L15.8283 5.49603C15.6118 5.39034 15.0705 5.28465 14.7458 5.28465L7.70924 5.17896Z" fill="#5B6FB2"/>
<path d="M59.2383 7.08139C59.2383 7.39847 59.4548 7.60985 59.7796 7.60985H79.4819C79.8066 7.60985 80.0231 7.39847 80.0231 7.08139V5.70741C80.0231 5.39034 79.8066 5.17896 79.4819 5.17896H59.7796C59.4548 5.17896 59.2383 5.39034 59.2383 5.70741V7.08139Z" fill="#5B6FB2"/>
<path d="M21.6743 7.29268C21.3496 7.29268 21.133 7.0813 21.133 6.76423V5.60163C21.133 5.28455 21.3496 5.07317 21.6743 5.07317H22.5404C22.8651 5.07317 23.0816 4.86179 23.0816 4.54472V2.95935C23.0816 2.64228 22.8651 2.43089 22.5404 2.43089H6.08568C5.76092 2.43089 5.54441 2.64228 5.54441 2.95935V12.4715C5.54441 12.7886 5.3279 13 5.00314 13H3.59583C3.27107 13 3.05456 12.7886 3.05456 12.4715V8.13821C3.05456 7.82114 2.83805 7.60976 2.51329 7.60976H0.564709C0.239946 7.60976 0.0234375 7.39837 0.0234375 7.0813V5.70732C0.0234375 5.39024 0.239946 5.17886 0.564709 5.17886H2.51329C2.83805 5.17886 3.05456 4.96748 3.05456 4.65041V1.05691C3.05456 0.528455 3.48758 0 4.1371 0H24.4889C25.0302 0 25.5715 0.422764 25.5715 1.05691V6.34146C25.5715 6.86992 25.1385 7.39837 24.4889 7.39837L21.6743 7.29268Z" fill="#5B6FB2"/>
<path d="M52.5269 12.4715C52.5269 12.7886 52.3104 13 51.9856 13H50.5783C50.2535 13 50.037 12.7886 50.037 12.4715V2.95935C50.037 2.64228 49.8205 2.43089 49.4958 2.43089H42.0262C41.7014 2.43089 41.4849 2.64228 41.4849 2.95935V7.0813C41.4849 7.39837 41.2684 7.60976 40.9437 7.60976H39.5363C39.3198 7.60976 38.9951 7.39837 38.9951 7.0813V2.95935C38.9951 2.64228 38.7786 2.43089 38.4538 2.43089H30.9842C30.6595 2.43089 30.443 2.64228 30.443 2.95935V12.4715C30.443 12.7886 30.2265 13 29.9017 13H28.4944C28.1696 13 27.9531 12.7886 27.9531 12.4715V1.05691C27.9531 0.528455 28.3861 0 29.0357 0H51.4443C51.9856 0 52.5269 0.422764 52.5269 1.05691V12.4715Z" fill="#5B6FB2"/>
<path d="M55.4497 13C54.9085 13 54.3672 12.5772 54.3672 11.9431V1.05691C54.3672 0.528455 54.8002 0 55.4497 0H76.9924C77.3171 0 77.5336 0.211382 77.5336 0.528455V1.90244C77.5336 2.21951 77.3171 2.43089 76.9924 2.43089H57.5066C57.1818 2.43089 56.9653 2.64228 56.9653 2.95935V10.0406C56.9653 10.3577 57.1818 10.5691 57.5066 10.5691H76.9924C77.3171 10.5691 77.5336 10.7805 77.5336 11.0976V12.4715C77.5336 12.7886 77.3171 13 76.9924 13H55.4497Z" fill="#5B6FB2"/>
</g>
<defs>
<clipPath id="clip0_2007_2280">
<rect width="80" height="13" fill="white" transform="translate(0.0234375)"/>
</clipPath>
</defs>
</svg>
