<svg width="92" height="10" viewBox="0 0 92 10" fill="none" xmlns="http://www.w3.org/2000/svg">
<g clip-path="url(#clip0_2007_1990)">
<path d="M18.1515 0.455566H6.52147C5.09322 0.455566 4.07304 0.755566 3.56295 1.85557C3.56295 1.95557 0.91048 6.95557 0.91048 7.05557C0.604426 7.75557 -0.517771 9.35557 2.03268 9.35557C2.1347 9.35557 13.8668 9.35557 13.8668 9.35557C13.8668 9.35557 14.5809 8.05557 14.4789 8.05557H3.35891L6.52147 1.65557C6.52147 1.65557 17.5394 1.75557 17.5394 1.65557L18.1515 0.455566Z" fill="black"/>
<path d="M6.41896 7.35537H14.6824L15.3965 5.95537H8.05125L9.37748 3.55537H16.6208L17.3349 2.25537H8.56134C7.43914 2.35537 7.03107 2.55537 6.41896 3.65537L5.5008 5.45537C4.99071 6.45537 4.48062 7.35537 6.41896 7.35537Z" fill="black"/>
<path d="M14.7852 9.35542L15.1932 8.05542C20.9062 7.65542 24.6809 0.65542 24.6809 0.55542H31.006C32.4343 0.55542 32.4343 1.35542 32.0262 2.15542L28.4556 9.35542H25.7011C25.7011 9.35542 26.8233 6.95542 26.8233 7.05542C26.8233 7.15542 21.8244 6.95542 21.8244 7.05542C20.6002 8.35542 17.1316 9.35542 14.7852 9.35542ZM23.5587 5.65542H27.4354L29.4757 1.55542C29.4757 1.65542 26.8233 1.45542 26.8233 1.55542C26.4152 2.65542 24.1708 5.25542 23.5587 5.65542Z" fill="black"/>
<path d="M44.166 9.25547L44.5741 7.95547C50.2871 7.55547 54.0618 0.555469 54.0618 0.355469C54.0618 0.455469 60.3869 0.355469 60.3869 0.355469C61.8151 0.355469 61.8151 1.15547 61.407 1.95547L57.8364 9.25547H55.0819L56.2041 6.95547C56.2041 7.05547 51.2053 6.95547 51.2053 6.95547C49.879 8.25547 46.5124 9.35547 44.166 9.25547ZM52.9396 5.65547H56.8162L58.8566 1.55547C58.8566 1.65547 56.2041 1.55547 56.2041 1.55547C55.694 2.65547 53.4496 5.25547 52.9396 5.65547Z" fill="black"/>
<path d="M29.373 9.25547H32.3316C32.4336 9.35547 35.3921 2.75547 35.3921 2.85547C35.4941 2.95547 39.2688 7.75547 39.2688 7.75547C40.1869 8.85547 42.6354 10.4555 44.1657 7.65547L47.8383 0.355469H44.8798C44.8798 0.455469 41.6152 6.75547 41.6152 6.75547L36.5143 0.455469H33.7598L29.373 9.25547Z" fill="black"/>
<path d="M58.7549 9.25547L63.1417 0.355469C63.1417 0.355469 74.6697 0.355469 74.6697 0.455469C75.6899 0.455469 76.506 0.655469 75.9959 1.75547C75.9959 1.75547 75.0778 3.45547 75.1798 3.45547C74.7717 4.45547 74.3636 4.85547 73.3434 4.85547C74.0576 5.05547 73.8535 5.85547 73.6495 6.25547L72.9354 7.35547C72.6293 7.85547 72.6293 7.95547 73.1394 8.05547C73.1394 8.15547 72.5273 9.35547 72.5273 9.35547C72.5273 9.35547 70.3849 9.25547 70.3849 9.35547C69.4668 9.45547 69.3647 8.45547 69.9769 7.45547L70.793 5.85547C71.0991 5.25547 71.4051 4.75547 70.589 4.75547H63.7538L61.5094 9.25547H58.7549ZM65.4881 1.45547L64.4679 3.55547H72.0172L73.0374 1.45547H65.4881Z" fill="black"/>
<path d="M73.3428 9.35547L77.7295 0.355469C77.7295 0.455469 91.502 0.355469 91.502 0.355469C91.502 0.455469 90.8899 1.55547 90.8899 1.65547C90.8899 1.75547 80.178 1.55547 80.178 1.65547C80.178 1.75547 79.2598 3.65547 79.2598 3.65547C79.2598 3.65547 87.3192 3.55547 87.3192 3.65547C87.3192 3.75547 86.8091 4.85547 86.8091 4.85547C86.8091 4.95547 78.7497 4.85547 78.7497 4.85547C78.7497 4.95547 77.2195 8.05547 77.2195 8.05547H87.9313L87.0132 9.35547H73.3428Z" fill="black"/>
</g>
<defs>
<clipPath id="clip0_2007_1990">
<rect width="91" height="9" fill="white" transform="translate(0.400391 0.355469)"/>
</clipPath>
</defs>
</svg>
