<svg width="39" height="35" viewBox="0 0 39 35" fill="none" xmlns="http://www.w3.org/2000/svg">
<g clip-path="url(#clip0_2007_2098)">
<path d="M12.25 25.3554L24.75 17.5554H16.05L12.25 25.3554Z" fill="#9E78B5"/>
<path d="M34.9496 20.7555L27.2496 4.85547C25.8496 1.95547 23.8496 0.355469 21.0496 0.355469C18.4496 0.355469 16.2496 2.05547 15.1496 4.15547L4.84961 25.3555H11.0496L19.4496 8.35547C19.7496 7.95547 20.2496 7.55547 20.8496 7.55547C21.4496 7.55547 22.0496 7.95547 22.3496 8.45547L29.3496 23.2555C29.8496 24.4555 30.8496 25.3555 32.2496 25.3555C33.9496 25.3555 35.2496 23.9555 35.2496 22.3555C35.3496 21.7555 35.2496 21.1555 34.9496 20.7555Z" fill="#783F98"/>
<path d="M3.54961 28.1555H4.54961L7.24961 34.3555H6.04961L5.44961 32.8555H2.54961L1.94961 34.3555H0.849609L3.54961 28.1555ZM5.14961 31.8555L4.04961 29.4555L2.94961 31.8555C3.04961 31.8555 5.14961 31.8555 5.14961 31.8555Z" fill="black"/>
<path d="M8.34961 28.1555H10.7496C12.1496 28.1555 13.0496 28.9555 13.0496 30.2555C13.0496 31.6555 11.9496 32.3555 10.6496 32.3555H9.44961V34.3555H8.34961V28.1555ZM10.6496 31.3555C11.4496 31.3555 11.9496 30.9555 11.9496 30.2555C11.9496 29.5555 11.4496 29.1555 10.6496 29.1555H9.44961V31.3555H10.6496Z" fill="black"/>
<path d="M13.9492 31.2554C13.9492 29.5554 15.2492 28.0554 17.1492 28.0554C19.0492 28.0554 20.3492 29.4554 20.3492 31.2554C20.3492 32.9554 19.0492 34.4554 17.1492 34.4554C15.2492 34.4554 13.9492 33.0554 13.9492 31.2554ZM19.2492 31.2554C19.2492 30.0554 18.3492 29.0554 17.1492 29.0554C15.9492 29.0554 15.0492 30.0554 15.0492 31.2554C15.0492 32.4554 15.9492 33.4554 17.1492 33.4554C18.3492 33.4554 19.2492 32.4554 19.2492 31.2554Z" fill="black"/>
<path d="M21.3496 31.2554C21.3496 29.5554 22.6496 28.0554 24.5496 28.0554C25.6496 28.0554 26.2496 28.3554 26.9496 28.8554L26.2496 29.6554C25.7496 29.2554 25.3496 29.0554 24.5496 29.0554C23.4496 29.0554 22.5496 30.0554 22.5496 31.2554C22.5496 32.5554 23.3496 33.4554 24.6496 33.4554C25.2496 33.4554 25.7496 33.2554 26.1496 32.9554V31.7554H24.5496V30.8554H27.1496V33.4554C26.5496 33.9554 25.6496 34.3554 24.5496 34.3554C22.6496 34.4554 21.3496 33.0554 21.3496 31.2554Z" fill="black"/>
<path d="M28.5498 28.1555H33.0498V29.1555H29.6498V30.7555H32.6498V31.7555H29.6498V33.3555H33.1498V34.3555H28.5498V28.1555Z" fill="black"/>
<path d="M34.3496 28.1555H38.9496V29.1555H35.4496V30.7555H38.5496V31.7555H35.4496V33.3555H38.9496V34.3555H34.3496V28.1555Z" fill="black"/>
</g>
<defs>
<clipPath id="clip0_2007_2098">
<rect width="38.1" height="34.1" fill="white" transform="translate(0.849609 0.355469)"/>
</clipPath>
</defs>
</svg>
