<svg width="118" height="69" viewBox="0 0 118 69" fill="none" xmlns="http://www.w3.org/2000/svg">
<g clip-path="url(#clip0_2007_718)">
<path d="M20.6964 49.9268C20.8357 51.4694 19.1642 61.9877 37.1321 65.4938C54.8214 68.9999 76.9678 59.7438 76.9678 59.7438H78.2214C78.2214 59.7438 58.7214 69.4207 38.9428 66.6158C19.0249 63.6707 19.9999 52.1707 19.9999 49.9268H20.6964Z" fill="#57AAE4"/>
<path d="M57.7463 59.7439C57.7463 59.7439 44.932 67.1769 35.3213 67.5976C25.8499 68.0183 17.632 64.6525 20.1392 49.7866H19.4427C19.4427 49.7866 17.3534 62.5488 24.5963 66.4756C31.9784 70.4025 41.4499 70.683 62.0642 59.7439H57.7463Z" fill="#57AAE4"/>
<path d="M12.2 28.3292V35.4817H3.84286V28.3292H0.5V44.5975H3.84286V37.0243H12.2V42.9146C12.2 43.3353 12.2 43.6158 12.3393 43.8963C12.4786 44.1768 12.6179 44.317 12.8964 44.4573C13.0357 44.5975 13.3143 44.5975 13.5929 44.7378C13.8714 44.7378 14.0107 44.7378 14.2893 44.7378C14.4286 44.7378 15.5429 44.7378 15.5429 44.7378V28.3292H12.2Z" fill="#2D5B85"/>
<path d="M77.9432 44.4573V28.3292H74.6004L68.054 40.3902L61.3683 28.3292H58.0254V44.5975H59.6968V31.9756L66.8004 44.5975H67.6361L74.4611 32.1158V42.9146C74.4611 43.3353 74.4611 43.6158 74.7397 43.8963C74.879 44.1768 75.0183 44.317 75.2968 44.4573C75.4361 44.5975 75.7147 44.5975 75.9932 44.7378C76.2718 44.7378 76.4111 44.7378 76.6897 44.7378L77.9432 44.4573Z" fill="#2D5B85"/>
<path d="M99.114 44.4574L90.7568 27.9086H89.6426L81.0068 44.4574H82.9568L85.6033 39.2683H91.7318L91.0354 37.7256H86.5783L89.364 32.2561L94.9354 43.1952C95.214 43.6159 95.4926 44.0366 95.7711 44.1769C96.0497 44.3171 96.4676 44.4574 97.0247 44.4574H99.114Z" fill="#2D5B85"/>
<path d="M116.525 28.3292C116.386 28.3292 116.386 28.3292 116.247 28.3292C116.107 28.3292 115.968 28.3292 115.968 28.4695C115.829 28.4695 115.829 28.6097 115.689 28.75C115.689 28.8902 115.55 29.0304 115.55 29.1707V39.689L104.407 28.3292H102.179V44.5975H104.129V32.2561L115.55 44.0365C115.968 44.4573 116.664 44.4573 117.222 44.4573H117.5V28.3292H116.525Z" fill="#2D5B85"/>
<path d="M81.0075 10.0976C73.486 9.39633 64.8503 10.378 59.1396 11.5C52.1753 12.9024 45.6289 14.8658 39.5003 17.6707C38.1075 18.2317 36.7146 18.9329 35.4611 19.6341C39.6396 16.4085 44.5146 13.3232 49.6682 10.6585C64.0146 3.2256 79.0575 0.560969 86.161 5.89024C88.111 7.43292 89.2253 9.25609 89.6432 11.5C86.161 10.6585 82.9575 10.2378 81.0075 10.0976ZM32.8146 21.7378C32.8146 21.7378 36.7146 19.4939 39.6396 18.2317C46.8825 15.1463 53.2896 13.3232 59.1396 12.2012C63.8753 11.2195 78.361 8.9756 89.7825 12.6219C89.9218 15.2866 89.2253 18.3719 87.8325 21.7378H92.4289C93.5432 19.3537 94.3789 16.9695 94.7968 14.7256C96.6075 15.7073 98.1396 16.8293 99.6718 18.2317C100.925 19.4939 102.318 21.5976 102.318 21.5976H104.407C104.407 21.5976 103.572 19.6341 101.482 17.5305C99.6718 15.7073 97.4432 14.3049 95.0753 13.1829C95.4932 8.9756 94.1003 5.32926 90.4789 2.80487C81.9825 -3.08537 64.9896 0.280481 49.5289 8.69512C42.5646 12.4817 36.1575 16.9695 31.0039 21.5976L32.8146 21.7378Z" fill="#57AAE4"/>
<path d="M28.3568 27.9086H27.3818L18.7461 44.4574H20.6961L26.964 32.2561L29.7497 37.7256H25.2925L24.4568 39.4086H30.5854L32.5354 43.3354C32.814 43.7561 33.0925 44.1769 33.3711 44.3171C33.6497 44.4573 34.0675 44.5976 34.6247 44.5976H36.714L28.3568 27.9086Z" fill="#2D5B85"/>
<path d="M43.2608 29.7317V35.9024H44.793C44.793 35.9024 46.3251 35.9024 47.3001 35.3414C48.2751 34.7804 48.9715 33.939 48.9715 32.6768C48.9715 31.4146 48.1358 30.4329 47.1608 30.0121C47.1608 30.0121 46.6037 29.7317 45.4894 29.7317C44.3751 29.7317 43.2608 29.7317 43.2608 29.7317ZM49.9465 43.1951L44.9323 37.0243H43.2608V44.4573H39.918V28.3292H46.0465C46.0465 28.3292 48.5537 28.3292 50.2251 29.1707C51.8965 30.0121 52.593 31.1341 52.593 32.6768C52.593 34.2195 51.618 35.9024 48.5537 36.8841L54.9608 44.5975H52.3144C52.3144 44.5975 51.7573 44.5975 51.2001 44.4573C50.643 44.0365 49.9465 43.1951 49.9465 43.1951Z" fill="#2D5B85"/>
<path d="M45.9073 50.4877L44.9323 52.5914H46.8823L45.9073 50.4877ZM47.9966 54.5548H47.5787L46.8823 53.0121H44.6537L43.9573 54.5548H43.6787L45.768 50.067H45.9073L47.9966 54.5548Z" fill="#201600"/>
<path d="M88.8072 50.7683C88.2501 50.4878 87.8322 50.3475 87.2751 50.3475C86.1608 50.3475 85.3251 51.189 85.3251 52.3109C85.3251 53.4329 86.1608 54.2744 87.2751 54.2744C87.8322 54.2744 88.2501 54.1341 88.8072 53.8536V54.2744C88.2501 54.5548 87.6929 54.6951 87.2751 54.6951C85.8822 54.6951 84.9072 53.7134 84.9072 52.4512C84.9072 51.0487 86.0215 50.2073 87.2751 50.2073C87.8322 50.2073 88.2501 50.3475 88.8072 50.628V50.7683Z" fill="#201600"/>
<path d="M92.1497 50.2073C91.0354 50.2073 90.1997 51.0487 90.1997 52.1707C90.1997 53.2926 91.0354 54.1341 92.1497 54.1341C93.264 54.1341 94.0997 53.2926 94.0997 52.1707C94.0997 51.189 93.264 50.2073 92.1497 50.2073ZM92.0104 54.5548C90.7569 54.5548 89.6426 53.5731 89.6426 52.3109C89.6426 51.0487 90.6176 50.067 92.0104 50.067C93.264 50.067 94.3783 51.0487 94.3783 52.3109C94.5176 53.5731 93.4033 54.5548 92.0104 54.5548Z" fill="#201600"/>
<path d="M99.3925 50.067H99.6711V54.5548H99.3925V50.4877L97.7211 52.5914L95.9104 50.4877V54.5548H95.6318V50.067H95.9104L97.7211 52.0304L99.3925 50.067Z" fill="#201600"/>
<path d="M101.343 52.0304H102.179C103.014 52.0304 103.293 51.6097 103.293 51.0487C103.293 50.628 103.014 50.067 102.179 50.067H101.343V52.0304ZM102.318 50.067C103.293 50.067 103.711 50.628 103.711 51.189C103.711 51.7499 103.432 52.4512 102.179 52.4512H101.343V54.5548H101.064V50.067H102.318Z" fill="#201600"/>
<path d="M105.8 50.4877L104.825 52.5914H106.775L105.8 50.4877ZM107.889 54.5548H107.471L106.775 53.0121H104.546L103.85 54.5548H103.571L105.661 50.067H105.8L107.889 54.5548Z" fill="#201600"/>
<path d="M112.764 54.5548H112.485L109.142 50.628V54.5548H108.725V50.067H109.142L112.485 53.9938V50.067H112.764V54.5548Z" fill="#201600"/>
<path d="M115.689 52.0304V54.5548H115.41V52.0304L113.6 50.067H114.017L115.55 51.7499L117.082 50.067H117.5L115.689 52.0304Z" fill="#201600"/>
<path d="M52.8715 53.2927C52.8715 53.433 52.8715 53.5732 52.8715 53.5732C52.8715 53.7135 52.7322 53.8537 52.4537 53.8537C52.1751 53.8537 52.0358 53.7134 52.0358 53.433V53.0122H50.7822V53.2927C50.7822 54.2744 51.6179 54.5549 52.4537 54.5549C53.2894 54.5549 53.9858 54.2744 53.9858 53.5732C53.9858 53.1525 53.9858 52.872 53.9858 52.872C53.8465 51.8903 52.0358 51.6098 52.0358 51.0488C52.0358 50.9086 52.0358 50.9086 52.0358 50.7683C52.0358 50.6281 52.1751 50.4878 52.4537 50.4878C52.7322 50.4878 52.8715 50.6281 52.8715 50.9086V51.1891H53.9858V50.9086C53.9858 49.9269 53.1501 49.7866 52.4537 49.7866C51.6179 49.7866 51.0608 50.0671 50.9215 50.7683C50.9215 50.9086 50.9215 51.1891 50.9215 51.3293C51.0608 52.4513 52.5929 52.7317 52.8715 53.2927Z" fill="#201600"/>
<path d="M67.4969 53.2927C67.4969 53.433 67.4969 53.5732 67.4969 53.5732C67.4969 53.7135 67.3576 53.8537 67.079 53.8537C66.8004 53.8537 66.6612 53.7134 66.6612 53.433V53.0122H65.5469V53.2927C65.5469 54.2744 66.3826 54.5549 67.2183 54.5549C68.054 54.5549 68.7504 54.2744 68.7504 53.5732C68.7504 53.1525 68.7504 52.872 68.7504 52.872C68.6112 51.8903 66.8004 51.6098 66.8004 51.0488C66.8004 50.9086 66.8004 50.9086 66.8004 50.7683C66.8004 50.6281 66.9397 50.4878 67.2183 50.4878C67.4969 50.4878 67.6362 50.6281 67.6362 50.9086V51.1891H68.7504V50.9086C68.7504 49.9269 67.9147 49.7866 67.2183 49.7866C66.3826 49.7866 65.8254 50.0671 65.6862 50.7683C65.6862 50.9086 65.6862 51.1891 65.6862 51.3293C65.6862 52.4513 67.2183 52.7317 67.4969 53.2927Z" fill="#201600"/>
<path d="M76.8287 53.7134L76.6894 50.067H77.8037V54.5548H76.2715L75.1573 50.7682V54.5548H74.043V50.067H75.7144L76.8287 53.7134Z" fill="#201600"/>
<path d="M56.6326 50.3475L55.9362 54.5548H54.6826L55.5183 50.067H57.6076L58.4433 54.5548H57.1898L56.6326 50.3475Z" fill="#201600"/>
<path d="M63.1783 50.3475L62.3426 54.5548H61.2283L60.3926 50.3475V54.5548H59.2783L59.4176 50.067H61.2283L61.7855 53.5731L62.3426 50.067H64.1533L64.2926 54.5548H63.1783V50.3475Z" fill="#201600"/>
<path d="M71.2568 53.8536C71.5353 53.8536 71.6746 53.7134 71.6746 53.5731V53.4329V50.067H72.7889V53.2926V53.5731C72.7889 54.4146 72.0925 54.6951 71.2568 54.6951C70.421 54.6951 69.7246 54.4146 69.7246 53.5731C69.7246 53.5731 69.7246 53.4329 69.7246 53.2926V50.067H70.8389V53.2926V53.4329C70.8389 53.7134 70.9782 53.8536 71.2568 53.8536Z" fill="#201600"/>
<path d="M80.5898 53.8536C80.8683 53.8536 81.0076 53.7133 81.0076 53.5731V53.4329V52.7316H80.5898V52.0304H82.1219V53.2926C82.1219 53.2926 82.1219 53.4329 82.1219 53.5731C82.1219 54.4146 81.2862 54.6951 80.5898 54.6951C79.754 54.6951 79.0576 54.4146 79.0576 53.5731C79.0576 53.4329 79.0576 53.4329 79.0576 53.2926V51.3292V51.0487C79.1969 50.2072 79.8933 49.9268 80.5898 49.9268C81.4255 49.9268 82.1219 50.2072 82.1219 51.0487C82.1219 51.189 82.1219 51.3292 82.1219 51.3292V51.4694H81.0076V51.189V51.0487C81.0076 50.9085 80.8683 50.7682 80.5898 50.7682C80.3112 50.7682 80.1719 51.0487 80.1719 51.0487V51.189V53.2926V53.4329C80.1719 53.5731 80.3112 53.8536 80.5898 53.8536Z" fill="#201600"/>
</g>
<defs>
<clipPath id="clip0_2007_718">
<rect width="117" height="69" fill="white" transform="translate(0.5)"/>
</clipPath>
</defs>
</svg>
