<svg width="33" height="362" viewBox="0 0 33 362" fill="none" xmlns="http://www.w3.org/2000/svg">
<line x1="5" y1="211" x2="33" y2="211" stroke="#686863"/>
<line x1="5" y1="201" x2="14" y2="201" stroke="#686863"/>
<line y1="181" x2="4" y2="181" stroke="#686863"/>
<line x1="5" y1="151" x2="33" y2="151" stroke="#686863"/>
<line x1="5" y1="161" x2="14" y2="161" stroke="#686863"/>
<line x1="5" y1="221" x2="14" y2="221" stroke="#50504B"/>
<line y1="241" x2="4" y2="241" stroke="#50504B"/>
<line x1="5" y1="141" x2="14" y2="141" stroke="#50504B"/>
<line y1="121" x2="4" y2="121" stroke="#50504B"/>
<line x1="5" y1="271" x2="33" y2="271" stroke="#3C3C38"/>
<line x1="5" y1="261" x2="14" y2="261" stroke="#3C3C38"/>
<line x1="5" y1="91" x2="33" y2="91" stroke="#3C3C38"/>
<line x1="5" y1="101" x2="14" y2="101" stroke="#3C3C38"/>
<line x1="5" y1="281" x2="14" y2="281" stroke="#3E3E39"/>
<line y1="301" x2="4" y2="301" stroke="#3E3E39"/>
<line x1="5" y1="81" x2="14" y2="81" stroke="#3E3E39"/>
<line y1="61" x2="4" y2="61" stroke="#3E3E39"/>
<line x1="5" y1="331" x2="33" y2="331" stroke="#2A292E"/>
<line x1="5" y1="321" x2="14" y2="321" stroke="#2A292E"/>
<line x1="5" y1="31" x2="33" y2="31" stroke="#2A292E"/>
<line x1="5" y1="41" x2="14" y2="41" stroke="#2A292E"/>
<line x1="5" y1="341" x2="14" y2="341" stroke="#252323"/>
<line y1="361" x2="4" y2="361" stroke="#252323"/>
<line x1="5" y1="21" x2="14" y2="21" stroke="#252323"/>
<line y1="1" x2="4" y2="1" stroke="#252323"/>
</svg>
